<svg xmlns="http://www.w3.org/2000/svg" style="border: 0 !important; clip: rect(0 0 0 0) !important; height: 1px !important; margin: -1px !important; overflow: hidden !important; padding: 0 !important; position: absolute !important; width: 1px !important;" class="root-svg-symbols-element">
  <defs>
      <linearGradient id="a" x1="-577.51" x2="-482.49" y1="340.74" y2="205.04" gradientTransform="translate(594 -208.9)" gradientUnits="userSpaceOnUse"><stop offset="0" stop-color="#ffb900"/><stop offset="1" stop-color="#9100eb"/></linearGradient>
<clipPath id="a" transform="translate(-.001)"><path fill="none" d="M0 0h276.43v97.889H0z"/></clipPath>
  </defs>
    <symbol id="acana" viewBox="0 0 570.9 193.2">
      <title>acana</title><path d="M65.8 121.6c-5.4 1.1-11.9 2.3-17.2 3.5-.6.1-1.1 0-.9-1.1s11.5-40.1 12-41.6 1-.9 1.1-.2 5.6 37.2 5.7 38.2-.4 1.1-.7 1.2m42.9 34.9l-6.9.5a1.1 1.1 0 0 1-1.1-1c-.1-.5-12.6-85.3-12.6-85.3a1.4 1.4 0 0 1 .8-1.7l8.5-3.6a1.5 1.5 0 0 0 1-1.2V36.6c0-.9-.6-1-1-.8a462.6 462.6 0 0 0-71.7 36 1.8 1.8 0 0 0-.9 1.6v19.9a.9.9 0 0 0 1.2.9l6.7-2.6c.2-.1.8-.2.5.5s-20.6 66-23.3 74.1a1.7 1.7 0 0 1-1.2.9l-6.4 1a1.1 1.1 0 0 0-.9 1s-.8 19.4-.9 20.5a1.1 1.1 0 0 0 1 1.2h41.4a1.2 1.2 0 0 0 1.3-1.2v-25.9a.8.8 0 0 0-1-1l-6.9.8a.7.7 0 0 1-.7-.9l4.4-13.8a1.8 1.8 0 0 1 1.3-1.1c1.1-.3 17.9-3.6 27.2-5.3a.9.9 0 0 1 1.1.8c.2.9 2.3 14.5 2.4 15.4a1 1 0 0 1-1 1.2l-6.1.8a1.3 1.3 0 0 0-1.2 1.3s.1 27 0 27.9a1.1 1.1 0 0 0 1.1 1.1h47.1a1.1 1.1 0 0 0 1.1-1.2c0-1-3.4-31.7-3.4-32.1a.9.9 0 0 0-1-1m80.5-33.9c-1.2 5.3-7.8 29.6-22.3 29.6-9.2 0-15.2-6.8-18.5-12.4s-10-27.9-6-48.9 14.2-38.6 28.4-38.6c12.4 0 17.8 18.7 19 23.5a1.3 1.3 0 0 0 1.4 1l24.9-3a1.3 1.3 0 0 0 1.3-1.2c0-.2.8-66.5.9-67.4a1.3 1.3 0 0 0-1.3-1.3c-7.2.9-20.2 2.9-21.5 3.2a1.4 1.4 0 0 0-1.2 1.4s-.9 11.1-.8 11.8-.4 1.1-1.2.5a41.3 41.3 0 0 0-11.8-6.4h-.1l-1-.3h-.2l-1.2-.3h-.2l-2.6-.6h-6a32.4 32.4 0 0 0-14.8 3.9h-.1l-2 1.1-1.8.6-.3.2-3.1 2.2a72 72 0 0 0-17.4 19.6c-6.3 10.7-13.5 27.3-16.7 49.5s-2.4 42.4 6.4 62.4 24.8 39.9 47.8 39.9 33.3-16.7 41.7-33.3c7.2-14.2 10.6-33 11.4-38.1a.9.9 0 0 0-.9-1.3l-28.8 1.7a1.5 1.5 0 0 0-1.4 1m97.8-31h-15.7a.9.9 0 0 1-1-1.2c.2-1.2 8.5-47.7 8.5-48.2s.8-.8.9 0l8.3 48.2s.3 1.2-1.2 1.2m46.3 58.8h-6.3a1.1 1.1 0 0 1-1-1l-18-107.9a.9.9 0 0 1 1-1.2h9.3a1.1 1.1 0 0 0 1-1.2V2.9c0-.4.1-1.3-1.4-1.4-9.8-.6-22.3-.8-32.3-.8-13.3 0-29-.3-42.1.7a1.3 1.3 0 0 0-1.3 1.2v35.8a1.1 1.1 0 0 0 1 1.1l8.9.8a.9.9 0 0 1 1 1.1c-.1.6-19.9 107.4-20 108.2a1.2 1.2 0 0 1-1.2 1l-6.9.2a.9.9 0 0 0-1 1.1c0 .3-4.3 37.7-4.3 37.7a1 1 0 0 0 1.2 1.1h47.7a1.1 1.1 0 0 0 1.2-1.1v-38.4a.8.8 0 0 0-.8-1h-7.8a.7.7 0 0 1-.7-.9l5-24.8s0-.8 1.2-.8h25a1.2 1.2 0 0 1 1.2 1.1l3 24.2a.8.8 0 0 1-.8 1.1h-8.1a.9.9 0 0 0-.9.9v38.4a1.2 1.2 0 0 0 1.4 1.3H333a1.3 1.3 0 0 0 1.4-1.3v-37.7a1.2 1.2 0 0 0-1.3-1.2m74.8-133.6v31.4a1.4 1.4 0 0 0 1 1.5l7.2 1.8a1.2 1.2 0 0 1 1 1.3v50.8a.51.51 0 0 1-1 .2c-.3-1.1-29.7-91.8-29.7-91.8a2.1 2.1 0 0 0-1.6-1.4c-12.6-2.5-28.7-6.2-41.7-7.8a1.1 1.1 0 0 0-1.5 1v34a1.2 1.2 0 0 0 1.3 1.4l10.2 2.1a1 1 0 0 1 .9 1.2v107.2a1.1 1.1 0 0 1-1.2 1.1l-7.4-.2a1.1 1.1 0 0 0-1.1 1.2v37.4a1.3 1.3 0 0 0 1.4 1.3h43.6a1.5 1.5 0 0 0 1.4-1.4v-35.8a1.1 1.1 0 0 0-1.1-1.3l-7.2-.3a1 1 0 0 1-1.1-1.2v-64s.4-1.9 1 0l35.2 102.5a2.3 2.3 0 0 0 2.2 1.7h30.2a1.3 1.3 0 0 0 1.3-1.1v-32.6a1.3 1.3 0 0 0-1.2-1.4l-4-.3a1 1 0 0 1-1.2-1.2V60a.8.8 0 0 1 1.1-1l7.5 1.7a.9.9 0 0 0 1.2-1V31.4a1.9 1.9 0 0 0-1.2-1.9q-21.5-7.6-44.1-13.4c-1.4-.4-1.4.7-1.4.7m111.2 107.1c-5.1-1.1-11.2-2.2-16.4-3.2-1.7-.3-1.1-2.1-1.1-2.1s6.2-35.9 6.2-36.2a.6.6 0 0 1 1.2 0l11.2 40.1s.7 1.8-1 1.4m48.1 43.9c-2.3-.3-2.9-.6-5.2-.9a1.9 1.9 0 0 1-1.6-1.4L538.6 93c-.4-.9.2-1.2.7-1l6.3 2.9a.8.8 0 0 0 1.2-.9V76.2a2.3 2.3 0 0 0-1-2c-21.6-13.8-46.6-25.9-71.2-36.1a.806.806 0 0 0-1.4.8v25.4a1.5 1.5 0 0 0 .8 1.4l8.6 3.9a1.4 1.4 0 0 1 .6 1.4l-13.4 84.9a1.2 1.2 0 0 1-1.4 1l-6.2-.5c-1.3-.2-1.3 1.3-1.3 1.3v31.6a1.3 1.3 0 0 0 1.4 1.4h40.8a1.4 1.4 0 0 0 1.4-1.4v-27.8a1.3 1.3 0 0 0-1.2-1.5l-7.5-.9a.8.8 0 0 1-1-1.1l2.8-15.6a1.1 1.1 0 0 1 1.4-1q13.9 2.4 27.3 5.1a1.8 1.8 0 0 1 1.6 1.4l4.3 13.8s.5 1.3-.6 1.1l-6.4-.7a1 1 0 0 0-1 1.1v26.3c0 .9.6 1.1 1.5 1.1h43.4a1.3 1.3 0 0 0 1.4-1.3c0-.4-1.7-19.9-1.7-19.9a1.6 1.6 0 0 0-1.4-1.7" fill="#c9c8c8"/><path d="M65.8 121.6c-5.4 1.1-11.9 2.3-17.2 3.5-.6.1-1.1 0-.9-1.1s11.5-40.1 12-41.6 1-.9 1.1-.2 5.6 37.2 5.7 38.2-.4 1.1-.7 1.2m42.9 34.9l-6.9.5a1.1 1.1 0 0 1-1.1-1c-.1-.5-12.6-85.3-12.6-85.3a1.4 1.4 0 0 1 .8-1.7l8.5-3.6a1.5 1.5 0 0 0 1-1.2V36.6c0-.9-.6-1-1-.8a462.6 462.6 0 0 0-71.7 36 1.8 1.8 0 0 0-.9 1.6v19.9a.9.9 0 0 0 1.2.9l6.7-2.6c.2-.1.8-.2.5.5s-20.6 66-23.3 74.1a1.7 1.7 0 0 1-1.2.9l-6.4 1a1.1 1.1 0 0 0-.9 1s-.8 19.4-.9 20.5a1.1 1.1 0 0 0 1 1.2h41.4a1.2 1.2 0 0 0 1.3-1.2v-25.9a.8.8 0 0 0-1-1l-6.9.8a.7.7 0 0 1-.7-.9l4.4-13.8a1.8 1.8 0 0 1 1.3-1.1c1.1-.3 17.9-3.6 27.2-5.3a.9.9 0 0 1 1.1.8c.2.9 2.3 14.5 2.4 15.4a1 1 0 0 1-1 1.2l-6.1.8a1.3 1.3 0 0 0-1.2 1.3s.1 27 0 27.9a1.1 1.1 0 0 0 1.1 1.1h47.1a1.1 1.1 0 0 0 1.1-1.2c0-1-3.4-31.7-3.4-32.1a.9.9 0 0 0-1-1" fill="#c9c8c8"/><path d="M65.8 121.6c-5.4 1.1-11.9 2.3-17.2 3.5-.6.1-1.1 0-.9-1.1s11.5-40.1 12-41.6 1-.9 1.1-.2 5.6 37.2 5.7 38.2-.4 1.1-.7 1.2zm42.9 34.9l-6.9.5a1.1 1.1 0 0 1-1.1-1c-.1-.5-12.6-85.3-12.6-85.3a1.4 1.4 0 0 1 .8-1.7l8.5-3.6a1.5 1.5 0 0 0 1-1.2V36.6c0-.9-.6-1-1-.8a462.6 462.6 0 0 0-71.7 36 1.8 1.8 0 0 0-.9 1.6v19.9a.9.9 0 0 0 1.2.9l6.7-2.6c.2-.1.8-.2.5.5s-20.6 66-23.3 74.1a1.7 1.7 0 0 1-1.2.9l-6.4 1a1.1 1.1 0 0 0-.9 1s-.8 19.4-.9 20.5a1.1 1.1 0 0 0 1 1.2h41.4a1.2 1.2 0 0 0 1.3-1.2v-25.9a.8.8 0 0 0-1-1l-6.9.8a.7.7 0 0 1-.7-.9l4.4-13.8a1.8 1.8 0 0 1 1.3-1.1c1.1-.3 17.9-3.6 27.2-5.3a.9.9 0 0 1 1.1.8c.2.9 2.3 14.5 2.4 15.4a1 1 0 0 1-1 1.2l-6.1.8a1.3 1.3 0 0 0-1.2 1.3s.1 27 0 27.9a1.1 1.1 0 0 0 1.1 1.1h47.1a1.1 1.1 0 0 0 1.1-1.2c0-1-3.4-31.7-3.4-32.1a.9.9 0 0 0-.9-1.1z" fill="none" stroke="#fff" stroke-linecap="round" stroke-linejoin="round" stroke-width="1.15"/><path d="M189.1 122.7c-1.2 5.3-7.8 29.6-22.3 29.6-9.2 0-15.2-6.8-18.5-12.4s-10-27.9-6-48.9 14.2-38.6 28.4-38.6c12.4 0 17.8 18.7 19 23.5a1.3 1.3 0 0 0 1.4 1l24.9-3a1.3 1.3 0 0 0 1.3-1.2c0-.2.8-66.5.9-67.4a1.3 1.3 0 0 0-1.3-1.3c-7.2.9-20.2 2.9-21.5 3.2a1.4 1.4 0 0 0-1.2 1.4s-.9 11.1-.8 11.8-.4 1.1-1.2.5a41.3 41.3 0 0 0-11.8-6.4h-.1l-1-.3h-.2l-1.2-.3h-.2l-2.6-.6h-6a32.4 32.4 0 0 0-14.8 3.9h-.1l-2 1.1-1.8.6-.3.2-3.1 2.2a72 72 0 0 0-17.4 19.6c-6.3 10.7-13.5 27.3-16.7 49.5s-2.4 42.4 6.4 62.4 24.8 39.9 47.8 39.9 33.3-16.7 41.7-33.3c7.2-14.2 10.6-33 11.4-38.1a.9.9 0 0 0-.9-1.3l-28.8 1.7a1.5 1.5 0 0 0-1.4 1" fill="#c9c8c8"/><path d="M189.1 122.7c-1.2 5.3-7.8 29.6-22.3 29.6-9.2 0-15.2-6.8-18.5-12.4s-10-27.9-6-48.9 14.2-38.6 28.4-38.6c12.4 0 17.8 18.7 19 23.5a1.3 1.3 0 0 0 1.4 1l24.9-3a1.3 1.3 0 0 0 1.3-1.2c0-.2.8-66.5.9-67.4a1.3 1.3 0 0 0-1.3-1.3c-7.2.9-20.2 2.9-21.5 3.2a1.4 1.4 0 0 0-1.2 1.4s-.9 11.1-.8 11.8-.4 1.1-1.2.5a41.3 41.3 0 0 0-11.8-6.4h-.1l-1-.3h-.2l-1.2-.3h-.2l-2.6-.6h-6a32.4 32.4 0 0 0-14.8 3.9h-.1l-2 1.1-1.8.6-.3.2-3.1 2.2a72 72 0 0 0-17.4 19.6c-6.3 10.7-13.5 27.3-16.7 49.5s-2.4 42.4 6.4 62.4 24.8 39.9 47.8 39.9 33.3-16.7 41.7-33.3c7.2-14.2 10.6-33 11.4-38.1a.9.9 0 0 0-.9-1.3l-28.8 1.7a1.5 1.5 0 0 0-1.4 1z" fill="none" stroke="#fff" stroke-linecap="round" stroke-linejoin="round" stroke-width="1.15"/><path d="M286.9 91.7h-15.7a.9.9 0 0 1-1-1.2c.2-1.2 8.5-47.7 8.5-48.2s.8-.8.9 0l8.3 48.2s.3 1.2-1.2 1.2m46.3 58.8h-6.3a1.1 1.1 0 0 1-1-1l-18-107.9a.9.9 0 0 1 1-1.2h9.3a1.1 1.1 0 0 0 1-1.2V2.9c0-.4.1-1.3-1.4-1.4-9.8-.6-22.3-.8-32.3-.8-13.3 0-29-.3-42.1.7a1.3 1.3 0 0 0-1.3 1.2v35.8a1.1 1.1 0 0 0 1 1.1l8.9.8a.9.9 0 0 1 1 1.1c-.1.6-19.9 107.4-20 108.2a1.2 1.2 0 0 1-1.2 1l-6.9.2a.9.9 0 0 0-1 1.1c0 .3-4.3 37.7-4.3 37.7a1 1 0 0 0 1.2 1.1h47.7a1.1 1.1 0 0 0 1.2-1.1v-38.4a.8.8 0 0 0-.8-1h-7.8a.7.7 0 0 1-.7-.9l5-24.8s0-.8 1.2-.8h25a1.2 1.2 0 0 1 1.2 1.1l3 24.2a.8.8 0 0 1-.8 1.1h-8.1a.9.9 0 0 0-.9.9v38.4a1.2 1.2 0 0 0 1.4 1.3H333a1.3 1.3 0 0 0 1.4-1.3v-37.7a1.2 1.2 0 0 0-1.3-1.2" fill="#c9c8c8"/><path d="M286.9 91.7h-15.7a.9.9 0 0 1-1-1.2c.2-1.2 8.5-47.7 8.5-48.2s.8-.8.9 0l8.3 48.2s.5 1.2-1 1.2zm46.3 58.8h-6.3a1.1 1.1 0 0 1-1-1L307.7 41.6a.9.9 0 0 1 1-1.2h9.3a1.1 1.1 0 0 0 1-1.2V2.9c0-.4.1-1.3-1.4-1.4-9.8-.6-22.3-.8-32.3-.8-13.3 0-29-.3-42.1.7a1.3 1.3 0 0 0-1.3 1.2v35.8a1.1 1.1 0 0 0 1 1.1l8.9.8a.9.9 0 0 1 1 1.1c-.1.6-19.9 107.4-20 108.2a1.2 1.2 0 0 1-1.2 1l-6.9.2a.9.9 0 0 0-1 1.1c0 .3-4.3 37.7-4.3 37.7a1 1 0 0 0 1.2 1.1h47.7a1.1 1.1 0 0 0 1.2-1.1v-38.4a.8.8 0 0 0-.8-1h-7.8a.7.7 0 0 1-.7-.9l5-24.8s0-.8 1.2-.8h25a1.2 1.2 0 0 1 1.2 1.1l3 24.2a.8.8 0 0 1-.8 1.1h-8.1a.9.9 0 0 0-.9.9v38.4a1.2 1.2 0 0 0 1.4 1.3H333a1.3 1.3 0 0 0 1.4-1.3v-37.7a1.2 1.2 0 0 0-1.3-1.2z" fill="none" stroke="#fff" stroke-linecap="round" stroke-linejoin="round" stroke-width="1.15"/><path d="M407.9 16.9v31.4a1.4 1.4 0 0 0 1 1.5l7.2 1.8a1.2 1.2 0 0 1 1 1.3v50.8a.51.51 0 0 1-1 .2c-.3-1.1-29.7-91.8-29.7-91.8a2.1 2.1 0 0 0-1.6-1.4c-12.6-2.5-28.7-6.2-41.7-7.8a1.1 1.1 0 0 0-1.5 1v34a1.2 1.2 0 0 0 1.3 1.4l10.2 2.1a1 1 0 0 1 .9 1.2v107.2a1.1 1.1 0 0 1-1.2 1.1l-7.4-.2a1.1 1.1 0 0 0-1.1 1.2v37.4a1.3 1.3 0 0 0 1.4 1.3h43.6a1.5 1.5 0 0 0 1.4-1.4v-35.8a1.1 1.1 0 0 0-1.1-1.3l-7.2-.3a1 1 0 0 1-1.1-1.2v-64s.4-1.9 1 0l35.2 102.5a2.3 2.3 0 0 0 2.2 1.7h30.2a1.3 1.3 0 0 0 1.3-1.1v-32.6a1.3 1.3 0 0 0-1.2-1.4l-4-.3a1 1 0 0 1-1.2-1.2V60a.8.8 0 0 1 1.1-1l7.5 1.7a.9.9 0 0 0 1.2-1V31.4a1.9 1.9 0 0 0-1.2-1.9q-21.5-7.6-44.1-13.4c-1.4-.4-1.4.7-1.4.7" fill="#c9c8c8"/><path d="M407.9 16.9v31.4a1.4 1.4 0 0 0 1 1.5l7.2 1.8a1.2 1.2 0 0 1 1 1.3v50.8a.51.51 0 0 1-1 .2c-.3-1.1-29.7-91.8-29.7-91.8a2.1 2.1 0 0 0-1.6-1.4c-12.6-2.5-28.7-6.2-41.7-7.8a1.1 1.1 0 0 0-1.5 1v34a1.2 1.2 0 0 0 1.3 1.4l10.2 2.1a1 1 0 0 1 .9 1.2v107.2a1.1 1.1 0 0 1-1.2 1.1l-7.4-.2a1.1 1.1 0 0 0-1.1 1.2v37.4a1.3 1.3 0 0 0 1.4 1.3h43.6a1.5 1.5 0 0 0 1.4-1.4v-35.8a1.1 1.1 0 0 0-1.1-1.3l-7.2-.3a1 1 0 0 1-1.1-1.2v-64s.4-1.9 1 0l35.2 102.5a2.3 2.3 0 0 0 2.2 1.7h30.2a1.3 1.3 0 0 0 1.3-1.1v-32.6a1.3 1.3 0 0 0-1.2-1.4l-4-.3a1 1 0 0 1-1.2-1.2V60a.8.8 0 0 1 1.1-1l7.5 1.7a.9.9 0 0 0 1.2-1V31.4a1.9 1.9 0 0 0-1.2-1.9q-21.5-7.6-44.1-13.4c-1.4-.4-1.4.8-1.4.8z" fill="none" stroke="#fff" stroke-linecap="round" stroke-linejoin="round" stroke-width="1.15"/><path d="M519.1 123.9c-5.1-1.1-11.2-2.2-16.4-3.2-1.7-.3-1.1-2.1-1.1-2.1s6.2-35.9 6.2-36.2a.6.6 0 0 1 1.2 0l11.2 40.1s.7 1.8-1 1.4m48.1 43.9c-2.3-.3-2.9-.6-5.2-.9a1.9 1.9 0 0 1-1.6-1.4L538.6 93c-.4-.9.2-1.2.7-1l6.3 2.9a.8.8 0 0 0 1.2-.9V76.2a2.3 2.3 0 0 0-1-2c-21.6-13.8-46.6-25.9-71.2-36.1a.806.806 0 0 0-1.4.8v25.4a1.5 1.5 0 0 0 .8 1.4l8.6 3.9a1.4 1.4 0 0 1 .6 1.4l-13.4 84.9a1.2 1.2 0 0 1-1.4 1l-6.2-.5c-1.3-.2-1.3 1.3-1.3 1.3v31.6a1.3 1.3 0 0 0 1.4 1.4h40.8a1.4 1.4 0 0 0 1.4-1.4v-27.8a1.3 1.3 0 0 0-1.2-1.5l-7.5-.9a.8.8 0 0 1-1-1.1l2.8-15.6a1.1 1.1 0 0 1 1.4-1q13.9 2.4 27.3 5.1a1.8 1.8 0 0 1 1.6 1.4l4.3 13.8s.5 1.3-.6 1.1l-6.4-.7a1 1 0 0 0-1 1.1v26.3c0 .9.6 1.1 1.5 1.1h43.4a1.3 1.3 0 0 0 1.4-1.3c0-.4-1.7-19.9-1.7-19.9a1.6 1.6 0 0 0-1.4-1.7" fill="#c9c8c8"/><path d="M519.1 123.9c-5.1-1.1-11.2-2.2-16.4-3.2-1.7-.3-1.1-2.1-1.1-2.1s6.2-35.9 6.2-36.2a.6.6 0 0 1 1.2 0l11.2 40.1s.6 1.9-1.1 1.4zm48.1 43.9c-2.3-.3-2.9-.6-5.2-.9a1.9 1.9 0 0 1-1.6-1.4L538.6 93c-.4-.9.2-1.2.7-1l6.3 2.9a.8.8 0 0 0 1.2-.9V76.2a2.3 2.3 0 0 0-1-2c-21.6-13.8-46.6-25.9-71.2-36.1a.806.806 0 0 0-1.4.8v25.4a1.5 1.5 0 0 0 .8 1.4l8.6 3.9a1.4 1.4 0 0 1 .6 1.4l-13.4 84.9a1.2 1.2 0 0 1-1.4 1l-6.2-.5c-1.3-.2-1.3 1.3-1.3 1.3v31.6a1.3 1.3 0 0 0 1.4 1.4h40.8a1.4 1.4 0 0 0 1.4-1.4v-27.8a1.3 1.3 0 0 0-1.2-1.5l-7.5-.9a.8.8 0 0 1-1-1.1l2.8-15.6a1.1 1.1 0 0 1 1.4-1q13.9 2.4 27.3 5.1a1.8 1.8 0 0 1 1.6 1.4l4.3 13.8s.5 1.3-.6 1.1l-6.4-.7a1 1 0 0 0-1 1.1v26.3c0 .9.6 1.1 1.5 1.1h43.4a1.3 1.3 0 0 0 1.4-1.3c0-.4-1.7-19.9-1.7-19.9a1.6 1.6 0 0 0-1.6-1.6z" fill="none" stroke="#fff" stroke-linecap="round" stroke-linejoin="round" stroke-width="1.15"/><path d="M559.4 82.7h1c.6 0 1.1-.1 1.1-.8s-.6-.7-1.1-.7h-.9v1.5zm-1.1-2.3h2.1c1.4 0 2.2.4 2.2 1.6a1.4 1.4 0 0 1-1.5 1.5l1.5 2.4h-1.2l-1.3-2.4h-.7v2.4h-1.1v-5.6zm2 6.7a3.9 3.9 0 1 0-3.7-3.9 3.8 3.8 0 0 0 3.7 3.9m0-8.9a5 5 0 1 1-5.1 5 4.9 4.9 0 0 1 5.1-5" fill="#c9c8c8"/>
    </symbol>
    <symbol id="app-icon" viewBox="0 0 23 30">
      <path fill-rule="evenodd" fill="#3252A6" d="M11.5 0C17.851 0 23 5.154 23 11.511c0 2.406-.738 4.64-2 6.488h.001l-.012.015c-.186.271-.382.533-.589.786l-8.099 10.805h-.002a1.06 1.06 0 0 1-1.658-.008l.003-.006-8.259-11.02.028-.006A11.468 11.468 0 0 1 0 11.511C0 5.154 5.149 0 11.5 0zm3.463 10.652c0 2.843 2.665 2.703 2.665.178 0-2.864-2.665-2.624-2.665-.178zm-4.078-2.839c0 2.844-2.665 2.703-2.665.178 0-2.863 2.665-2.624 2.665-.178zm-2.848 2.839c0 2.843-2.665 2.703-2.665.178 0-2.864 2.665-2.624 2.665-.178zm4.078-2.839c0 2.844 2.665 2.703 2.665.178 0-2.863-2.665-2.624-2.665-.178zm.253 8.626c1.331.317 3.362.671 3.362-1.341.036-.976-.85-1.528-1.705-2.028-1.068-.624-1.27-1.513-2.525-1.528-1.255.015-1.457.904-2.525 1.528-.854.5-1.741 1.052-1.705 2.028 0 2.012 2.031 1.658 3.362 1.341.434-.104.658-.155.868-.157.211.002.434.053.868.157z"/>
    </symbol>
    <symbol id="apple" viewBox="0 0 168 51">
      <path fill="#4E6EC3" fill-rule="evenodd" d="M5.148 0h157.013c2.844 0 5.148 2.283 5.148 5.1v40.8c0 2.817-2.304 5.1-5.148 5.1H5.148C2.305 51 0 48.717 0 45.9V5.1C0 2.283 2.305 0 5.148 0z"/><path fill="#FFF" fill-rule="evenodd" d="M127.466 14.629v.039c0 1.348.781 2.177 1.975 2.177.903 0 1.545-.453 1.723-1.105h.731c-.179 1.016-1.166 1.751-2.471 1.751-1.662 0-2.722-1.154-2.722-3.028 0-1.845 1.06-3.055 2.677-3.055 1.579 0 2.594 1.133 2.594 2.901v.32h-4.507zm1.902-2.575c-1.076 0-1.835.796-1.902 1.979h3.737c-.011-1.183-.747-1.979-1.835-1.979zm.676 19.445v.551h-7.743v.066c0 2.317 1.341 3.741 3.392 3.741 1.553 0 2.655-.779 2.961-1.899h1.256c-.307 1.747-2.003 3.009-4.246 3.009-2.856 0-4.676-1.984-4.676-5.202 0-3.171 1.82-5.25 4.6-5.25 2.712 0 4.456 1.946 4.456 4.984zm-4.476-3.874c-1.849 0-3.152 1.368-3.267 3.399h6.42c-.019-2.031-1.284-3.399-3.153-3.399zm-1.342-13.896c0-1.039-.647-1.669-1.673-1.669-1.088 0-1.835.763-1.835 1.895v3.47h-.736V9.104h.736v3.481h.016c.335-.74 1.06-1.177 2.025-1.177 1.316 0 2.209.873 2.209 2.205v3.812h-.742v-3.696zm-4.182 14.143c-.163-.076-.585-.152-.94-.152-1.466 0-2.405 1.14-2.405 2.792v6.342h-1.265V26.629h1.188v1.813h.039c.354-1.215 1.332-1.927 2.616-1.927.268 0 .604.057.767.104v1.253zm-2.861-11.911v-3.873h-.858v-.614h.858v-1.425h.737v1.425h1.204v.614h-1.204v3.845c0 .619.245.884.803.884.078 0 .385-.016.429-.022v.624c-.078.023-.418.039-.574.039-.993 0-1.395-.425-1.395-1.497zm-8.2 21.006c-2.836 0-4.686-2.041-4.686-5.231s1.85-5.221 4.686-5.221c2.837 0 4.696 2.031 4.696 5.221s-1.859 5.231-4.696 5.231zm0-9.332c-2.089 0-3.392 1.557-3.392 4.101 0 2.554 1.303 4.102 3.392 4.102 2.099 0 3.402-1.548 3.402-4.102 0-2.554-1.303-4.101-3.402-4.101zm2.844-13.923c0-1.05-.619-1.652-1.64-1.652-1.071 0-1.79.757-1.79 1.868v3.497h-.737v-5.951h.692v1.111h.022c.335-.74 1.049-1.177 2.019-1.177 1.322 0 2.17.84 2.17 2.188v3.829h-.736v-3.713zm-7.958 3.779c-1.651 0-2.727-1.188-2.727-3.044 0-1.857 1.076-3.039 2.727-3.039 1.651 0 2.733 1.182 2.733 3.039 0 1.856-1.082 3.044-2.733 3.044zm0-5.431c-1.216 0-1.974.906-1.974 2.387 0 1.486.758 2.387 1.974 2.387 1.221 0 1.98-.901 1.98-2.387s-.759-2.387-1.98-2.387zm-2.307 12.119v2.45h2.07v1.053h-2.07v6.608c0 1.064.422 1.519 1.38 1.519.134 0 .661-.028.738-.038v1.073c-.134.038-.719.067-.987.067-1.706 0-2.396-.732-2.396-2.573v-6.656h-1.476v-1.053h1.476v-2.45h1.265zm-9.117 4.88l1.495.38c2.779.693 3.949 1.747 3.949 3.655 0 2.402-1.955 3.978-5.012 3.978-2.895 0-4.926-1.586-5.07-3.94h1.313c.144 1.642 1.706 2.763 3.872 2.763 2.07 0 3.555-1.121 3.555-2.659 0-1.281-.891-2.041-2.942-2.554l-1.716-.436c-2.558-.646-3.699-1.719-3.699-3.523 0-2.212 2.013-3.788 4.734-3.788 2.693 0 4.668 1.576 4.744 3.75h-1.313c-.124-1.547-1.504-2.572-3.469-2.572-1.917 0-3.335 1.053-3.335 2.563 0 1.177.863 1.87 2.894 2.383zm4.371-12.899H96.8c-.346.806-1.11 1.331-2.086 1.331-1.506 0-2.571-1.226-2.571-3.044s1.059-3.039 2.554-3.039c.971 0 1.74.519 2.064 1.287h.016V9.104h.742v8.321h-.703V16.16zm-1.985-4.1c-1.149 0-1.935.956-1.935 2.387 0 1.436.786 2.387 1.935 2.387 1.154 0 1.952-.967 1.952-2.387 0-1.409-.798-2.387-1.952-2.387zm-4.885 4.227h-.017c-.323.724-1.137 1.204-2.057 1.204-1.2 0-2.014-.696-2.014-1.724 0-1.016.77-1.607 2.209-1.707l1.846-.121v-.509c0-.867-.552-1.37-1.523-1.37-.836 0-1.422.425-1.556 1.133h-.708c.061-1.045 1.009-1.785 2.27-1.785 1.377 0 2.253.763 2.253 1.961v4.056h-.703v-1.138zm-.033-1.757l-1.757.121c-1.01.067-1.545.453-1.545 1.122 0 .641.569 1.077 1.406 1.077 1.076 0 1.896-.723 1.896-1.663v-.657zm-8.11 2.961c-1.651 0-2.727-1.188-2.727-3.044 0-1.857 1.076-3.039 2.727-3.039 1.651 0 2.733 1.182 2.733 3.039 0 1.856-1.082 3.044-2.733 3.044zm0-5.431c-1.216 0-1.974.906-1.974 2.387 0 1.486.758 2.387 1.974 2.387 1.221 0 1.98-.901 1.98-2.387s-.759-2.387-1.98-2.387zM77.22 9.104h.736v8.321h-.736V9.104zm-1.615 4.608c0-1.05-.619-1.652-1.64-1.652-1.071 0-1.79.757-1.79 1.868v3.497h-.736v-5.951h.691v1.111h.023c.334-.74 1.048-1.177 2.019-1.177 1.321 0 2.169.84 2.169 2.188v3.829h-.736v-3.713zm-7.047 3.713l-1.506-4.956h-.017l-1.505 4.956h-.776l-1.712-5.951h.742l1.361 5.122h.016l1.506-5.122h.748l1.511 5.122h.017l1.361-5.122h.741l-1.712 5.951h-.775zm-2.16 9.09c2.607 0 4.399 2.107 4.399 5.221 0 3.124-1.783 5.231-4.38 5.231-1.658 0-2.951-.892-3.526-2.221h-.029v5.459h-1.265V26.629h1.198v2.117h.029c.546-1.301 1.935-2.231 3.574-2.231zm-.22 9.323c1.993 0 3.325-1.633 3.325-4.092 0-2.459-1.332-4.111-3.325-4.111-1.965 0-3.326 1.68-3.326 4.101 0 2.44 1.361 4.102 3.326 4.102zm-6.266-18.347c-1.651 0-2.728-1.188-2.728-3.044 0-1.857 1.077-3.039 2.728-3.039 1.65 0 2.732 1.182 2.732 3.039 0 1.856-1.082 3.044-2.732 3.044zm0-5.431c-1.216 0-1.975.906-1.975 2.387 0 1.486.759 2.387 1.975 2.387 1.221 0 1.979-.901 1.979-2.387s-.758-2.387-1.979-2.387zm-7.204 5.365h-2.649V9.452h2.649c2.41 0 3.815 1.464 3.815 3.984 0 2.525-1.4 3.989-3.815 3.989zm-.044-7.288h-1.841v6.603h1.841c1.98 0 3.084-1.183 3.084-3.299 0-2.121-1.104-3.304-3.084-3.304zm2.622 13.017l5.166 13.7h-1.38l-1.534-4.197h-5.807l-1.534 4.197h-1.389l5.175-13.7h1.303zm1.859 8.383l-2.482-6.779h-.057l-2.482 6.779h5.021zm17.075-2.791h.029c.546-1.301 1.936-2.231 3.575-2.231 2.606 0 4.398 2.107 4.398 5.221 0 3.124-1.782 5.231-4.379 5.231-1.658 0-2.952-.892-3.527-2.221h-.029v5.459h-1.265V26.629h1.198v2.117zm3.383 7.092c1.993 0 3.326-1.633 3.326-4.092 0-2.459-1.333-4.111-3.326-4.111-1.964 0-3.325 1.68-3.325 4.101 0 2.44 1.361 4.102 3.325 4.102z"/><path fill="none" stroke="#FFF" d="M31.014 15.597c3.679 0 6.032 3.496 6.032 3.496s-3.589 1.912-3.589 6.066c0 4.93 4.509 6.365 4.509 6.365s-3.559 8.292-7.556 8.292c-2.247 0-2.398-1.27-5.384-1.27-2.594 0-3.469 1.27-5.445 1.27-3.77 0-8.642-8.083-8.642-14.657 0-6.828 4.932-9.562 8.024-9.562 2.715 0 3.846 1.568 6.033 1.568 1.84 0 3.288-1.568 6.018-1.568zm-.634-6.964c.543 3.347-2.549 7.486-6.244 7.352-.543-4.259 3.439-7.127 6.244-7.352z"/>
    </symbol>
    <symbol id="arrow_left" viewBox="0 0 24 24">
      <title>keyboard_arrow_left</title><path fill="#3252a6" d="M15.422 16.078l-1.406 1.406-6-6 6-6 1.406 1.406-4.594 4.594z"/>
    </symbol>
    <symbol id="arrow_right" viewBox="0 0 24 24">
      <title>keyboard_arrow_right</title><path fill="#3252a6" d="M8.578 16.359l4.594-4.594-4.594-4.594 1.406-1.406 6 6-6 6z"/>
    </symbol>
    <symbol id="basket" viewBox="0 0 53 48">
      <path class="cls-1" d="M1.77 0a1.8 1.8 0 0 0 0 3.6h5.87c2.92 7.379 5.8 14.771 8.7 22.163l-2.67 6.543a1.882 1.882 0 0 0 .16 1.7 1.8 1.8 0 0 0 1.48.8h29.44a1.8 1.8 0 0 0 0-3.6H17.96l1.53-3.712 28.35-2.307a1.828 1.828 0 0 0 1.59-1.387l3.53-15.6A1.875 1.875 0 0 0 51.23 6H12.38l-1.91-4.875A1.811 1.811 0 0 0 8.83 0H1.77zM13.8 9.6H49l-2.74 12.112-26.85 2.176zM21.2 36a6 6 0 1 0 5.89 6 5.975 5.975 0 0 0-5.89-6zm17.66 0a6 6 0 1 0 5.89 6 5.966 5.966 0 0 0-5.89-6zM21.2 39.6a2.4 2.4 0 1 1-2.36 2.4 2.348 2.348 0 0 1 2.36-2.4zm17.66 0a2.4 2.4 0 1 1-2.35 2.4 2.35 2.35 0 0 1 2.35-2.4z"/>
    </symbol>
    <symbol id="cross" viewBox="0 0 17 16">
      <path fill-rule="evenodd" fill="#2CD9BC" d="M14.719 10h-4v4a2 2 0 0 1-4 0v-4h-4a2 2 0 1 1 0-4h4V2a2 2 0 1 1 4 0v4h4a2 2 0 0 1 0 4z"/>
    </symbol>
    <symbol id="eye" viewBox="0 0 18 18">
      <title>eye</title><path fill="#a6a6ac" d="M9 2C5.737 2 2.475 4.333 0 9c2.475 4.666 5.737 7 9 7s6.525-2.333 9-7c-2.475-4.666-5.737-7-9-7zm0 12c-2.373 0-4.779-1.808-6.703-5C4.221 5.808 6.628 4 9 4s4.779 1.808 6.703 5c-1.924 3.192-4.331 5-6.703 5z"/><path fill="#a6a6ac" d="M11 9a2 2 0 1 1-4 0 2 2 0 0 1 4 0z"/>
    </symbol>
    <symbol id="fb" viewBox="0 0 128 128">
      <title>fb</title><path d="M128 112a16 16 0 0 1-16 16H16a16 16 0 0 1-16-16V16A16 16 0 0 1 16 0h96a16 16 0 0 1 16 16v96z" fill="#3c579e"/><path d="M68.9 128V78.2H51.1V60.4h17.8V44c0-16.5 9.8-26.3 24.5-26.3a111.8 111.8 0 0 1 14.6 1v18.6H96.1c-8 0-9.5 4-9.5 9.6v13.5h20.6l-2.9 17.8H86.6V128H68.9z" fill="#fff"/>
    </symbol>
    <symbol id="googlePlay" viewBox="0 0 168 51">
      <path fill-rule="evenodd" fill="#4E6EC3" d="M5.839 0h157.013C165.695 0 168 2.283 168 5.1v40.8c0 2.817-2.305 5.1-5.148 5.1H5.839C2.995 51 .691 48.717.691 45.9V5.1C.691 2.283 2.995 0 5.839 0z"/><path fill-rule="evenodd" fill="#FFF" d="M144.742 41.318h-2.273l3.017-5.673-3.859-6.995h2.429l2.547 4.838 2.429-4.838h2.272l-6.562 12.668zm-6.444-4.974c-.353.408-1.136 1.166-2.625 1.166-2.644 0-4.192-2.254-4.192-4.566s1.489-4.527 4.212-4.527c.646 0 1.782.136 2.605 1.243v-1.01h1.998v8.588h-1.998v-.894zm-2.311-6.14c-1.47 0-2.429 1.244-2.429 2.779 0 1.457.881 2.74 2.429 2.74 1.528 0 2.429-1.186 2.429-2.76 0-1.845-1.176-2.759-2.429-2.759zm-8.502-7.247h1.998v14.281h-1.998V22.957zm-6.169 14.553c-.47 0-1.744-.155-2.645-1.263v5.071h-1.998V28.65h1.998v.933c.823-.972 1.94-1.166 2.625-1.166 2.253 0 4.192 1.748 4.192 4.508 0 2.817-2.135 4.585-4.172 4.585zm-.314-7.306c-1.253 0-2.448.952-2.448 2.779 0 1.457.842 2.74 2.448 2.74 1.509 0 2.41-1.244 2.41-2.779 0-1.788-1.195-2.74-2.41-2.74zm-14.827 5.519c.549 0 1.019-.195 1.371-.467.079-.058.568-.447.882-1.185l1.685.933c-.275.505-.667 1.049-1.137 1.457-1.057.933-2.448 1.049-3.016 1.049-1.998 0-4.192-1.379-4.192-4.508 0-2.759 1.625-4.585 4.172-4.585 1.548 0 2.664.66 3.291 1.574.529.777.803 1.981.803 3.128v.311h-6.19c.039 1.574 1.273 2.293 2.331 2.293zm1.802-3.925c-.235-.991-1.018-1.594-1.998-1.594-.96 0-1.763.642-2.017 1.594h4.015zm-10.205-8.841h1.998v14.281h-1.998V22.957zM91.034 41.59c-1.978 0-3.722-1.01-4.231-3.167h1.998c.274.758.921 1.38 2.253 1.38 2.116 0 2.292-1.691 2.292-2.39v-1.127c-.353.427-1.136 1.224-2.625 1.224-2.645 0-4.192-2.215-4.192-4.566 0-2.293 1.469-4.527 4.231-4.527.666 0 1.744.155 2.586 1.166v-.933h1.998v8.219c0 .894.02 2.079-.823 3.148-1.195 1.515-2.879 1.573-3.487 1.573zm-.019-11.386c-1.469 0-2.41 1.244-2.41 2.74 0 1.535.901 2.779 2.41 2.779 1.567 0 2.448-1.205 2.448-2.721 0-1.904-1.195-2.798-2.448-2.798zM80.34 37.51c-2.625 0-4.623-1.923-4.623-4.547 0-2.642 1.998-4.546 4.623-4.546s4.623 1.904 4.623 4.546c0 2.624-1.998 4.547-4.623 4.547zm0-7.306c-1.215 0-2.547.778-2.547 2.779 0 1.962 1.313 2.74 2.547 2.74 1.234 0 2.546-.778 2.546-2.74 0-2.001-1.332-2.779-2.546-2.779zM69.528 37.51c-2.625 0-4.623-1.923-4.623-4.547 0-2.642 1.998-4.546 4.623-4.546s4.623 1.904 4.623 4.546c0 2.624-1.998 4.547-4.623 4.547zm0-7.306c-1.215 0-2.547.778-2.547 2.779 0 1.962 1.313 2.74 2.547 2.74 1.234 0 2.546-.778 2.546-2.74 0-2.001-1.332-2.779-2.546-2.779zM56.796 37.51c-2.194 0-3.761-.816-4.936-1.982-1.509-1.496-2.077-3.264-2.077-5.071s.608-3.614 1.959-5.013c1.626-1.69 3.644-2.079 5.172-2.079 2.057 0 3.428.777 4.172 1.302a6.038 6.038 0 0 1 1.509 1.476l-1.489 1.399c-.431-.621-1.704-2.234-4.192-2.234-2.899 0-4.937 2.196-4.937 5.149 0 3.012 2.214 5.11 4.878 5.11 2.174 0 3.761-1.477 4.094-3.458h-3.408v-1.944h5.641v.428c0 1.321-.156 2.837-1.234 4.352-.725 1.011-2.272 2.565-5.152 2.565zm39.636-19.7v-2.983c0-.513-.109-.894-.326-1.143-.218-.249-.554-.373-1.007-.373a1.75 1.75 0 0 0-.712.141 1.403 1.403 0 0 0-.533.401 1.229 1.229 0 0 0-.231.454c-.047.169-.07.464-.07.885v2.618h-.865v-5.064h.854v.78c.219-.324.484-.566.792-.725a2.321 2.321 0 0 1 1.071-.238c.603 0 1.073.159 1.412.476.338.318.508.758.508 1.323v3.448h-.893zm-5.914-.604a2.86 2.86 0 0 1-.912.609 2.79 2.79 0 0 1-3.021-.592 2.82 2.82 0 0 1-.603-.885 2.666 2.666 0 0 1-.206-1.046 2.658 2.658 0 0 1 .809-1.937 2.74 2.74 0 0 1 .898-.59 2.857 2.857 0 0 1 1.071-.202 2.773 2.773 0 0 1 1.964.803c.264.254.465.547.603.877.137.33.206.68.206 1.049 0 .369-.069.716-.206 1.043a2.614 2.614 0 0 1-.603.871zm-.664-3.273a1.736 1.736 0 0 0-1.3-.556c-.517 0-.955.185-1.314.556a1.88 1.88 0 0 0-.538 1.359c0 .535.18.987.541 1.358.361.371.798.556 1.311.556.51 0 .943-.185 1.3-.556.357-.371.536-.823.536-1.358 0-.535-.179-.988-.536-1.359zm-9.657.894c0-.513-.109-.894-.327-1.143-.217-.249-.553-.373-1.007-.373-.26 0-.497.047-.711.141a1.403 1.403 0 0 0-.533.401 1.214 1.214 0 0 0-.231.454c-.047.169-.07.464-.07.885v2.618h-.865v-5.064h.854v.78c.219-.324.483-.566.792-.725a2.321 2.321 0 0 1 1.071-.238c.603 0 1.073.159 1.412.476.338.318.507.758.507 1.323v3.448h-.892v-2.983zm-6.031-3.885a.626.626 0 0 1-.455-.183.606.606 0 0 1-.187-.453c0-.174.062-.322.187-.446a.624.624 0 0 1 .455-.185c.175 0 .324.063.449.188a.619.619 0 0 1 .187.454.601.601 0 0 1-.184.442.618.618 0 0 1-.452.183zm-5.78 6.868h-.893v-4.35h-.937v-.714h.937v-2.042h.893v2.042h.937v.714h-.937v4.35zm-6.388-2.325c0 .543.156.981.468 1.315.313.334.72.5 1.222.5.342 0 .651-.091.926-.274.276-.182.519-.458.731-.827l.664.443c-.256.457-.584.802-.982 1.035-.398.232-.859.348-1.383.348-.778 0-1.406-.254-1.886-.763s-.72-1.177-.72-2.004c0-.793.238-1.442.714-1.947.476-.506 1.088-.759 1.836-.759.755 0 1.353.24 1.794.72.44.479.661 1.134.661 1.964v.172h-4.045v.077zm3.107-.78c-.029-.446-.179-.79-.449-1.032-.269-.242-.639-.362-1.107-.362-.424 0-.778.126-1.06.379-.283.252-.447.591-.491 1.015h3.107zm-9.049 3.32c-.383 0-.749-.04-1.096-.121a4.043 4.043 0 0 1-.963-.355 3.875 3.875 0 0 1-1.551-1.513c-.364-.644-.546-1.375-.546-2.194 0-.675.108-1.285.326-1.829a3.99 3.99 0 0 1 .985-1.436 3.682 3.682 0 0 1 1.283-.786 4.706 4.706 0 0 1 1.618-.266c.785 0 1.465.141 2.042.424a3.632 3.632 0 0 1 1.434 1.275l-.815.648c-.294-.491-.66-.859-1.099-1.104-.439-.246-.948-.368-1.529-.368-.948 0-1.718.317-2.309.952-.592.634-.888 1.464-.888 2.49 0 .966.301 1.76.901 2.379.601.62 1.366.93 2.296.93.819 0 1.5-.246 2.045-.739.545-.492.847-1.133.907-1.923h-2.332v-.863h3.369v.271c0 1.277-.364 2.284-1.093 3.022-.729.737-1.724 1.106-2.985 1.106zm18.556-.215h-.881v-5.064h.881v5.064z"/><path fill-rule="evenodd" fill="#F3F4F6" d="M39.229 27.376L14.147 40.828a1.46 1.46 0 0 1-.689.175 1.47 1.47 0 0 1-.75-.209 1.449 1.449 0 0 1-.709-1.252v-27.08c0-.52.267-.988.713-1.253a1.447 1.447 0 0 1 1.443-.028l25.081 13.627c.478.26.764.741.763 1.286a1.441 1.441 0 0 1-.77 1.282zm-5.746 2.722l-4.116-3.852-14.55 13.863 18.666-10.011zM13.427 11.327a1.148 1.148 0 0 0-.554.154 1.13 1.13 0 0 0-.557.981v27.08a1.131 1.131 0 0 0 1.127 1.14l15.674-14.67-15.69-14.685zm15.941 14.451L33.404 22 14.787 11.884l14.581 13.894zm9.717-.692l-5.414-2.941-4.058 3.866 4.138 3.943 5.328-2.857c.376-.201.601-.577.603-1.003a1.127 1.127 0 0 0-.597-1.008z"/>
    </symbol>
    <symbol id="gruming" viewBox="0 0 15 16">
      <path fill-rule="evenodd" fill="#2CD9BC" d="M12.839 15.963c-1.652.161-3.12-1.038-3.279-2.676a2.956 2.956 0 0 1 .186-1.368l-1.714-1.688-1.716 1.691c.117.295.185.606.202.923.091 1.643-1.178 3.049-2.834 3.142a3.018 3.018 0 0 1-.903-.088 2.975 2.975 0 0 1-2.164-3.625c.412-1.595 2.049-2.559 3.657-2.153l1.611-1.997-2.333-2.297a4.752 4.752 0 0 1-1.36-2.601A3.345 3.345 0 0 1 3.457.025a.172.172 0 0 1 .226.029l8.107 10.059a3.06 3.06 0 0 1 1.231-.062 2.987 2.987 0 0 1 2.52 2.655c.159 1.638-1.051 3.097-2.702 3.257zm-9.328-4.269a1.32 1.32 0 0 0-1.323 1.313 1.315 1.315 0 0 0 1.321 1.311 1.32 1.32 0 0 0 1.323-1.313c0-.724-.591-1.31-1.321-1.311zm9.042-.007A1.32 1.32 0 0 0 11.23 13c0 .725.591 1.311 1.321 1.311a1.32 1.32 0 0 0 1.323-1.313c0-.725-.591-1.311-1.321-1.311zm-.036-5.854l-1.395 1.363-2.243-2.784L12.398.038a.173.173 0 0 1 .226-.029 3.336 3.336 0 0 1 1.26 3.208 4.768 4.768 0 0 1-1.367 2.616z"/>
    </symbol>
    <symbol id="hills" viewBox="0 0 290.4 238.2">
      <title>hills</title><path d="M284.9 31.6c-5.9-.2-11.8-.4-17.7-.2a260.9 260.9 0 0 0-37.2 3l-5.4.9a288.3 288.3 0 0 0-77.1 25.2l-5.4 2.7c-5.2 2.7-10.2 5.4-15.4 8.4-1.8 1.1-3.6 2-5.4 3.2-26.5 15.7-52 36.1-77.3 60.6-1.8 1.6-3.6 3.4-5.4 5.2l-10 10.7a3.9 3.9 0 0 0-.7.9c-1.6 1.6-3 3.2-4.6 5a.6.6 0 0 0-.5.5l6.3-5.7.5-.7 8.9-8.9c1.6-1.6 3.4-3.4 5.4-5.2q38.4-36.8 77.6-60.4c1.8-1.3 3.6-2.1 5.4-3.2 5.2-3 10.2-5.7 15.4-8.4l5.4-2.7a288.3 288.3 0 0 1 77.1-25.2c1.8-.2 3.6-.5 5.4-.9 4.6-.7 9.1-1.3 13.8-1.8a283.9 283.9 0 0 1 41.1-2.9" fill="#c3c3c3"/><path d="M284.9 31.6a283.9 283.9 0 0 0-41.1 2.9L230 37.2l-5.4 1.4v98.5h-77.1l-5.4 5.4h87.8v-103a323.8 323.8 0 0 1 41-6.3c6.4-.7 12.9-1.1 19.5-1.3l-5.5-.4" fill="#c3c3c3"/><path d="M224.6 38.6l5.4-1.4 13.8-2.7c-4.7.5-9.1 1.1-13.8 1.8-1.8.4-3.6.7-5.4.9a288.3 288.3 0 0 0-77.1 25.2l-5.4 2.7c-5.2 2.7-10.2 5.4-15.4 8.4-1.8 1.1-3.6 2-5.4 3.2q-39.2 23.6-77.6 60.4h77.6V81.7c1.8-1.1 3.6-2.3 5.4-3.2 5.2-3 10.2-5.7 15.4-8.6l5.4-2.7v69.9h77.1V38.6z" fill="#c3c3c3"/><path d="M142.2 72l5.4-4.8-5.4 2.7c-5.2 2.9-10.2 5.5-15.4 8.6-1.8.9-3.6 2.1-5.4 3.2v55.4H43.8c-2 1.8-3.8 3.6-5.4 5.2l-8.9 8.9-.5.7a2.7 2.7 0 0 1 .7-.7 117.3 117.3 0 0 1 10.6-8.8h86.6V80.3c5.2-2.9 10.2-5.7 15.4-8.2" fill="#c3c3c3"/><path fill="#c3c3c3" d="M147.5 67.2l-5.3 4.9v70.4l5.3-5.3v-70z"/><path d="M237 22.9c6.8-.5 13.8-.9 20.7-1.1a153.7 153.7 0 0 0-31.5 1.4h-.2a3.9 3.9 0 0 1-1.4.2C199 27 173.1 35.2 147.5 47.7c-1.8.7-3.6 1.6-5.4 2.5l-15.4 8.2-5.4 3.2Q82.7 84.7 44 120.4c-1.8 1.8-3.6 3.4-5.4 5s-4.6 4.7-7.2 7c-5.5 6.2-11.4 12.4-17.3 18.9l-.7.9c-1.4 1.6-2.9 3.2-4.3 5s-3.6 3.8-5.4 5.7a1.4 1.4 0 0 1-.7.7c-1.1 1.4-2.1 2.9-3 4.3 1.3-1.6 2.5-3 3.8-4.5s3.9-4.3 5.9-6.3 3.2-3.4 4.6-5l.7-.9c1.1-.9 2-2.1 3-3 4.5-4.8 8.9-9.3 13.6-13.9 2.3-2.3 4.7-4.6 7.2-7s3.6-3.2 5.4-5q38.6-36.2 77.3-59.2c1.8-1.1 3.6-2.1 5.4-3 5.2-3 10.2-5.7 15.4-8.4l5.4-2.7c25.6-12.5 51.5-20.7 77.1-24.5 1.8-.2 3.6-.5 5.4-.9s4.7-.4 7-.7" fill="#c3c3c3"/><path d="M257.7 21.8c-2.9-.2-5.7-.4-8.4-.7-6.6-.4-12.9-.4-19.3-.2h-5.4a216.2 216.2 0 0 0-77.1 19.7c-1.8.7-3.6 1.6-5.4 2.5-5.2 2.3-10.2 5-15.4 7.9-1.8 1.1-3.6 2.1-5.4 3Q82.1 77.3 44 116.4l-5.4 5.7c-8.6 9.1-17.2 18.8-25.6 29.1a1.8 1.8 0 0 0-.7.9 2.8 2.8 0 0 0-.9 1.1c-1.1 1.3-2.1 2.5-3.2 3.9s-3 3.8-4.6 5.5a1.8 1.8 0 0 1-.7.9 1.4 1.4 0 0 0 .7-.7c1.8-2 3.6-3.9 5.4-5.7s2.9-3.4 4.3-5l.7-.9c5.9-6.4 11.8-12.7 17.5-18.8 2.5-2.5 4.7-5.2 7.2-7.7s3.6-3.8 5.4-5.5q38.1-39.4 77.3-62.6c1.8-1.1 3.6-2.3 5.4-3.2a158.4 158.4 0 0 1 15.4-8c1.8-.9 3.6-1.8 5.4-2.5 25.4-11.6 51.1-18.2 77.1-19.5a4 4 0 0 1 1.4-.2h.2a153.6 153.6 0 0 1 31.4-1.4" fill="#c3c3c3"/><path d="M224.6 23.4c-25.9 1.3-51.7 7.9-77.1 19.5-1.8.7-3.6 1.6-5.4 2.5a158.2 158.2 0 0 0-15.4 8c-1.8.9-3.6 2.1-5.4 3.2Q82.1 79.7 44 119.2c-1.8 1.8-3.6 3.6-5.4 5.5s-4.6 5.2-7.2 7.7c2.5-2.3 4.8-4.7 7.2-7s3.6-3.2 5.4-5q38.6-35.7 77.3-58.8l5.4-3.2 15.4-8.2c1.8-.9 3.6-1.8 5.4-2.5C173.1 35.2 199 27 224.6 23.4m0-18L230 0h-87.8v34.2l5.3-6.8v-22h77.1z" fill="#c3c3c3"/><path d="M230 0l-5.4 5.4v5.9a210.3 210.3 0 0 0-77.1 16.1l-5.4 6.8 5.4-2.5a212 212 0 0 1 77.1-17.2h5.4V0z" fill="#c3c3c3"/><path d="M224.6 11.2V5.3h-77.1v22a210.3 210.3 0 0 1 77.1-16.1M121.4 39.7V5.3H44.2v93c25.4-24.9 51.1-44.5 77.3-58.7" fill="#c3c3c3"/><path d="M121.4 5.3v34.3C95.3 53.7 69.5 73.4 44.1 98.3L39 109.8c1.6-1.8 3.4-3.6 5.2-5.4q38.1-37.8 77.3-59.9l5.4-2.9V0z" fill="#c3c3c3"/><path fill="#c3c3c3" d="M121.4 5.4l5.4-5.4h-88v110l.2-.2 5.2-11.4v-93h77.2zm68 158.9l-22.9 3.9c4.7.4 7.2 3 7.3 8.6v50.3c0 5.9-2.5 8.9-7.3 8.9h30.4c-5 0-7.5-3-7.5-8.9v-62.8zm-56 4c4.8.4 7.3 3 7.5 8.6v50.3c0 5.9-2.5 8.9-7.5 8.9h30.4c-4.8 0-7.3-3-7.3-8.9v-62.9zm-17.5 10.5a8.7 8.7 0 0 0 5.9-2 6.3 6.3 0 0 0 2.3-5 6 6 0 0 0-2.3-4.8 9.8 9.8 0 0 0-5.9-2 9 9 0 0 0-5.9 2 5.7 5.7 0 0 0-2.5 4.8 6 6 0 0 0 2.5 5 8.2 8.2 0 0 0 5.9 2m-24.5-3.9c0-5.9 2.5-8.8 7.5-8.9H68.5c4.8.2 7.3 3 7.3 8.9V191H43.5v-16.1c0-5.9 2.7-8.8 7.5-8.9H20.6c5 .2 7.5 3 7.5 8.9v52.2c0 5.9-2.5 8.9-7.5 8.9H51c-4.8 0-7.5-3-7.5-8.9v-30h32.4v30c0 5.9-2.5 8.9-7.3 8.9h30.3c-5 0-7.5-3-7.5-8.9v-52.2zm32.2 52.2v-40.2l-22.9 4.1c4.7.2 7.2 2.9 7.3 8.2v27.9c0 5.9-2.5 8.9-7.3 8.9h30.4c-5 0-7.5-3-7.5-8.9m78.1-60.8a6.2 6.2 0 0 0-2.1 4.3 4 4 0 0 0 .9 2.7 13.8 13.8 0 0 1 1.4 1.8c1.4 2.7.9 5.4-1.4 8-.7.9-.9 1.3-.5 1.6a1.2 1.2 0 0 0 .9.5 2.4 2.4 0 0 0 1.3-.5c4.1-2.9 7.3-5.5 9.1-7.9s3-4.5 2.9-6.4a5.6 5.6 0 0 0-2-4.1 8.8 8.8 0 0 0-5.4-1.8 8.1 8.1 0 0 0-5 1.8m44.1 22.3a51.4 51.4 0 0 0-9.1-1.8c-3.4-.2-7.3-.4-11.6-.4a43.2 43.2 0 0 0-11.3 1.4 22.6 22.6 0 0 0-9.5 4.8 9.3 9.3 0 0 0-3.6 7.2c0 2.9 1.4 5.5 4.5 7.7s8.4 4.6 16.5 7 13.2 4.5 15.2 6.1a7.2 7.2 0 0 1 2.7 5.7c0 2.1-1.4 3.8-3.6 4.8a24.1 24.1 0 0 1-9.1 1.8c-3.9-.2-7.2-.5-10.2-.9s-5.2-1.4-6.8-3-3.8-4.1-5.9-8a7.1 7.1 0 0 0-2.7.4.9.9 0 0 0-.5.9 86.5 86.5 0 0 0 1.6 9.7 7.4 7.4 0 0 1 .2 1.8 2.4 2.4 0 0 0 1.1 1.8 82.8 82.8 0 0 0 21.8 2.7 47.4 47.4 0 0 0 11.4-1.6 18.3 18.3 0 0 0 9.7-4.8 16.5 16.5 0 0 0 4.3-7.3 9.5 9.5 0 0 0-1.1-7.3 15.4 15.4 0 0 0-6.6-5.9 103.8 103.8 0 0 0-14.5-6.3c-6.6-2.3-10.4-4.1-11.6-5.2a4.8 4.8 0 0 1-2.1-4.1c.2-1.8 1.1-2.9 3-3.6a30 30 0 0 1 7.5-1.6 19 19 0 0 1 10.2 2 17.2 17.2 0 0 1 7.9 7.7h3.8l-.4-2a49.4 49.4 0 0 0-1.1-9.5m-13.1-15.5v-5.8h3.6a3.1 3.1 0 0 1 1.7.4 1.3 1.3 0 0 1 .6 1.2 1.6 1.6 0 0 1-.3.9 1.5 1.5 0 0 1-.7.6l.5.4a1.8 1.8 0 0 1 .2.8v.2a2.5 2.5 0 0 0 .3 1.4h-1.6v-.9a1.8 1.8 0 0 0-.2-1.1 1 1 0 0 0-.8-.2h-1.7v2.2h-1.6zm1.5-3.4h1.7l.9-.2a.6.6 0 0 0 .3-.5.5.5 0 0 0-.2-.5h-2.6v1.3z"/><path d="M235.9 176.9c-4.1 0-7.4-2.9-7.4-6.5s3.3-6.5 7.4-6.5 7.4 2.9 7.4 6.5-3.3 6.5-7.4 6.5m0-11.8c-3.4 0-6.3 2.4-6.3 5.3s2.8 5.3 6.3 5.3 6.3-2.4 6.3-5.3-2.8-5.3-6.3-5.3" fill="#c3c3c3"/>
    </symbol>
    <symbol id="instagram" viewBox="0 0 128 128">
      <path fill="url(#a)" d="M128 112a16 16 0 0 1-16 16H16a16 16 0 0 1-16-16V16A16 16 0 0 1 16 0h96a16 16 0 0 1 16 16v96z"/><path fill="#fff" d="M86 112H42a26 26 0 0 1-26-26V42a26 26 0 0 1 26-26h44a26 26 0 0 1 26 26v44a26 26 0 0 1-26 26zM42 24a18 18 0 0 0-18 18v44a18 18 0 0 0 18 18h44a18 18 0 0 0 18-18V42a18 18 0 0 0-18-18H42z"/><path fill="#fff" d="M64 88a24 24 0 1 1 24-24 24 24 0 0 1-24 24zm0-40a16 16 0 1 0 16 16 16 16 0 0 0-16-16z"/><circle cx="89.5" cy="38.5" r="5.5" fill="#fff"/>
    </symbol>
    <symbol id="logo-small" viewBox="0 0 141.2 184">
      <title>logo-small</title><path d="M70.6 0a70.6 70.6 0 0 1 58.3 110.4h-.1q-1.7 2.5-3.6 4.8l-49.7 66.4a6.5 6.5 0 0 1-10.2-.1l-50.7-67.6h.2A70.6 70.6 0 0 1 70.6 0m21.3 65.3c0 17.4 16.4 16.6 16.4 1.1 0-17.6-16.4-16.1-16.4-1.1m-25-17.4c0 17.4-16.4 16.6-16.4 1.1 0-17.6 16.4-16.1 16.4-1.1M49.3 65.3c0 17.5-16.3 16.6-16.3 1.1 0-17.6 16.4-16.1 16.4-1.1m25-17.4c0 17.4 16.4 16.6 16.4 1.1 0-17.6-16.4-16.1-16.4-1.1m1.6 52.9c8.2 2 20.6 4.1 20.6-8.2.2-6-5.2-9.4-10.5-12.4s-7.8-9.3-15.5-9.4-8.9 5.5-15.5 9.4-10.7 6.4-10.5 12.4c0 12.3 12.5 10.2 20.6 8.2a25.5 25.5 0 0 1 5.3-1 25.5 25.5 0 0 1 5.3 1" fill="#3252a6" fill-rule="evenodd"/><path d="M41.5 106.7l-5.1.2a.5.5 0 0 0-.5.5v15.2a.5.5 0 0 0 .5.5H39a.5.5 0 0 0 .5-.5v-5.4h1.9c4.2 0 6.6-2 6.6-5.3s-2.5-5.2-6.6-5.2m0 7.7h-1.6a.3.3 0 0 1-.2-.3v-4.3a.3.3 0 0 1 .2-.3h1.7c1.8 0 2.9.9 2.9 2.4s-1 2.5-2.9 2.5m11.8 6.4a2.2 2.2 0 0 1-2.4-1.5.2.2 0 0 1 0-.2h1.3c3.5 0 5.6-1.3 5.6-3.6s-1.7-3.8-4.5-3.8-6 2.3-6 6.2 2.1 5.6 5.7 5.6a8.8 8.8 0 0 0 4.4-1.1l.2-.3a.5.5 0 0 0-.1-.4l-.8-1.3a.5.5 0 0 0-.7-.2 5.8 5.8 0 0 1-2.8.7m-.2-6.7a1.3 1.3 0 0 1 1.5 1.3c0 .9-.8 1.5-2.2 1.5h-1.5a.2.2 0 0 1-.1-.2c.2-1.5 1-2.4 2.2-2.4m12.5 6.2l-1.1.2a1.5 1.5 0 0 1-1.5-1.7v-4.3a.3.3 0 0 1 .3-.3h2.4a.5.5 0 0 0 .5-.5v-1.6a.5.5 0 0 0-.5-.5h-2.3a.3.3 0 0 1-.3-.3v-1.2c0-2.2-3.5-1.9-3.5-.2v9.4c0 2.4 1.5 3.9 4 3.9a7.5 7.5 0 0 0 2.7-.4.5.5 0 0 0 .3-.6l-.3-1.5a.5.5 0 0 0-.2-.3h-.3m6.7-.3l.8-.9 3.7-4.3a2.7 2.7 0 0 0 .9-1.9c0-1.5-.7-1.3-1.7-1.3h-7.2a.5.5 0 0 0-.5.5v1.6a.5.5 0 0 0 .5.5h4.1l.2.2a.2.2 0 0 1 0 .3l-1.4 1.6-2.9 3.4c-1.1 1.3-.8 1.5-.8 3.1a.3.3 0 0 0 .3.2h9.1a.5.5 0 0 0 .5-.5V121a.5.5 0 0 0-.5-.5h-4.9l-.2-.2a.2.2 0 0 1 .1-.3m9.5 3.3a2 2 0 1 0-2.1-2 1.9 1.9 0 0 0 2.1 2m10.5-11.8a3.3 3.3 0 0 0-2.8 1.4h-.4l-.2-.2c-.4-1.7-3.3-1.5-3.3.6v9.2a.5.5 0 0 0 .5.5h2.5a.5.5 0 0 0 .5-.5v-4.3c0-2.8.9-3.8 2.3-3.8l.9.2h.4l.3-.3.7-2.1a.5.5 0 0 0 0-.4l-.3-.2-1.3-.2m9.8 1.6v4.4c0 2.3-.8 3.1-2.2 3.1s-1.6-.8-1.6-2.1v-5.3c0-2-3.5-2-3.5 0v5.9c0 2.7 1.5 4.3 4 4.3a4 4 0 0 0 3.1-1.3h.2l.2.2a1.7 1.7 0 0 0 3.3-.2v-8.7c0-2.1-3.5-1.8-3.5-.2" fill="#00ccbc"/><path d="M82.5 128.2h1l1 3 1-3h.9l-1.4 3.7a3.7 3.7 0 0 1-.8 1.4 1.5 1.5 0 0 1-1.1.4h-.5a.4.4 0 0 1-.1-.3v-.4l.9-.2a1.5 1.5 0 0 0 .6-.8zm7.1.9l-.3-.2h-.6a1 1 0 0 0-.8.3 1.5 1.5 0 0 0-.3 1 1.4 1.4 0 0 0 .3.9 1 1 0 0 0 .8.3h.5l.4-.2v.7l-.3.2h-.7a1.7 1.7 0 0 1-1.4-.5 2.2 2.2 0 0 1-.4-1.5 2.9 2.9 0 0 1 .1-.9 1.9 1.9 0 0 1 .4-.7l.6-.4.8-.2h.7l.3.2a.4.4 0 0 1 .1.3.7.7 0 0 1-.2.5m3.1-.7h-1l-1.4 3.9h.9l1-3.1.9 3.1h1l-1.4-3.9z" fill="#fff"/><path d="M94.1 128.2h1l1 3 1-3h.9l-1.4 3.7a3.7 3.7 0 0 1-.8 1.4 1.5 1.5 0 0 1-1.1.4h-.5a.4.4 0 0 1-.1-.3v-.4l.9-.2a1.5 1.5 0 0 0 .5-.7zm-22 3.3h-.8v-1.2h.8a.6.6 0 1 1 0 1.2m-.8-1.7v-1h-.9v3.2h1.7c1 0 1.7-.4 1.7-1.2s-2.5-1.2-2.5-1.2m-3.8 1.9h-.7V130a1.1 1.1 0 0 1 1.1-1.2 1 1 0 0 1 1 1.3 1.3 1.3 0 0 1-1.3 1.5m.6-3.5a1.7 1.7 0 0 0-1.4.7v-.2a.5.5 0 0 0-.4-.6h-.5v6h.9v-1.8h.8a2 2 0 0 0 2.1-2.2c0-1.3-.6-2-1.6-2m-5.3 3.5a.6.6 0 0 1-.6-.6c0-.4.4-.6 1-.6h.7a1.1 1.1 0 0 1-1.1 1.2m.4-3.5a2.8 2.8 0 0 0-1.6.4l.4.6a1.9 1.9 0 0 1 1.1-.3.8.8 0 0 1 .8 1h-.7c-1.2 0-1.8.5-1.8 1.3a1.1 1.1 0 0 0 1.3 1.2 1.5 1.5 0 0 0 1.3-.7v.2a.5.5 0 0 0 .4.6h.5v-2.6a1.4 1.4 0 0 0-1.6-1.5m-4.1 3.5h-.9v-1.2h.8a.6.6 0 1 1 0 1.2m-.1-3a.6.6 0 1 1 0 1.1h-.7v-1.1h.7m1 1.3a.9.9 0 0 0 .6-.9c0-.7-.6-1.2-1.6-1.2h-1.6v4h1.7c1 0 1.7-.4 1.7-1.2a1 1 0 0 0-.8-.9m-5.5 1.4a1.4 1.4 0 1 1 1.1-1.4 1.1 1.1 0 0 1-1.1 1.4m0 .7a2.1 2.1 0 1 0-2-2.1 1.9 1.9 0 0 0 2 2.1m-2.4-4.1h-3.2v.7H50v3.3h.9v-3.3h1.2v-.7zm-5.6 3.4a1.4 1.4 0 1 1 1.1-1.4 1.1 1.1 0 0 1-1.1 1.4m0 .7a2.1 2.1 0 1 0-2-2.1 1.9 1.9 0 0 0 2 2.1m-4.8-.7a1.4 1.4 0 1 1 1.1-1.4 1.1 1.1 0 0 1-1.1 1.4m0 .7a2.1 2.1 0 1 0-2-2.1 1.9 1.9 0 0 0 2 2.1m-5.7-3.7l.2.6a1.7 1.7 0 0 1 .9-.3.5.5 0 0 1 .6.5.5.5 0 0 1-.6.5h-.3v.6h.5a.6.6 0 0 1 .8.6.7.7 0 0 1-.8.6 1.6 1.6 0 0 1-1.1-.4l-.3.5a2.2 2.2 0 0 0 1.5.6c1 0 1.6-.4 1.6-1.2a1 1 0 0 0-1-1 .9.9 0 0 0 .8-.9 1.1 1.1 0 0 0-1.3-1.1 2.6 2.6 0 0 0-1.4.4m44.1-.1h-.5v.7l-1.8 1.6v-1.9a.4.4 0 0 0-.4-.5H77v4h.9v-.7l1.8-1.6v2.3h.9v-3.6a.4.4 0 0 0-.4-.5m21.2.2h-2.7v4h.9v-3.3h1.8v-.7zm3.6 0h-.5v.7l-1.8 1.6v-1.9a.4.4 0 0 0-.4-.5h-.5v4h.9v-.7l1.8-1.6v2.3h.9v-3.6a.4.4 0 0 0-.4-.5" fill="#fff"/><path d="M74.6 128.1h-.5v4h.9v-3.6a.4.4 0 0 0-.4-.5m-3.3.6a.4.4 0 0 0-.4-.5h-.5v4h.9v-3.5z" fill="#fff"/>
    </symbol>
    <symbol id="logo" viewBox="0 0 276.43 97.89">
      <title>logo</title><g clip-path="url(#a)"><path d="M105.099 24.81c-3.057 0-9.386.2-13.721.5a1.343 1.343 0 0 0-1.25 1.341v40.7A1.348 1.348 0 0 0 91.47 68.7h7.051a1.348 1.348 0 0 0 1.345-1.345V53.343a.671.671 0 0 1 .694-.672c1.6.051 3.11.1 4.477.1 11.244 0 17.8-5.23 17.8-14.129 0-8.718-6.615-13.829-17.738-13.829m-.06 20.5c-1.422 0-2.937-.046-4.5-.058a.674.674 0 0 1-.668-.672V33.038a.672.672 0 0 1 .652-.672c1.727-.053 3.3-.1 4.579-.1 4.811 0 7.636 2.406 7.636 6.374 0 4.149-2.705 6.674-7.7 6.674m31.661 17.015c-3.5 0-5.452-1.492-6.3-4.088a.672.672 0 0 1 .7-.878c1.005.086 2.011.155 3.018.155 9.319 0 14.911-3.607 14.911-9.68 0-6.313-4.449-10.161-12.086-10.161-10.161 0-16.113 6.193-16.113 16.535 0 9.5 5.651 15.091 15.212 15.091a23.634 23.634 0 0 0 11.7-2.825 1.344 1.344 0 0 0 .492-1.894l-2.234-3.553a1.344 1.344 0 0 0-1.775-.47 15.506 15.506 0 0 1-7.52 1.768m-.665-17.437c2.525 0 3.967 1.322 3.967 3.367 0 2.525-2.164 3.968-6.011 3.968-1.047 0-2.177-.041-3.32-.124a.65.65 0 0 1-.477-.251.658.658 0 0 1-.139-.523c.632-4.071 2.795-6.437 5.98-6.437m33.594 16.536a9.609 9.609 0 0 1-2.938.48c-2.645 0-4.088-1.744-4.088-4.51V45.925a.673.673 0 0 1 .672-.672h6.546a1.348 1.348 0 0 0 1.345-1.345v-4.285a1.349 1.349 0 0 0-1.345-1.345h-6.546a.675.675 0 0 1-.672-.672V34.49c0-5.855-9.354-5.024-9.35-.628l.031 25.1c0 6.553 3.968 10.341 10.822 10.341a20.034 20.034 0 0 0 7.134-1.2 1.336 1.336 0 0 0 .857-1.491l-.72-4.136a1.343 1.343 0 0 0-1.748-1.047m17.945-.844l2.243-2.284 10.041-11.484c1.851-2.116 2.4-3.367 2.4-4.99 0-3.91-1.823-3.548-4.614-3.548h-19.349a1.351 1.351 0 0 0-1.345 1.345v4.285a1.349 1.349 0 0 0 1.345 1.345h10.915a.672.672 0 0 1 .5 1.122l-3.8 4.229-7.735 9.234c-2.965 3.541-2.26 3.9-2.191 8.2a.675.675 0 0 0 .672.661h24.5a1.347 1.347 0 0 0 1.344-1.345v-4.283a1.348 1.348 0 0 0-1.344-1.345h-13.103a.665.665 0 0 1-.62-.412.658.658 0 0 1 .141-.731m25.344 8.716c3.488 0 5.591-2.045 5.591-5.412s-2.1-5.411-5.591-5.411c-3.547 0-5.652 2.045-5.652 5.411s2.105 5.412 5.652 5.412m28.077-31.623a8.97 8.97 0 0 0-7.413 3.763.672.672 0 0 1-1.191-.262c-1.036-4.676-8.833-4.079-8.833 1.529v24.65a1.349 1.349 0 0 0 1.345 1.345h6.63a1.348 1.348 0 0 0 1.344-1.345v-11.4c0-7.515 2.406-10.1 6.253-10.1a7.256 7.256 0 0 1 2.524.45 1.345 1.345 0 0 0 1.748-.84l1.82-5.541a1.345 1.345 0 0 0-.873-1.7 11.275 11.275 0 0 0-3.354-.549m26.108 3.911v11.9c0 6.251-2.225 8.418-5.953 8.418-2.825 0-4.328-2.165-4.328-5.712V42c0-5.46-9.321-5.275-9.321.092V57.88c0 7.212 3.909 11.423 10.643 11.423a10.616 10.616 0 0 0 8.332-3.6.655.655 0 0 1 .661-.211.6.6 0 0 1 .495.485c.512 5.151 8.79 4.9 8.79-.595V42c0-5.554-9.319-4.812-9.319-.417" fill="#00ccbc"/><path d="M36.749 0a36.753 36.753 0 0 1 30.358 57.464l-.038.049q-.888 1.294-1.881 2.509L39.308 94.52h-.009a3.392 3.392 0 0 1-5.3-.026l.011-.019L7.62 59.292l.09-.02A36.75 36.75 0 0 1 36.749 0m11.067 34.008c0 9.078 8.516 8.63 8.516.567 0-9.141-8.516-8.376-8.516-.567m-13.032-9.064c0 9.078-8.516 8.631-8.516.568 0-9.141 8.516-8.376 8.516-.568m-9.1 9.064c0 9.078-8.516 8.63-8.516.567 0-9.141 8.516-8.376 8.516-.567m13.031-9.064c0 9.078 8.517 8.631 8.517.568 0-9.141-8.517-8.376-8.517-.568m.811 27.539c4.249 1.017 10.74 2.144 10.74-4.283.116-3.115-2.718-4.879-5.45-6.474-3.411-1.992-4.058-4.829-8.067-4.88-4.01.051-4.656 2.888-8.068 4.88-2.732 1.595-5.565 3.359-5.449 6.474 0 6.425 6.49 5.3 10.742 4.281a13.127 13.127 0 0 1 2.775-.5 13.137 13.137 0 0 1 2.775.5" fill="#1451aa" fill-rule="evenodd"/><path d="M214.878 82.294h2.578l2.558 7.925 2.556-7.925h2.41l-3.635 9.89a10 10 0 0 1-2.24 3.857 4.105 4.105 0 0 1-2.9 1.193 1.58 1.58 0 0 1-1.1-.316 1.192 1.192 0 0 1-.337-.909 2.1 2.1 0 0 1 .126-.7 4.355 4.355 0 0 0 2.43-.623 3.9 3.9 0 0 0 1.459-1.977zm18.883 2.431a4.017 4.017 0 0 0-2.282-.613 2.6 2.6 0 0 0-2.061.887 3.937 3.937 0 0 0-.77 2.642 3.693 3.693 0 0 0 .76 2.525 2.679 2.679 0 0 0 2.114.856 4.263 4.263 0 0 0 1.342-.2 4.057 4.057 0 0 0 1-.476 1.716 1.716 0 0 1 .349.57 1.9 1.9 0 0 1 .116.656 1.006 1.006 0 0 1-.254.675 1.9 1.9 0 0 1-.675.487 4.081 4.081 0 0 1-.984.285 7.163 7.163 0 0 1-1.193.1 4.679 4.679 0 0 1-3.783-1.406 5.908 5.908 0 0 1-1.184-3.92 7.754 7.754 0 0 1 .338-2.367 5.056 5.056 0 0 1 .993-1.806 4.429 4.429 0 0 1 1.628-1.163 5.745 5.745 0 0 1 2.261-.413 8.316 8.316 0 0 1 .887.053 3.806 3.806 0 0 1 .91.212 1.871 1.871 0 0 1 .7.443 1.011 1.011 0 0 1 .274.73 1.941 1.941 0 0 1-.486 1.247m8.277-2.436h-2.663l-3.762 10.567h2.578l2.558-8.263 2.535 8.263h2.516l-3.762-10.567z" fill="#1451aa"/><path d="M245.875 82.294h2.578l2.557 7.925 2.557-7.925h2.409l-3.634 9.89a10.012 10.012 0 0 1-2.24 3.857 4.108 4.108 0 0 1-2.9 1.193 1.579 1.579 0 0 1-1.1-.316 1.189 1.189 0 0 1-.338-.909 2.1 2.1 0 0 1 .127-.7 4.357 4.357 0 0 0 2.43-.623 3.9 3.9 0 0 0 1.458-1.977zm-58.924 9.078c-.792 0-1.5-.022-2.164-.042v-3.194h2.164c1.265 0 2.037.6 2.037 1.586 0 1.029-.772 1.65-2.037 1.65m-2.165-4.543V84.18c-.911.036-1.724.1-2.422.177v8.6a44.592 44.592 0 0 0 4.566.214c2.808 0 4.459-1.2 4.459-3.216 0-3.742-6.709-3.234-6.6-3.128m-10.137 4.503c-.557 0-1.222-.021-1.93-.043v-4.094c0-2.23 1.394-3.216 2.831-3.216 1.65 0 2.55 1.265 2.55 3.409 0 2.486-1.307 3.944-3.451 3.944m1.736-9.3a4.441 4.441 0 0 0-3.729 1.907v-.41a1.252 1.252 0 0 0-1.115-1.5 2.988 2.988 0 0 0-1.243.321V97.89h2.421v-4.781c.793.043 1.565.064 2.123.064 3.6 0 5.723-2.143 5.723-5.787 0-3.366-1.587-5.359-4.18-5.359m-14.211 9.324a1.512 1.512 0 0 1-1.673-1.629c0-1.093.965-1.736 2.616-1.736.578 0 1.243.021 1.907.064-.02 2.251-1.415 3.3-2.85 3.3m1.006-9.324a7.6 7.6 0 0 0-4.287 1.2l.965 1.543a5.188 5.188 0 0 1 2.915-.878c1.609 0 2.251.942 2.251 2.551v.106a30.177 30.177 0 0 0-1.972-.063c-3.086 0-4.866 1.264-4.866 3.429a3.049 3.049 0 0 0 3.366 3.258 4.14 4.14 0 0 0 3.537-1.928v.427a1.252 1.252 0 0 0 1.114 1.5 2.988 2.988 0 0 0 1.243-.321v-6.879c0-2.487-1.586-3.944-4.266-3.944m-10.932 9.345c-.792 0-1.5-.021-2.165-.042v-3.194h2.165c1.265 0 2.037.6 2.037 1.586 0 1.029-.772 1.65-2.037 1.65m-.321-7.544c1.221 0 1.951.578 1.951 1.5s-.73 1.5-1.951 1.5h-1.844v-2.98c.557-.021 1.158-.021 1.844-.021m2.636 3.6a2.467 2.467 0 0 0 1.695-2.314c0-1.952-1.609-3.087-4.353-3.087a38.58 38.58 0 0 0-4.244.214v10.719a44.57 44.57 0 0 0 4.565.214c2.809 0 4.459-1.2 4.459-3.216a2.614 2.614 0 0 0-2.122-2.529m-14.747 3.795c-1.865 0-2.98-1.351-2.98-3.623s1.115-3.623 2.98-3.623 2.98 1.351 2.98 3.623-1.115 3.623-2.979 3.623m0 1.95c3.429 0 5.444-2.079 5.444-5.573s-2.015-5.573-5.444-5.573-5.445 2.079-5.445 5.573 2.015 5.573 5.445 5.573m-6.431-10.932h-8.618v1.843h3.087v8.875h2.422v-8.875h3.109v-1.843zm-15.048 8.982c-1.865 0-2.98-1.351-2.98-3.623s1.115-3.623 2.98-3.623 2.98 1.351 2.98 3.623-1.115 3.623-2.98 3.623m0 1.95c3.429 0 5.444-2.079 5.444-5.573s-2.015-5.573-5.444-5.573-5.442 2.079-5.442 5.573 2.015 5.573 5.445 5.573m-12.734-1.95c-1.864 0-2.978-1.351-2.978-3.623s1.114-3.623 2.978-3.623 2.981 1.351 2.981 3.623-1.116 3.623-2.981 3.623m0 1.95c3.431 0 5.446-2.079 5.446-5.573s-2.015-5.573-5.446-5.573-5.444 2.079-5.444 5.573 2.015 5.573 5.444 5.573M90.409 83.141l.643 1.522a4.416 4.416 0 0 1 2.529-.771c1.072 0 1.693.493 1.693 1.35s-.642 1.35-1.714 1.35h-1.072v1.587h1.411c1.265 0 2.015.578 2.015 1.565s-.815 1.565-2.165 1.565a4.384 4.384 0 0 1-3.023-1.137l-.879 1.437a5.817 5.817 0 0 0 4.117 1.564c2.764 0 4.416-1.178 4.416-3.173a2.72 2.72 0 0 0-2.68-2.764 2.466 2.466 0 0 0 2.036-2.38c0-1.8-1.329-2.829-3.58-2.829a6.945 6.945 0 0 0-3.751 1.114m118.27-1.114a2.988 2.988 0 0 0-1.243.321v1.758L202.61 88.5v-5.187a1.147 1.147 0 0 0-1.18-1.286 2.988 2.988 0 0 0-1.243.321V92.96h2.423v-1.866l4.822-4.394v6.26h2.423v-9.647a1.146 1.146 0 0 0-1.18-1.286m56.648.213h-7.159v10.719h2.422v-8.875h4.737V82.24zm9.876-.213a2.984 2.984 0 0 0-1.243.321v1.758l-4.828 4.394v-5.187a1.146 1.146 0 0 0-1.18-1.286 2.988 2.988 0 0 0-1.243.321V92.96h2.423v-1.866l4.823-4.394v6.26h2.422v-9.647a1.146 1.146 0 0 0-1.179-1.286" fill="#1451aa"/><path d="M193.552 82.027a2.969 2.969 0 0 0-1.244.321v1.758l-.012.01v2.594l.012-.011v6.26h2.422v-9.646a1.145 1.145 0 0 0-1.178-1.286m-8.764 1.523v-.237a1.146 1.146 0 0 0-1.18-1.286 2.973 2.973 0 0 0-1.243.321v10.611h2.423V83.55z" fill="#1451aa"/></g>
    </symbol>
    <symbol id="mastercard" viewBox="0 0 1200 933.48499">
      <path d="M4683.12 655.856v-14.382h-3.748l-4.338 9.88-4.315-9.88h-3.773v14.382h2.665v-10.845l4.055 9.36h2.759l4.055-9.384v10.87h2.64zm-23.79 0v-11.93h4.81v-2.429h-12.26v2.429h4.81v11.93h2.64z" fill="#0099df"/><path d="M4256.942 717.612h-324.48V134.481h324.48v583.131z" fill="#6c6bbd"/><path d="M3953.057 426.058c0-118.29 55.385-223.66 141.633-291.565-63.07-49.656-142.67-79.293-229.178-79.293-204.799 0-370.811 166.036-370.811 370.858s166.012 370.859 370.81 370.859c86.509 0 166.108-29.638 229.18-79.293-86.25-67.905-141.634-173.275-141.634-291.566" fill="#eb001b"/><path d="M4694.7 426.058c0 204.822-166.012 370.859-370.81 370.859-86.509 0-166.108-29.638-229.203-79.293 86.272-67.905 141.657-173.275 141.657-291.566 0-118.29-55.385-223.66-141.657-291.565C4157.782 84.837 4237.381 55.2 4323.89 55.2c204.799 0 370.812 166.036 370.812 370.858" fill="#0099df"/><path d="M4366.729 882.387c4.314 0 10.515.825 15.255 2.688l-6.602 20.183c-4.527-1.863-9.054-2.476-13.393-2.476-14.005 0-21.008 9.054-21.008 25.323v55.22h-21.432v-98.462h21.22v11.954c5.565-8.653 13.605-14.43 25.96-14.43m-79.175 22.045h-35.014v44.492c0 9.88 3.49 16.481 14.218 16.481 5.564 0 12.567-1.862 18.933-5.564l6.177 18.32c-6.79 4.74-17.494 7.64-26.76 7.64-25.347 0-34.189-13.605-34.189-36.476v-44.893h-19.994v-19.57h19.994V854.99h21.621v29.874h35.014v19.57zm-274.19 21.008c2.288-14.217 10.918-23.908 26.173-23.908 13.793 0 22.658 8.653 24.921 23.908h-51.093zm73.352 8.654c-.212-30.699-19.169-51.707-46.779-51.707-28.836 0-49.018 21.008-49.018 51.707 0 31.288 21.008 51.683 50.48 51.683 14.83 0 28.412-3.702 40.366-13.794l-10.516-15.868c-8.229 6.602-18.745 10.304-28.624 10.304-13.793 0-26.36-6.39-29.449-24.097h73.116c.212-2.688.424-5.352.424-8.228m94.124-24.097c-5.966-3.725-18.108-8.465-30.675-8.465-11.742 0-18.745 4.339-18.745 11.554 0 6.578 7.404 8.44 16.67 9.667l10.091 1.438c21.432 3.112 34.4 12.166 34.4 29.472 0 18.745-16.48 32.137-44.892 32.137-16.08 0-30.91-4.126-42.653-12.78l10.092-16.692c7.214 5.564 17.942 10.303 32.773 10.303 14.618 0 22.446-4.315 22.446-11.954 0-5.54-5.564-8.653-17.306-10.28l-10.091-1.438c-22.046-3.112-34-12.992-34-29.048 0-19.57 16.08-31.524 41.002-31.524 15.656 0 29.874 3.513 40.154 10.304l-9.266 17.306zm264.191-7.262c-4.409 0-8.488.778-12.284 2.31-3.772 1.557-7.05 3.726-9.808 6.508-2.76 2.782-4.928 6.13-6.508 10.02-1.58 3.891-2.358 8.182-2.358 12.85 0 4.693.778 8.96 2.358 12.85 1.58 3.891 3.749 7.24 6.508 10.021 2.758 2.783 6.036 4.952 9.808 6.508 3.796 1.556 7.875 2.31 12.284 2.31 4.41 0 8.512-.754 12.284-2.31 3.796-1.556 7.097-3.725 9.856-6.508 2.806-2.782 4.975-6.13 6.578-10.02 1.58-3.89 2.358-8.158 2.358-12.85 0-4.669-.778-8.96-2.358-12.85-1.603-3.89-3.772-7.239-6.578-10.021-2.759-2.782-6.06-4.951-9.856-6.508-3.772-1.532-7.875-2.31-12.284-2.31m0-20.348c7.64 0 14.713 1.32 21.22 3.985 6.508 2.64 12.143 6.295 16.882 10.94 4.763 4.645 8.465 10.138 11.153 16.457 2.687 6.343 4.031 13.228 4.031 20.655 0 7.427-1.344 14.312-4.031 20.654-2.688 6.319-6.39 11.836-11.153 16.481-4.739 4.645-10.374 8.276-16.882 10.94-6.507 2.641-13.58 3.961-21.22 3.961-7.64 0-14.713-1.32-21.22-3.96-6.508-2.665-12.096-6.296-16.811-10.941-4.716-4.645-8.418-10.162-11.105-16.481-2.688-6.342-4.032-13.227-4.032-20.654s1.344-14.312 4.032-20.655c2.687-6.319 6.39-11.812 11.105-16.457 4.715-4.645 10.303-8.3 16.81-10.94 6.508-2.665 13.582-3.985 21.221-3.985m-556.818 51.707c0-17.307 11.34-31.524 29.873-31.524 17.707 0 29.661 13.604 29.661 31.524 0 17.919-11.954 31.5-29.66 31.5-18.533 0-29.874-14.194-29.874-31.5m79.717 0v-49.231h-21.409v11.954c-6.814-8.866-17.094-14.43-31.1-14.43-27.609 0-49.23 21.621-49.23 51.707 0 30.062 21.621 51.706 49.23 51.706 14.006 0 24.286-5.564 31.1-14.43v11.954h21.41v-49.23zm-120.696 49.23v-61.797c0-23.272-14.83-38.928-38.715-39.14-12.567-.212-25.558 3.702-34.612 17.518-6.79-10.916-17.519-17.518-32.562-17.518-10.492 0-20.795 3.089-28.835 14.618v-12.142h-21.41v98.461h21.622v-54.583c0-17.094 9.478-26.171 24.096-26.171 14.218 0 21.433 9.266 21.433 25.96v54.794h21.62v-54.583c0-17.094 9.904-26.171 24.098-26.171 14.642 0 21.644 9.266 21.644 25.96v54.794h21.621zm675.177-7.408v2.429h2.24c.495 0 .92-.118 1.203-.307.306-.188.471-.518.471-.92 0-.4-.165-.707-.471-.895-.283-.212-.708-.307-1.203-.307h-2.24zm2.264-1.697c1.155 0 2.051.259 2.688.778.636.518.943 1.226.943 2.122 0 .754-.236 1.367-.755 1.862-.495.472-1.226.778-2.145.896l2.97 3.42h-2.31l-2.759-3.396h-.896v3.395h-1.933v-9.077h4.197zm-.59 12.19c1.061 0 2.052-.19 2.948-.59.92-.4 1.72-.943 2.405-1.627a7.576 7.576 0 0 0 1.626-2.428 7.764 7.764 0 0 0 0-5.942 7.844 7.844 0 0 0-1.626-2.429 7.29 7.29 0 0 0-2.405-1.603c-.896-.4-1.887-.59-2.948-.59-1.06 0-2.074.19-2.994.59a7.254 7.254 0 0 0-2.452 1.603 7.39 7.39 0 0 0-1.603 2.429c-.401.92-.59 1.91-.59 2.97 0 1.062.189 2.052.59 2.972.377.943.92 1.744 1.603 2.428a7.683 7.683 0 0 0 2.452 1.627c.92.4 1.933.59 2.994.59m0-17.401c1.391 0 2.665.26 3.867.778a9.72 9.72 0 0 1 3.183 2.098 9.596 9.596 0 0 1 2.122 3.113 9.347 9.347 0 0 1 .778 3.796c0 1.344-.26 2.617-.778 3.796a9.752 9.752 0 0 1-2.122 3.089 10.17 10.17 0 0 1-3.183 2.122c-1.202.518-2.476.778-3.867.778a9.957 9.957 0 0 1-3.937-.778 9.907 9.907 0 0 1-3.183-2.122 9.752 9.752 0 0 1-2.122-3.09 9.347 9.347 0 0 1-.778-3.795c0-1.344.26-2.617.778-3.796a9.596 9.596 0 0 1 2.122-3.113 9.48 9.48 0 0 1 3.183-2.098c1.226-.519 2.523-.778 3.937-.778" fill="#231f20"/><path d="M6439.039 615.337v-14.383h-3.75l-4.338 9.88-4.314-9.88h-3.773v14.383h2.665V604.49l4.055 9.36h2.759l4.055-9.384v10.87h2.64zm-23.79 0v-11.93h4.81v-2.43h-12.261v2.43h4.81v11.93h2.64z" fill="#0099df"/><path d="M6012.872 677.092h-324.48V93.96h324.48v583.132z" fill="#2271ce"/><path d="M5708.976 385.538c0-118.29 55.384-223.661 141.633-291.566-63.071-49.655-142.67-79.293-229.179-79.293-204.799 0-370.812 166.037-370.812 370.86 0 204.822 166.013 370.858 370.812 370.858 86.508 0 166.108-29.637 229.179-79.293-86.249-67.904-141.633-173.275-141.633-291.566" fill="#005eb6"/><path d="M6450.618 385.538c0 204.823-166.013 370.86-370.812 370.86-86.507 0-166.107-29.638-229.178-79.294 86.248-67.904 141.633-173.275 141.633-291.566 0-118.29-55.385-223.661-141.633-291.566 63.071-49.655 142.67-79.293 229.178-79.293 204.8 0 370.812 166.037 370.812 370.86" fill="#0099df"/><path d="M6128.904 935.397v2.429h2.24c.496 0 .92-.118 1.203-.307.306-.189.471-.519.471-.92 0-.4-.165-.707-.471-.895-.283-.213-.707-.307-1.203-.307h-2.24zm2.264-1.698c1.155 0 2.051.26 2.688.779.636.518.943 1.226.943 2.122 0 .754-.236 1.367-.755 1.862-.495.472-1.226.778-2.145.896l2.97 3.419h-2.31l-2.759-3.395h-.896v3.395h-1.933v-9.078h4.197zm-.59 12.19c1.062 0 2.052-.188 2.948-.59a7.576 7.576 0 0 0 4.032-4.055 7.77 7.77 0 0 0 .589-2.97 7.764 7.764 0 0 0-.59-2.971 7.844 7.844 0 0 0-1.626-2.429 7.29 7.29 0 0 0-2.405-1.603c-.896-.4-1.886-.59-2.948-.59-1.06 0-2.074.19-3.017.59a7.39 7.39 0 0 0-2.429 1.603 7.39 7.39 0 0 0-1.603 2.429c-.401.92-.59 1.91-.59 2.97 0 1.062.189 2.052.59 2.971.377.944.92 1.745 1.603 2.429a7.844 7.844 0 0 0 2.429 1.627c.943.4 1.956.59 3.017.59m0-17.401c1.368 0 2.665.26 3.867.778a9.72 9.72 0 0 1 3.183 2.098 9.596 9.596 0 0 1 2.122 3.113 9.347 9.347 0 0 1 .778 3.796 9.342 9.342 0 0 1-.778 3.796 9.752 9.752 0 0 1-2.122 3.088 10.17 10.17 0 0 1-3.183 2.122 9.684 9.684 0 0 1-3.867.779c-1.414 0-2.711-.26-3.937-.779a9.907 9.907 0 0 1-3.183-2.122 9.752 9.752 0 0 1-2.122-3.088 9.347 9.347 0 0 1-.778-3.796c0-1.344.26-2.618.778-3.796a9.596 9.596 0 0 1 2.122-3.113 9.48 9.48 0 0 1 3.183-2.098c1.226-.519 2.523-.778 3.937-.778" fill="#242021"/><path d="M6102.333 852.108c-10.304-6.79-24.521-10.304-40.153-10.304-24.946 0-41.003 11.954-41.003 31.524 0 16.056 11.954 25.936 33.976 29.048l10.115 1.438c11.719 1.65 17.283 4.74 17.283 10.28 0 7.64-7.828 11.954-22.446 11.954-14.83 0-25.535-4.739-32.75-10.303l-10.092 16.693c11.742 8.653 26.573 12.78 42.63 12.78 28.435 0 44.916-13.393 44.916-32.138 0-17.306-12.968-26.36-34.4-29.472l-10.092-1.438c-9.266-1.227-16.693-3.09-16.693-9.667 0-7.215 7.002-11.53 18.744-11.53 12.567 0 24.734 4.74 30.699 8.44l9.266-17.305zm-505.894 41.398c0 29.873 20.795 51.707 52.531 51.707 14.831 0 24.71-3.301 35.415-11.742l-10.304-17.307c-8.016 5.777-16.457 8.866-25.747 8.866-17.094-.212-29.638-12.567-29.638-31.524s12.544-31.312 29.638-31.524c9.29 0 17.73 3.089 25.747 8.865l10.304-17.306c-10.705-8.44-20.584-11.742-35.415-11.742-31.736 0-52.531 21.833-52.531 51.707m206.506-51.7c-12.355 0-20.395 5.777-25.96 14.43v-11.954h-21.197v98.462h21.41v-55.22c0-16.269 7.002-25.323 21.007-25.323 4.339 0 8.866.613 13.393 2.476l6.578-20.183c-4.716-1.863-10.917-2.688-15.231-2.688m79.558 0c-12.355 0-20.395 5.777-25.96 14.43v-11.954h-21.197v98.462h21.41v-55.22c0-16.269 7.002-25.323 21.007-25.323 4.339 0 8.866.613 13.393 2.476l6.578-20.183c-4.716-1.863-10.917-2.688-15.231-2.688M5732.412 942.7h-21.55v-98.321h21.55v98.32zm-10.893-147.458c2.122 0 4.103.377 5.964 1.179a14.883 14.883 0 0 1 4.81 3.23 15.188 15.188 0 0 1 3.232 4.81c.81 1.862 1.169 3.843 1.169 5.965s-.377 4.103-1.17 5.942a14.413 14.413 0 0 1-3.23 4.786 14.608 14.608 0 0 1-4.81 3.113c-1.868.754-3.843 1.131-5.965 1.131s-4.102-.377-5.941-1.131a14.08 14.08 0 0 1-4.788-3.113c-1.32-1.343-2.358-2.923-3.112-4.786-.755-1.84-1.132-3.82-1.132-5.942 0-2.122.377-4.102 1.132-5.965.754-1.84 1.792-3.442 3.112-4.81a14.362 14.362 0 0 1 4.788-3.23c1.848-.802 3.82-1.179 5.941-1.179m282.476 105.799c0 7.805-1.296 14.5-3.843 20.113-2.57 5.611-5.941 10.185-10.138 13.746-4.197 3.56-8.984 6.177-14.383 7.851a56.056 56.056 0 0 1-16.622 2.523 55.825 55.825 0 0 1-16.623-2.523c-5.423-1.674-10.233-4.291-14.453-7.851-4.22-3.56-7.592-8.135-10.139-13.746-2.523-5.612-3.796-12.308-3.796-20.113v-56.658h21.291v54.701c0 4.716.613 8.748 1.816 12.072 1.226 3.301 2.9 5.99 5.022 8.04 2.122 2.052 4.645 3.56 7.545 4.48 2.9.92 6.012 1.391 9.337 1.391 3.3 0 6.413-.471 9.313-1.39 2.9-.92 5.423-2.43 7.545-4.48 2.145-2.052 3.796-4.74 5.022-8.04 1.226-3.325 1.816-7.357 1.816-12.073v-54.7h21.29v56.657zm-4827.786 19.783v2.428h2.24c.495 0 .92-.118 1.226-.306.283-.189.448-.52.448-.92s-.165-.707-.448-.896c-.307-.212-.731-.306-1.226-.306h-2.24zm2.263-1.698c1.156 0 2.052.26 2.688.778.637.519.943 1.226.943 2.122 0 .755-.235 1.368-.754 1.863-.495.471-1.203.778-2.146.896l2.971 3.419h-2.31l-2.76-3.396h-.895v3.396h-1.933v-9.078h4.196zm-.589 12.213a7.167 7.167 0 0 0 2.947-.613c.92-.4 1.721-.943 2.405-1.627a7.576 7.576 0 0 0 1.627-2.428 7.764 7.764 0 0 0 0-5.942 7.844 7.844 0 0 0-1.627-2.428 7.736 7.736 0 0 0-2.405-1.627c-.896-.377-1.886-.566-2.947-.566a7.87 7.87 0 0 0-2.994.566c-.944.4-1.769.943-2.453 1.627a7.39 7.39 0 0 0-1.603 2.428c-.4.92-.59 1.91-.59 2.971 0 1.061.19 2.051.59 2.971.377.943.92 1.745 1.603 2.428a7.682 7.682 0 0 0 2.453 1.627 7.47 7.47 0 0 0 2.994.613m0-17.424a9.81 9.81 0 0 1 3.89.778 9.87 9.87 0 0 1 3.16 2.099 9.596 9.596 0 0 1 2.122 3.112 9.347 9.347 0 0 1 .778 3.796c0 1.344-.26 2.617-.778 3.796a10.128 10.128 0 0 1-2.122 3.112 10.71 10.71 0 0 1-3.16 2.099 9.798 9.798 0 0 1-3.89.778 9.962 9.962 0 0 1-3.938-.778 10.245 10.245 0 0 1-3.183-2.099 10.128 10.128 0 0 1-2.122-3.112 9.347 9.347 0 0 1-.778-3.796c0-1.344.26-2.617.778-3.796a9.596 9.596 0 0 1 2.122-3.112 9.48 9.48 0 0 1 3.183-2.099 9.962 9.962 0 0 1 3.938-.778M259.262 878.95c0-17.306 11.34-31.524 29.873-31.524 17.707 0 29.66 13.605 29.66 31.524 0 17.92-11.953 31.524-29.66 31.524-18.532 0-29.873-14.218-29.873-31.524m79.717 0v-49.23h-21.41v11.953c-6.79-8.865-17.093-14.43-31.098-14.43-27.61 0-49.255 21.645-49.255 51.707 0 30.086 21.645 51.707 49.255 51.707 14.005 0 24.308-5.565 31.099-14.43v11.954h21.409v-49.23zm723.466 0c0-17.306 11.341-31.524 29.874-31.524 17.73 0 29.66 13.605 29.66 31.524 0 17.92-11.93 31.524-29.66 31.524-18.533 0-29.874-14.218-29.874-31.524m79.74 0v-88.77h-21.431v51.493c-6.79-8.865-17.094-14.43-31.1-14.43-27.61 0-49.254 21.645-49.254 51.707 0 30.086 21.644 51.707 49.254 51.707 14.006 0 24.31-5.565 31.1-14.43v11.954h21.432v-49.23zm-537.459-32.537c13.793 0 22.658 8.653 24.922 23.884h-51.094c2.288-14.218 10.917-23.884 26.172-23.884m.424-19.17c-28.859 0-49.042 21.009-49.042 51.707 0 31.312 21.008 51.707 50.48 51.707 14.831 0 28.412-3.702 40.366-13.793l-10.492-15.868c-8.252 6.578-18.768 10.303-28.647 10.303-13.793 0-26.36-6.39-29.45-24.12h73.116c.212-2.664.425-5.352.425-8.229-.213-30.698-19.17-51.706-46.756-51.706m258.51 51.706c0-17.306 11.34-31.524 29.873-31.524 17.707 0 29.66 13.605 29.66 31.524 0 17.92-11.953 31.524-29.66 31.524-18.533 0-29.874-14.218-29.874-31.524m79.717 0v-49.23h-21.408v11.953c-6.814-8.865-17.094-14.43-31.1-14.43-27.61 0-49.254 21.645-49.254 51.707 0 30.086 21.645 51.707 49.254 51.707 14.006 0 24.286-5.565 31.1-14.43v11.954h21.408v-49.23zm-200.625 0c0 29.873 20.796 51.707 52.532 51.707 14.83 0 24.71-3.301 35.414-11.742l-10.28-17.306c-8.04 5.776-16.48 8.865-25.77 8.865-17.094-.212-29.661-12.567-29.661-31.524s12.567-31.311 29.66-31.524c9.29 0 17.731 3.09 25.771 8.866l10.28-17.307c-10.704-8.44-20.583-11.741-35.414-11.741-31.736 0-52.532 21.833-52.532 51.706m276.028-51.706c-12.355 0-20.395 5.776-25.96 14.43v-11.955H971.6v98.462h21.433v-55.196c0-16.292 7.002-25.346 21.008-25.346 4.338 0 8.865.613 13.392 2.475l6.602-20.182c-4.74-1.863-10.917-2.688-15.255-2.688m-573.912 10.303c-10.303-6.79-24.497-10.303-40.153-10.303-24.945 0-41.002 11.954-41.002 31.523 0 16.057 11.954 25.96 33.976 29.048l10.115 1.439c11.742 1.65 17.282 4.739 17.282 10.303 0 7.616-7.827 11.954-22.446 11.954-14.83 0-25.535-4.739-32.75-10.303l-10.091 16.67c11.742 8.652 26.572 12.779 42.629 12.779 28.435 0 44.916-13.393 44.916-32.137 0-17.306-12.968-26.36-34.4-29.449l-10.092-1.462c-9.266-1.226-16.693-3.065-16.693-9.667 0-7.215 7.003-11.53 18.745-11.53 12.567 0 24.733 4.74 30.698 8.441l9.266-17.306zm276.24-10.303c-12.355 0-20.395 5.776-25.936 14.43v-11.955h-21.22v98.462h21.409v-55.196c0-16.292 7.002-25.346 21.008-25.346 4.338 0 8.865.613 13.392 2.475l6.602-20.182c-4.74-1.863-10.917-2.688-15.255-2.688M538.4 829.718h-35.013v-29.873h-21.645v29.873h-19.97v19.57h19.97v44.916c0 22.847 8.866 36.452 34.188 36.452 9.29 0 19.994-2.877 26.785-7.616l-6.177-18.344c-6.39 3.702-13.393 5.565-18.957 5.565-10.705 0-14.194-6.602-14.194-16.481v-44.492H538.4v-19.57zM218.283 928.18v-61.798c0-23.271-14.83-38.927-38.739-39.14-12.567-.212-25.535 3.702-34.612 17.52-6.79-10.918-17.495-17.52-32.538-17.52-10.515 0-20.795 3.09-28.836 14.619v-12.143H62.126v98.462h21.621v-54.583c0-17.094 9.478-26.172 24.12-26.172 14.218 0 21.41 9.267 21.41 25.96v54.795h21.644v-54.583c0-17.094 9.879-26.172 24.096-26.172 14.619 0 21.621 9.267 21.621 25.96v54.795h21.645z" fill="#231f20"/><path d="M1188.42 600.656v-14.383h-3.748l-4.339 9.88-4.315-9.88h-3.772v14.383h2.664V589.81l4.056 9.36h2.758l4.056-9.384v10.87h2.64zm-23.79 0v-11.93h4.81v-2.43h-12.26v2.43h4.81v11.93h2.64z" fill="#f79410"/><path d="M762.251 662.411h-324.48V79.281h324.48v583.13z" fill="#ff5f00"/><path d="M458.356 370.858c0-118.29 55.385-223.66 141.633-291.565C536.918 29.638 457.319 0 370.81 0 166.013 0 0 166.036 0 370.858s166.013 370.858 370.81 370.858c86.508 0 166.108-29.638 229.179-79.293C513.74 594.52 458.356 489.15 458.356 370.858" fill="#eb001b"/><path d="M1200 370.858c0 204.822-166.012 370.858-370.81 370.858-86.508 0-166.108-29.638-229.202-79.293C686.26 594.52 741.644 489.15 741.644 370.858c0-118.29-55.384-223.66-141.656-291.565C663.082 29.638 742.682 0 829.189 0 1033.988 0 1200 166.036 1200 370.858" fill="#f79e1b"/>
    </symbol>
    <symbol id="menu" viewBox="0 0 24 24">
      <title>menu</title><path fill="#3252a6" d="M3 6h18v2.016H3V6zm0 6.984v-1.969h18v1.969H3zM3 18v-2.016h18V18H3z"/>
    </symbol>
    <symbol id="mir" viewBox="0 0 285.17 80.44">
      <title>mir</title><path d="M158.77 8.5l-18 39h-1.83V0h-25.6v80.43h21.72a14.62 14.62 0 0 0 13.28-8.5l18-39h1.83v47.5h25.59V0h-21.71a14.62 14.62 0 0 0-13.28 8.5m-96.01 2.07l-10.66 37h-1.83l-10.66-37A14.63 14.63 0 0 0 25.56 0H0v80.44h25.59V32.91h1.83l14.62 47.53h18.28l14.62-47.53h1.83v47.53h25.59V0H76.81a14.63 14.63 0 0 0-14.05 10.57m141.98 25.99v43.87h25.54v-25.6h27.47a27.41 27.41 0 0 0 25.83-18.28h-78.84z" fill="#20aa4d"/><path d="M257.75 0h-56.67a40.21 40.21 0 0 0 39.53 32.9h44a27.86 27.86 0 0 0 .55-5.49A27.42 27.42 0 0 0 257.74-.01" fill="#5eade2"/>
    </symbol>
    <symbol id="paypal" viewBox="0 0 124 33">
      <path fill="#253B80" d="M46.211 6.749h-6.839a.95.95 0 0 0-.939.802l-2.766 17.537a.57.57 0 0 0 .564.658h3.265a.95.95 0 0 0 .939-.803l.746-4.73a.95.95 0 0 1 .938-.803h2.165c4.505 0 7.105-2.18 7.784-6.5.306-1.89.013-3.375-.872-4.415-.972-1.142-2.696-1.746-4.985-1.746zM47 13.154c-.374 2.454-2.249 2.454-4.062 2.454h-1.032l.724-4.583a.57.57 0 0 1 .563-.481h.473c1.235 0 2.4 0 3.002.704.359.42.469 1.044.332 1.906zm19.654-.079h-3.275a.57.57 0 0 0-.563.481l-.145.916-.229-.332c-.709-1.029-2.29-1.373-3.868-1.373-3.619 0-6.71 2.741-7.312 6.586-.313 1.918.132 3.752 1.22 5.031.998 1.176 2.426 1.666 4.125 1.666 2.916 0 4.533-1.875 4.533-1.875l-.146.91a.57.57 0 0 0 .562.66h2.95a.95.95 0 0 0 .939-.803l1.77-11.209a.568.568 0 0 0-.561-.658zm-4.565 6.374c-.316 1.871-1.801 3.127-3.695 3.127-.951 0-1.711-.305-2.199-.883-.484-.574-.668-1.391-.514-2.301.295-1.855 1.805-3.152 3.67-3.152.93 0 1.686.309 2.184.892.499.589.697 1.411.554 2.317zm22.007-6.374h-3.291a.954.954 0 0 0-.787.417l-4.539 6.686-1.924-6.425a.953.953 0 0 0-.912-.678h-3.234a.57.57 0 0 0-.541.754l3.625 10.638-3.408 4.811a.57.57 0 0 0 .465.9h3.287a.949.949 0 0 0 .781-.408l10.946-15.8a.57.57 0 0 0-.468-.895z"/><path fill="#179BD7" d="M94.992 6.749h-6.84a.95.95 0 0 0-.938.802l-2.766 17.537a.569.569 0 0 0 .562.658h3.51a.665.665 0 0 0 .656-.562l.785-4.971a.95.95 0 0 1 .938-.803h2.164c4.506 0 7.105-2.18 7.785-6.5.307-1.89.012-3.375-.873-4.415-.971-1.142-2.694-1.746-4.983-1.746zm.789 6.405c-.373 2.454-2.248 2.454-4.062 2.454h-1.031l.725-4.583a.568.568 0 0 1 .562-.481h.473c1.234 0 2.4 0 3.002.704.359.42.468 1.044.331 1.906zm19.653-.079h-3.273a.567.567 0 0 0-.562.481l-.145.916-.23-.332c-.709-1.029-2.289-1.373-3.867-1.373-3.619 0-6.709 2.741-7.311 6.586-.312 1.918.131 3.752 1.219 5.031 1 1.176 2.426 1.666 4.125 1.666 2.916 0 4.533-1.875 4.533-1.875l-.146.91a.57.57 0 0 0 .564.66h2.949a.95.95 0 0 0 .938-.803l1.771-11.209a.571.571 0 0 0-.565-.658zm-4.565 6.374c-.314 1.871-1.801 3.127-3.695 3.127-.949 0-1.711-.305-2.199-.883-.484-.574-.666-1.391-.514-2.301.297-1.855 1.805-3.152 3.67-3.152.93 0 1.686.309 2.184.892.501.589.699 1.411.554 2.317zm8.426-12.219l-2.807 17.858a.569.569 0 0 0 .562.658h2.822c.469 0 .867-.34.939-.803l2.768-17.536a.57.57 0 0 0-.562-.659h-3.16a.571.571 0 0 0-.562.482z"/><path fill="#253B80" d="M7.266 29.154l.523-3.322-1.165-.027H1.061L4.927 1.292a.316.316 0 0 1 .314-.268h9.38c3.114 0 5.263.648 6.385 1.927.526.6.861 1.227 1.023 1.917.17.724.173 1.589.007 2.644l-.012.077v.676l.526.298a3.69 3.69 0 0 1 1.065.812c.45.513.741 1.165.864 1.938.127.795.085 1.741-.123 2.812-.24 1.232-.628 2.305-1.152 3.183a6.547 6.547 0 0 1-1.825 2c-.696.494-1.523.869-2.458 1.109-.906.236-1.939.355-3.072.355h-.73c-.522 0-1.029.188-1.427.525a2.21 2.21 0 0 0-.744 1.328l-.055.299-.924 5.855-.042.215c-.011.068-.03.102-.058.125a.155.155 0 0 1-.096.035H7.266z"/><path fill="#179BD7" d="M23.048 7.667c-.028.179-.06.362-.096.55-1.237 6.351-5.469 8.545-10.874 8.545H9.326c-.661 0-1.218.48-1.321 1.132L6.596 26.83l-.399 2.533a.704.704 0 0 0 .695.814h4.881c.578 0 1.069-.42 1.16-.99l.048-.248.919-5.832.059-.32c.09-.572.582-.992 1.16-.992h.73c4.729 0 8.431-1.92 9.513-7.476.452-2.321.218-4.259-.978-5.622a4.667 4.667 0 0 0-1.336-1.03z"/><path fill="#222D65" d="M21.754 7.151a9.757 9.757 0 0 0-1.203-.267 15.284 15.284 0 0 0-2.426-.177h-7.352a1.172 1.172 0 0 0-1.159.992L8.05 17.605l-.045.289a1.336 1.336 0 0 1 1.321-1.132h2.752c5.405 0 9.637-2.195 10.874-8.545.037-.188.068-.371.096-.55a6.594 6.594 0 0 0-1.017-.429 9.045 9.045 0 0 0-.277-.087z"/><path fill="#253B80" d="M9.614 7.699a1.169 1.169 0 0 1 1.159-.991h7.352c.871 0 1.684.057 2.426.177a9.757 9.757 0 0 1 1.481.353c.365.121.704.264 1.017.429.368-2.347-.003-3.945-1.272-5.392C20.378.682 17.853 0 14.622 0h-9.38c-.66 0-1.223.48-1.325 1.133L.01 25.898a.806.806 0 0 0 .795.932h5.791l1.454-9.225 1.564-9.906z"/>
    </symbol>
    <symbol id="pinterest" viewBox="0 0 512 512">
      <title>pinterest</title><rect width="512" height="512" rx="64" ry="64" fill="#ca2127"/><path d="M265.4 56c-109.2 0-164.2 78.3-164.2 143.5 0 39.5 15 74.7 47 87.8 5.3 2.2 10 .1 11.5-5.7 1.1-4 3.6-14.2 4.7-18.4 1.5-5.8.9-7.8-3.3-12.8-9.3-10.9-15.2-25-15.2-45.1 0-58.1 43.4-110 113.1-110 61.7 0 95.6 37.7 95.6 88 0 66.3-29.3 122.2-72.8 122.2-24 0-42-19.9-36.3-44.3 6.9-29.1 20.3-60.5 20.3-81.5 0-18.8-10.1-34.5-31-34.5-24.6 0-44.3 25.4-44.3 59.5 0 21.7 7.3 36.4 7.3 36.4l-29.5 125.1c-8.8 37.2-1.3 82.7-.7 87.3a3.1 3.1 0 0 0 5.5 1.3c2.3-3 31.5-39.1 41.5-75.2 2.8-10.2 16.2-63.1 16.2-63.1 8 15.2 31.3 28.6 56.1 28.6 73.9 0 124-67.3 124-157.4C410.8 119.5 353.1 56 265.4 56z" fill="#fff"/>
    </symbol>
    <symbol id="print" viewBox="0 0 16 15">
      <path class="cls-1" d="M1.667 3.91c.92 0 1.666 1.03 1.666 2.29A1.749 1.749 0 1 1 0 6.2c0-1.26.746-2.29 1.667-2.29zm4-3.91a2.046 2.046 0 0 1 1.666 2.28c0 1.26-.746 2.29-1.666 2.29S4 3.54 4 2.28A2.046 2.046 0 0 1 5.667 0zm8.666 3.91C15.254 3.91 16 4.94 16 6.2a1.749 1.749 0 1 1-3.333 0c0-1.26.746-2.29 1.666-2.29zm-4-3.91A2.046 2.046 0 0 1 12 2.28c0 1.26-.746 2.29-1.667 2.29S8.667 3.54 8.667 2.28A2.046 2.046 0 0 1 10.333 0zM14 11.74a3.3 3.3 0 0 0-2.667-3.2v-.06a3.334 3.334 0 0 0-6.666 0v.06A3.3 3.3 0 0 0 2 11.74 3.269 3.269 0 0 0 5.333 15 3.408 3.408 0 0 0 8 13.7a3.408 3.408 0 0 0 2.667 1.3A3.269 3.269 0 0 0 14 11.74z"/>
    </symbol>
    <symbol id="proplan" viewBox="0 0 753.8 189.7">
      <title>proplan</title><path d="M369.6 139.6a63.3 63.3 0 0 1-20.2-3.1V99.2c3.3-.3 7.6-.5 12.4-.5 21 0 33.5 8 33.5 23.4 0 7.9-6.3 17.6-25.7 17.6m3.1-44.8c-10.6 0-21.4.5-31.9.5-8.8 0-15.2-.3-22.1-.5v3.8h3.5c9 0 12.9 2.2 12.9 10.8v63.8c0 8.5-3.9 10.7-12.9 10.7h-3.5v3.8c6.8-.1 13.3-.5 22.1-.5s16.8.3 25.5.5V184h-5.7c-7.8 0-11.2-1.4-11.2-13.8v-26.4c6.1.4 12 .8 18 .8 36.1 0 46.6-13.4 46.6-25s-9.8-24.7-41.3-24.7m-128.4 89c-19.9 0-32.2-19-32.2-36.2 0-24.7 15.3-33.9 31.5-33.9 20.3 0 32 18.9 32 36 0 19.6-9.8 34.1-31.3 34.1m-.3-75.5c-23.3 0-44.4 16.7-44.4 41 0 21.6 18.5 39.2 44.1 39.2 28.4 0 44.5-20.9 44.5-40.1 0-22.7-20.6-40.1-44.2-40.1m-98.7 39.8a54.2 54.2 0 0 1-11.1-.8v-32.5c3.3-.2 6.3-.4 10.3-.4 22.6 0 27.5 13.2 27.5 18 0 11.3-12 15.7-26.7 15.7m18.6 2.5c8.1-1.7 23.1-6 23.1-20.2 0-5-5.2-20-34-20l-25.8.2-20.8-.2v3.2h2.9c7.5 0 10.8 1.8 10.8 8.9v52.9c0 7.1-3.3 8.9-10.7 8.9h-2.9v3.2l20.8-.2 21.1.2v-3.2h-4.7c-6.5 0-9.3-1.2-9.3-11.5v-20.6c12.5.2 14.6.4 18.4 4.5l19 20.8 3.1 3.1c15.1 12.5 29.4 8.4 29.4 8.4v-1.5c-10.9 0-40.2-36.9-40.2-36.9m340.1 20.9s-5.8 10.8-8.7 11.6-25.8.2-25.8.2c-15.5-.5-17.7-3-17.7-10.4v-50.5c0-7.1 3.3-8.9 10.7-8.9h3.8v-3.2l-21.6.2-20.8-.2v3.2h2.9c7.5 0 10.7 1.8 10.7 8.9v53c0 7.1-3.2 8.9-10.7 8.9h-2.9v3.2c5.7-.1 69.6-.4 74.7-.2l7.5-15.6zm217.4-60.8l-17.6-.2v3.2h2c8.8 0 11.2 2.6 11.6 15.1l1 44.5h-.3l-62.3-63-12.8.2-14.3-.2v3.2h4.6c8.1 0 11.7 1.6 11.7 9.4 0 12.6-.3 33.2-1 47.6-.5 11.3-2 13.7-10.6 13.7H631v3.2l17.9-.2 17.9.2v-3.2h-3.3c-7.7 0-10.3-2.5-10.6-11.4-.7-16.8-1-33.5-1-50.4h.3l66 66h4.8l2.9-63.3c.5-10.5 5.2-11.7 10.3-11.7h2.6v-3.2l-17.5.2m-143.8 44.2c-5.5 1.1-13-1.2-23.9-6.1a56.7 56.7 0 0 0-5.9-2.3l12.4-24.3 18.2 29.7 1.3 2.1a8.3 8.3 0 0 1-2.1.8m29.8 19.1l-41.8-66.5h-3.1L541 144.9a30.1 30.1 0 0 0-4.9-.2c-8.4.4-19.1 2.6-24.3 14.2-.3.6.1.9.5.4 2.6-3.3 8.2-6.8 12-7.5s7.9-1.1 12.6.3l-11.8 20.6c-5 9-8.6 11.7-17.5 11.7h-1.9v3.2c3.9-.2 30.3-.2 36 0l1.7-3.2s-11.9.3-11.9-3.4 1.6-5.6 2.8-7.8l8.6-17.2.7-1.3 1.6.7c3.6 1.7 11.1 4.6 16.5 4.6 7.6.1 14-1.4 18.8-4.7l.4.6 11.9 19.6c.6 1 2.3 3.9 2.3 5.4s-3.1 3.5-8.3 3.5h-4.1v3.2c6-.2 13.8-.2 22.5-.2s15.9 0 22.1.2v-3.2h-3.4c-7.5 0-12.5-4.2-16.4-10.5M50.9 139.6a63.3 63.3 0 0 1-20.2-3.1V99.2c3.3-.3 7.6-.5 12.4-.5 21 0 33.5 8 33.5 23.4 0 7.9-6.3 17.6-25.7 17.6M54 94.8c-10.6 0-21.4.5-31.9.5-8.8 0-15.3-.3-22.1-.5v3.8h3.5c9 0 12.9 2.2 12.9 10.8v63.8c0 8.5-3.9 10.7-12.9 10.7H0v3.8c6.8-.1 13.3-.5 22.1-.5s16.8.3 25.5.5v-3.8h-5.8c-7.8 0-11.2-1.4-11.2-13.8v-26.3c6.1.4 12 .8 18 .8 36.1 0 46.6-13.4 46.6-25S85.5 94.8 54 94.8" fill="#c9c8c8"/><path fill="#fff" d="M150.2 0h438.5v78.9H150.2z"/><path fill="#c9c8c8" d="M152.8 2.6h73.6v73.63h-73.6zm433.3 73.7H228.9V2.6h357.2v73.7z"/><path d="M258.7 19.6a18.5 18.5 0 0 1 3.9-.5 9.6 9.6 0 0 1 4.9 1.2 8.1 8.1 0 0 1 3.3 3.7 12.8 12.8 0 0 1 1.2 5.5 10 10 0 0 1-2.4 7 7.5 7.5 0 0 1-5.8 2.6l-2.4-.2-2.7-.4V19.6zm13.5-3.4a31.7 31.7 0 0 0-10.3-1.4h-18.2v2.7h2.5a4.5 4.5 0 0 1 3.6 1.3c.3.3.8 1.5.8 5.2v31.1c0 3.4-.4 4.5-.6 4.8a4.1 4.1 0 0 1-3.8 1.7h-2.5v2.7h21.9v-2.7H263a4.3 4.3 0 0 1-3.5-1.3c-.3-.3-.8-1.5-.8-5.2V42l3.5.6 3.8.3c4.8 0 8.7-1.3 11.4-3.9a13.4 13.4 0 0 0 4.1-10.1 12.3 12.3 0 0 0-2.7-7.9 14.7 14.7 0 0 0-6.5-4.7m53.6-1.8v2.7h2.5a4.4 4.4 0 0 1 3.5 1.3c.3.3.8 1.5.8 5.2v19.5c0 5-.4 8.5-1.3 10.6a10.4 10.4 0 0 1-4.8 4.9 16.6 16.6 0 0 1-8.1 2 12.9 12.9 0 0 1-5.9-1.2 9.5 9.5 0 0 1-3.6-3.1 13 13 0 0 1-1.8-5.3 45.3 45.3 0 0 1-.5-6.3V23.7c0-3.2.4-4.4.8-4.9a3.9 3.9 0 0 1 3.6-1.6h2.5v-2.7h-22v2.7h2.5a4.3 4.3 0 0 1 3.3 1.1c.5.5 1 1.9 1 5.4v18.8c0 5.9.4 9.9 1.2 12.1a15.6 15.6 0 0 0 6 7.7c2.8 1.9 7 2.8 12.3 2.8s8.9-1 11.8-3a14.7 14.7 0 0 0 5.9-7.2c1-2.7 1.5-6.6 1.5-11.4V24.1c0-3.3.4-4.4.6-4.8a4.1 4.1 0 0 1 3.7-2.1h2.6v-2.7h-18.1m45.3 5a27.5 27.5 0 0 1 4.8-.6 9.3 9.3 0 0 1 6.9 2.6 9.2 9.2 0 0 1 2.6 6.8 8.8 8.8 0 0 1-3.2 7c-2.2 1.9-5.5 2.8-9.8 2.8h-1.3V19.5zm27.4 40.2c-1.5-1-3.5-3.1-5.7-6.2l-9.4-12.9A16.4 16.4 0 0 0 392 36a12 12 0 0 0 3.1-8.2 11.4 11.4 0 0 0-2.7-7.6 13.6 13.6 0 0 0-6.5-4.3c-2.5-.8-6.3-1.2-11.5-1.2h-18.2v2.7h2.5a4.4 4.4 0 0 1 3.5 1.3c.3.3.8 1.5.8 5.2v31.2c0 3.4-.4 4.5-.6 4.8a4.1 4.1 0 0 1-3.7 1.7h-2.5v2.7h21.9v-2.7h-2.5a4.3 4.3 0 0 1-3.5-1.3c-.3-.3-.8-1.5-.8-5.2V41.8h3.9l16.3 22.5h13.9v-2.6h-.6a14.1 14.1 0 0 1-6.1-1.9m19.1-45v2.7h2.4a6 6 0 0 1 2.9.8 2.5 2.5 0 0 1 1.1 1.2 14.8 14.8 0 0 1 .4 4.6v31c0 3.6-.5 4.7-.7 5a4.4 4.4 0 0 1-3.7 1.5h-2.4v2.7h21.9v-2.7h-2.4a5.7 5.7 0 0 1-2.8-.8 2.5 2.5 0 0 1-1.2-1.2 15 15 0 0 1-.4-4.6V24c0-3.6.5-4.7.7-5a4.3 4.3 0 0 1 3.7-1.5h2.4v-2.7h-21.9m92 0h-18.1v2.7h2.4a4.7 4.7 0 0 1 3.6 1.3c.3.3.8 1.5.8 5.1v25.8l-28.6-34.9h-14v2.7h.7a10.7 10.7 0 0 1 2.9.3 11.3 11.3 0 0 1 3 1.4 20.9 20.9 0 0 1 2.9 3v33c0 3.4-.4 4.5-.7 4.8s-2 1.5-3.8 1.5h-2.4v2.7h18.1v-2.6h-2.4a4.7 4.7 0 0 1-3.7-1.3c-.3-.3-.8-1.4-.8-5.1V27.5l31 37.5h2.3V23.9c0-3.4.4-4.5.7-4.8s2-1.6 3.8-1.6h2.4v-2.7m33.2 12.4l6.9 17h-14.3zm27.6 34.4a6.9 6.9 0 0 1-4.2-1.5c-1-.9-2.2-2.9-3.5-6l-16.5-40.3h-2.3l-17.4 39.9c-1.4 3.4-2.7 5.7-3.9 6.7s-1.1.8-3.5 1.2h-.6v2.6h16.5v-2.5h-.6c-2.7-.2-3.7-.6-4.1-.9a1.8 1.8 0 0 1-.8-1.4 11.1 11.1 0 0 1 1.1-3.9l3.1-7.1h17.8l2.7 6.5a14.1 14.1 0 0 1 1.4 4.6 1.8 1.8 0 0 1-.7 1.4c-.4.3-1.3.7-3.5.8h-.7v2.6h20.5v-2.6h-.7M155.5 5.3h68.4v68.38h-68.4z" fill="#fff"/><path fill="#c9c8c8" d="M158.1 50h21v21.03h-21zm42.1 0h21v21.03h-21zm-21.1-21.1h21v21.04h-21zm-21-21h21v21.04h-21zm42.1 0h21v21.04h-21zm396.2-3.7v2h1.3a2.3 2.3 0 0 0 1.2-.2.8.8 0 0 0 .4-.7.8.8 0 0 0-.4-.7 2.7 2.7 0 0 0-1.3-.2h-1.2zm0 5.5h-1V3.4h2.2l1.7.2a1.6 1.6 0 0 1 .8.6 1.6 1.6 0 0 1 .3.9 1.7 1.7 0 0 1-.5 1.2 2 2 0 0 1-1.3.6l.7.5.7 1.1.8 1.2h-1.3l-.6-1a6.3 6.3 0 0 0-1-1.4 1.4 1.4 0 0 0-1-.3h-.6v2.8zm1.4-8.2a4.8 4.8 0 0 0-3.5 1.5 4.8 4.8 0 0 0-1.5 3.5 4.8 4.8 0 0 0 1.5 3.5 5 5 0 0 0 7 0 4.8 4.8 0 0 0 1.5-3.5 4.8 4.8 0 0 0-1.5-3.5 4.8 4.8 0 0 0-3.5-1.5m0-1a5.8 5.8 0 0 1 3 .8 5.9 5.9 0 0 1 2.2 2.2 5.9 5.9 0 0 1 0 6 6 6 0 0 1-11.1-3 5.8 5.8 0 0 1 .8-3 6 6 0 0 1 5.2-3M746.5 114v2h1.3a2.3 2.3 0 0 0 1.2-.2.8.8 0 0 0 .4-.7.8.8 0 0 0-.4-.7 2.7 2.7 0 0 0-1.3-.2h-1.2zm0 5.5h-1v-6.4h2.2l1.7.2a1.6 1.6 0 0 1 .8.6 1.6 1.6 0 0 1 .3.9 1.7 1.7 0 0 1-.5 1.2 2 2 0 0 1-1.3.6l.7.5.8 1.1.8 1.2h-1.3l-.6-1a6.2 6.2 0 0 0-1-1.4 1.4 1.4 0 0 0-.9-.3h-.6v2.7zm1.4-8.2a5 5 0 1 0 3.5 1.5 4.8 4.8 0 0 0-3.5-1.5m0-1a5.8 5.8 0 0 1 3 .8 5.9 5.9 0 0 1 2.2 2.2 5.9 5.9 0 0 1 0 6 6 6 0 0 1-11.1-3 6 6 0 0 1 6-6"/>
    </symbol>
    <symbol id="royal" viewBox="0 0 535.8 195.2">
      <title>royal</title><path d="M488.8 195.2l-.8-.2a7.5 7.5 0 0 1-5.4-6.8v-51.9a10.1 10.1 0 0 1 4.4-8.5 10.5 10.5 0 0 1 15 3.2l13.7 24.4 4.5 7.8.6.8a2 2 0 0 0 .5-1.7v-30a11.1 11.1 0 0 1 .2-2.7 7.2 7.2 0 0 1 8.1-5.4 7.3 7.3 0 0 1 6.2 7.2v53.9a8.7 8.7 0 0 1-6.6 8.6 12.7 12.7 0 0 1-5.9.2 7.6 7.6 0 0 1-5.3-3.9l-19-34-.8-1.3a4 4 0 0 0-.4.8 6.3 6.3 0 0 0 0 1v30.2a8.3 8.3 0 0 1-1.8 5.3 7.7 7.7 0 0 1-3.8 2.6l-.7.3h-2.7zm-85.5 0l-.6-.3a7.6 7.6 0 0 1-5.4-7.2v-51.5a10 10 0 0 1 4-8.1c5-4.1 10.9-2 13.7.8a10.1 10.1 0 0 1 1.6 2.2l11.1 19.7 6.8 12.2.8 1.2a3.4 3.4 0 0 0 .5-.8 6.9 6.9 0 0 0 0-1.2v-29.8a9.1 9.1 0 0 1 .8-4.2 7.3 7.3 0 0 1 13.8 2.8v53.2c0 .6-.1 1.1 0 1.7.2 3.5-2.8 6.8-6 7.8a12.5 12.5 0 0 1-6.3.3 7.7 7.7 0 0 1-5.4-3.9l-19-34-.6-1a.7.7 0 0 0-.8.7v31.5a7.7 7.7 0 0 1-2 5.4 7.6 7.6 0 0 1-3.3 2.1l-.8.3h-2.9zM0 144.7c.2-.6.4-1.1.5-1.7a18.3 18.3 0 0 1 5-10.2 22.2 22.2 0 0 1 13-6.3 23.8 23.8 0 0 1 11.5 1.4 22.2 22.2 0 0 1 7.8 4.6 23 23 0 0 1 6.8 12.3c1.5 7.6-.6 14.2-5.6 20l-2.9 3a31.1 31.1 0 0 0 3 5.4l5.1 7.3c.9 1.3 1.7 2.7 2.5 4a6.7 6.7 0 0 1-3.1 9.1 7.7 7.7 0 0 1-4.4.8 5.9 5.9 0 0 1-3-1.4 50.5 50.5 0 0 1-7.7-8.9c-1.7-2.3-3.2-4.7-4.9-7s-3.1-3.9-4.6-5.8l-1.1-1a1.1 1.1 0 0 0-1.2-.4 1.1 1.1 0 0 0-.5 1.2v.9c0 4.2 0 8.4-.1 12.6a23.1 23.1 0 0 1-.2 3.6c-.5 2.8-1.9 5.1-4.6 6.1a7.1 7.1 0 0 1-7.7-1.7 5.6 5.6 0 0 1-1.8-3.2c-.4-2.2-.7-4.4-.9-6.6s-.3-5.6-.5-8.4a12.5 12.5 0 0 0-.2-1.3v-28.4zm22.8-3a8.4 8.4 0 0 0-5.1 1.5 7 7 0 0 0-1.3 10.6 8.3 8.3 0 0 0 12.9-1 6.5 6.5 0 0 0 1-5 7.7 7.7 0 0 0-7.5-6.1m442.5 53.5l-.7-.3a7.9 7.9 0 0 1-5.8-7.4v-54.6a11.8 11.8 0 0 1 .2-2.8 7.8 7.8 0 0 1 8.7-5.9 7.9 7.9 0 0 1 6.8 7.5v55.2a8.1 8.1 0 0 1-2.5 6.1 8.2 8.2 0 0 1-3.4 1.9l-.7.3h-2.7zM269.9 0l1.1.3a13.7 13.7 0 1 1-4.3 0l1.2-.3h2z" fill="#c9c8c8"/><path d="M115.7 160.5a34.3 34.3 0 1 1-34.3-34.3 34.3 34.3 0 0 1 34.3 34.3m-15.7.1A18.5 18.5 0 1 0 81.3 179a18.5 18.5 0 0 0 18.7-18.4m253.6 20.2v1.4c-.2 2.2-.4 4.3-.7 6.5a6 6 0 0 1-4.4 5 7.9 7.9 0 0 1-4.2.4 6.7 6.7 0 0 1-5.3-4.4 10.9 10.9 0 0 1-.7-3.6q-.1-27 0-54a6.1 6.1 0 0 1 4.8-6.3 8.5 8.5 0 0 1 9.5 3.1c3.6 4.7 7.2 9.4 10.7 14.1l23.6 32.2 5.9 8.4a5 5 0 0 1 .9 4.1 8 8 0 0 1-8.5 6.7 4.6 4.6 0 0 1-3.5-1.5c-1.2-1.3-2.3-2.7-3.4-4.1l-5.2-7.2a1.6 1.6 0 0 0-1.5-.8h-18m-.1-14.9h7c.7 0 .9-.4.6-1.1l-.3-.5-6.6-9-.7-.7c-.1 3.9-.2 7.5 0 11.2m-163 15.2h-17.8a1.8 1.8 0 0 0-1.7.9l-6.4 8.7a30.1 30.1 0 0 1-2.1 2.5 4.9 4.9 0 0 1-4.2 1.5 11 11 0 0 1-2.5-.5c-3.4-1.1-4.9-3.4-5.4-7.2a4.4 4.4 0 0 1 1-3.2c4.9-6.8 9.7-13.6 14.6-20.3 7.4-10 14.8-20 22.2-29.9 1.2-1.6 2.4-3.2 3.8-4.8a8.6 8.6 0 0 1 10-2.4 5.9 5.9 0 0 1 3.9 5.5v54.3a8.7 8.7 0 0 1-1.9 5.9 6.9 6.9 0 0 1-6.7 2.4l-1.7-.5a6 6 0 0 1-4.3-4.8c-.3-1.5-.4-3-.6-4.5s-.2-2.3-.3-3.6m0-25.9l-.3-.2-.3.6-6.7 9.1-.3.6a.6.6 0 0 0 .5.9h7.2v-11zm99.2 5.5c0 8.9 5.8 17.1 15.3 18.7a16.8 16.8 0 0 0 11-2c2.5-1.4 4.9-3 7.3-4.6a6.5 6.5 0 0 1 6.5-.6 5.5 5.5 0 0 1 2.9 2.6 18.5 18.5 0 0 1 1.2 2.9 5.4 5.4 0 0 1-.7 4.6 23.2 23.2 0 0 1-11.7 9.4 40.7 40.7 0 0 1-14.4 2.8 27.2 27.2 0 0 1-12.1-2.9 38.2 38.2 0 0 1-10-6.5 32.1 32.1 0 0 1-9.8-18 34.1 34.1 0 0 1 16.7-36 32.3 32.3 0 0 1 17-4.4 31.1 31.1 0 0 1 23.4 10.7c2.7 3.1 2.2 6.2.2 8.9a9.1 9.1 0 0 1-2.3 2.1 5.5 5.5 0 0 1-5.9.5c-1.5-.8-3-1.7-4.4-2.6l-3.7-2.4a14.9 14.9 0 0 0-8.3-2.1 17.9 17.9 0 0 0-11.3 4 17.7 17.7 0 0 0-6.9 13.6v1.3M269 70.2a132.8 132.8 0 0 1 18.3 1.3 115.3 115.3 0 0 1 32.9 9.6 80.1 80.1 0 0 1 13.4 7.9 5.9 5.9 0 0 1 2.7 4.8 6 6 0 0 1-9.4 5.1c-2.4-1.6-4.7-3.2-7.2-4.6a90.5 90.5 0 0 0-22.4-8.7 117.2 117.2 0 0 0-33.9-3.4 109.1 109.1 0 0 0-39.2 8.9 67.7 67.7 0 0 0-13.1 7.4 6 6 0 0 1-8.1-8.7l1.1-.9a82.2 82.2 0 0 1 17.2-9.6 115.4 115.4 0 0 1 24.8-7.2 112.6 112.6 0 0 1 14.6-1.7l8.2-.3m-100.7 63a7.6 7.6 0 0 1-1.8 4.9l-7.4 9.3-11.4 13.8a2.6 2.6 0 0 0-.7 1.8v24.2c.7 4.4-5.5 9.2-10.7 6.5a7.1 7.1 0 0 1-3.6-5.3 10.9 10.9 0 0 1-.2-1.9c-.2-7.6-.4-15.2-.6-22.7a4.5 4.5 0 0 0-1-3c-3.6-4.4-7.5-8.5-11.3-12.7l-7.2-8a18.7 18.7 0 0 1-2.4-3.4c-2-3.8.6-9.3 4.8-10.1a8.2 8.2 0 0 1 5.4 1 14.5 14.5 0 0 1 4 3.3l10.8 11.8c1.1 1.2 2.2 2.2 3.4 3.3s1.4.8 2.2-.2l7.3-9a65.7 65.7 0 0 1 8.8-9 7.1 7.1 0 0 1 10.1 1.2 6.9 6.9 0 0 1 1.4 4.3m47.3 28.1v-27.9a7 7 0 0 1 3.7-6.6 8 8 0 0 1 8.3 0 6.8 6.8 0 0 1 3.3 4.9 12.3 12.3 0 0 1 .2 2.2v44.4c0 1.3.2 1.6 1.6 1.6H247a6.3 6.3 0 0 1 4.8 2 7.5 7.5 0 0 1 1.1 9.2 7.2 7.2 0 0 1-5.4 3.1h-28.3a4.2 4.2 0 0 1-3.8-4.2v-28.7z" fill="#c9c8c8"/><path d="M208.7 106.1a4.1 4.1 0 0 1 1.7-3.3 64.5 64.5 0 0 1 10.1-6.6 92.5 92.5 0 0 1 25.5-8.9 101.5 101.5 0 0 1 16.9-2.1c3.4-.1 6.8-.2 10.2-.1a106.4 106.4 0 0 1 35.6 7.2 70.2 70.2 0 0 1 18.1 10.2l1.1 1a4 4 0 0 1-4.8 6.3l-1-.7a66.8 66.8 0 0 0-20.7-10.9 96.6 96.6 0 0 0-19.4-4.3 104.9 104.9 0 0 0-15.8-.8 101.2 101.2 0 0 0-33.4 6.5 62.3 62.3 0 0 0-17 9.5 4.2 4.2 0 0 1-4 1 3.9 3.9 0 0 1-2.9-4m-24.4-38.7a13.7 13.7 0 1 1 13.7 13.7 13.7 13.7 0 0 1-13.7-13.7m98-19.1a13.7 13.7 0 1 1-13.6-13.8 13.7 13.7 0 0 1 13.6 13.8m31.9-14.8a13.7 13.7 0 1 1 13.8-13.8 13.7 13.7 0 0 1-13.8 13.8m-9 5.9a13.7 13.7 0 1 1-13.6 13.8 13.6 13.6 0 0 1 13.6-13.8m-73.1 0a13.7 13.7 0 1 1-13.8 13.3 13.6 13.6 0 0 1 13.8-13.3m120.8 28.1a13.7 13.7 0 0 1-27.3-.2 13.7 13.7 0 1 1 27.3.2m-9.8-29.8a13.7 13.7 0 1 1 13.6 13.7 13.7 13.7 0 0 1-13.6-13.7M209.4 19.8a13.7 13.7 0 1 1 27.4.2 13.7 13.7 0 0 1-27.4-.2m-28.8 31.6a13.7 13.7 0 1 1 13.7-13.8 13.7 13.7 0 0 1-13.7 13.8" fill="#c9c8c8"/>
    </symbol>
    <symbol id="visa" viewBox="0 0 498 160.81">
      <title>visa</title><path d="M257.56 51.41c-.28 22.4 20 34.9 35.22 42.34 15.67 7.63 20.94 12.52 20.88 19.34-.12 10.44-12.5 15-24.09 15.22-20.22.31-32-5.46-41.32-9.82L241 152.56c9.38 4.32 26.74 8.09 44.74 8.25 42.26 0 69.91-20.86 70.06-53.21.16-41-56.78-43.32-56.39-61.67.13-5.56 5.44-11.5 17.08-13 5.76-.76 21.65-1.35 39.67 7l7.07-33A107.85 107.85 0 0 0 325.54 0c-39.78 0-67.76 21.15-68 51.41M431.16 2.84A18.34 18.34 0 0 0 414 14.25l-60.33 144.14h42.18l8.4-23.22h51.61l4.88 23.22h37.21L465.53 2.84h-34.37m5.91 42l12.19 58.41h-33.41l21.19-58.41m-230.71-42l-33.26 155.55h40.24L246.58 2.84h-40.22m-59.53 0l-41.89 105.87-16.94-90c-2-10-9.84-15.85-18.56-15.85H1L0 7.38c14.06 3.05 30 8 39.7 13.23 5.92 3.22 7.61 6 9.56 13.67l32.1 124.13h42.49l65.2-155.55h-42.2" fill="#254aa5"/>
    </symbol>
    <symbol id="vk" viewBox="0 0 415 415">
      <title>vk</title><path d="M64 0h287.1A63.9 63.9 0 0 1 415 64v287.1a63.9 63.9 0 0 1-63.9 63.9H64a63.9 63.9 0 0 1-64-63.9V64A63.9 63.9 0 0 1 64 0z" fill="#4d75a3" fill-rule="evenodd"/><path d="M301.5 211s35.9-50.6 39.4-67.2c1.2-5.9-1.4-9.3-7.6-9.3h-31.1c-7.1 0-9.7 3.1-11.9 7.6 0 0-16.8 35.8-37.3 58.4-6.6 7.3-9.9 9.5-13.5 9.5s-4.3-2.4-4.3-9v-57.7c0-8.1-.9-10.4-7.6-10.4h-49.8c-3.8 0-6.2 2.2-6.2 5.2 0 7.6 11.6 9.3 11.6 29.9v42.5c0 8.5-.5 11.9-4.5 11.9-10.7 0-36.1-36.8-50.3-78.6-2.8-8.5-5.9-10.9-14-10.9H83.3c-4.5 0-7.8 3.1-7.8 7.6 0 8.3 9.7 46.8 48 98.3 25.6 34.7 59.4 53.4 89.8 53.4 18.5 0 23-3.1 23-10.9v-26.6c0-6.6 2.6-9.5 6.4-9.5s11.8 1.4 29.4 18.8c20.9 19.9 22.3 28.3 33.7 28.3h34.9c3.6 0 6.9-1.7 6.9-7.6 0-7.8-10.2-21.8-25.9-38.5-6.4-8.5-16.9-17.8-20.2-22.1s-3.3-7.9 0-13.1z" fill="#fff"/>
    </symbol></svg>