<svg xmlns="http://www.w3.org/2000/svg" width="856" height="389.594" viewBox="0 0 856 389.594">
  <metadata><?xpacket begin="﻿" id="W5M0MpCehiHzreSzNTczkc9d"?>
<x:xmpmeta xmlns:x="adobe:ns:meta/" x:xmptk="Adobe XMP Core 5.6-c138 79.159824, 2016/09/14-01:09:01        ">
   <rdf:RDF xmlns:rdf="http://www.w3.org/1999/02/22-rdf-syntax-ns#">
      <rdf:Description rdf:about=""/>
   </rdf:RDF>
</x:xmpmeta>
                                                                                                    
                                                                                                    
                                                                                                    
                                                                                                    
                                                                                                    
                                                                                                    
                                                                                                    
                                                                                                    
                                                                                                    
                                                                                                    
                                                                                                    
                                                                                                    
                                                                                                    
                                                                                                    
                                                                                                    
                                                                                                    
                                                                                                    
                                                                                                    
                                                                                                    
                                                                                                    
                           
<?xpacket end="w"?></metadata>
<defs>
    <style>
      .cls-1 {
        fill: #3252a6;
        fill-rule: evenodd;
        opacity: 0.05;
      }
    </style>
  </defs>
  <path class="cls-1" d="M138.61,692.249a2.583,2.583,0,0,1,3.154,1.793,2.521,2.521,0,0,1-1.817,3.1,2.585,2.585,0,0,1-3.155-1.793A2.522,2.522,0,0,1,138.61,692.249ZM139.084,683a2.584,2.584,0,0,1,3.155,1.793,2.523,2.523,0,0,1-1.818,3.1,2.585,2.585,0,0,1-3.155-1.793A2.522,2.522,0,0,1,139.084,683Zm1.755-16.733-1.4-5.1a1.292,1.292,0,0,0-1.577-.9l-0.932.245-2.341-8.559a1.292,1.292,0,0,0-1.577-.9l-8.08,2.122a1.262,1.262,0,0,0-.909,1.549l2.341,8.559-0.932.245a1.26,1.26,0,0,0-.909,1.549l1.395,5.1a11.93,11.93,0,0,0-4.5,12.768l7.686,28.108a1.292,1.292,0,0,0,1.577.9l27.347-7.18a1.261,1.261,0,0,0,.908-1.549l-7.686-28.108A12.235,12.235,0,0,0,140.839,666.269ZM126.849,655.3l5.593-1.469,2.007,7.337-5.594,1.468Zm1.335,13.41-0.836-3.057,9.945-2.611,0.835,3.057Zm27.935,33.948-24.86,6.527L123.907,682.3a9.483,9.483,0,0,1,6.826-11.638l6.184-1.624a9.719,9.719,0,0,1,11.85,6.735Zm-12.041-26.981-16.159,4.242a1.262,1.262,0,0,0-.909,1.549L133.2,704.09a1.292,1.292,0,0,0,1.577.9l16.159-4.243a1.26,1.26,0,0,0,.909-1.549l-2.1-7.685a1.293,1.293,0,0,0-1.578-.9,1.261,1.261,0,0,0-.908,1.549l1.767,6.462-13.673,3.59-5.517-20.176L143.5,678.45l1.058,3.87a1.292,1.292,0,0,0,1.578.9,1.26,1.26,0,0,0,.908-1.549l-1.393-5.093A1.291,1.291,0,0,0,144.078,675.678Zm2.736,10a1.262,1.262,0,0,0-.909,1.549l0.034,0.122a1.292,1.292,0,0,0,1.577.9,1.261,1.261,0,0,0,.909-1.549l-0.034-.123A1.292,1.292,0,0,0,146.814,685.683Zm-8.539,5.343a3.786,3.786,0,0,0-2.725,4.648,3.881,3.881,0,0,0,4.732,2.689,3.787,3.787,0,0,0,2.726-4.647A3.883,3.883,0,0,0,138.275,691.026Zm1.338,4.891a1.293,1.293,0,0,1-1.577-.9,1.262,1.262,0,0,1,.908-1.549,1.294,1.294,0,0,1,1.578.9A1.262,1.262,0,0,1,139.613,695.917Zm3.869-11.449a3.881,3.881,0,0,0-4.732-2.689,3.787,3.787,0,0,0-2.726,4.647,3.881,3.881,0,0,0,4.732,2.689A3.786,3.786,0,0,0,143.482,684.468Zm-3.4,2.2a1.293,1.293,0,0,1-1.577-.9,1.262,1.262,0,0,1,.909-1.549,1.293,1.293,0,0,1,1.577.9A1.262,1.262,0,0,1,140.087,686.67ZM659.234,332.746c-3.872-3.873-9.514-5.463-15.889-4.476a32.032,32.032,0,0,0-17.391,9.276c-7.48,7.482-11.009,17.584-8.99,25.735a5.23,5.23,0,0,1-1.726,5.184,67.821,67.821,0,0,1-16.631,10.3,11.1,11.1,0,0,0,4.058,21.242c0.137,0,.274.007,0.41,0.007a11.1,11.1,0,0,0,10.119-6.533,71.651,71.651,0,0,1,10.358-16.7,5.218,5.218,0,0,1,5.191-1.744c8.141,2,18.226-1.534,25.692-9a32.049,32.049,0,0,0,9.273-17.4C664.694,342.263,663.105,336.618,659.234,332.746Zm-7.048,31.04h0c-6.7,6.7-15.6,9.9-22.684,8.162a8.419,8.419,0,0,0-8.386,2.788,74.8,74.8,0,0,0-10.822,17.435,7.854,7.854,0,0,1-1.62,2.341,7.936,7.936,0,0,1-5.89,2.312,7.915,7.915,0,0,1-2.895-15.149A70.958,70.958,0,0,0,617.3,370.89a8.435,8.435,0,0,0,2.754-8.374c-1.756-7.091,1.444-16.009,8.152-22.72,5.631-5.633,12.613-8.636,18.709-8.636A13.908,13.908,0,0,1,656.984,335C663.6,341.61,661.443,354.525,652.186,363.786Zm-50.5,24.934a1.591,1.591,0,1,0,1.125.466A1.6,1.6,0,0,0,601.688,388.72ZM648.7,344.872a1.586,1.586,0,0,0,1.125-.466l2.71-2.711a1.591,1.591,0,0,0-2.25-2.25l-2.71,2.71A1.592,1.592,0,0,0,648.7,344.872Zm-18.528,14.693-2.71,2.711a1.591,1.591,0,1,0,2.25,2.25l2.71-2.711A1.591,1.591,0,0,0,630.174,359.565Zm5.472-14.187-2.71-2.71a1.591,1.591,0,1,0-2.249,2.25l2.709,2.711A1.591,1.591,0,1,0,635.646,345.378Zm10.959,10.964a1.591,1.591,0,0,0-2.25,2.25l2.71,2.71a1.591,1.591,0,0,0,2.25-2.25Zm-5.266-11.948a1.545,1.545,0,0,0,.278.025,1.594,1.594,0,0,0,1.565-1.315l0.8-4.529a1.591,1.591,0,0,0-3.133-.553l-0.8,4.529A1.59,1.59,0,0,0,641.339,344.394Zm-2.676,15.182a1.592,1.592,0,0,0-1.843,1.291l-0.8,4.528a1.591,1.591,0,0,0,1.29,1.844,1.64,1.64,0,0,0,.278.024,1.593,1.593,0,0,0,1.565-1.315l0.8-4.529A1.591,1.591,0,0,0,638.663,359.576Zm14.743-11.571-4.527.8a1.592,1.592,0,0,0,.275,3.159,1.658,1.658,0,0,0,.278-0.024l4.527-.8A1.591,1.591,0,0,0,653.406,348.005Zm-20.994,5.319a1.59,1.59,0,0,0-1.842-1.291l-4.527.8a1.591,1.591,0,0,0,.274,3.158,1.64,1.64,0,0,0,.278-0.024l4.527-.8A1.59,1.59,0,0,0,632.412,353.324Zm8.059-4.06-3.19,3.192a1.591,1.591,0,1,0,2.249,2.25l3.191-3.191A1.591,1.591,0,0,0,640.471,349.264Zm-32.4,32.412-2.816,2.816a1.591,1.591,0,1,0,2.25,2.25l2.815-2.816A1.591,1.591,0,0,0,608.071,381.676ZM413.837,322.6a1.511,1.511,0,0,0-2.065.551l-8.811,15.261-1.311-.757a1.512,1.512,0,0,0-2.065.552l-1.8,3.113a6.994,6.994,0,0,0,2.565,9.539l5.731,3.308a17.787,17.787,0,0,1-3.488,3.864,7.56,7.56,0,1,0,12.432,6.887,13.073,13.073,0,0,1,1.488-4.59l0.06-.1,5.739,3.313a6.991,6.991,0,0,0,9.543-2.548l1.8-3.113a1.512,1.512,0,0,0-.555-2.064l-1.311-.757L440.6,339.8a1.513,1.513,0,0,0-2.621-1.513l-8.811,15.261-2.62-1.513,8.81-15.261a1.513,1.513,0,0,0-2.62-1.513l-8.811,15.261-2.621-1.513,8.811-15.261a1.513,1.513,0,0,0-2.621-1.513l-8.811,15.261-2.62-1.513,8.81-15.261a1.513,1.513,0,0,0-2.62-1.513l-8.811,15.26-2.621-1.513,8.811-15.26a1.513,1.513,0,0,0-2.621-1.513L408.2,341.44l-2.62-1.513,8.81-15.261A1.511,1.511,0,0,0,413.837,322.6Zm15.4,36.877a3.965,3.965,0,0,1-5.412,1.445l-7.05-4.07a1.512,1.512,0,0,0-2.066.552l-0.815,1.411a16,16,0,0,0-1.856,5.637,4.536,4.536,0,1,1-7.462-4.134,19.823,19.823,0,0,0,4.386-5.065l0.506-.876a1.512,1.512,0,0,0-.555-2.064l-7.05-4.071a3.965,3.965,0,0,1-1.455-5.409l1.042-1.805,28.829,16.644-1.042,1.805h0Zm-20.924,2.954a1.51,1.51,0,1,1-2.066.551A1.511,1.511,0,0,1,408.313,362.433Zm544.528,43.622c0.389-1.267.8-2.526,1.228-3.741a1.05,1.05,0,0,0-.652-1.339,1.061,1.061,0,0,0-1.349.647c-0.434,1.241-.856,2.526-1.253,3.819a8.538,8.538,0,0,1-.787,1.79,7.2,7.2,0,0,1-4.708,3.61l-0.033.006-0.033,0a3.537,3.537,0,0,1-2.307-.384,3.5,3.5,0,0,1-1.488-1.792l-0.013-.03a0.3,0.3,0,0,0-.011-0.032,7.112,7.112,0,0,1,.793-5.855,8.631,8.631,0,0,1,1.167-1.572A90.015,90.015,0,0,0,954.471,386.9a1.047,1.047,0,0,0-.373-1.46l-12.249-7.024,1.437-2.472,11.057,6.34a1.062,1.062,0,0,0,1.447-.385,1.047,1.047,0,0,0-.388-1.436l-11.057-6.341,1.519-2.612,11.056,6.34a1.062,1.062,0,0,0,1.447-.385,1.046,1.046,0,0,0-.388-1.436l-11.056-6.341,1.518-2.612,11.057,6.34a1.063,1.063,0,0,0,1.447-.385,1.049,1.049,0,0,0-.388-1.437l-11.057-6.34,1.518-2.612,11.057,6.34a1.063,1.063,0,0,0,1.447-.385,1.048,1.048,0,0,0-.388-1.437l-11.057-6.34L953.6,358.2l11.056,6.34a1.062,1.062,0,0,0,1.447-.385,1.046,1.046,0,0,0-.388-1.436l-11.056-6.341,1.518-2.612,5.071,2.908a1.063,1.063,0,0,0,1.447-.385,1.048,1.048,0,0,0-.388-1.437l-5.071-2.908,1.05-1.807,12.135,6.959a4.887,4.887,0,0,1,1.806,6.691L958.7,387.058a82.251,82.251,0,0,0-5.4,11.241,1.051,1.051,0,0,0,.6,1.363,1.062,1.062,0,0,0,1.372-.6,80.087,80.087,0,0,1,5.258-10.954l13.525-23.267a6.986,6.986,0,0,0-2.582-9.566l-13.052-7.485a1.064,1.064,0,0,0-1.447.385L939.485,378.27a1.048,1.048,0,0,0,.388,1.437l12.217,7.006a88.983,88.983,0,0,1-10.243,13.037,10.73,10.73,0,0,0-1.454,1.956,9.211,9.211,0,0,0-1.033,7.386,1.047,1.047,0,0,0,.225.586,5.535,5.535,0,0,0,2.3,2.61,5.6,5.6,0,0,0,3.428.676,1.072,1.072,0,0,0,.624-0.1,9.32,9.32,0,0,0,5.923-4.582A10.644,10.644,0,0,0,952.841,406.055Zm12.467-49.477a1.064,1.064,0,0,0-1.447.385,1.049,1.049,0,0,0,.388,1.437l2.98,1.709a1.062,1.062,0,0,0,1.447-.384,1.047,1.047,0,0,0-.388-1.437Zm-43.451,40.393A6.284,6.284,0,0,0,930.4,394.7a6.2,6.2,0,0,0-2.29-8.485,6.283,6.283,0,0,0-8.543,2.272A6.2,6.2,0,0,0,921.857,396.971Zm5.194-8.935a4.1,4.1,0,0,1,1.514,5.611,4.155,4.155,0,0,1-5.649,1.5,4.1,4.1,0,0,1-1.515-5.611A4.156,4.156,0,0,1,927.051,388.036Zm3.687-4.782a10.269,10.269,0,0,0-2.388-1.2l-0.989-.8a7.926,7.926,0,0,1-2.645-4.07l0.644-2.815L948,347.881a5.989,5.989,0,0,0,1.117-5.793,1.062,1.062,0,0,0-1.723-.435l-18.435,16.953,5.565-24.333a1.05,1.05,0,0,0-.275-0.968,1.063,1.063,0,0,0-.966-0.3,6.048,6.048,0,0,0-4.493,3.857l-4.347,12.086a1.058,1.058,0,0,0,2,.708l4.347-12.086a3.882,3.882,0,0,1,1.2-1.689l-5.847,25.569h0l-2.788,12.191h0l-0.757,3.31a1.054,1.054,0,0,0,0,.474,10.039,10.039,0,0,0,3.423,5.446l1.1,0.9a1.061,1.061,0,0,0,.372.212,8.009,8.009,0,0,1,4.61,11.361,8.06,8.06,0,0,1-14.9-5.862c0.008-.029.015-0.058,0.02-0.087l4.639-15.287a1.046,1.046,0,0,0-.193-0.968l-0.422-.513h0l-1.892-2.3-0.241-.293,6.14-17.071a1.049,1.049,0,0,0-.641-1.344,1.061,1.061,0,0,0-1.354.636l-6.234,17.333-2.132,1.961a8.035,8.035,0,0,1-4.87-.239l-1.2-.45a10.224,10.224,0,0,0-15.265,2.3,10.072,10.072,0,0,0,3.541,14.12,10.235,10.235,0,0,0,12.221-1.538,1.037,1.037,0,0,0,.115-0.105l9.882-10.442-4.164,13.721a1.171,1.171,0,0,0-.034.151A10.168,10.168,0,1,0,930.738,383.254Zm16.525-38.61a3.874,3.874,0,0,1-.874,1.875l-20.014,23.407,1.758-7.689ZM907.987,384.1q-0.034.029-.066,0.06a8.1,8.1,0,0,1-9.758,1.3,7.977,7.977,0,0,1-2.8-11.183,8.277,8.277,0,0,1,10.309-2.973c0.188,0.089.374,0.187,0.554,0.29a8.08,8.08,0,0,1,1.347.968,1.049,1.049,0,0,0,.369.213l1.336,0.5a10.174,10.174,0,0,0,6.459.222,1.067,1.067,0,0,0,.414-0.235l1.644-1.513,0.379,0.461,0.5,0.6Zm-2.668-10.955a6.284,6.284,0,0,0-8.543,2.273,6.2,6.2,0,0,0,2.29,8.484,6.283,6.283,0,0,0,8.543-2.272A6.2,6.2,0,0,0,905.319,373.144Zm-5.194,8.936a4.1,4.1,0,0,1-1.514-5.611,4.154,4.154,0,0,1,5.649-1.5,4.1,4.1,0,0,1,1.515,5.611A4.157,4.157,0,0,1,900.125,382.08ZM159.257,336.438a50.558,50.558,0,0,0-5.4.872c-9.991,2.088-23.916,6.936-27.033,8.76a16.007,16.007,0,0,0-5.735,21.686,15.726,15.726,0,0,0,4.32,4.874c0.019,0.022.038,0.043,0.058,0.064l22.184,21.959a1.218,1.218,0,0,0,1.474.188l9.521-5.569a1.243,1.243,0,0,0,.588-0.817,1.264,1.264,0,0,0-.2-0.988l-12.191-17.181A168.014,168.014,0,0,0,163.5,354.232a51.916,51.916,0,0,0,3.446-4.3,1.259,1.259,0,0,0,.062-1.343l-6.573-11.533a1.223,1.223,0,0,0-1.18-.617h0Zm-10.552,55.774-16.979-16.806a15.433,15.433,0,0,0,10.772-1.838,24.928,24.928,0,0,0,2.42-1.725l11.325,15.96Zm12.368-38.969c-6.49,7.234-16.911,16.476-19.8,18.168a13.136,13.136,0,0,1-18.049-4.9,13.5,13.5,0,0,1,4.835-18.284c2.894-1.693,16-6.215,25.434-8.292Zm3.408-4.112c-0.486.656-1.053,1.371-1.694,2.138l-6.754-11.85c0.977-.179,1.871-0.318,2.675-0.417Zm0,0-34.192,2.017a9.637,9.637,0,0,0-3.453,13.056,9.38,9.38,0,0,0,12.888,3.5,9.636,9.636,0,0,0,3.452-13.056,9.378,9.378,0,0,0-12.887-3.5h0Zm8.206,14.4a6.935,6.935,0,0,1-9.53-2.587,7.125,7.125,0,0,1,2.553-9.654,6.935,6.935,0,0,1,9.53,2.587,7.125,7.125,0,0,1-2.553,9.654h0Zm0,0M171.2,333.169l-5.542,3.241a1.254,1.254,0,0,0-.45,1.7,1.22,1.22,0,0,0,1.679.456l5.542-3.242a1.253,1.253,0,0,0,.45-1.7,1.22,1.22,0,0,0-1.679-.455h0Zm0,0,2.954,5.183-5.542,3.242a1.253,1.253,0,0,0-.45,1.7,1.222,1.222,0,0,0,1.679.456l5.542-3.242a1.255,1.255,0,0,0,.451-1.7,1.222,1.222,0,0,0-1.68-.456h0Zm0,0-41.4,17.1a4.629,4.629,0,0,0-1.658,6.272,1.222,1.222,0,0,0,1.679.456,1.255,1.255,0,0,0,.45-1.7,2.118,2.118,0,0,1,.758-2.87,1.253,1.253,0,0,0,.45-1.7,1.22,1.22,0,0,0-1.679-.456h0Zm0,0,19.554,30.189-3.459-4.888a1.218,1.218,0,0,0-1.715-.287,1.256,1.256,0,0,0-.283,1.738l3.459,4.888a1.219,1.219,0,0,0,1.612.354,1.13,1.13,0,0,0,.1-0.068,1.254,1.254,0,0,0,.284-1.737h0Zm0,0-6.245-8.826L145.486,376a1.219,1.219,0,0,0-1.715-.287,1.257,1.257,0,0,0-.283,1.738l0.577,0.815a1.22,1.22,0,0,0,1.613.353c0.034-.02.068-0.043,0.1-0.067a1.255,1.255,0,0,0,.283-1.737h0Zm0,0" transform="translate(-119 -322.406)"/>
</svg>
