<svg xmlns="http://www.w3.org/2000/svg" width="18" height="16" viewBox="0 0 18 16"><defs><style>.cls-1{fill:#fff;fill-rule:evenodd}</style></defs><path class="cls-1" d="M.6.01a.6.6 0 0 0 0 1.2h1.91l2.06 9.72a.775.775 0 0 0 .63.67h10.01a.639.639 0 0 0 .61-.6.624.624 0 0 0-.61-.6H5.69l-.26-1.2h10.58a.618.618 0 0 0 .58-.47l1.4-5.99a.621.621 0 0 0-.58-.73H3.91L3.59.48A.63.63 0 0 0 3 .01H.6zM4.16 3.2h12.49L15.53 8H5.18zM7.2 12a2 2 0 1 0 2 1.99 2 2 0 0 0-2-1.99zm6.01 0a2 2 0 1 0 2 1.99 2.012 2.012 0 0 0-2-1.99zM7.2 13.19a.8.8 0 1 1-.8.8.8.8 0 0 1 .8-.8zm6.01 0a.8.8 0 1 1-.8.8.8.8 0 0 1 .8-.8z"/></svg>