<?xml version="1.0" standalone="no"?>
<!DOCTYPE svg PUBLIC "-//W3C//DTD SVG 1.1//EN" "http://www.w3.org/Graphics/SVG/1.1/DTD/svg11.dtd" >
<svg xmlns="http://www.w3.org/2000/svg" xmlns:xlink="http://www.w3.org/1999/xlink" version="1.1">
<metadata>
Created by FontForge 20161003 at Tue Jun 13 07:39:45 2017
 By www-data
Copyright (c) 2015 ParaType, Inc., ParaType Ltd. All rights reserved.
</metadata>
<defs>
<font id="CirceRoundedAltBold" horiz-adv-x="596" >
  <font-face 
    font-family="CirceRoundedAltBold"
    font-weight="400"
    font-stretch="normal"
    units-per-em="1000"
    panose-1="2 15 6 2 2 2 3 2 2 3"
    ascent="774"
    descent="-226"
    x-height="450"
    cap-height="700"
    bbox="-500 -320 1446 941"
    underline-thickness="50"
    underline-position="-150"
    unicode-range="U+0020-FB02"
  />
<missing-glyph horiz-adv-x="212" 
 />
    <glyph glyph-name="uniF350.var.accented" unicode="&#xf350;`" horiz-adv-x="584" 
d="M444 31l-31 69h-247l-31 -69q-19 -39 -57 -39q-23 0 -38.5 15.5t-15.5 37.5q0 13 6 26l191 408q23 51 72 51q51 0 73 -51l186 -398q8 -19 8 -32q0 -24 -17 -40.5t-39 -16.5q-40 0 -60 39zM362 214l-72 161l-73 -161h145zM244 664l77 82q11 11 26 11q18 0 28 -13l19 -24
q9 -10 9 -25q0 -20 -16 -33l-83 -66q-13 -10 -27 -10q-20 0 -33 16q-12 14 -12 31q0 19 12 31z" />
    <glyph glyph-name="uniF355.var.accented" unicode="&#xf355;`" horiz-adv-x="498" 
d="M200 207v-92h187q24 0 41.5 -17t17.5 -39q0 -24 -17.5 -41.5t-41.5 -17.5h-250q-24 0 -41.5 17.5t-17.5 41.5v407q0 24 17.5 41.5t41.5 17.5h241q24 0 41.5 -17t17.5 -39q0 -24 -17.5 -41.5t-41.5 -17.5h-178v-88h154q24 0 41.5 -17t17.5 -39q0 -24 -17.5 -41.5
t-41.5 -17.5h-154zM202 664l77 82q11 11 26 11q18 0 28 -13l19 -24q9 -10 9 -25q0 -20 -16 -33l-83 -66q-13 -10 -27 -10q-20 0 -33 16q-12 14 -12 31q0 19 12 31z" />
    <glyph glyph-name="uniF358.var.accented" unicode="&#xf358;`" horiz-adv-x="663" 
d="M585 465v-414q0 -24 -18 -41.5t-43 -17.5t-43 17.5t-18 41.5v279l-251 -298q-19 -23 -33.5 -31.5t-36.5 -8.5q-29 0 -46.5 18t-17.5 46v415q0 24 18 41.5t43 17.5t43 -17.5t18 -41.5v-276l251 298q31 37 70 37q27 0 45.5 -18t18.5 -47zM277 664l77 82q11 11 26 11
q18 0 28 -13l19 -24q9 -10 9 -25q0 -20 -16 -33l-83 -66q-13 -10 -27 -10q-20 0 -33 16q-12 14 -12 31q0 19 12 31z" />
    <glyph glyph-name="uniF35E.var.accented" unicode="&#xf35e;`" horiz-adv-x="659" 
d="M35 261q0 116 82 194q83 77 212 77q130 0 213 -74q82 -73 82 -197q0 -118 -83 -195q-85 -77 -212 -77q-128 0 -211 74t-83 198zM165 261q0 -67 48 -112q47 -45 116 -45q77 0 121 43.5t44 113.5q0 69 -47 113q-46 43 -118 43t-118 -43.5t-46 -112.5zM287 664l77 82
q11 11 26 11q18 0 28 -13l19 -24q9 -10 9 -25q0 -20 -16 -33l-83 -66q-13 -10 -27 -10q-20 0 -33 16q-12 14 -12 31q0 19 12 31z" />
    <glyph glyph-name="uniF363.var.accented" unicode="&#xf363;`" horiz-adv-x="535" 
d="M162 495l133 -215l103 213q18 37 55 37q24 0 40.5 -15.5t16.5 -37.5q0 -12 -7 -27l-161 -322q-67 -136 -168 -136q-32 0 -53.5 18t-21.5 43q0 26 16.5 40.5t45.5 14.5q12 0 16 -1h5q15 3 23.5 11t18.5 27l9 14l-182 273q-11 17 -11 35q0 26 18.5 44.5t46.5 18.5
q34 0 57 -35zM227 664l77 82q11 11 26 11q18 0 28 -13l19 -24q9 -10 9 -25q0 -20 -16 -33l-83 -66q-13 -10 -27 -10q-20 0 -33 16q-12 14 -12 31q0 19 12 31z" />
    <glyph glyph-name="uniF36B.var.accented" unicode="&#xf36b;`" horiz-adv-x="736" 
d="M658 471v-420q0 -24 -18 -41.5t-43 -17.5q-26 0 -44 17.5t-18 41.5v420q0 24 18 41.5t44 17.5q25 0 43 -17.5t18 -41.5zM200 248v-133q22 -2 46 -2q95 0 95 71q0 66 -94 66q-21 0 -47 -2zM78 59v412q0 24 18 41.5t43 17.5t43 -17.5t18 -41.5v-109q22 3 57 3
q104 0 159 -47t55 -131q0 -87 -64 -138t-176 -51q-9 0 -48 0.5t-46 0.5q-25 1 -42 18t-17 42zM307 664l77 82q11 11 26 11q18 0 28 -13l19 -24q9 -10 9 -25q0 -20 -16 -33l-83 -66q-13 -10 -27 -10q-20 0 -33 16q-12 14 -12 31q0 19 12 31z" />
    <glyph glyph-name="uniF36D.var.accented" unicode="&#xf36d;`" horiz-adv-x="543" 
d="M87 128q17 0 39 -7q52 -15 90 -15q138 0 167 104h-186q-24 0 -41 17t-17 41q0 23 17 40t41 17h182q-33 94 -167 94q-50 0 -90 -13q-18 -6 -32 -6q-30 0 -45 28q-6 10 -6 23q0 38 43 57q57 26 135 26q129 0 212 -75t83 -197q0 -126 -84 -198q-83 -73 -227 -73
q-79 0 -128 24q-42 21 -42 59q0 18 10 31q17 23 46 23zM172 664l77 82q11 11 26 11q18 0 28 -13l19 -24q9 -10 9 -25q0 -20 -16 -33l-83 -66q-13 -10 -27 -10q-20 0 -33 16q-12 14 -12 31q0 19 12 31z" />
    <glyph glyph-name="uniF36E.var.accented" unicode="&#xf36e;`" horiz-adv-x="877" 
d="M282 210h-82v-159q0 -24 -18 -41.5t-43 -17.5t-43 17.5t-18 41.5v420q0 24 18 41.5t43 17.5t43 -17.5t18 -41.5v-146h83q19 95 91.5 152t181.5 57q134 0 210 -73t76 -198q0 -122 -77 -197q-78 -75 -209 -75q-109 0 -183 59q-75 58 -91 160zM408 263q0 -69 42 -113
t110 -44q72 0 112 43t40 114t-41.5 113.5t-110.5 42.5q-68 0 -110 -43t-42 -113zM368 664l77 82q11 11 26 11q18 0 28 -13l19 -24q9 -10 9 -25q0 -20 -16 -33l-83 -66q-13 -10 -27 -10q-20 0 -33 16q-12 14 -12 31q0 19 12 31z" />
    <glyph glyph-name="uniF36F.var.accented" unicode="&#xf36f;`" horiz-adv-x="540" 
d="M462 466v-415q0 -24 -18 -41.5t-43 -17.5q-26 0 -44 17.5t-18 41.5v109h-92l-91 -134q-24 -34 -59 -34q-40 0 -53 33t10 62l74 100q-89 51 -89 147q0 82 60 138q61 56 180 56q22 0 124 -2q25 -1 42 -18t17 -42zM237 275h102v135q-33 3 -72 3q-47 0 -72.5 -19t-25.5 -52
q0 -26 19.5 -43.5t48.5 -23.5zM208 664l77 82q11 11 26 11q18 0 28 -13l19 -24q9 -10 9 -25q0 -20 -16 -33l-83 -66q-13 -10 -27 -10q-20 0 -33 16q-12 14 -12 31q0 19 12 31z" />
    <glyph glyph-name="uniF371.var.accented" unicode="&#xf371;`" horiz-adv-x="498" 
d="M89 645q0 27 18.5 43.5t46.5 16.5q23 0 40.5 -17.5t17.5 -42.5q0 -27 -17 -44.5t-41 -17.5q-28 0 -46.5 16.5t-18.5 45.5zM308 645q0 26 18.5 43t45.5 17q25 0 42.5 -17t17.5 -43q0 -28 -17.5 -45t-42.5 -17q-28 0 -46 16.5t-18 45.5zM200 207v-92h187q24 0 41.5 -17
t17.5 -39q0 -24 -17.5 -41.5t-41.5 -17.5h-250q-24 0 -41.5 17.5t-17.5 41.5v407q0 24 17.5 41.5t41.5 17.5h241q24 0 41.5 -17t17.5 -39q0 -24 -17.5 -41.5t-41.5 -17.5h-178v-88h154q24 0 41.5 -17t17.5 -39q0 -24 -17.5 -41.5t-41.5 -17.5h-154zM257 678q-21 0 -34 16
q-12 13 -12 29q0 19 16 36l60 64q12 13 30 13t33 -15l12 -13q11 -11 11 -28q0 -23 -19 -39l-66 -52q-14 -11 -31 -11z" />
    <glyph glyph-name="afii10017.var.accented" unicode="&#x410;`" horiz-adv-x="689" 
d="M549 30l-58 141h-299l-59 -145q-13 -34 -53 -34q-24 0 -40.5 16.5t-16.5 39.5q0 9 5 22l249 585q23 50 69 50q44 0 67 -50l248 -583q5 -15 5 -24q0 -23 -17 -39.5t-40 -16.5q-45 0 -60 38zM444 286l-102 251l-103 -251h205zM293 817l148 77q7 4 16 4q21 0 32 -21l13 -31
q3 -6 3 -14q0 -24 -23 -32l-155 -57q-6 -2 -13 -2q-28 0 -38 25q-4 7 -4 17q0 23 21 34z" />
    <glyph glyph-name="afii10022.var.accented" unicode="&#x415;`" horiz-adv-x="575" 
d="M220 296v-181h236q23 0 39.5 -16.5t16.5 -40.5q0 -25 -16.5 -41.5t-39.5 -16.5h-303q-23 0 -39.5 16.5t-16.5 39.5v588q0 23 16.5 39.5t39.5 16.5h293q23 0 39.5 -16.5t16.5 -40.5q0 -25 -16.5 -41.5t-39.5 -16.5h-226v-174h196q23 0 39.5 -16.5t16.5 -40.5
q0 -25 -16.5 -41.5t-39.5 -16.5h-196zM265 817l148 77q7 4 16 4q21 0 32 -21l13 -31q3 -6 3 -14q0 -24 -23 -32l-155 -57q-6 -2 -13 -2q-28 0 -38 25q-4 7 -4 17q0 23 21 34z" />
    <glyph glyph-name="afii10026.var.accented" unicode="&#x418;`" horiz-adv-x="792" 
d="M695 644v-591q0 -25 -17.5 -43t-43.5 -18t-44 17.5t-18 43.5v443l-345 -466q-29 -38 -68 -38q-29 0 -45.5 16.5t-16.5 43.5v592q0 26 18 43.5t44 17.5q25 0 43 -17.5t18 -43.5v-442l345 467q27 36 66 36q28 0 46 -17t18 -44zM355 817l148 77q7 4 16 4q21 0 32 -21l13 -31
q3 -6 3 -14q0 -24 -23 -32l-155 -57q-6 -2 -13 -2q-28 0 -38 25q-4 7 -4 17q0 23 21 34z" />
    <glyph glyph-name="afii10032.var.accented" unicode="&#x41e;`" horiz-adv-x="819" 
d="M45 350q0 155 103 258q102 103 261 103t262 -100t103 -261q0 -157 -104 -259t-261 -102q-158 0 -261 100t-103 261zM175 350q0 -104 68 -175t166 -71q108 0 172 70q63 71 63 176q0 109 -67 177q-67 69 -168 69t-167 -69q-67 -68 -67 -177zM365 817l148 77q7 4 16 4
q21 0 32 -21l13 -31q3 -6 3 -14q0 -24 -23 -32l-155 -57q-6 -2 -13 -2q-28 0 -38 25q-4 7 -4 17q0 23 21 34z" />
    <glyph glyph-name="afii10037.var.accented" unicode="&#x423;`" horiz-adv-x="652" 
d="M149 673l213 -364l153 357q17 39 54 39q26 0 41.5 -14.5t15.5 -36.5q0 -13 -6 -28l-205 -463q-41 -92 -82 -127q-42 -36 -108 -36q-31 0 -55 9q-38 14 -38 53l2 16q11 35 46 38q2 1 10 1q3 0 18 -1t21 -1q42 0 64 49l10 24l-257 425q-9 17 -9 34q0 25 15.5 41.5
t41.5 16.5q35 0 55 -32zM295 817l148 77q7 4 16 4q21 0 32 -21l13 -31q3 -6 3 -14q0 -24 -23 -32l-155 -57q-6 -2 -13 -2q-28 0 -38 25q-4 7 -4 17q0 23 21 34z" />
    <glyph glyph-name="afii10045.var.accented" unicode="&#x42b;`" horiz-adv-x="864" 
d="M767 644v-591q0 -25 -17.5 -43t-43.5 -18t-43.5 18t-17.5 43v591q0 26 17.5 43.5t43.5 17.5t43.5 -17.5t17.5 -43.5zM220 345v-229q8 0 32 -1.5t34 -1.5q138 0 138 123q0 56 -35 85t-101 29q-16 0 -68 -5zM97 61v583q0 26 18 43.5t44 17.5q25 0 43 -17.5t18 -43.5v-184
q43 5 78 5q125 0 190.5 -59.5t65.5 -166.5q0 -112 -75.5 -176.5t-207.5 -64.5h-58q-26 1 -55 1q-26 1 -43.5 19t-17.5 43zM370 817l148 77q7 4 16 4q22 0 32 -21l13 -31q3 -6 3 -14q0 -24 -23 -32l-155 -57q-6 -2 -13 -2q-28 0 -38 25q-4 7 -4 17q0 23 21 34z" />
    <glyph glyph-name="afii10047.var.accented" unicode="&#x42d;`" horiz-adv-x="661" 
d="M79 144q21 0 40 -10q63 -30 129 -30q96 0 161.5 51.5t80.5 143.5h-259q-23 0 -39.5 16.5t-16.5 41.5q0 24 16.5 40.5t39.5 16.5h256q-18 86 -85 134t-167 48q-57 0 -106 -25q-19 -10 -40 -10q-29 0 -45 24q-9 12 -9 29q0 32 36 54q65 43 186 43q160 0 260 -98
q99 -99 99 -262q0 -165 -99 -263q-99 -99 -267 -99q-119 0 -193 44q-34 19 -34 54q0 16 9 31q17 26 47 26zM223 817l148 77q7 4 16 4q21 0 32 -21l13 -31q3 -6 3 -14q0 -24 -23 -32l-155 -57q-6 -2 -13 -2q-28 0 -38 25q-4 7 -4 17q0 23 21 34z" />
    <glyph glyph-name="afii10048.var.accented" unicode="&#x42e;`" horiz-adv-x="1081" 
d="M337 299h-117v-246q0 -25 -18 -43t-43 -18q-26 0 -44 17.5t-18 43.5v591q0 26 18 43.5t44 17.5q25 0 43 -17.5t18 -43.5v-230h119q20 131 113 214q92 83 229 83q157 0 256 -99q99 -101 99 -262q0 -158 -99 -259q-101 -102 -256 -102q-136 0 -231 85q-96 85 -113 225z
M464 350q0 -105 64 -175q65 -71 157 -71q105 0 164 69q57 69 57 177q0 110 -61 178q-62 68 -160 68q-95 0 -158 -69t-63 -177zM515 817l148 77q7 4 16 4q21 0 32 -21l13 -31q3 -6 3 -14q0 -24 -23 -32l-155 -57q-6 -2 -13 -2q-28 0 -38 25q-4 7 -4 17q0 23 21 34z" />
    <glyph glyph-name="afii10049.var.accented" unicode="&#x42f;`" horiz-adv-x="612" 
d="M515 639v-586q0 -25 -17.5 -43t-43.5 -18t-43.5 18t-17.5 43v189h-101l-143 -219q-19 -31 -52 -31q-26 0 -42 15.5t-16 37.5q0 18 12 36l125 186q-56 28 -89.5 78t-33.5 116q0 105 72 174q73 68 216 68q7 0 113 -2q26 -1 43.5 -19t17.5 -43zM281 357h112v228q-51 3 -77 3
q-60 0 -96.5 -33t-36.5 -86q0 -44 27.5 -73.5t70.5 -38.5zM293 817l148 77q7 4 16 4q21 0 32 -21l13 -31q3 -6 3 -14q0 -24 -23 -32l-155 -57q-6 -2 -13 -2q-28 0 -38 25q-4 7 -4 17q0 23 21 34z" />
    <glyph glyph-name="afii10023.var.accented" unicode="&#x401;`" horiz-adv-x="575" 
d="M97 824q0 29 17 46t42 17q22 0 38.5 -18t16.5 -45q0 -30 -16 -48.5t-39 -18.5q-26 0 -42.5 18t-16.5 49zM399 824q0 27 17.5 45t42.5 18q22 0 38 -18t16 -45q0 -30 -16 -48.5t-38 -18.5q-25 0 -42.5 18.5t-17.5 48.5zM238 772q0 9 5 19l43 87q12 26 39 26q2 0 12 -2
q30 -8 30 -39q0 -16 -10 -26l-73 -79q-10 -10 -21 -10q-25 0 -25 24zM220 296v-181h236q23 0 39.5 -16.5t16.5 -40.5q0 -25 -16.5 -41.5t-39.5 -16.5h-303q-23 0 -39.5 16.5t-16.5 39.5v588q0 23 16.5 39.5t39.5 16.5h293q23 0 39.5 -16.5t16.5 -40.5q0 -25 -16.5 -41.5
t-39.5 -16.5h-226v-174h196q23 0 39.5 -16.5t16.5 -40.5q0 -25 -16.5 -41.5t-39.5 -16.5h-196z" />
    <glyph glyph-name="afii10065.var.accented" unicode="&#x430;`" horiz-adv-x="463" 
d="M35 132q0 70 45 108t119 38q61 0 102 -29v14q0 53 -19.5 77.5t-64.5 24.5q-40 0 -70 -10q-15 -4 -23 -4q-27 0 -39 24q-4 8 -4 19q0 30 33 43q55 24 115 24q94 0 137 -46t43 -141v-229q0 -21 -15 -36t-36 -15q-22 0 -35.5 15t-13.5 39q-43 -54 -133 -54
q-64 0 -102.5 37.5t-38.5 100.5zM301 132v46q-28 22 -79 22q-32 0 -52 -15t-20 -41q0 -24 18 -38.5t46 -14.5q58 0 87 41zM197 600l61 95q11 17 32 17q13 0 23 -7l24 -18q15 -10 15 -31q0 -15 -9 -25l-72 -83q-13 -15 -34 -15q-13 0 -27 8q-19 13 -19 37q0 12 6 22z" />
    <glyph glyph-name="afii10070.var.accented" unicode="&#x435;`" horiz-adv-x="523" 
d="M372 267v2q0 43 -28 69.5t-75 26.5q-98 0 -118 -98h221zM442 190h-287q7 -49 43.5 -77t91.5 -28q45 0 84 17q15 7 26 7q22 0 36 -21q7 -11 7 -22q0 -25 -23 -39q-65 -38 -142 -38q-108 0 -175 65q-67 64 -67 171q0 101 65 169q64 67 173 67q90 0 151 -58q62 -59 62 -151
v-21q-5 -41 -45 -41zM224 600l61 95q11 17 32 17q13 0 23 -7l24 -18q15 -10 15 -31q0 -15 -9 -25l-72 -83q-14 -15 -34 -15q-13 0 -27 8q-19 13 -19 37q0 12 6 22z" />
    <glyph glyph-name="afii10074.var.accented" unicode="&#x438;`" horiz-adv-x="568" 
d="M504 395v-347q0 -23 -16.5 -39.5t-40.5 -16.5q-25 0 -41.5 16.5t-16.5 39.5v232l-187 -245q-33 -43 -73 -43q-29 0 -47 18.5t-18 46.5v344q0 23 16.5 39.5t41.5 16.5q24 0 40.5 -16.5t16.5 -39.5v-232l187 245q31 43 72 43q30 0 48 -17.5t18 -44.5zM233 600l61 95
q11 17 32 17q13 0 23 -7l24 -18q15 -10 15 -31q0 -15 -9 -25l-72 -83q-13 -15 -34 -15q-13 0 -27 8q-19 13 -19 37q0 12 6 22z" />
    <glyph glyph-name="afii10080.var.accented" unicode="&#x43e;`" horiz-adv-x="562" 
d="M104 56q-68 66 -68 169q0 102 68 170q68 66 177 66q111 0 178 -66q67 -67 67 -170t-67 -169q-67 -67 -178 -67q-110 0 -177 67zM159 225q0 -56 34.5 -92.5t87.5 -36.5q54 0 88.5 36t34.5 93q0 56 -35 92t-88 36q-52 0 -87 -36t-35 -92zM238 600l61 95q11 17 32 17
q13 0 23 -7l24 -18q15 -10 15 -31q0 -15 -9 -25l-72 -83q-14 -15 -34 -15q-13 0 -27 8q-19 13 -19 37q0 12 6 22z" />
    <glyph glyph-name="afii10085.var.accented" unicode="&#x443;`" horiz-adv-x="485" 
d="M146 415l90 -211q2 -5 22 -65q6 37 16 66l69 209q13 43 58 43q27 0 43.5 -15.5t16.5 -39.5q0 -14 -6 -31l-146 -371q-46 -119 -84 -160q-37 -40 -90 -40q-34 0 -59 11q-32 14 -32 49q0 21 12.5 34.5t34.5 13.5q4 0 16.5 -1t15.5 -1h6q35 2 62 70l10 24l-170 367
q-7 15 -7 29q0 26 18.5 43.5t49.5 17.5q35 0 54 -42zM197 600l61 95q11 17 32 17q13 0 23 -7l24 -18q15 -10 15 -31q0 -15 -9 -25l-72 -83q-13 -15 -34 -15q-13 0 -27 8q-19 13 -19 37q0 12 6 22z" />
    <glyph glyph-name="afii10093.var.accented" unicode="&#x44b;`" horiz-adv-x="676" 
d="M179 401v-74h56q101 0 149.5 -42t48.5 -114q0 -77 -52 -124t-155 -47h-106q-23 0 -39.5 16.5t-16.5 39.5v345q0 23 16.5 39.5t41.5 16.5q24 0 40.5 -16.5t16.5 -39.5zM612 401v-353q0 -23 -16.5 -39.5t-40.5 -16.5q-25 0 -41.5 16.5t-16.5 39.5v353q0 23 16.5 39.5
t41.5 16.5q24 0 40.5 -16.5t16.5 -39.5zM179 235v-135h45q87 0 87 67q0 68 -86 68h-46zM269 600l61 95q11 17 32 17q13 0 23 -7l24 -18q15 -10 15 -31q0 -15 -9 -25l-72 -83q-13 -15 -34 -15q-13 0 -27 8q-19 13 -19 37q0 12 6 22z" />
    <glyph glyph-name="afii10095.var.accented" unicode="&#x44d;`" horiz-adv-x="475" 
d="M76 118q13 0 32 -8q44 -21 90 -21q52 0 85.5 26t42.5 74h-156q-44 0 -44 39q0 16 11.5 27t32.5 11h155q-11 46 -45.5 70.5t-83.5 24.5q-48 0 -93 -22q-12 -6 -26 -6q-27 0 -40 22q-7 10 -7 23q0 27 28 43q65 40 142 40q111 0 178 -64t67 -172q0 -102 -64 -169t-176 -67
q-90 0 -153 42q-21 15 -21 41q0 16 8 27q13 19 37 19zM156 600l61 95q11 17 32 17q13 0 23 -7l24 -18q15 -10 15 -31q0 -15 -9 -25l-72 -83q-14 -15 -34 -15q-13 0 -27 8q-19 13 -19 37q0 12 6 22z" />
    <glyph glyph-name="afii10096.var.accented" unicode="&#x44e;`" horiz-adv-x="772" 
d="M264 172h-78v-121q0 -24 -18 -41.5t-43 -17.5t-43 17.5t-18 41.5v347q0 24 18 41.5t43 17.5t43 -17.5t18 -41.5v-111h80q18 80 79 127t149 47q108 0 175 -66q67 -67 67 -170q0 -102 -67 -169t-175 -67q-91 0 -152.5 49.5t-77.5 133.5zM389 225q0 -56 29.5 -88.5
t78.5 -32.5t79 32.5t30 88.5t-29.5 88.5t-79.5 32.5q-48 0 -78 -33t-30 -88zM346 600l61 95q11 17 32 17q13 0 23 -7l24 -18q15 -10 15 -31q0 -15 -9 -25l-72 -83q-14 -15 -34 -15q-13 0 -27 8q-19 13 -19 37q0 12 6 22z" />
    <glyph glyph-name="afii10097.var.accented" unicode="&#x44f;`" horiz-adv-x="475" 
d="M68 81l59 79q-37 13 -62 47.5t-25 82.5q0 74 56.5 117t167.5 43h91q23 0 39.5 -16.5t16.5 -39.5v-346q0 -23 -16.5 -39.5t-40.5 -16.5q-25 0 -41.5 16.5t-16.5 39.5v87h-64l-78 -113q-21 -30 -51 -30q-23 0 -37 13t-14 34q0 23 16 42zM236 220h60v130h-51
q-38 0 -60 -19.5t-22 -48.5q0 -26 22 -44t51 -18zM210 600l61 95q11 17 32 17q13 0 23 -7l24 -18q15 -10 15 -31q0 -15 -9 -25l-72 -83q-14 -15 -34 -15q-13 0 -27 8q-19 13 -19 37q0 12 6 22z" />
    <glyph glyph-name="afii10071.var.accented" unicode="&#x451;`" horiz-adv-x="523" 
d="M72 588q0 23 15.5 38t37.5 15q21 0 35.5 -15t14.5 -38q0 -25 -14.5 -40.5t-35.5 -15.5q-24 0 -38.5 15t-14.5 41zM361 588q0 23 15.5 38t37.5 15q21 0 35.5 -15t14.5 -38q0 -26 -14 -41t-36 -15q-24 0 -38.5 15t-14.5 41zM217 590l60 94q11 18 32 18q12 0 23 -8l9 -7
q15 -10 15 -31q0 -15 -9 -25l-72 -83q-14 -17 -34 -17q-6 0 -18 5q-15 9 -15 27q0 13 9 27zM372 267v2q0 43 -28 69.5t-75 26.5q-98 0 -118 -98h221zM487 252v-21q-5 -41 -44 -41h-288q7 -49 43.5 -77t91.5 -28q45 0 84 17q15 7 26 7q22 0 36 -21q7 -11 7 -22q0 -25 -23 -39
q-65 -38 -142 -38q-108 0 -175 65q-67 64 -67 171q0 101 65 169q64 67 173 67q90 0 151 -58q62 -59 62 -151z" />
    <glyph glyph-name="fi" unicode="fi" horiz-adv-x="530" 
d="M477 394v-346q0 -23 -16.5 -39.5t-40.5 -16.5q-25 0 -41.5 16.5t-16.5 39.5v294h-178v-294q0 -23 -16.5 -39.5t-40.5 -16.5q-25 0 -41.5 16.5t-16.5 39.5v458q0 101 52.5 153t147.5 52q98 0 151 -47q18 -16 18 -38t-18 -38q-16 -15 -36 -15q-18 0 -47 15q-27 15 -60 15
q-93 0 -93 -107v-46h237q23 0 39.5 -16.5t16.5 -39.5z" />
    <glyph glyph-name="fl" unicode="fl" horiz-adv-x="567" 
d="M449 625v-454q0 -71 44 -71h16q17 0 24 -3q25 -10 28 -41q-3 -64 -109 -64q-118 0 -118 132v455q-34 24 -71 24q-79 0 -79 -89v-64h25q23 0 39.5 -16t16.5 -38t-16.5 -38t-39.5 -16h-25v-294q0 -23 -16.5 -39.5t-40.5 -16.5q-25 0 -41.5 16.5t-16.5 39.5v475
q0 91 42 139.5t118 48.5q71 0 118 -30h46q23 0 39.5 -16.5t16.5 -39.5z" />
    <glyph glyph-name=".notdef" horiz-adv-x="212" 
 />
    <glyph glyph-name=".null" horiz-adv-x="0" 
 />
    <glyph glyph-name="nonmarkingreturn" horiz-adv-x="333" 
 />
    <glyph glyph-name="space" unicode=" " horiz-adv-x="212" 
 />
    <glyph glyph-name="exclam" unicode="!" horiz-adv-x="309" 
d="M216 644v-341q0 -25 -18 -43t-43 -18t-43 18t-18 43v341q0 26 18 43.5t43 17.5t43 -17.5t18 -43.5zM78 75q0 29 22.5 51.5t57.5 22.5q30 0 51.5 -22.5t21.5 -51.5q0 -33 -21.5 -56.5t-51.5 -23.5q-35 0 -57.5 23.5t-22.5 56.5z" />
    <glyph glyph-name="quotedbl" unicode="&#x22;" horiz-adv-x="431" 
d="M364 644v-129q0 -23 -17 -39.5t-42 -16.5q-23 0 -39.5 16.5t-16.5 39.5v129q0 23 16.5 39.5t41.5 16.5q24 0 40.5 -16.5t16.5 -39.5zM182 644v-129q0 -23 -17 -39.5t-42 -16.5q-23 0 -39.5 16.5t-16.5 39.5v129q0 23 16.5 39.5t41.5 16.5q24 0 40.5 -16.5t16.5 -39.5z
" />
    <glyph glyph-name="numbersign" unicode="#" horiz-adv-x="724" 
d="M638 180h-166l-54 -147q-10 -31 -44 -31q-8 0 -16 3q-32 11 -32 44q0 7 3 15l43 116h-153l-55 -148q-10 -30 -44 -30q-8 0 -16 3q-32 11 -32 43q0 8 3 16l43 116h-32q-19 0 -32.5 14.5t-13.5 35.5t13.5 35.5t32.5 14.5h69l52 140h-121q-19 0 -32.5 14.5t-13.5 35.5
t13.5 35.5t32.5 14.5h159l55 148q12 30 45 30q9 0 16 -3q31 -10 31 -44q0 -7 -3 -15l-43 -116h151l55 148q10 30 45 30q10 0 16 -2q31 -10 31 -44q0 -9 -3 -16l-43 -116h40q19 0 32.5 -14.5t13.5 -35.5t-13.5 -35.5t-32.5 -14.5h-77l-52 -140h129q19 0 32.5 -14.5
t13.5 -35.5t-13.5 -35.5t-32.5 -14.5zM308 420l-52 -140h153l51 140h-152z" />
    <glyph glyph-name="dollar" unicode="$" horiz-adv-x="569" 
d="M58 100q0 20 14 37q17 20 41 20q22 0 47 -16q58 -37 117 -37q44 0 69 21.5t25 60.5q0 37 -32.5 64.5t-79.5 47.5t-93.5 44t-79 68.5t-32.5 107.5q0 67 45.5 119t119.5 68v29q0 23 16.5 39.5t41.5 16.5q24 0 40.5 -16.5t16.5 -39.5v-27q64 -11 96 -33q32 -23 32 -51
q0 -14 -10 -30q-16 -25 -43 -25q-20 0 -40 10q-41 18 -79 18q-51 0 -78.5 -20.5t-27.5 -56.5q0 -34 23.5 -59t58.5 -39.5t76.5 -34.5t76.5 -41.5t58.5 -62t23.5 -95.5q0 -74 -45.5 -125.5t-121.5 -66.5v-39q0 -23 -16.5 -39.5t-40.5 -16.5q-25 0 -41.5 16.5t-16.5 39.5v38
q-103 16 -144 65q-17 20 -17 41z" />
    <glyph glyph-name="percent" unicode="%" horiz-adv-x="910" 
d="M718 633l-460 -615q-14 -18 -36 -18q-12 0 -23 8q-15 12 -15 31q0 14 8 25l461 618q11 14 29 14q12 0 26 -9q17 -12 17 -32q0 -15 -7 -22zM376 402q-56 -50 -142 -50q-85 0 -141 50t-56 129t56 129q55 49 141 49q87 0 142 -49t55 -129t-55 -129zM234 616q-39 0 -64 -23.5
t-25 -61.5q0 -39 25 -62.5t64 -23.5q40 0 65 23.5t25 62.5q0 38 -25.5 61.5t-64.5 23.5zM818 40q-56 -50 -142 -50q-85 0 -141 50t-56 129t56 129q55 49 141 49q87 0 142 -49t55 -129t-55 -129zM676 254q-39 0 -64 -23.5t-25 -61.5q0 -39 25 -62.5t64 -23.5q40 0 65 23.5
t25 62.5q0 38 -25.5 61.5t-64.5 23.5z" />
    <glyph glyph-name="ampersand" unicode="&#x26;" horiz-adv-x="731" 
d="M671 400v-6q-13 -138 -89 -239l51 -61q20 -25 20 -50q0 -22 -15.5 -37t-39.5 -15q-31 0 -61 37l-36 44q-77 -84 -206 -84q-105 0 -170 57q-65 56 -65 144q0 79 40 131q40 53 115 104q-80 38 -80 134q0 69 49 111q50 41 117 41t117 -41q49 -42 49 -111q0 -45 -26.5 -84
t-63.5 -51l136 -177q35 69 44 147q3 27 18.5 43t40.5 16t40 -15.5t15 -37.5zM432 165l-142 194q-55 -44 -77.5 -76.5t-22.5 -69.5q0 -46 31.5 -77.5t77.5 -31.5q88 0 133 61zM242 559q0 -24 17 -41t42 -17t42 17t17 41q0 25 -17.5 42t-41.5 17q-25 0 -42 -17t-17 -42z" />
    <glyph glyph-name="quotesingle" unicode="'" horiz-adv-x="249" 
d="M182 644v-129q0 -23 -17 -39.5t-42 -16.5q-23 0 -39.5 16.5t-16.5 39.5v129q0 23 16.5 39.5t41.5 16.5q24 0 40.5 -16.5t16.5 -39.5z" />
    <glyph glyph-name="parenleft" unicode="(" horiz-adv-x="308" 
d="M294 591q0 -17 -13 -33q-126 -144 -126 -333q0 -191 127 -334q12 -15 12 -31q0 -21 -17 -36q-13 -11 -33 -11q-23 0 -37 14q-167 164 -167 398q0 227 168 398q14 14 37 14q21 0 32 -11q17 -15 17 -35z" />
    <glyph glyph-name="parenright" unicode=")" horiz-adv-x="308" 
d="M31 626q11 12 32.5 11.5t36.5 -14.5q168 -171 168 -398q0 -234 -167 -398q-14 -14 -37 -14q-20 0 -33 11q-17 15 -17 36q0 16 12 31q127 143 127 334q0 189 -126 333q-13 16 -13 33q0 20 17 35z" />
    <glyph glyph-name="asterisk" unicode="*" horiz-adv-x="540" 
d="M272 565q-31 0 -52 21t-21 52q0 30 21.5 51t51.5 21q29 0 50.5 -21.5t21.5 -50.5q0 -30 -21 -51.5t-51 -21.5zM269 261q-30 0 -51 21t-21 50q0 30 21 52t51 22q29 0 50.5 -22t21.5 -52q0 -29 -21.5 -50t-50.5 -21zM464 517q-32 -35 -80 -15t-45 66q0 29 22 51t51 22
q30 0 51.5 -22t21.5 -51q0 -30 -21 -51zM412 334q-29 0 -51 21t-22 50q0 30 22 52t51 22q30 0 51.5 -22t21.5 -52q0 -29 -21.5 -50t-51.5 -21zM127 334q-29 0 -50.5 21t-21.5 50q0 30 21.5 52t50.5 22q31 0 52.5 -22t21.5 -52q0 -29 -21.5 -50t-52.5 -21zM127 496
q-29 0 -50.5 21t-21.5 51q0 29 21.5 51t50.5 22q31 0 52.5 -21.5t21.5 -51.5t-21.5 -51t-52.5 -21z" />
    <glyph glyph-name="plus" unicode="+" 
d="M243 177v133h-127q-21 0 -35.5 14.5t-14.5 35.5t14.5 35.5t35.5 14.5h127v131q0 21 15 35.5t39 14.5t39 -14.5t15 -35.5v-131h129q21 0 35.5 -14.5t14.5 -35.5t-14.5 -35.5t-35.5 -14.5h-129v-133q0 -21 -15 -35.5t-39 -14.5t-39 14.5t-15 35.5z" />
    <glyph glyph-name="comma" unicode="," horiz-adv-x="259" 
d="M126 -1q0 1 -2 9q-8 -8 -26 -8t-35.5 18.5t-15.5 45.5q0 33 20.5 53t56.5 20q39 0 63.5 -31.5t24.5 -80.5q0 -100 -98 -159q-7 -4 -14 -4q-19 0 -29 16q-4 7 -4 16q0 18 15 28q23 18 33 40q11 24 11 37z" />
    <glyph glyph-name="hyphen" unicode="-" horiz-adv-x="376" 
d="M115 327h146q22 0 37.5 -15.5t15.5 -37.5t-15.5 -38t-37.5 -16h-146q-22 0 -37.5 16t-15.5 38t15.5 37.5t37.5 15.5z" />
    <glyph glyph-name="period" unicode="." horiz-adv-x="243" 
d="M125 149q30 0 51.5 -22.5t21.5 -51.5q0 -33 -21.5 -56.5t-51.5 -23.5q-35 0 -57.5 23.5t-22.5 56.5q0 29 22.5 51.5t57.5 22.5z" />
    <glyph glyph-name="slash" unicode="/" horiz-adv-x="369" 
d="M377 633l-296 -796q-12 -31 -46 -31q-9 0 -15 2q-31 10 -31 45q0 8 3 17l296 796q10 31 46 31q10 0 16 -2q30 -11 30 -45q0 -8 -3 -17z" />
    <glyph glyph-name="zero" unicode="0" horiz-adv-x="553" 
d="M277 708q114 0 174 -94.5t60 -263.5q0 -170 -59 -264t-173 -94q-115 0 -176 95t-61 263q0 169 60 263.5t175 94.5zM279 99q59 0 84.5 59t25.5 192q0 132 -26 191t-86 59q-59 0 -85.5 -60.5t-26.5 -189.5q0 -251 114 -251z" />
    <glyph glyph-name="one" unicode="1" horiz-adv-x="377" 
d="M157 50v488l-40 -30q-16 -13 -36 -13q-27 0 -44 20q-13 13 -13 35q0 28 22 44l123 93q19 15 45 15q24 0 41 -17t17 -41v-594q0 -24 -17 -41t-40 -17q-24 0 -41 17t-17 41z" />
    <glyph glyph-name="two" unicode="2" horiz-adv-x="513" 
d="M178 107h235q22 0 37.5 -15.5t15.5 -37.5t-15.5 -38t-37.5 -16h-337q-22 0 -37.5 15.5t-15.5 37.5q0 32 27 59q132 135 166 178q101 125 101 212q0 43 -23 67t-66 24q-51 0 -84 -44q-21 -29 -52 -29q-16 0 -26 7q-26 15 -26 45q0 16 9 32q62 104 192 104q93 0 146 -54
q52 -53 52 -129q0 -187 -251 -409q-1 -1 -10 -9z" />
    <glyph glyph-name="three" unicode="3" horiz-adv-x="520" 
d="M436 533q0 -119 -107 -167q63 -12 98.5 -58t35.5 -111q0 -95 -65 -151q-64 -57 -164 -57q-59 0 -102.5 16t-89.5 52q-23 18 -23 46q0 17 11 34q18 23 46 23q17 0 34 -11q64 -45 117 -45t83 27t30 70q0 48 -34.5 73.5t-95.5 25.5q-24 0 -41.5 16.5t-17.5 41.5
q0 26 16.5 41.5t40.5 15.5q44 0 74.5 27t30.5 69q0 40 -23 62.5t-66 22.5q-45 0 -92 -32q-16 -13 -39 -13q-24 0 -40 19q-11 14 -11 32q0 28 22 46q80 63 171 63t146 -48.5t55 -129.5z" />
    <glyph glyph-name="four" unicode="4" horiz-adv-x="562" 
d="M479 162h-32v-112q0 -24 -17 -41t-40 -17q-24 0 -41 17t-17 41v112h-269q-25 0 -41.5 14.5t-16.5 38.5q0 17 21 55l245 414q16 28 49 28q12 0 30 -8q28 -19 28 -50q0 -16 -8 -30l-208 -347h170v115q0 24 17 41t41 17q23 0 40 -17t17 -41v-115h32q24 0 41 -17t17 -40
q0 -24 -17 -41t-41 -17z" />
    <glyph glyph-name="five" unicode="5" horiz-adv-x="502" 
d="M218 104q50 0 82.5 33t32.5 85q0 55 -40.5 89.5t-108.5 34.5q-26 0 -50 -3q-2 0 -5 -0.5t-5 -0.5q-22 0 -34.5 12.5t-12.5 34.5q0 1 1 5v5l30 245q3 24 21 40t42 16h219q23 0 39.5 -16.5t16.5 -40.5q0 -25 -16.5 -41.5t-39.5 -16.5h-174l-20 -139q20 4 40 4q96 0 158 -61
q62 -62 62 -162q0 -109 -69 -174q-68 -64 -172 -64q-94 0 -174 70q-17 15 -17 39q0 18 12 34q17 20 39 20q19 0 38 -13q53 -35 105 -35z" />
    <glyph glyph-name="six" unicode="6" horiz-adv-x="566" 
d="M325 433q82 0 139 -60t57 -154q0 -105 -68 -167q-67 -63 -158 -63q-115 0 -182 75q-68 76 -68 184q0 171 96 293q89 113 206 161q12 5 27 5q35 0 47 -30q4 -7 4 -19q0 -36 -39 -53q-76 -34 -130 -94.5t-75 -142.5q47 65 144 65zM296 104q45 0 74 31t29 76q0 51 -30 83
t-83 32q-81 0 -119 -79q0 -63 34.5 -103t94.5 -40z" />
    <glyph glyph-name="seven" unicode="7" horiz-adv-x="490" 
d="M124 83l203 502h-244q-24 0 -41 17t-17 41q0 23 17 40t41 17h324q24 0 41 -17t17 -42q0 -18 -7 -35l-224 -563q-16 -43 -60 -43q-24 0 -40 15.5t-16 39.5q0 13 6 28z" />
    <glyph glyph-name="eight" unicode="8" horiz-adv-x="599" 
d="M400 507q0 42 -28 65.5t-74 23.5q-45 0 -72 -25t-27 -64q0 -37 26.5 -63.5t65.5 -26.5h19q38 0 64 26.5t26 63.5zM180 203q0 -43 32.5 -71t86.5 -28q58 0 89.5 26.5t31.5 70.5v2q-1 46 -31 72.5t-79 26.5h-17q-47 0 -80 -27.5t-33 -71.5zM523 527q0 -53 -29.5 -99
t-78.5 -67q55 -13 91 -59.5t36 -110.5q0 -94 -68 -148q-69 -54 -174 -54q-104 0 -174 53q-69 52 -69 139q0 64 32.5 111t87.5 68q-44 19 -72 64t-28 103q0 81 64 133q65 51 158 51q95 0 160 -51q64 -52 64 -133z" />
    <glyph glyph-name="nine" unicode="9" horiz-adv-x="555" 
d="M241 261q-88 0 -150 62q-61 61 -61 155q0 104 71 169q70 64 161 64q114 0 182 -74q66 -73 66 -193q0 -181 -84.5 -295.5t-237.5 -151.5q-14 -2 -15 -2q-18 0 -31.5 11t-16.5 27q-1 3 -1 10q0 35 39 49q174 54 211 232q-46 -63 -133 -63zM262 596q-47 0 -78.5 -32.5
t-31.5 -77.5q0 -49 32.5 -83t84.5 -34q83 0 119 76q0 66 -34 108.5t-92 42.5z" />
    <glyph glyph-name="colon" unicode=":" horiz-adv-x="318" 
d="M162 461q30 0 51.5 -22.5t21.5 -51.5q0 -33 -21.5 -56.5t-51.5 -23.5q-35 0 -57.5 23.5t-22.5 56.5q0 29 22.5 51.5t57.5 22.5zM162 149q30 0 51.5 -22.5t21.5 -51.5q0 -33 -21.5 -56.5t-51.5 -23.5q-35 0 -57.5 23.5t-22.5 56.5q0 29 22.5 51.5t57.5 22.5z" />
    <glyph glyph-name="semicolon" unicode=";" horiz-adv-x="324" 
d="M162 461q30 0 51.5 -22.5t21.5 -51.5q0 -33 -21.5 -56.5t-51.5 -23.5q-35 0 -57.5 23.5t-22.5 56.5q0 29 22.5 51.5t57.5 22.5zM162 -1q0 1 -2 9q-8 -8 -26 -8t-35.5 18.5t-15.5 45.5q0 33 20.5 53t56.5 20q39 0 63.5 -31.5t24.5 -80.5q0 -100 -98 -159q-7 -4 -14 -4
q-19 0 -29 16q-4 7 -4 16q0 18 15 28q23 18 33 40q11 24 11 37z" />
    <glyph glyph-name="less" unicode="&#x3c;" horiz-adv-x="552" 
d="M64 404l350 204q16 9 31 9q21 0 36.5 -16t15.5 -37q0 -31 -32 -51l-275 -151l275 -153q32 -20 32 -51q0 -22 -15.5 -37t-37.5 -15q-15 0 -29 8l-351 204q-31 19 -31 44t31 42z" />
    <glyph glyph-name="equal" unicode="=" 
d="M117 505h362q21 0 36 -15t15 -35t-15 -35t-36 -15h-362q-21 0 -36 15t-15 35t15 35t36 15zM117 315h362q21 0 36 -15t15 -35t-15 -35t-36 -15h-362q-21 0 -36 15t-15 35t15 35t36 15z" />
    <glyph glyph-name="greater" unicode="&#x3e;" horiz-adv-x="552" 
d="M138 608l350 -204q31 -17 31 -42t-31 -44l-351 -204q-14 -8 -29 -8q-22 0 -37.5 15t-15.5 37q0 31 32 51l275 153l-275 151q-32 20 -32 51q0 21 15.5 37t36.5 16q15 0 31 -9z" />
    <glyph glyph-name="question" unicode="?" horiz-adv-x="455" 
d="M292 317q-35 -35 -46 -69q-12 -37 -52 -37q-25 0 -38.5 15.5t-13.5 40.5v5q2 21 13.5 42.5t23.5 32.5q13 13 34 30q2 2 5 4l2 2q2 2 9.5 8.5t16.5 13.5t11 9q23 20 30 32q20 34 20 64q0 36 -27 61t-67 25q-51 0 -82 -22q-51 -35 -81 1q-13 16 -13 33q0 22 20 42
q61 61 163 61q96 0 154 -50q56 -51 56 -126q0 -93 -64 -153q-11 -11 -39 -34.5t-35 -30.5zM122 75q0 29 22.5 51.5t56.5 22.5q31 0 52.5 -22.5t21.5 -51.5q0 -33 -21 -56.5t-53 -23.5q-34 0 -56.5 23.5t-22.5 56.5z" />
    <glyph glyph-name="at" unicode="@" horiz-adv-x="995" 
d="M57 225q0 185 129 313q128 127 322 127q186 0 308 -108q122 -110 122 -284q0 -109 -59 -191q-60 -82 -165 -82h-68q-20 0 -33 10.5t-14 25.5q-50 -47 -124 -47q-101 0 -161 65q-60 64 -60 171q0 101 73 168q74 68 185 68q94 0 169 -37q33 -15 33 -50v-267h20
q42 0 69.5 46t27.5 120q0 121 -88 203t-235 82t-244 -91q-99 -91 -99 -242q0 -143 100 -239q98 -94 243 -94q28 0 53 3q1 0 5 0.5t6 0.5q51 0 58 -43q1 -3 1 -11q0 -22 -14 -36t-37 -17q-37 -5 -72 -5q-196 0 -323 124q-128 125 -128 317zM599 143v188q-45 22 -88 22
q-62 0 -98 -37.5t-36 -95.5q0 -57 32.5 -90.5t86.5 -33.5q59 0 103 47z" />
    <glyph glyph-name="A" unicode="A" horiz-adv-x="689" 
d="M549 30l-58 141h-299l-59 -145q-13 -34 -53 -34q-24 0 -40.5 16.5t-16.5 39.5q0 9 5 22l249 585q23 50 69 50q44 0 67 -50l248 -583q5 -15 5 -24q0 -23 -17 -39.5t-40 -16.5q-45 0 -60 38zM444 286l-102 251l-103 -251h205z" />
    <glyph glyph-name="B" unicode="B" horiz-adv-x="617" 
d="M529 530q0 -112 -100 -160q56 -15 89.5 -57.5t33.5 -106.5q0 -102 -70 -156t-190 -54q-22 0 -134 2q-25 1 -43 19.5t-18 43.5v577q0 25 18 43t43 19q64 3 141 3q116 0 173 -46t57 -127zM307 301h-87v-185q47 -5 81 -5q128 0 128 101q0 44 -32 66.5t-90 22.5zM220 585
v-177h83q47 0 75.5 24t28.5 69q0 42 -29 64.5t-81 22.5q-44 0 -77 -3z" />
    <glyph glyph-name="C" unicode="C" horiz-adv-x="645" 
d="M509 573q-55 23 -106 23q-99 0 -163 -67q-65 -68 -65 -179q0 -109 68 -177q67 -69 174 -69q57 0 112 27q21 10 40 10q28 0 45 -23q10 -13 10 -32q0 -31 -28 -49q-74 -48 -190 -48q-160 0 -261 99q-100 99 -100 262q0 156 95 259q94 102 263 102q87 0 158 -36
q38 -18 38 -52q0 -11 -8 -29q-16 -28 -49 -28q-19 0 -33 7z" />
    <glyph glyph-name="D" unicode="D" horiz-adv-x="741" 
d="M158 701q136 2 145 2q102 0 179 -27.5t123 -76.5t68.5 -109.5t22.5 -132.5q0 -156 -104 -257q-105 -102 -297 -102q-8 0 -25.5 0.5t-50 1t-61.5 0.5q-26 0 -43.5 18t-17.5 43v578q0 25 17.5 43t43.5 19zM220 585v-470q46 -2 79 -2q125 0 196 66t71 178q0 107 -70.5 169
t-194.5 62q-39 0 -81 -3z" />
    <glyph glyph-name="E" unicode="E" horiz-adv-x="575" 
d="M220 296v-181h236q23 0 39.5 -16.5t16.5 -40.5q0 -25 -16.5 -41.5t-39.5 -16.5h-303q-23 0 -39.5 16.5t-16.5 39.5v588q0 23 16.5 39.5t39.5 16.5h293q23 0 39.5 -16.5t16.5 -40.5q0 -25 -16.5 -41.5t-39.5 -16.5h-226v-174h196q23 0 39.5 -16.5t16.5 -40.5
q0 -25 -16.5 -41.5t-39.5 -16.5h-196z" />
    <glyph glyph-name="F" unicode="F" horiz-adv-x="537" 
d="M411 272h-191v-219q0 -25 -18 -43t-43 -18q-26 0 -44 17.5t-18 43.5v591q0 23 16.5 39.5t39.5 16.5h288q23 0 39.5 -16.5t16.5 -40.5q0 -25 -16.5 -41.5t-39.5 -16.5h-221v-198h191q23 0 39.5 -16.5t16.5 -40.5q0 -25 -16.5 -41.5t-39.5 -16.5z" />
    <glyph glyph-name="G" unicode="G" horiz-adv-x="727" 
d="M45 350q0 155 99 259q98 102 265 102q87 0 158 -36q38 -18 38 -52q0 -11 -8 -29q-16 -28 -49 -28q-19 0 -33 7q-55 23 -106 23q-104 0 -169 -65q-65 -67 -65 -181q0 -110 65 -178t172 -68q39 0 81.5 14.5t63.5 33.5v110h-113q-23 0 -39.5 16.5t-16.5 41.5q0 24 16.5 40.5
t39.5 16.5h172q23 0 39.5 -16.5t16.5 -39.5v-189q0 -51 -44 -80q-99 -63 -218 -63q-169 0 -267 98t-98 263z" />
    <glyph glyph-name="H" unicode="H" horiz-adv-x="759" 
d="M662 644v-591q0 -25 -18 -43t-43 -18t-43 18t-18 43v246h-320v-246q0 -25 -18 -43t-43 -18q-26 0 -44 17.5t-18 43.5v591q0 26 18 43.5t44 17.5q25 0 43 -17.5t18 -43.5v-230h320v230q0 26 18 43.5t43 17.5t43 -17.5t18 -43.5z" />
    <glyph glyph-name="I" unicode="I" horiz-adv-x="347" 
d="M235 644v-591q0 -25 -17.5 -43t-43.5 -18t-44 17.5t-18 43.5v591q0 26 18 43.5t44 17.5t43.5 -17.5t17.5 -43.5z" />
    <glyph glyph-name="J" unicode="J" horiz-adv-x="386" 
d="M166 186v458q0 26 18 43.5t44 17.5t43.5 -17.5t17.5 -43.5v-479q0 -85 -43 -130.5t-126 -45.5q-39 0 -68 10q-43 15 -43 54q0 10 2 18q9 38 49 38q2 0 6 -1h3q21 -4 34 -4q63 0 63 82z" />
    <glyph glyph-name="K" unicode="K" horiz-adv-x="649" 
d="M483 29l-263 332v-308q0 -25 -18 -43t-43 -18q-26 0 -44 17.5t-18 43.5v591q0 26 18 43.5t44 17.5q25 0 43 -17.5t18 -43.5v-276l252 304q27 33 56 33q24 0 39.5 -15t15.5 -36q0 -24 -18 -44l-209 -236l227 -278q20 -25 20 -49t-17 -39.5t-44 -15.5q-31 0 -59 37z" />
    <glyph glyph-name="L" unicode="L" horiz-adv-x="547" 
d="M220 644v-529h254q25 0 43 -17t18 -40t-18 -40.5t-43 -17.5h-316q-26 0 -43.5 18t-17.5 43v583q0 26 18 43.5t44 17.5q25 0 43 -17.5t18 -43.5z" />
    <glyph glyph-name="M" unicode="M" horiz-adv-x="901" 
d="M394 263l-174 231v-441q0 -25 -18 -43t-43 -18q-26 0 -44 17.5t-18 43.5v584q0 29 19.5 48.5t49.5 19.5q44 0 77 -44l217 -288l207 286q33 46 76 46q27 0 44 -17.5t17 -43.5v-591q0 -25 -18 -43t-43 -18t-43 18t-18 43v442l-172 -232q-25 -34 -58 -34t-58 34z" />
    <glyph glyph-name="N" unicode="N" horiz-adv-x="792" 
d="M218 671l362 -458v436q0 23 16.5 39.5t41.5 16.5q24 0 40.5 -16.5t16.5 -39.5v-601q0 -24 -15.5 -40t-39.5 -16q-38 0 -66 37l-362 456v-437q0 -23 -16.5 -39.5t-40.5 -16.5q-25 0 -41.5 16.5t-16.5 39.5v601q0 24 17 40t42 16q35 0 62 -34z" />
    <glyph glyph-name="O" unicode="O" horiz-adv-x="819" 
d="M45 350q0 155 103 258q102 103 261 103t262 -100t103 -261q0 -157 -104 -259t-261 -102q-158 0 -261 100t-103 261zM175 350q0 -104 68 -175t166 -71q108 0 172 70q63 71 63 176q0 109 -67 177q-67 69 -168 69t-167 -69q-67 -68 -67 -177z" />
    <glyph glyph-name="P" unicode="P" horiz-adv-x="612" 
d="M296 702q74 0 128.5 -18.5t84.5 -51t44 -71t14 -84.5q0 -95 -68 -161q-67 -66 -188 -66q-61 0 -91 3v-200q0 -25 -18 -43t-43 -18q-26 0 -44 17.5t-18 43.5v586q0 25 17.5 43t43.5 19q42 0 75 1h63zM220 585v-215q53 -5 87 -5q59 0 94.5 29t35.5 84q0 109 -129 109z" />
    <glyph glyph-name="Q" unicode="Q" horiz-adv-x="819" 
d="M619 2l-27 31q-80 -44 -183 -44q-158 0 -261 100t-103 261q0 155 103 258q102 103 261 103t262 -100t103 -261q0 -150 -96 -250l24 -27q14 -17 14 -37q0 -24 -18 -41q-15 -12 -35 -12q-28 0 -44 19zM571 224l26 -30q47 67 47 156q0 109 -67 177q-67 69 -168 69t-167 -69
q-67 -68 -67 -177q0 -104 68 -175t166 -71q57 0 105 22l-23 26q-13 16 -13 37q0 25 17 40q17 14 36 14q24 0 40 -19z" />
    <glyph glyph-name="R" unicode="R" horiz-adv-x="637" 
d="M479 27l-173 235h-86v-209q0 -25 -18 -43t-43 -18q-26 0 -44 17.5t-18 43.5v586q0 25 17.5 43t43.5 18q31 0 67 0.5t55.5 1t29.5 0.5q254 0 254 -216q0 -81 -41 -131q-40 -51 -94 -69l153 -201q13 -16 13 -37q0 -24 -16.5 -40t-42.5 -16q-31 0 -57 35zM220 585v-208h80
q59 0 96.5 29t37.5 79q0 102 -130 102q-5 0 -16 -0.5t-31 -1t-37 -0.5z" />
    <glyph glyph-name="S" unicode="S" horiz-adv-x="529" 
d="M43 104q0 21 15 39q17 20 43 20q23 0 44 -15q59 -44 111 -44q46 0 74 22t28 60q0 32 -23.5 56.5t-58.5 40t-76.5 36t-76.5 43t-58.5 63t-23.5 93.5q0 82 60 138q58 55 158 55q81 0 137 -29q41 -21 41 -55q0 -14 -9 -29q-16 -28 -47 -28q-17 0 -31 7q-48 20 -83 20
q-45 0 -70.5 -21t-25.5 -57q0 -34 23.5 -59t58.5 -39.5t76.5 -34.5t76.5 -41.5t58.5 -62t23.5 -95.5q0 -87 -67 -142q-68 -56 -167 -56q-108 0 -188 68q-23 20 -23 47z" />
    <glyph glyph-name="T" unicode="T" horiz-adv-x="597" 
d="M237 53v532h-171q-23 0 -39.5 16.5t-16.5 41.5q0 24 16.5 40.5t39.5 16.5h465q23 0 39.5 -16.5t16.5 -40.5q0 -25 -16.5 -41.5t-39.5 -16.5h-171v-532q0 -25 -18 -43t-43 -18q-26 0 -44 17.5t-18 43.5z" />
    <glyph glyph-name="U" unicode="U" horiz-adv-x="750" 
d="M541 315v329q0 26 17.5 43.5t43.5 17.5t43.5 -17.5t17.5 -43.5v-354q0 -151 -79 -226q-80 -75 -199 -75q-134 0 -216 80q-82 79 -82 228v347q0 26 18 43.5t44 17.5q25 0 43 -17.5t18 -43.5v-321q0 -104 44.5 -161.5t130.5 -57.5q156 0 156 211z" />
    <glyph glyph-name="V" unicode="V" horiz-adv-x="641" 
d="M134 666l194 -481l186 481q16 39 51 39q27 0 43.5 -15t16.5 -39q0 -15 -6 -30l-235 -585q-18 -44 -61 -44q-42 0 -60 44l-242 586q-5 15 -5 25q0 25 16.5 41.5t43.5 16.5q42 0 58 -39z" />
    <glyph glyph-name="W" unicode="W" horiz-adv-x="972" 
d="M568 646l145 -446l127 454q15 51 57 51q26 0 42 -15.5t16 -37.5q0 -9 -3 -18l-168 -582q-18 -60 -71 -60q-54 0 -74 59l-152 451l-149 -450q-20 -60 -75 -60q-54 0 -72 60l-171 567q-3 11 -3 22q0 28 18.5 46t50.5 18q46 0 61 -51l128 -453l142 445q20 59 76 59
q55 0 75 -59z" />
    <glyph glyph-name="X" unicode="X" horiz-adv-x="630" 
d="M167 670l151 -223l149 222q25 36 57 36q26 0 42 -16t16 -41q0 -18 -11 -35l-176 -256l185 -269q13 -19 13 -38q0 -24 -16.5 -41t-41.5 -17q-33 0 -55 31l-165 240l-163 -239q-23 -32 -55 -32q-25 0 -42.5 16.5t-17.5 39.5q0 20 14 40l185 269l-174 255q-12 18 -12 37
q0 24 17 40t44 16q32 0 56 -35z" />
    <glyph glyph-name="Y" unicode="Y" horiz-adv-x="599" 
d="M148 668l155 -261l153 261q22 37 57 37q25 0 40 -15t15 -38q0 -17 -10 -33l-199 -327v-239q0 -25 -17.5 -43t-43.5 -18t-44 17.5t-18 43.5v239l-195 322q-10 17 -10 34q0 24 17 40.5t44 16.5q34 0 56 -37z" />
    <glyph glyph-name="Z" unicode="Z" horiz-adv-x="631" 
d="M535 0h-457q-24 0 -40 15t-16 39q0 22 24 51l370 480h-311q-23 0 -39.5 16.5t-16.5 41.5q0 24 16.5 40.5t39.5 16.5h429q41 -3 53 -30.5t-23 -76.5l-371 -478h342q23 0 39.5 -16.5t16.5 -40.5q0 -25 -16.5 -41.5t-39.5 -16.5z" />
    <glyph glyph-name="bracketleft" unicode="[" horiz-adv-x="350" 
d="M175 -93h106q22 0 38 -16t16 -38q0 -21 -16 -37t-38 -16h-167q-22 0 -38 16t-16 38v742q0 22 16 38t38 16h167q22 0 38 -16t16 -38t-16 -38t-38 -16h-106v-635z" />
    <glyph glyph-name="backslash" unicode="\" horiz-adv-x="370" 
d="M288 -166l-296 799q-3 9 -3 19q0 32 27 43q9 3 18 3q33 0 45 -30l299 -801q3 -7 3 -15q0 -34 -32 -45q-6 -2 -16 -2q-34 0 -45 29z" />
    <glyph glyph-name="bracketright" unicode="]" horiz-adv-x="350" 
d="M175 542h-106q-22 0 -38 16t-16 38t16 38t38 16h167q22 0 38 -16t16 -38v-742q0 -22 -16 -38t-38 -16h-167q-22 0 -38 16t-16 37q0 22 16 38t38 16h106v635z" />
    <glyph glyph-name="asciicircum" unicode="^" horiz-adv-x="507" 
d="M329 483l-75 110l-77 -110q-23 -33 -50 -33q-21 0 -35 14t-14 34t12 37l102 140q31 43 63 43q31 0 62 -43l100 -140q13 -19 13 -38q0 -20 -13.5 -33.5t-31.5 -13.5q-33 0 -56 33z" />
    <glyph glyph-name="underscore" unicode="_" horiz-adv-x="344" 
d="M54 -85h236q22 0 38 -17t16 -41t-16 -40.5t-38 -16.5h-236q-22 0 -38 16.5t-16 40.5t16 41t38 17z" />
    <glyph glyph-name="grave" unicode="`" horiz-adv-x="315" 
d="M173 693l60 -93q6 -10 6 -23q0 -24 -18 -36q-11 -8 -26 -8q-23 0 -36 15l-71 81q-10 10 -10 26q0 19 15 30l25 18q11 8 23 8q21 0 32 -18z" />
    <glyph glyph-name="a" unicode="a" horiz-adv-x="463" 
d="M35 132q0 70 45 108t119 38q61 0 102 -29v14q0 53 -19.5 77.5t-64.5 24.5q-40 0 -70 -10q-15 -4 -23 -4q-27 0 -39 24q-4 8 -4 19q0 30 33 43q55 24 115 24q94 0 137 -46t43 -141v-229q0 -21 -15 -36t-36 -15q-22 0 -35.5 15t-13.5 39q-43 -54 -133 -54
q-64 0 -102.5 37.5t-38.5 100.5zM301 132v46q-28 22 -79 22q-32 0 -52 -15t-20 -41q0 -24 18 -38.5t46 -14.5q58 0 87 41z" />
    <glyph glyph-name="b" unicode="b" horiz-adv-x="548" 
d="M179 644v-222q49 39 119 39q98 0 157 -63q57 -64 57 -166q0 -111 -69 -177q-71 -66 -188 -66q-72 0 -141 26q-50 20 -50 72v557q0 23 16.5 39.5t41.5 16.5q24 0 40.5 -16.5t16.5 -39.5zM179 310v-191q37 -23 82 -23q57 0 92.5 34.5t35.5 93.5q0 61 -33 95t-85 34
q-55 0 -92 -43z" />
    <glyph glyph-name="c" unicode="c" horiz-adv-x="476" 
d="M351 341q-33 12 -67 12q-49 0 -87 -35q-38 -36 -38 -93t38 -93t92 -36q43 0 74 18q19 12 40 12q23 0 40 -21q10 -13 10 -30q0 -27 -24 -45q-56 -41 -146 -41q-111 0 -179 65t-68 171q0 101 66 168q66 68 167 68q79 0 127 -24q36 -17 36 -48q0 -10 -7 -25q-15 -29 -46 -29
q-13 0 -28 6z" />
    <glyph glyph-name="d" unicode="d" horiz-adv-x="556" 
d="M492 644v-588q0 -28 -14.5 -46t-42.5 -18q-25 0 -41 15t-17 40q-52 -55 -129 -55q-96 0 -154 63q-58 61 -58 165q0 106 69 174q68 67 178 67q57 0 94 -22v205q0 23 16.5 39.5t41.5 16.5q24 0 40.5 -16.5t16.5 -39.5zM377 145v181q-43 27 -89 27q-55 0 -92 -35t-37 -94
q0 -57 32 -91t81 -34q59 0 105 46z" />
    <glyph glyph-name="e" unicode="e" horiz-adv-x="523" 
d="M372 267v2q0 43 -28 69.5t-75 26.5q-98 0 -118 -98h221zM442 190h-287q7 -49 43.5 -77t91.5 -28q45 0 84 17q15 7 26 7q22 0 36 -21q7 -11 7 -22q0 -25 -23 -39q-65 -38 -142 -38q-108 0 -175 65q-67 64 -67 171q0 101 65 169q64 67 173 67q90 0 151 -58q62 -59 62 -151
v-21q-5 -41 -45 -41z" />
    <glyph glyph-name="f" unicode="f" horiz-adv-x="330" 
d="M250 342h-66v-294q0 -23 -16.5 -39.5t-40.5 -16.5q-25 0 -41.5 16.5t-16.5 39.5v475q0 91 42 139.5t118 48.5q111 0 111 -57q0 -53 -57 -53q-5 0 -19.5 1.5t-18.5 1.5q-29 0 -45 -23.5t-16 -66.5v-64h66q23 0 39.5 -16t16.5 -38t-16.5 -38t-39.5 -16z" />
    <glyph glyph-name="g" unicode="g" horiz-adv-x="506" 
d="M228 109q0 -14 9 -23q108 0 172 -38t64 -109t-63.5 -109t-170.5 -38q-108 0 -171 37.5t-63 109.5q0 53 39 88.5t107 50.5q-8 14 -8 31q0 19 10 32q-50 20 -78.5 60.5t-28.5 90.5q0 70 53 120q52 49 139 49q65 0 115 -32l91 20q3 1 11 1q16 0 28.5 -9.5t16.5 -25.5
q1 -2 1 -9q0 -16 -10 -29t-26 -16l-47 -11q11 -30 11 -58q0 -70 -53 -118q-54 -48 -142 -48q-6 -6 -6 -17zM112 -61q0 -26 33.5 -40.5t93.5 -14.5q126 0 126 55q0 25 -33 40t-93 15q-59 0 -93 -15t-34 -40zM177 346q-22 -25 -23 -54.5t23 -52.5t61 -20q37 0 60.5 20t23.5 53
q0 34 -23 55t-61 21q-39 0 -61 -22z" />
    <glyph glyph-name="h" unicode="h" horiz-adv-x="546" 
d="M179 309v-261q0 -23 -16.5 -39.5t-40.5 -16.5q-25 0 -41.5 16.5t-16.5 39.5v596q0 23 16.5 39.5t41.5 16.5q24 0 40.5 -16.5t16.5 -39.5v-235q50 49 129 49q185 0 185 -197v-213q0 -23 -16.5 -39.5t-40.5 -16.5q-25 0 -41.5 16.5t-16.5 39.5v198q0 50 -26 77t-74 27
q-58 0 -99 -41z" />
    <glyph glyph-name="i" unicode="i" horiz-adv-x="277" 
d="M196 401v-353q0 -23 -16.5 -39.5t-40.5 -16.5q-25 0 -41.5 16.5t-16.5 39.5v353q0 23 16.5 39.5t41.5 16.5q24 0 40.5 -16.5t16.5 -39.5zM141 679q27 0 46.5 -19t19.5 -48q0 -32 -19.5 -52t-46.5 -20q-31 0 -51.5 20t-20.5 52q0 30 20.5 48.5t51.5 18.5z" />
    <glyph glyph-name="j" unicode="j" horiz-adv-x="296" 
d="M99 -23v424q0 23 16.5 39.5t41.5 16.5q24 0 40.5 -16.5t16.5 -39.5v-434q0 -175 -141 -175q-42 0 -69 15.5t-27 46.5q0 32 28 41q7 3 22 3h17q55 0 55 79zM160 679q27 0 46.5 -19t19.5 -48q0 -32 -19.5 -52t-46.5 -20q-31 0 -51.5 20t-20.5 52q0 30 20.5 48.5t51.5 18.5z
" />
    <glyph glyph-name="k" unicode="k" horiz-adv-x="494" 
d="M342 23l-138 181q-10 13 -10 32q0 17 10 30l120 160q22 31 54 31q25 0 40 -15t15 -38q0 -20 -13 -36l-102 -124l123 -158q14 -20 14 -38q0 -24 -16.5 -40t-40.5 -16q-34 0 -56 31zM179 644v-596q0 -23 -16.5 -39.5t-40.5 -16.5q-25 0 -41.5 16.5t-16.5 39.5v596
q0 23 16.5 39.5t41.5 16.5q24 0 40.5 -16.5t16.5 -39.5z" />
    <glyph glyph-name="l" unicode="l" horiz-adv-x="299" 
d="M179 644v-473q0 -71 42 -71h17q16 0 23 -3q28 -10 28 -41q0 -64 -109 -64q-116 0 -116 132v520q0 23 16.5 39.5t41.5 16.5q24 0 40.5 -16.5t16.5 -39.5z" />
    <glyph glyph-name="m" unicode="m" horiz-adv-x="800" 
d="M179 401q53 57 141 57q49 0 83.5 -19.5t47.5 -52.5q55 72 152 72q144 0 144 -164v-246q0 -23 -16.5 -39.5t-40.5 -16.5q-25 0 -41.5 16.5t-16.5 39.5v216q0 86 -77 86q-66 0 -93 -52q0 -2 0.5 -15.5t0.5 -17.5v-217q0 -23 -16.5 -39.5t-40.5 -16.5q-25 0 -41.5 16.5
t-16.5 39.5v224q0 36 -19.5 57t-55.5 21q-63 0 -94 -48v-254q0 -23 -16.5 -39.5t-40.5 -16.5q-25 0 -41.5 16.5t-16.5 39.5v346q0 29 16 46t43 17q24 0 40 -15.5t16 -40.5z" />
    <glyph glyph-name="n" unicode="n" horiz-adv-x="546" 
d="M123 457q24 0 40 -15t16 -36q49 52 129 52q185 0 185 -194v-216q0 -23 -16.5 -39.5t-40.5 -16.5q-25 0 -41.5 16.5t-16.5 39.5v196q0 106 -101 106q-55 0 -98 -43v-259q0 -23 -16.5 -39.5t-40.5 -16.5q-25 0 -41.5 16.5t-16.5 39.5v346q0 29 16 46t43 17z" />
    <glyph glyph-name="o" unicode="o" horiz-adv-x="562" 
d="M104 56q-68 66 -68 169q0 102 68 170q68 66 177 66q111 0 178 -66q67 -67 67 -170t-67 -169q-67 -67 -178 -67q-110 0 -177 67zM159 225q0 -56 34.5 -92.5t87.5 -36.5q54 0 88.5 36t34.5 93q0 56 -35 92t-88 36q-52 0 -87 -36t-35 -92z" />
    <glyph glyph-name="p" unicode="p" horiz-adv-x="558" 
d="M179 304v-182q41 -26 95 -26q57 0 91.5 37t34.5 96q0 56 -31.5 90t-86.5 34q-60 0 -103 -49zM64 -144v536q0 31 16 48t43 17q24 0 40 -14t16 -35q50 53 139 53q93 0 148 -64q56 -65 56 -165q0 -105 -66 -174t-172 -69q-68 0 -105 22v-155q0 -23 -16.5 -39.5t-40.5 -16.5
q-25 0 -41.5 16.5t-16.5 39.5z" />
    <glyph glyph-name="q" unicode="q" horiz-adv-x="559" 
d="M496 358v-502q0 -23 -16.5 -39.5t-40.5 -16.5q-25 0 -41.5 16.5t-16.5 39.5v167q-52 -34 -111 -34q-107 0 -170 65q-64 64 -64 171q0 101 73 168q74 68 185 68q80 0 152 -29q50 -21 50 -74zM381 137v194q-45 22 -88 22q-62 0 -98 -37.5t-36 -95.5q0 -54 34.5 -89
t91.5 -35q58 0 96 41z" />
    <glyph glyph-name="r" unicode="r" horiz-adv-x="349" 
d="M123 457q24 0 40 -14.5t16 -35.5q41 53 102 53q24 0 41.5 -13.5t17.5 -38.5q0 -59 -72 -59q-1 0 -7.5 0.5t-8.5 0.5h-7q-43 0 -66 -48v-254q0 -23 -16.5 -39.5t-40.5 -16.5q-25 0 -41.5 16.5t-16.5 39.5v346q0 29 16 46t43 17z" />
    <glyph glyph-name="s" unicode="s" horiz-adv-x="424" 
d="M34 79q0 18 10 28q15 18 36 18q16 0 33 -11q47 -29 104 -29q27 0 43 11t16 31q0 31 -85 55q-34 9 -55.5 17t-48.5 23.5t-40.5 41t-13.5 60.5q0 63 46 100t119 37q79 0 137 -34q24 -15 24 -39q0 -12 -6 -23q-14 -23 -40 -23q-13 0 -27 6q-40 17 -82 17q-24 0 -40 -11.5
t-16 -27.5q0 -12 9 -21.5t26.5 -17t35 -12.5t43.5 -12.5t43 -13.5q38 -14 62 -44t24 -72q0 -66 -49.5 -105t-132.5 -39q-95 0 -156 51q-19 16 -19 39z" />
    <glyph glyph-name="t" unicode="t" horiz-adv-x="347" 
d="M274 102q21 0 33.5 -13.5t12.5 -32.5q0 -30 -31 -46q-40 -20 -95 -20q-73 0 -106.5 44.5t-33.5 136.5v348q0 23 16.5 39.5t41.5 16.5q24 0 40.5 -16.5t16.5 -39.5v-69h89q23 0 39.5 -16t16.5 -38t-16.5 -38t-39.5 -16h-89v-164q0 -81 52 -81q11 0 30.5 2.5t22.5 2.5z" />
    <glyph glyph-name="u" unicode="u" horiz-adv-x="535" 
d="M356 151v250q0 23 16.5 39.5t41.5 16.5q24 0 40.5 -16.5t16.5 -39.5v-353q0 -23 -16.5 -39.5t-41.5 -16.5t-41 17t-16 46q-54 -66 -144 -66q-72 0 -115 48t-43 138v226q0 23 16.5 39.5t41.5 16.5q24 0 40.5 -16.5t16.5 -39.5v-202q0 -103 86 -103q59 0 101 55z" />
    <glyph glyph-name="v" unicode="v" horiz-adv-x="467" 
d="M139 415l68 -158q21 -47 34 -102q14 57 33 104l66 162q15 36 54 36q23 0 38.5 -16t15.5 -38q0 -13 -4 -21l-150 -349q-17 -41 -57 -41q-39 0 -59 41l-153 335q-6 14 -6 28q0 27 17.5 44t46.5 17q38 0 56 -42z" />
    <glyph glyph-name="w" unicode="w" horiz-adv-x="708" 
d="M423 406l72 -200q4 -11 17 -62q7 32 14 65l56 203q12 45 54 45q25 0 40 -14t15 -36q0 -7 -4 -22l-107 -343q-15 -50 -65 -50t-69 49l-79 207q-5 13 -15 53q-7 -33 -16 -55l-78 -205q-18 -49 -65 -49t-64 50l-109 336q-3 10 -3 20q0 25 16 42t43 17q43 0 55 -44l61 -208
q10 -41 13 -60q4 13 7.5 26.5t6 21.5t3.5 12l70 201q18 51 65 51q48 0 66 -51z" />
    <glyph glyph-name="x" unicode="x" horiz-adv-x="478" 
d="M164 425l79 -124l82 124q23 32 53 32q24 0 38.5 -14t14.5 -36q0 -17 -11 -34l-96 -138l103 -152q11 -17 11 -36q0 -24 -15.5 -39.5t-39.5 -15.5q-32 0 -55 32l-89 138l-93 -138q-23 -32 -54 -32q-24 0 -38 14t-14 36q0 18 11 35l106 152l-93 137q-10 16 -10 35
q0 24 16 40t42 16q32 0 52 -32z" />
    <glyph glyph-name="y" unicode="y" horiz-adv-x="485" 
d="M146 415l90 -211q2 -5 22 -65q6 37 16 66l69 209q13 43 58 43q27 0 43.5 -15.5t16.5 -39.5q0 -14 -6 -31l-146 -371q-46 -119 -84 -160q-37 -40 -90 -40q-34 0 -59 11q-32 14 -32 49q0 21 12.5 34.5t34.5 13.5q4 0 16.5 -1t15.5 -1h6q35 2 62 70l10 24l-170 367
q-7 15 -7 29q0 26 18.5 43.5t49.5 17.5q35 0 54 -42z" />
    <glyph glyph-name="z" unicode="z" horiz-adv-x="475" 
d="M389 0h-292q-38 0 -51 32t21 72l215 238h-172q-22 0 -37.5 16t-15.5 38t15.5 38t37.5 16h280q25 0 40 -15t15 -38q0 -25 -24 -51l-215 -239h183q22 0 37.5 -15.5t15.5 -37.5t-15.5 -38t-37.5 -16z" />
    <glyph glyph-name="braceleft" unicode="{" horiz-adv-x="351" 
d="M66 160q-32 26 -42 38.5t-10 27.5t10 27.5t42 37.5q37 28 37 94v112q0 80 36.5 116.5t120.5 36.5h16q28 0 44.5 -15t16.5 -40q0 -22 -15 -37.5t-39 -15.5q-36 0 -50.5 -18.5t-14.5 -66.5v-117q0 -48 -20.5 -78.5t-54.5 -35.5q34 -5 54.5 -35.5t20.5 -78.5v-117
q0 -48 14.5 -66.5t50.5 -18.5q24 0 39 -15.5t15 -37.5q0 -25 -16.5 -40t-44.5 -15h-16q-84 0 -120.5 36.5t-36.5 116.5v112q0 65 -37 93z" />
    <glyph glyph-name="bar" unicode="|" horiz-adv-x="339" 
d="M227 644v-596q0 -23 -16.5 -39.5t-40.5 -16.5q-25 0 -41.5 16.5t-16.5 39.5v596q0 23 16.5 39.5t41.5 16.5q24 0 40.5 -16.5t16.5 -39.5z" />
    <glyph glyph-name="braceright" unicode="}" horiz-adv-x="351" 
d="M285 291q32 -25 42 -37.5t10 -27.5t-10 -27.5t-42 -38.5q-37 -28 -37 -93v-112q0 -80 -36.5 -116.5t-120.5 -36.5h-16q-28 0 -44.5 15t-16.5 40q0 22 15 37.5t39 15.5q36 0 50.5 18.5t14.5 66.5v117q0 48 20.5 78.5t54.5 35.5q-34 5 -54.5 35.5t-20.5 78.5v117
q0 48 -14.5 66.5t-50.5 18.5q-24 0 -39 15.5t-15 37.5q0 25 16.5 40t44.5 15h16q84 0 120.5 -36.5t36.5 -116.5v-112q0 -66 37 -94z" />
    <glyph glyph-name="asciitilde" unicode="~" 
d="M549 330q-61 -56 -129 -56q-40 0 -116 35q-74 34 -109 34q-36 0 -73 -26q-20 -16 -42 -16q-18 0 -31 12q-13 10 -13 31q0 16 11 29q61 69 141 69q43 0 118 -34q78 -35 115 -35q31 0 59 19q25 16 40 16q16 0 30 -15q12 -14 12 -31q0 -19 -13 -32z" />
    <glyph glyph-name="uni00A0" unicode="&#xa0;" horiz-adv-x="212" 
 />
    <glyph glyph-name="exclamdown" unicode="&#xa1;" horiz-adv-x="309" 
d="M94 -188v341q0 25 18 43t43 18t43 -18t18 -43v-341q0 -26 -18 -43.5t-43 -17.5t-43 17.5t-18 43.5zM232 381q0 -29 -22.5 -51.5t-57.5 -22.5q-30 0 -51.5 22.5t-21.5 51.5q0 33 21.5 56.5t51.5 23.5q35 0 57.5 -23.5t22.5 -56.5z" />
    <glyph glyph-name="cent" unicode="&#xa2;" horiz-adv-x="565" 
d="M210 225q0 -57 38 -93t92 -36q42 0 74 18q20 12 40 12q24 0 40 -21q10 -13 10 -30q0 -27 -24 -45q-40 -30 -102 -39v-55q0 -23 -16.5 -39.5t-40.5 -16.5q-25 0 -41.5 16.5t-16.5 39.5v61q-82 18 -129 78.5t-47 149.5q0 84 49 148q48 63 127 81v54q0 23 16.5 39.5
t41.5 16.5q24 0 40.5 -16.5t16.5 -39.5v-51q36 -4 69 -20q36 -17 36 -48q0 -10 -7 -25q-14 -29 -46 -29q-13 0 -28 6q-33 12 -67 12q-49 0 -87 -35q-38 -36 -38 -93z" />
    <glyph glyph-name="sterling" unicode="&#xa3;" horiz-adv-x="588" 
d="M563 81q0 -29 -28 -48q-52 -37 -126 -37q-38 0 -114 26t-114 26q-33 0 -64 -22q-23 -14 -40 -14q-23 0 -40 21q-12 13 -12 32q0 24 17 39q36 30 68 43q33 51 33 118h-35q-21 0 -34.5 13t-13.5 34t13.5 33t34.5 12h16q-1 2 -5 13t-8 21q-11 25 -15 39q-15 40 -15 85
q0 83 64 138q62 55 162 55q98 0 163 -49q27 -19 27 -47q0 -18 -13 -34q-16 -21 -41 -21q-22 0 -45 14q-37 22 -86 22q-45 0 -73 -26.5t-28 -69.5q0 -31 21 -78q19 -46 24 -62h127q21 0 34.5 -12t13.5 -33t-13.5 -34t-34.5 -13h-119q-6 -55 -40 -106q32 -6 88 -26
q63 -22 99 -22q31 0 61 14q19 10 39 10q27 0 41 -21q11 -17 11 -33z" />
    <glyph glyph-name="currency" unicode="&#xa4;" horiz-adv-x="565" 
d="M43 174l44 44q-34 55 -34 124t35 125l-42 44q-14 17 -14 35q0 21 14 35t35 14t35 -14l43 -44q55 32 124 32q68 0 123 -32l46 45q14 14 35 14t35 -14t14 -35t-14 -35l-44 -44q36 -58 36 -126t-35 -124l42 -41q14 -14 14 -35t-14 -35q-15 -15 -36 -15t-35 14l-42 42
q-52 -33 -125 -33t-125 33l-44 -45q-14 -14 -34 -14q-21 0 -36 15t-15 36q0 20 14 34zM283 215q56 0 89.5 36t33.5 91q0 57 -33 92t-90 35q-56 0 -89.5 -35t-33.5 -92q0 -55 34 -91t89 -36z" />
    <glyph glyph-name="yen" unicode="&#xa5;" horiz-adv-x="565" 
d="M467 117h-126v-64q0 -25 -17.5 -43t-43.5 -18t-43.5 17.5t-17.5 43.5v64h-124q-19 0 -32.5 14t-13.5 33t13.5 32.5t32.5 13.5h124v82h-124q-19 0 -32.5 14t-13.5 33t13.5 32.5t32.5 13.5h72l-127 230q-7 13 -7 29q0 25 17.5 43t43.5 18q38 0 54 -33l137 -265l136 265
q17 33 53 33q25 0 41.5 -15.5t16.5 -38.5q0 -16 -8 -30l-132 -236h75q19 0 32.5 -13.5t13.5 -32.5t-13.5 -33t-32.5 -14h-126v-82h126q19 0 32.5 -13.5t13.5 -32.5t-13.5 -33t-32.5 -14z" />
    <glyph glyph-name="brokenbar" unicode="&#xa6;" horiz-adv-x="339" 
d="M112 496v148q0 23 16.5 39.5t41.5 16.5q24 0 40.5 -16.5t16.5 -39.5v-148q0 -23 -16.5 -39.5t-40.5 -16.5q-25 0 -41.5 16.5t-16.5 39.5zM227 204v-148q0 -23 -16.5 -39.5t-40.5 -16.5q-25 0 -41.5 16.5t-16.5 39.5v148q0 23 16.5 39.5t41.5 16.5q24 0 40.5 -16.5
t16.5 -39.5z" />
    <glyph glyph-name="section" unicode="&#xa7;" horiz-adv-x="523" 
d="M202 -83q16 -10 37 -10q25 0 42.5 17.5t17.5 41.5q0 58 -71 99q-80 9 -125.5 59.5t-45.5 124.5q0 60 32.5 106.5t89.5 66.5q-72 46 -72 135q0 62 46.5 102.5t124.5 40.5q68 0 114 -42q18 -16 18 -37q0 -15 -10 -28q-16 -21 -39 -21q-16 0 -43 12q-19 8 -36 8
q-24 0 -42 -17t-18 -41q0 -59 72 -101q80 -9 126 -59.5t46 -124.5q0 -61 -32 -107t-89 -66q69 -47 69 -133q0 -62 -46 -102.5t-125 -40.5q-71 0 -114 39q-18 15 -18 41q0 20 13 33q16 18 37 18q18 0 41 -14zM197 309q-23 -27 -25 -60t24 -60t66 -26q41 0 65 24.5t24 61.5
q0 35 -24.5 60.5t-64.5 25.5q-41 0 -65 -26z" />
    <glyph glyph-name="dieresis" unicode="&#xa8;" horiz-adv-x="443" 
d="M125 532q-28 0 -46.5 18.5t-18.5 48.5q0 29 18.5 46.5t46.5 17.5q25 0 42.5 -18t17.5 -46q0 -30 -17.5 -48.5t-42.5 -18.5zM323 532q-28 0 -46 18.5t-18 48.5q0 29 18 46.5t46 17.5q25 0 42.5 -18t17.5 -46q0 -30 -17.5 -48.5t-42.5 -18.5z" />
    <glyph glyph-name="copyright" unicode="&#xa9;" horiz-adv-x="1017" 
d="M72 221q0 183 126 310q126 126 311 126t311 -126q125 -127 125 -310t-125 -311q-126 -126 -311 -126t-311 126q-126 128 -126 311zM172 220q0 -141 97 -238q96 -98 241 -98q143 0 239 98q96 97 96 238q0 142 -96 239q-96 98 -239 98q-145 0 -241 -98q-97 -97 -97 -239z
M587 341q-33 12 -67 12q-49 0 -87 -35q-38 -36 -38 -93t38 -93t92 -36q43 0 74 18q19 12 40 12q23 0 40 -21q10 -13 10 -30q0 -27 -24 -45q-56 -41 -146 -41q-111 0 -179 65t-68 171q0 101 66 168q66 68 167 68q79 0 127 -24q36 -17 36 -48q0 -10 -7 -25q-15 -29 -46 -29
q-13 0 -28 6z" />
    <glyph glyph-name="ordfeminine" unicode="&#xaa;" horiz-adv-x="445" 
d="M174 527q62 0 106 -21q-4 67 -73 67q-29 0 -57 -7q-8 -2 -17 -2q-29 0 -38 25q-2 6 -2 13q0 24 28 36q55 20 111 20q60 0 104 -35t44 -101v-173q0 -20 -13.5 -33.5t-35.5 -13.5q-23 0 -37 13t-14 34q-42 -47 -124 -47q-49 0 -80 31t-31 78q0 56 34 86t95 30zM280 412v31
q-39 14 -71 14q-57 0 -57 -35t55 -35q36 0 73 25z" />
    <glyph glyph-name="guillemotleft" unicode="&#xab;" horiz-adv-x="537" 
d="M486 372l-106 -122l105 -124q13 -16 13 -35q0 -23 -17 -37q-13 -11 -32 -11q-27 0 -42 18l-127 150q-14 17 -14 39t14 39l131 150q15 18 40 18q21 0 34 -13q15 -14 15 -34q0 -21 -14 -38zM257 372l-106 -122l105 -124q13 -16 13 -35q0 -23 -17 -37q-13 -11 -32 -11
q-27 0 -42 18l-127 150q-14 17 -14 39t14 39l131 150q15 18 40 18q21 0 34 -13q15 -14 15 -34q0 -21 -14 -38z" />
    <glyph glyph-name="logicalnot" unicode="&#xac;" 
d="M445 229v81h-344q-21 0 -35.5 14.5t-14.5 35.5t14.5 35.5t35.5 14.5h394q21 0 35.5 -14.5t14.5 -35.5v-131q0 -21 -14.5 -35.5t-35.5 -14.5t-35.5 14.5t-14.5 35.5z" />
    <glyph glyph-name="uni00AD" unicode="&#xad;" horiz-adv-x="376" 
d="M113 327h150q21 0 36 -15.5t15 -37.5q0 -23 -15 -38.5t-36 -15.5h-150q-21 0 -36 15.5t-15 38.5q0 22 15 37.5t36 15.5z" />
    <glyph glyph-name="registered" unicode="&#xae;" horiz-adv-x="663" 
d="M365 386l-40 62h-27v-51q0 -15 -11 -26t-27 -11t-27.5 11t-11.5 26v206q0 15 11 26t26 11h80q56 0 85 -24.5t29 -68.5q0 -28 -15 -50t-38 -31l34 -45q15 -18 6 -39.5t-35 -21.5q-22 0 -39 26zM298 585v-82h29q21 0 34 12.5t13 30.5q0 39 -47 39h-29zM331 208
q-120 0 -202 85q-84 84 -84 202t83 203q82 84 203 84t204 -84q82 -83 82 -203q0 -118 -83 -203q-83 -84 -203 -84zM194 357q56 -57 137 -57t138 57q56 58 56 138t-56 138q-55 57 -138 57t-138 -57q-56 -58 -56 -138q0 -81 57 -138z" />
    <glyph glyph-name="overscore" unicode="&#xaf;" horiz-adv-x="399" 
d="M106 642h187q19 0 32.5 -13.5t13.5 -32.5t-13.5 -32.5t-32.5 -13.5h-187q-19 0 -32.5 13.5t-13.5 32.5t13.5 32.5t32.5 13.5z" />
    <glyph glyph-name="degree" unicode="&#xb0;" horiz-adv-x="425" 
d="M211 402q-69 0 -117 48q-49 48 -49 118q0 72 49 121q48 48 117 48q71 0 120 -46t49 -117q0 -72 -49 -121q-49 -51 -120 -51zM212 637q-27 0 -47 -19.5t-20 -47.5t20 -48t47 -20q28 0 48 20t20 48t-20 47.5t-48 19.5z" />
    <glyph glyph-name="plusminus" unicode="&#xb1;" 
d="M351 402v-52q0 -21 -15.5 -36t-38.5 -15t-38.5 15t-15.5 36v52h-126q-21 0 -36 15t-15 35t15 35t36 15h126v130q0 21 15.5 36t38.5 15t38.5 -15t15.5 -36v-130h128q21 0 36 -15t15 -35t-15 -35t-36 -15h-128zM117 255h362q21 0 36 -15t15 -35t-15 -35t-36 -15h-362
q-21 0 -36 15t-15 35t15 35t36 15z" />
    <glyph glyph-name="twosuperior" unicode="&#xb2;" horiz-adv-x="365" 
d="M166 435h126q18 0 30.5 -12.5t12.5 -29.5q0 -18 -12.5 -30.5t-30.5 -12.5h-223q-17 0 -28 12t-11 28q4 21 11.5 29.5t35.5 25.5q135 84 135 135q0 27 -26 37t-57 -20q-15 -18 -39 -18q-12 0 -19 3q-29 11 -29 41q0 11 5 23q28 58 132 58q66 0 103 -30t37 -81
q0 -94 -153 -158z" />
    <glyph glyph-name="threesuperior" unicode="&#xb3;" horiz-adv-x="351" 
d="M304 617q0 -64 -77 -82q42 -4 65.5 -27t23.5 -57q0 -47 -43.5 -77t-107.5 -30q-80 0 -132 46q-13 13 -13 30q0 15 11 26q11 12 27 12q18 0 35 -13q28 -20 55 -20q61 0 61 35q0 32 -59 32q-16 0 -26 9.5t-10 26.5q0 16 10 25t26 9q21 0 33.5 9.5t12.5 24.5q0 29 -45 29
q-30 0 -56 -17q-13 -9 -26 -9q-16 0 -28 13q-8 11 -8 22q0 19 18 34q47 38 120 38q60 0 96.5 -24t36.5 -65z" />
    <glyph glyph-name="acute" unicode="&#xb4;" horiz-adv-x="315" 
d="M82 600l61 95q11 17 32 17q13 0 23 -7l24 -18q15 -10 15 -31q0 -15 -9 -25l-72 -83q-13 -15 -34 -15q-13 0 -27 8q-19 13 -19 37q0 12 6 22z" />
    <glyph glyph-name="mu" unicode="&#xb5;" horiz-adv-x="539" 
d="M363 151v250q0 23 16.5 39.5t41.5 16.5q24 0 40.5 -16.5t16.5 -39.5v-353q0 -23 -16.5 -39.5t-41.5 -16.5t-41 17t-16 46q-54 -66 -144 -66q-18 0 -43 5v-138q0 -23 -16.5 -39.5t-40.5 -16.5q-25 0 -41.5 16.5t-16.5 39.5v545q0 23 16.5 39.5t41.5 16.5q24 0 40.5 -16.5
t16.5 -39.5v-211q0 -94 86 -94q59 0 101 55z" />
    <glyph glyph-name="mu" unicode="&#x3bc;" horiz-adv-x="539" 
d="M363 151v250q0 23 16.5 39.5t41.5 16.5q24 0 40.5 -16.5t16.5 -39.5v-353q0 -23 -16.5 -39.5t-41.5 -16.5t-41 17t-16 46q-54 -66 -144 -66q-18 0 -43 5v-138q0 -23 -16.5 -39.5t-40.5 -16.5q-25 0 -41.5 16.5t-16.5 39.5v545q0 23 16.5 39.5t41.5 16.5q24 0 40.5 -16.5
t16.5 -39.5v-211q0 -94 86 -94q59 0 101 55z" />
    <glyph glyph-name="paragraph" unicode="&#xb6;" horiz-adv-x="491" 
d="M150 -98q12 -3 27 -3q80 0 80 113v251q-91 2 -155 60q-65 59 -65 158q0 100 63 160q62 59 159 59h153q22 0 38 -16t16 -38t-16 -38t-38 -16h-40v-584q0 -216 -187 -216q-45 0 -84 19q-34 16 -34 47q0 12 4 20q12 30 44 30q14 0 35 -6z" />
    <glyph glyph-name="middot" unicode="&#xb7;" horiz-adv-x="212" 
d="M109 376q30 0 51.5 -22.5t21.5 -51.5q0 -33 -21.5 -56.5t-51.5 -23.5q-35 0 -57.5 23.5t-22.5 56.5q0 29 22.5 51.5t57.5 22.5z" />
    <glyph glyph-name="cedilla" unicode="&#xb8;" horiz-adv-x="378" 
d="M214 20v-54q104 -8 104 -86q0 -40 -36.5 -64t-101.5 -24q-54 0 -94 24q-15 10 -15 29q0 8 3 14q9 17 29 17q11 0 18 -4q21 -10 43 -10q39 0 39 25q0 19 -15 23q-18 7 -25 17t-7 31v62h58z" />
    <glyph glyph-name="onesuperior" unicode="&#xb9;" horiz-adv-x="261" 
d="M93 393v193l-14 -9q-11 -6 -22 -6q-21 0 -33 15q-7 10 -7 23q0 21 17 32l68 45q29 20 51 20q18 0 29 -12t11 -30v-271q0 -21 -13.5 -34.5t-36.5 -13.5t-36.5 13.5t-13.5 34.5z" />
    <glyph glyph-name="ordmasculine" unicode="&#xba;" horiz-adv-x="498" 
d="M391 351q-56 -50 -142 -50q-85 0 -141 50t-56 129t56 129q55 49 141 49q87 0 142 -49t55 -129t-55 -129zM249 565q-39 0 -64 -23.5t-25 -61.5q0 -39 25 -62.5t64 -23.5q40 0 65 23.5t25 62.5q0 38 -25.5 61.5t-64.5 23.5z" />
    <glyph glyph-name="guillemotright" unicode="&#xbb;" horiz-adv-x="537" 
d="M387 250l-106 122q-14 17 -14 37t16 35q13 12 34 12q24 0 39 -17l131 -150q14 -15 14 -40t-14 -40l-127 -148q-15 -18 -39 -18q-21 0 -34 12q-17 14 -17 38q0 18 12 33zM157 250l-106 122q-14 17 -14 37t16 35q13 12 34 12q24 0 39 -17l131 -150q14 -15 14 -40t-14 -40
l-127 -148q-15 -18 -39 -18q-21 0 -34 12q-17 14 -17 38q0 18 12 33z" />
    <glyph glyph-name="onequarter" unicode="&#xbc;" horiz-adv-x="689" 
d="M98 393v193l-14 -9q-10 -6 -22 -6q-21 0 -33 15q-7 10 -7 23q0 21 17 32l68 45q29 20 51 20q18 0 29 -12t11 -30v-271q0 -21 -13.5 -34.5t-36.5 -13.5t-36.5 13.5t-13.5 34.5zM585 633l-460 -615q-13 -18 -36 -18q-12 0 -23 8q-15 12 -15 31q0 14 8 25l461 618
q11 14 29 14q13 0 26 -9q17 -12 17 -32q0 -15 -7 -22zM609 70v-29q0 -19 -13.5 -32.5t-32.5 -13.5t-32.5 13.5t-13.5 32.5v29h-147q-19 0 -32.5 13.5t-13.5 32.5q0 17 29 58l105 147q9 14 13.5 19t12.5 9.5t20 4.5q25 0 33.5 -21t-6.5 -43l-103 -142h89v31q0 19 13.5 32.5
t32.5 13.5t32.5 -13.5t13.5 -32.5v-31q50 0 50 -37q0 -19 -13.5 -30t-36.5 -11z" />
    <glyph glyph-name="onehalf" unicode="&#xbd;" horiz-adv-x="692" 
d="M98 393v193l-14 -9q-10 -6 -22 -6q-21 0 -33 15q-7 10 -7 23q0 21 17 32l68 45q29 20 51 20q18 0 29 -12t11 -30v-271q0 -21 -13.5 -34.5t-36.5 -13.5t-36.5 13.5t-13.5 34.5zM575 633l-460 -615q-13 -18 -36 -18q-12 0 -23 8q-15 12 -15 31q0 14 8 25l461 618
q11 14 29 14q13 0 26 -9q17 -12 17 -32q0 -15 -7 -22zM493 85h126q18 0 30.5 -12.5t12.5 -29.5q0 -18 -12.5 -30.5t-30.5 -12.5h-223q-17 0 -28 12t-11 28q4 21 11.5 29.5t35.5 25.5q135 84 135 135q0 27 -26 37t-57 -20q-15 -18 -39 -18q-11 0 -19 3q-29 11 -29 41
q0 11 5 23q28 58 132 58q66 0 103 -30t37 -81q0 -93 -153 -158z" />
    <glyph glyph-name="threequarters" unicode="&#xbe;" horiz-adv-x="760" 
d="M676 633l-460 -615q-14 -18 -36 -18q-12 0 -23 8q-15 12 -15 31q0 14 8 25l461 618q11 14 29 14q12 0 26 -9q17 -12 17 -32q0 -15 -7 -22zM680 70v-29q0 -19 -13.5 -32.5t-32.5 -13.5t-32.5 13.5t-13.5 32.5v29h-147q-19 0 -32.5 13.5t-13.5 32.5q0 17 29 58l105 147
q9 14 13.5 19t12.5 9.5t20 4.5q25 0 33.5 -21t-6.5 -43l-103 -142h89v31q0 19 13.5 32.5t32.5 13.5t32.5 -13.5t13.5 -32.5v-31q50 0 50 -37q0 -19 -13.5 -30t-36.5 -11zM314 617q0 -64 -77 -82q42 -4 65.5 -27t23.5 -57q0 -47 -43.5 -77t-107.5 -30q-80 0 -132 46
q-13 13 -13 30q0 15 11 26q11 12 27 12q18 0 35 -13q28 -20 55 -20q61 0 61 35q0 32 -59 32q-16 0 -26 9.5t-10 26.5q0 16 10 25t26 9q21 0 33.5 9.5t12.5 24.5q0 29 -45 29q-30 0 -56 -17q-13 -9 -26 -9q-16 0 -28 13q-8 11 -8 22q0 19 18 34q47 38 120 38q60 0 96.5 -24
t36.5 -65z" />
    <glyph glyph-name="questiondown" unicode="&#xbf;" horiz-adv-x="455" 
d="M181 139q35 35 46 69q12 37 52 37q25 0 38.5 -15.5t13.5 -40.5v-5q-2 -22 -13 -43t-23 -32q-8 -8 -35 -30l-4 -4l-3 -2q-3 -3 -19 -15.5t-18 -14.5q-22 -19 -30 -33q-20 -34 -20 -64q0 -36 27 -61t67 -25q51 0 82 22q51 35 81 -1q13 -16 13 -33q0 -22 -20 -42
q-61 -61 -163 -61q-97 0 -153 50q-57 51 -57 126q0 92 64 154q10 9 38 32.5t36 31.5zM351 381q0 -29 -22.5 -51.5t-56.5 -22.5q-31 0 -52.5 22.5t-21.5 51.5q0 33 21 56.5t53 23.5q34 0 56.5 -23.5t22.5 -56.5z" />
    <glyph glyph-name="Agrave" unicode="&#xc0;" horiz-adv-x="689" 
d="M549 30l-58 141h-299l-59 -145q-13 -34 -53 -34q-24 0 -40.5 16.5t-16.5 39.5q0 9 5 22l249 585q23 50 69 50q44 0 67 -50l248 -583q5 -15 5 -24q0 -23 -17 -39.5t-40 -16.5q-45 0 -60 38zM444 286l-102 251l-103 -251h205zM250 893l146 -75q22 -10 22 -36q0 -7 -4 -16
q-10 -24 -38 -24q-8 0 -14 2l-153 55q-24 7 -24 34q0 8 3 14l13 29q11 21 32 21q10 0 17 -4z" />
    <glyph glyph-name="Aacute" unicode="&#xc1;" horiz-adv-x="689" 
d="M549 30l-58 141h-299l-59 -145q-13 -34 -53 -34q-24 0 -40.5 16.5t-16.5 39.5q0 9 5 22l249 585q23 50 69 50q44 0 67 -50l248 -583q5 -15 5 -24q0 -23 -17 -39.5t-40 -16.5q-45 0 -60 38zM444 286l-102 251l-103 -251h205zM293 817l148 77q7 4 16 4q21 0 32 -21l13 -31
q3 -6 3 -14q0 -24 -23 -32l-155 -57q-6 -2 -13 -2q-28 0 -38 25q-4 7 -4 17q0 23 21 34z" />
    <glyph glyph-name="Acircumflex" unicode="&#xc2;" horiz-adv-x="689" 
d="M549 30l-58 141h-299l-59 -145q-13 -34 -53 -34q-24 0 -40.5 16.5t-16.5 39.5q0 9 5 22l249 585q23 50 69 50q44 0 67 -50l248 -583q5 -15 5 -24q0 -23 -17 -39.5t-40 -16.5q-45 0 -60 38zM444 286l-102 251l-103 -251h205zM445 746l-102 53l-102 -53q-8 -5 -20 -5
q-22 0 -34 18q-6 9 -6 21q0 21 17 33l113 70q13 10 33 10q17 0 32 -9l115 -71q17 -11 17 -32q0 -12 -7 -22q-13 -18 -35 -18q-11 0 -21 5z" />
    <glyph glyph-name="Atilde" unicode="&#xc3;" horiz-adv-x="689" 
d="M549 30l-58 141h-299l-59 -145q-13 -34 -53 -34q-24 0 -40.5 16.5t-16.5 39.5q0 9 5 22l249 585q23 50 69 50q44 0 67 -50l248 -583q5 -15 5 -24q0 -23 -17 -39.5t-40 -16.5q-45 0 -60 38zM444 286l-102 251l-103 -251h205zM520 797q-58 -52 -109 -52q-26 0 -69 22
q-44 22 -72 22q-18 0 -47 -18q-14 -8 -25 -8q-17 0 -31 17q-8 11 -8 23q0 20 14 31q55 46 103 46q31 0 74 -22q44 -23 69 -23q19 0 47 19q15 12 32 11.5t28 -14.5q9 -11 9 -24q0 -17 -15 -30z" />
    <glyph glyph-name="Adieresis" unicode="&#xc4;" horiz-adv-x="689" 
d="M549 30l-58 141h-299l-59 -145q-13 -34 -53 -34q-24 0 -40.5 16.5t-16.5 39.5q0 9 5 22l249 585q23 50 69 50q44 0 67 -50l248 -583q5 -15 5 -24q0 -23 -17 -39.5t-40 -16.5q-45 0 -60 38zM444 286l-102 251l-103 -251h205zM232 887q30 0 50.5 -17.5t20.5 -44.5
q0 -30 -20.5 -48t-50.5 -18q-34 0 -55.5 18t-21.5 48q0 27 22 44.5t55 17.5zM464 887q30 0 50.5 -17.5t20.5 -44.5q0 -30 -20.5 -48t-50.5 -18q-34 0 -55.5 18t-21.5 48q0 27 22 44.5t55 17.5z" />
    <glyph glyph-name="Aring" unicode="&#xc5;" horiz-adv-x="693" 
d="M195 179l-62 -153q-13 -34 -53 -34q-24 0 -40.5 16.5t-16.5 39.5q0 9 5 22l264 627q-85 24 -85 103q0 52 38 80t101 28q65 0 104 -28t39 -80q0 -79 -85 -103l261 -621q5 -12 5 -25q0 -24 -16 -41.5t-40 -17.5q-44 0 -60 40l-60 147h-299zM447 294l-102 249l-103 -249h205
zM292 800q0 -23 15 -35t40 -12q26 0 41.5 12t15.5 35q0 45 -57 45q-55 0 -55 -45z" />
    <glyph glyph-name="AE" unicode="&#xc6;" horiz-adv-x="945" 
d="M590 296v-181h236q23 0 39.5 -16.5t16.5 -40.5q0 -25 -16.5 -41.5t-39.5 -16.5h-303q-23 0 -39.5 16.5t-16.5 39.5v125h-233l-111 -159q-23 -30 -57 -30q-23 0 -38 17t-15 39q0 16 11 33l424 589q22 30 58 30h310q23 0 39.5 -16.5t16.5 -40.5q0 -25 -16.5 -41.5
t-39.5 -16.5h-226v-174h196q23 0 39.5 -16.5t16.5 -40.5q0 -25 -16.5 -41.5t-39.5 -16.5h-196zM467 296v218l-152 -218h152z" />
    <glyph glyph-name="Ccedilla" unicode="&#xc7;" horiz-adv-x="645" 
d="M421 -11v-22q111 -9 111 -87q0 -40 -36 -64t-97 -24q-69 0 -115 31q-13 7 -13 25q0 9 5 17q10 16 28 16q10 0 17 -4q30 -15 50 -15q39 0 39 25q0 16 -17 24q-30 13 -30 43v37q-144 13 -231 111t-87 248q0 156 95 259q94 102 263 102q87 0 158 -36q38 -18 38 -52
q0 -11 -8 -29q-16 -28 -49 -28q-19 0 -33 7q-55 23 -106 23q-99 0 -163 -67q-65 -68 -65 -179q0 -109 68 -177q67 -69 174 -69q57 0 112 27q21 10 40 10q28 0 45 -23q10 -13 10 -32q0 -31 -28 -49q-66 -45 -175 -48z" />
    <glyph glyph-name="Egrave" unicode="&#xc8;" horiz-adv-x="575" 
d="M220 296v-181h236q23 0 39.5 -16.5t16.5 -40.5q0 -25 -16.5 -41.5t-39.5 -16.5h-303q-23 0 -39.5 16.5t-16.5 39.5v588q0 23 16.5 39.5t39.5 16.5h293q23 0 39.5 -16.5t16.5 -40.5q0 -25 -16.5 -41.5t-39.5 -16.5h-226v-174h196q23 0 39.5 -16.5t16.5 -40.5
q0 -25 -16.5 -41.5t-39.5 -16.5h-196zM214 893l146 -75q22 -10 22 -36q0 -7 -4 -16q-10 -24 -38 -24q-8 0 -14 2l-153 55q-24 7 -24 34q0 8 3 14l13 29q11 21 32 21q10 0 17 -4z" />
    <glyph glyph-name="Eacute" unicode="&#xc9;" horiz-adv-x="575" 
d="M220 296v-181h236q23 0 39.5 -16.5t16.5 -40.5q0 -25 -16.5 -41.5t-39.5 -16.5h-303q-23 0 -39.5 16.5t-16.5 39.5v588q0 23 16.5 39.5t39.5 16.5h293q23 0 39.5 -16.5t16.5 -40.5q0 -25 -16.5 -41.5t-39.5 -16.5h-226v-174h196q23 0 39.5 -16.5t16.5 -40.5
q0 -25 -16.5 -41.5t-39.5 -16.5h-196zM250 817l148 77q7 4 16 4q22 0 32 -21l13 -31q3 -6 3 -14q0 -24 -23 -32l-155 -57q-6 -2 -13 -2q-28 0 -38 25q-4 7 -4 17q0 23 21 34z" />
    <glyph glyph-name="Ecircumflex" unicode="&#xca;" horiz-adv-x="575" 
d="M220 296v-181h236q23 0 39.5 -16.5t16.5 -40.5q0 -25 -16.5 -41.5t-39.5 -16.5h-303q-23 0 -39.5 16.5t-16.5 39.5v588q0 23 16.5 39.5t39.5 16.5h293q23 0 39.5 -16.5t16.5 -40.5q0 -25 -16.5 -41.5t-39.5 -16.5h-226v-174h196q23 0 39.5 -16.5t16.5 -40.5
q0 -25 -16.5 -41.5t-39.5 -16.5h-196zM400 746l-102 53l-102 -53q-8 -5 -20 -5q-22 0 -34 18q-6 9 -6 21q0 21 17 33l113 70q13 10 33 10q17 0 32 -9l115 -71q17 -11 17 -32q0 -12 -7 -22q-14 -18 -35 -18q-11 0 -21 5z" />
    <glyph glyph-name="Edieresis" unicode="&#xcb;" horiz-adv-x="575" 
d="M220 296v-181h236q23 0 39.5 -16.5t16.5 -40.5q0 -25 -16.5 -41.5t-39.5 -16.5h-303q-23 0 -39.5 16.5t-16.5 39.5v588q0 23 16.5 39.5t39.5 16.5h293q23 0 39.5 -16.5t16.5 -40.5q0 -25 -16.5 -41.5t-39.5 -16.5h-226v-174h196q23 0 39.5 -16.5t16.5 -40.5
q0 -25 -16.5 -41.5t-39.5 -16.5h-196zM190 887q30 0 50.5 -17.5t20.5 -44.5q0 -30 -20.5 -48t-50.5 -18q-34 0 -55.5 18t-21.5 48q0 27 22 44.5t55 17.5zM422 887q30 0 50.5 -17.5t20.5 -44.5q0 -30 -20.5 -48t-50.5 -18q-34 0 -55.5 18t-21.5 48q0 27 22 44.5t55 17.5z" />
    <glyph glyph-name="Igrave" unicode="&#xcc;" horiz-adv-x="347" 
d="M235 644v-591q0 -25 -17.5 -43t-43.5 -18t-44 17.5t-18 43.5v591q0 26 18 43.5t44 17.5t43.5 -17.5t17.5 -43.5zM69 893l146 -75q22 -10 22 -36q0 -7 -4 -16q-11 -24 -38 -24q-8 0 -14 2l-153 55q-24 7 -24 34q0 8 3 14l13 29q10 21 32 21q10 0 17 -4z" />
    <glyph glyph-name="Iacute" unicode="&#xcd;" horiz-adv-x="347" 
d="M235 644v-591q0 -25 -17.5 -43t-43.5 -18t-44 17.5t-18 43.5v591q0 26 18 43.5t44 17.5t43.5 -17.5t17.5 -43.5zM133 817l148 77q7 4 16 4q21 0 32 -21l13 -31q3 -6 3 -14q0 -24 -23 -32l-155 -57q-6 -2 -13 -2q-28 0 -38 25q-4 7 -4 17q0 23 21 34z" />
    <glyph glyph-name="Icircumflex" unicode="&#xce;" horiz-adv-x="347" 
d="M235 644v-591q0 -25 -17.5 -43t-43.5 -18t-44 17.5t-18 43.5v591q0 26 18 43.5t44 17.5t43.5 -17.5t17.5 -43.5zM273 746l-102 53l-102 -53q-8 -5 -20 -5q-22 0 -34 18q-6 9 -6 21q0 21 17 33l113 70q13 10 33 10q17 0 32 -9l115 -71q17 -11 17 -32q0 -12 -7 -22
q-13 -18 -35 -18q-11 0 -21 5z" />
    <glyph glyph-name="Idieresis" unicode="&#xcf;" horiz-adv-x="347" 
d="M235 644v-591q0 -25 -17.5 -43t-43.5 -18t-44 17.5t-18 43.5v591q0 26 18 43.5t44 17.5t43.5 -17.5t17.5 -43.5zM60 887q30 0 50.5 -17.5t20.5 -44.5q0 -30 -20.5 -48t-50.5 -18q-34 0 -55.5 18t-21.5 48q0 27 22 44.5t55 17.5zM292 887q30 0 50.5 -17.5t20.5 -44.5
q0 -30 -20.5 -48t-50.5 -18q-34 0 -55.5 18t-21.5 48q0 27 22 44.5t55 17.5z" />
    <glyph glyph-name="Eth" unicode="&#xd0;" horiz-adv-x="749" 
d="M303 -2q-8 0 -26.5 0.5t-52.5 1t-65 0.5q-23 0 -38.5 16t-15.5 39v242h-41q-22 0 -38 16t-16 38t16 38t38 16h41v240q0 23 15.5 39t38.5 17q46 0 82 1q35 1 70 1q102 0 179 -27.5t123 -76.5t68.5 -109.5t22.5 -132.5q0 -156 -104 -257q-105 -102 -297 -102zM350 297h-123
v-182q46 -2 80 -2q125 0 196 66t71 178q0 107 -70.5 169t-194.5 62q-40 0 -82 -3v-180h123q22 0 38 -16t16 -38t-16 -38t-38 -16z" />
    <glyph glyph-name="Ntilde" unicode="&#xd1;" horiz-adv-x="792" 
d="M218 671l362 -458v436q0 23 16.5 39.5t41.5 16.5q24 0 40.5 -16.5t16.5 -39.5v-601q0 -24 -15.5 -40t-39.5 -16q-38 0 -66 37l-362 456v-437q0 -23 -16.5 -39.5t-40.5 -16.5q-25 0 -41.5 16.5t-16.5 39.5v601q0 24 17 40t42 16q35 0 62 -34zM578 797q-58 -52 -109 -52
q-26 0 -69 22q-44 22 -72 22q-18 0 -47 -18q-14 -8 -25 -8q-17 0 -31 17q-8 11 -8 23q0 20 14 31q55 46 103 46q31 0 74 -22q44 -23 69 -23q19 0 47 19q15 12 32 11.5t28 -14.5q9 -11 9 -24q0 -17 -15 -30z" />
    <glyph glyph-name="Ograve" unicode="&#xd2;" horiz-adv-x="819" 
d="M45 350q0 155 103 258q102 103 261 103t262 -100t103 -261q0 -157 -104 -259t-261 -102q-158 0 -261 100t-103 261zM175 350q0 -104 68 -175t166 -71q108 0 172 70q63 71 63 176q0 109 -67 177q-67 69 -168 69t-167 -69q-67 -68 -67 -177zM334 893l146 -75q22 -10 22 -36
q0 -7 -4 -16q-10 -24 -38 -24q-8 0 -14 2l-153 55q-24 7 -24 34q0 8 3 14l13 29q11 21 32 21q10 0 17 -4z" />
    <glyph glyph-name="Oacute" unicode="&#xd3;" horiz-adv-x="819" 
d="M45 350q0 155 103 258q102 103 261 103t262 -100t103 -261q0 -157 -104 -259t-261 -102q-158 0 -261 100t-103 261zM175 350q0 -104 68 -175t166 -71q108 0 172 70q63 71 63 176q0 109 -67 177q-67 69 -168 69t-167 -69q-67 -68 -67 -177zM365 817l148 77q7 4 16 4
q21 0 32 -21l13 -31q3 -6 3 -14q0 -24 -23 -32l-155 -57q-6 -2 -13 -2q-28 0 -38 25q-4 7 -4 17q0 23 21 34z" />
    <glyph glyph-name="Ocircumflex" unicode="&#xd4;" horiz-adv-x="819" 
d="M45 350q0 155 103 258q102 103 261 103t262 -100t103 -261q0 -157 -104 -259t-261 -102q-158 0 -261 100t-103 261zM175 350q0 -104 68 -175t166 -71q108 0 172 70q63 71 63 176q0 109 -67 177q-67 69 -168 69t-167 -69q-67 -68 -67 -177zM512 746l-102 53l-102 -53
q-8 -5 -20 -5q-22 0 -34 18q-6 9 -6 21q0 21 17 33l113 70q13 10 33 10q17 0 32 -9l115 -71q17 -11 17 -32q0 -12 -7 -22q-14 -18 -35 -18q-11 0 -21 5z" />
    <glyph glyph-name="Otilde" unicode="&#xd5;" horiz-adv-x="819" 
d="M45 350q0 155 103 258q102 103 261 103t262 -100t103 -261q0 -157 -104 -259t-261 -102q-158 0 -261 100t-103 261zM175 350q0 -104 68 -175t166 -71q108 0 172 70q63 71 63 176q0 109 -67 177q-67 69 -168 69t-167 -69q-67 -68 -67 -177zM580 797q-58 -52 -109 -52
q-26 0 -69 22q-44 22 -72 22q-18 0 -47 -18q-14 -8 -25 -8q-17 0 -31 17q-8 11 -8 23q0 20 14 31q55 46 103 46q31 0 74 -22q44 -23 69 -23q19 0 47 19q15 12 32 11.5t28 -14.5q9 -11 9 -24q0 -17 -15 -30z" />
    <glyph glyph-name="Odieresis" unicode="&#xd6;" horiz-adv-x="819" 
d="M45 350q0 155 103 258q102 103 261 103t262 -100t103 -261q0 -157 -104 -259t-261 -102q-158 0 -261 100t-103 261zM175 350q0 -104 68 -175t166 -71q108 0 172 70q63 71 63 176q0 109 -67 177q-67 69 -168 69t-167 -69q-67 -68 -67 -177zM293 887q30 0 50.5 -17.5
t20.5 -44.5q0 -30 -20.5 -48t-50.5 -18q-34 0 -55.5 18t-21.5 48q0 27 22 44.5t55 17.5zM525 887q30 0 50.5 -17.5t20.5 -44.5q0 -30 -20.5 -48t-50.5 -18q-34 0 -55.5 18t-21.5 48q0 27 22 44.5t55 17.5z" />
    <glyph glyph-name="multiply" unicode="&#xd7;" horiz-adv-x="516" 
d="M93 266l94 94l-93 93q-14 14 -14 35t15 36q14 14 35 14t35 -14l93 -93l93 93q14 14 35 14q22 0 36 -14t14 -36q0 -21 -14 -35l-93 -93l94 -94q14 -14 14 -35t-14 -35q-15 -15 -36 -15t-35 14l-94 94l-94 -94q-14 -14 -34 -14q-21 0 -36 15t-15 36q0 20 14 34z" />
    <glyph glyph-name="Oslash" unicode="&#xd8;" horiz-adv-x="819" 
d="M99 124l10 10q-64 91 -64 216q0 155 103 258q102 103 261 103q121 0 225 -65q16 16 38 16q19 0 32 -13t13 -33q0 -21 -16 -36q73 -100 73 -230q0 -157 -104 -259t-261 -102q-139 0 -234 76l-9 -9q-14 -13 -32 -13q-20 0 -34 15q-14 14 -14 34t13 32zM607 487l-341 -333
q62 -50 143 -50q108 0 172 70q63 71 63 176q0 76 -37 137zM204 227l338 329q-61 40 -133 40q-101 0 -167 -69q-67 -68 -67 -177q0 -67 29 -123z" />
    <glyph glyph-name="Ugrave" unicode="&#xd9;" horiz-adv-x="750" 
d="M541 315v329q0 26 17.5 43.5t43.5 17.5t43.5 -17.5t17.5 -43.5v-354q0 -151 -79 -226q-80 -75 -199 -75q-134 0 -216 80q-82 79 -82 228v347q0 26 18 43.5t44 17.5q25 0 43 -17.5t18 -43.5v-321q0 -104 44.5 -161.5t130.5 -57.5q156 0 156 211zM287 893l146 -75
q22 -10 22 -36q0 -7 -4 -16q-10 -24 -38 -24q-8 0 -14 2l-153 55q-24 7 -24 34q0 8 3 14l13 29q10 21 32 21q10 0 17 -4z" />
    <glyph glyph-name="Uacute" unicode="&#xda;" horiz-adv-x="750" 
d="M541 315v329q0 26 17.5 43.5t43.5 17.5t43.5 -17.5t17.5 -43.5v-354q0 -151 -79 -226q-80 -75 -199 -75q-134 0 -216 80q-82 79 -82 228v347q0 26 18 43.5t44 17.5q25 0 43 -17.5t18 -43.5v-321q0 -104 44.5 -161.5t130.5 -57.5q156 0 156 211zM328 817l148 77q7 4 16 4
q22 0 32 -21l13 -31q3 -6 3 -14q0 -24 -23 -32l-155 -57q-6 -2 -13 -2q-28 0 -38 25q-4 7 -4 17q0 23 21 34z" />
    <glyph glyph-name="Ucircumflex" unicode="&#xdb;" horiz-adv-x="750" 
d="M541 315v329q0 26 17.5 43.5t43.5 17.5t43.5 -17.5t17.5 -43.5v-354q0 -151 -79 -226q-80 -75 -199 -75q-134 0 -216 80q-82 79 -82 228v347q0 26 18 43.5t44 17.5q25 0 43 -17.5t18 -43.5v-321q0 -104 44.5 -161.5t130.5 -57.5q156 0 156 211zM474 746l-102 53l-102 -53
q-8 -5 -20 -5q-22 0 -34 18q-6 9 -6 21q0 21 17 33l113 70q13 10 33 10q17 0 32 -9l115 -71q17 -11 17 -32q0 -12 -7 -22q-14 -18 -35 -18q-11 0 -21 5z" />
    <glyph glyph-name="Udieresis" unicode="&#xdc;" horiz-adv-x="750" 
d="M541 315v329q0 26 17.5 43.5t43.5 17.5t43.5 -17.5t17.5 -43.5v-354q0 -151 -79 -226q-80 -75 -199 -75q-134 0 -216 80q-82 79 -82 228v347q0 26 18 43.5t44 17.5q25 0 43 -17.5t18 -43.5v-321q0 -104 44.5 -161.5t130.5 -57.5q156 0 156 211zM255 887q30 0 50.5 -17.5
t20.5 -44.5q0 -30 -20.5 -48t-50.5 -18q-34 0 -55.5 18t-21.5 48q0 27 22 44.5t55 17.5zM487 887q30 0 50.5 -17.5t20.5 -44.5q0 -30 -20.5 -48t-50.5 -18q-34 0 -55.5 18t-21.5 48q0 27 22 44.5t55 17.5z" />
    <glyph glyph-name="Yacute" unicode="&#xdd;" horiz-adv-x="599" 
d="M148 668l155 -261l153 261q22 37 57 37q25 0 40 -15t15 -38q0 -17 -10 -33l-199 -327v-239q0 -25 -17.5 -43t-43.5 -18t-44 17.5t-18 43.5v239l-195 322q-10 17 -10 34q0 24 17 40.5t44 16.5q34 0 56 -37zM252 817l148 77q7 4 16 4q22 0 32 -21l13 -31q3 -6 3 -14
q0 -24 -23 -32l-155 -57q-6 -2 -13 -2q-28 0 -38 25q-4 7 -4 17q0 23 21 34z" />
    <glyph glyph-name="Thorn" unicode="&#xde;" horiz-adv-x="612" 
d="M296 599q142 0 207 -63q64 -64 64 -161q0 -95 -68 -161q-67 -67 -188 -67q-55 0 -91 4v-98q0 -25 -18 -43t-43 -18q-26 0 -44 17.5t-18 43.5v591q0 26 18 43.5t44 17.5q25 0 43 -17.5t18 -43.5v-47q18 0 38 1t38 1zM220 481v-214q53 -5 87 -5q59 0 94.5 29.5t35.5 84.5
q0 108 -139 108q-50 0 -78 -3z" />
    <glyph glyph-name="germandbls" unicode="&#xdf;" horiz-adv-x="551" 
d="M230 62q0 13 8 27q10 19 34 19q13 0 25 -4q29 -8 37 -8q43 -4 59.5 38t-20.5 82q-15 15 -54.5 42.5t-57.5 49.5q-26 31 -26 68q0 64 41 105q41 39 41 70q0 22 -18.5 37t-46.5 15q-39 0 -57 -27t-18 -86v-442q0 -23 -16.5 -39.5t-40.5 -16.5q-25 0 -41.5 16.5t-16.5 39.5
v452q0 211 207 211q73 0 122 -40q48 -41 48 -98q0 -28 -8.5 -49.5t-20.5 -35t-23.5 -26t-20 -28.5t-8.5 -35q0 -26 17 -46t41 -36t47.5 -34.5t40.5 -50.5t17 -75q0 -69 -45 -119q-45 -49 -114 -49q-70 0 -111 34q-21 18 -21 39z" />
    <glyph glyph-name="agrave" unicode="&#xe0;" horiz-adv-x="463" 
d="M35 132q0 70 45 108t119 38q61 0 102 -29v14q0 53 -19.5 77.5t-64.5 24.5q-40 0 -70 -10q-15 -4 -23 -4q-27 0 -39 24q-4 8 -4 19q0 30 33 43q55 24 115 24q94 0 137 -46t43 -141v-229q0 -21 -15 -36t-36 -15q-22 0 -35.5 15t-13.5 39q-43 -54 -133 -54
q-64 0 -102.5 37.5t-38.5 100.5zM301 132v46q-28 22 -79 22q-32 0 -52 -15t-20 -41q0 -24 18 -38.5t46 -14.5q58 0 87 41zM234 693l60 -93q6 -10 6 -23q0 -24 -18 -36q-11 -8 -26 -8q-22 0 -36 15l-71 81q-10 10 -10 26q0 19 15 30l25 18q11 8 23 8q22 0 32 -18z" />
    <glyph glyph-name="aacute" unicode="&#xe1;" horiz-adv-x="463" 
d="M35 132q0 70 45 108t119 38q61 0 102 -29v14q0 53 -19.5 77.5t-64.5 24.5q-40 0 -70 -10q-15 -4 -23 -4q-27 0 -39 24q-4 8 -4 19q0 30 33 43q55 24 115 24q94 0 137 -46t43 -141v-229q0 -21 -15 -36t-36 -15q-22 0 -35.5 15t-13.5 39q-43 -54 -133 -54
q-64 0 -102.5 37.5t-38.5 100.5zM301 132v46q-28 22 -79 22q-32 0 -52 -15t-20 -41q0 -24 18 -38.5t46 -14.5q58 0 87 41zM177 600l61 95q11 17 32 17q13 0 23 -7l24 -18q15 -10 15 -31q0 -15 -9 -25l-72 -83q-13 -15 -34 -15q-13 0 -27 8q-19 13 -19 37q0 12 6 22z" />
    <glyph glyph-name="acircumflex" unicode="&#xe2;" horiz-adv-x="463" 
d="M35 132q0 70 45 108t119 38q61 0 102 -29v14q0 53 -19.5 77.5t-64.5 24.5q-40 0 -70 -10q-15 -4 -23 -4q-27 0 -39 24q-4 8 -4 19q0 30 33 43q55 24 115 24q94 0 137 -46t43 -141v-229q0 -21 -15 -36t-36 -15q-22 0 -35.5 15t-13.5 39q-43 -54 -133 -54
q-64 0 -102.5 37.5t-38.5 100.5zM301 132v46q-28 22 -79 22q-32 0 -52 -15t-20 -41q0 -24 18 -38.5t46 -14.5q58 0 87 41zM135 523q-21 0 -33 17q-9 11 -9 26q0 22 16 35l89 77q14 12 33 12q21 0 34 -13l88 -76q15 -13 15 -34q0 -19 -10 -29q-14 -17 -34 -17q-14 0 -27 10
l-67 54l-68 -53q-12 -9 -27 -9z" />
    <glyph glyph-name="atilde" unicode="&#xe3;" horiz-adv-x="463" 
d="M35 132q0 70 45 108t119 38q61 0 102 -29v14q0 53 -19.5 77.5t-64.5 24.5q-40 0 -70 -10q-15 -4 -23 -4q-27 0 -39 24q-4 8 -4 19q0 30 33 43q55 24 115 24q94 0 137 -46t43 -141v-229q0 -21 -15 -36t-36 -15q-22 0 -35.5 15t-13.5 39q-43 -54 -133 -54
q-64 0 -102.5 37.5t-38.5 100.5zM301 132v46q-28 22 -79 22q-32 0 -52 -15t-20 -41q0 -24 18 -38.5t46 -14.5q58 0 87 41zM381 573q-54 -48 -99 -48q-23 0 -57 25t-58 25q-10 0 -38 -17q-16 -10 -27 -10q-14 0 -28 15q-7 7 -7 20q0 21 16 34q49 42 93 42q25 0 60 -25t56 -25
q15 0 41 19q17 11 29 11q14 0 26 -13q9 -10 9 -22q0 -18 -16 -31z" />
    <glyph glyph-name="adieresis" unicode="&#xe4;" horiz-adv-x="463" 
d="M35 132q0 70 45 108t119 38q61 0 102 -29v14q0 53 -19.5 77.5t-64.5 24.5q-40 0 -70 -10q-15 -4 -23 -4q-27 0 -39 24q-4 8 -4 19q0 30 33 43q55 24 115 24q94 0 137 -46t43 -141v-229q0 -21 -15 -36t-36 -15q-22 0 -35.5 15t-13.5 39q-43 -54 -133 -54
q-64 0 -102.5 37.5t-38.5 100.5zM301 132v46q-28 22 -79 22q-32 0 -52 -15t-20 -41q0 -24 18 -38.5t46 -14.5q58 0 87 41zM139 532q-28 0 -46.5 18.5t-18.5 48.5q0 29 18.5 46.5t46.5 17.5q25 0 42.5 -18t17.5 -46q0 -30 -17.5 -48.5t-42.5 -18.5zM337 532q-28 0 -46 18.5
t-18 48.5q0 29 18 46.5t46 17.5q25 0 42.5 -18t17.5 -46q0 -30 -17.5 -48.5t-42.5 -18.5z" />
    <glyph glyph-name="aring" unicode="&#xe5;" horiz-adv-x="463" 
d="M35 132q0 70 45 108t119 38q61 0 102 -29v14q0 53 -19.5 77.5t-64.5 24.5q-40 0 -70 -10q-15 -4 -23 -4q-27 0 -39 24q-4 8 -4 19q0 30 33 43q55 24 115 24q94 0 137 -46t43 -141v-229q0 -21 -15 -36t-36 -15q-22 0 -35.5 15t-13.5 39q-43 -54 -133 -54
q-64 0 -102.5 37.5t-38.5 100.5zM301 132v46q-28 22 -79 22q-32 0 -52 -15t-20 -41q0 -24 18 -38.5t46 -14.5q58 0 87 41zM237 494q-54 0 -90 34.5t-36 83.5q0 51 36 85.5t90 34.5t91 -34.5t37 -85.5q0 -49 -37 -83.5t-91 -34.5zM239 669q-33 3 -47 -26.5t0 -59t47 -27.5
q32 -2 45.5 27.5t0 59t-45.5 26.5z" />
    <glyph glyph-name="ae" unicode="&#xe6;" horiz-adv-x="765" 
d="M409 271l206 -4q-2 45 -30 71.5t-77 26.5q-68 0 -101 -57q2 -30 2 -37zM300 129l1 57q-37 14 -79 14q-31 0 -51.5 -15.5t-20.5 -40.5q0 -24 17 -38.5t47 -14.5q45 0 86 38zM302 274q0 44 -22.5 67.5t-62.5 23.5t-70 -10q-15 -4 -23 -4q-27 0 -39 24q-5 10 -5 20
q0 27 30 41q60 25 119 25q93 0 138 -47q64 47 150 47q90 0 151 -58q62 -59 62 -151q0 -16 -1 -20q-6 -42 -44 -42h-276v-43q15 -28 47.5 -45t75.5 -17q48 0 87 17q18 8 29 8q23 0 34 -20q8 -14 8 -24q0 -24 -28 -40q-64 -37 -139 -37q-108 0 -173 59q-72 -57 -154 -57
q-78 0 -119.5 38.5t-41.5 108.5q0 63 45.5 101.5t118.5 38.5q25 0 56.5 -7t45.5 -15q1 4 1 18z" />
    <glyph glyph-name="ccedilla" unicode="&#xe7;" horiz-adv-x="476" 
d="M314 -10v-24q104 -8 104 -86q0 -40 -36.5 -64t-101.5 -24q-53 0 -94 24q-15 10 -15 29q0 8 3 14q9 17 29 17q11 0 18 -4q21 -10 43 -10q39 0 39 25q0 19 -15 23q-18 7 -25 17t-7 31v32q-101 8 -160.5 71.5t-59.5 163.5q0 101 66 168q66 68 167 68q79 0 127 -24
q36 -17 36 -48q0 -10 -7 -25q-15 -29 -46 -29q-13 0 -28 6q-33 12 -67 12q-49 0 -87 -35q-38 -36 -38 -93t38 -93t92 -36q43 0 74 18q19 12 40 12q23 0 40 -21q10 -13 10 -30q0 -27 -24 -45q-48 -36 -115 -40z" />
    <glyph glyph-name="egrave" unicode="&#xe8;" horiz-adv-x="523" 
d="M372 267v2q0 43 -28 69.5t-75 26.5q-98 0 -118 -98h221zM442 190h-287q7 -49 43.5 -77t91.5 -28q45 0 84 17q15 7 26 7q22 0 36 -21q7 -11 7 -22q0 -25 -23 -39q-65 -38 -142 -38q-108 0 -175 65q-67 64 -67 171q0 101 65 169q64 67 173 67q90 0 151 -58q62 -59 62 -151
v-21q-5 -41 -45 -41zM274 693l60 -93q6 -10 6 -23q0 -24 -18 -36q-11 -8 -26 -8q-22 0 -36 15l-71 81q-10 10 -10 26q0 19 15 30l25 18q11 8 23 8q22 0 32 -18z" />
    <glyph glyph-name="eacute" unicode="&#xe9;" horiz-adv-x="523" 
d="M372 267v2q0 43 -28 69.5t-75 26.5q-98 0 -118 -98h221zM442 190h-287q7 -49 43.5 -77t91.5 -28q45 0 84 17q15 7 26 7q22 0 36 -21q7 -11 7 -22q0 -25 -23 -39q-65 -38 -142 -38q-108 0 -175 65q-67 64 -67 171q0 101 65 169q64 67 173 67q90 0 151 -58q62 -59 62 -151
v-21q-5 -41 -45 -41zM227 600l61 95q11 17 32 17q13 0 23 -7l24 -18q15 -10 15 -31q0 -15 -9 -25l-72 -83q-13 -15 -34 -15q-13 0 -27 8q-19 13 -19 37q0 12 6 22z" />
    <glyph glyph-name="ecircumflex" unicode="&#xea;" horiz-adv-x="523" 
d="M372 267v2q0 43 -28 69.5t-75 26.5q-98 0 -118 -98h221zM442 190h-287q7 -49 43.5 -77t91.5 -28q45 0 84 17q15 7 26 7q22 0 36 -21q7 -11 7 -22q0 -25 -23 -39q-65 -38 -142 -38q-108 0 -175 65q-67 64 -67 171q0 101 65 169q64 67 173 67q90 0 151 -58q62 -59 62 -151
v-21q-5 -41 -45 -41zM173 523q-21 0 -33 17q-9 11 -9 26q0 22 16 35l89 77q14 12 33 12q21 0 34 -13l88 -76q15 -13 15 -34q0 -19 -10 -29q-14 -17 -34 -17q-14 0 -27 10l-67 54l-68 -53q-12 -9 -27 -9z" />
    <glyph glyph-name="edieresis" unicode="&#xeb;" horiz-adv-x="523" 
d="M372 267v2q0 43 -28 69.5t-75 26.5q-98 0 -118 -98h221zM442 190h-287q7 -49 43.5 -77t91.5 -28q45 0 84 17q15 7 26 7q22 0 36 -21q7 -11 7 -22q0 -25 -23 -39q-65 -38 -142 -38q-108 0 -175 65q-67 64 -67 171q0 101 65 169q64 67 173 67q90 0 151 -58q62 -59 62 -151
v-21q-5 -41 -45 -41zM172 532q-28 0 -46.5 18.5t-18.5 48.5q0 29 18.5 46.5t46.5 17.5q25 0 42.5 -18t17.5 -46q0 -30 -17.5 -48.5t-42.5 -18.5zM370 532q-28 0 -46 18.5t-18 48.5q0 29 18 46.5t46 17.5q25 0 42.5 -18t17.5 -46q0 -30 -17.5 -48.5t-42.5 -18.5z" />
    <glyph glyph-name="igrave" unicode="&#xec;" horiz-adv-x="277" 
d="M196 401v-353q0 -23 -16.5 -39.5t-40.5 -16.5q-25 0 -41.5 16.5t-16.5 39.5v353q0 23 16.5 39.5t41.5 16.5q24 0 40.5 -16.5t16.5 -39.5zM109 693l60 -93q6 -10 6 -23q0 -24 -18 -36q-11 -8 -26 -8q-23 0 -36 15l-71 81q-10 10 -10 26q0 19 15 30l25 18q11 8 23 8
q21 0 32 -18z" />
    <glyph glyph-name="iacute" unicode="&#xed;" horiz-adv-x="277" 
d="M196 401v-353q0 -23 -16.5 -39.5t-40.5 -16.5q-25 0 -41.5 16.5t-16.5 39.5v353q0 23 16.5 39.5t41.5 16.5q24 0 40.5 -16.5t16.5 -39.5zM85 600l61 95q11 17 32 17q13 0 23 -7l24 -18q15 -10 15 -31q0 -15 -9 -25l-72 -83q-13 -15 -34 -15q-13 0 -27 8q-19 13 -19 37
q0 12 6 22z" />
    <glyph glyph-name="icircumflex" unicode="&#xee;" horiz-adv-x="277" 
d="M196 401v-353q0 -23 -16.5 -39.5t-40.5 -16.5q-25 0 -41.5 16.5t-16.5 39.5v353q0 23 16.5 39.5t41.5 16.5q24 0 40.5 -16.5t16.5 -39.5zM43 523q-21 0 -33 17q-9 10 -9 26q0 22 16 35l89 77q14 12 33 12q21 0 34 -13l88 -76q15 -13 15 -34q0 -19 -10 -29
q-14 -17 -34 -17q-14 0 -27 10l-67 54l-68 -53q-12 -9 -27 -9z" />
    <glyph glyph-name="idieresis" unicode="&#xef;" horiz-adv-x="277" 
d="M196 401v-353q0 -23 -16.5 -39.5t-40.5 -16.5q-25 0 -41.5 16.5t-16.5 39.5v353q0 23 16.5 39.5t41.5 16.5q24 0 40.5 -16.5t16.5 -39.5zM42 532q-28 0 -46.5 18.5t-18.5 48.5q0 29 18.5 46.5t46.5 17.5q25 0 42.5 -18t17.5 -46q0 -30 -17.5 -48.5t-42.5 -18.5zM240 532
q-28 0 -46 18.5t-18 48.5q0 29 18 46.5t46 17.5q25 0 42.5 -18t17.5 -46q0 -30 -17.5 -48.5t-42.5 -18.5z" />
    <glyph glyph-name="eth" unicode="&#xf0;" horiz-adv-x="562" 
d="M104 56q-68 66 -68 169q0 102 68 170q68 66 177 66q62 0 95 -45q-18 60 -61 122l-73 -26q-9 -3 -17 -3q-18 0 -33 10.5t-19 26.5q-3 8 -3 15q0 38 39 53l29 10q-2 2 -18 16q-26 21 -26 45q0 14 10 27q12 17 34 17q15 0 32 -11q38 -23 76 -55l51 18q9 3 19 3
q17 0 31.5 -10t18.5 -25q2 -6 2 -15q0 -40 -42 -56q47 -72 73.5 -155.5t26.5 -158.5q0 -129 -65.5 -202t-179.5 -73q-110 0 -177 67zM159 225q0 -56 34.5 -92.5t87.5 -36.5q57 0 90 42t33 114v17q-11 37 -44.5 60.5t-78.5 23.5q-52 0 -87 -36t-35 -92z" />
    <glyph glyph-name="ntilde" unicode="&#xf1;" horiz-adv-x="546" 
d="M123 457q24 0 40 -15t16 -36q49 52 129 52q185 0 185 -194v-216q0 -23 -16.5 -39.5t-40.5 -16.5q-25 0 -41.5 16.5t-16.5 39.5v196q0 106 -101 106q-55 0 -98 -43v-259q0 -23 -16.5 -39.5t-40.5 -16.5q-25 0 -41.5 16.5t-16.5 39.5v346q0 29 16 46t43 17zM425 573
q-54 -48 -99 -48q-23 0 -57 25t-58 25q-10 0 -38 -17q-16 -10 -27 -10q-14 0 -28 15q-7 7 -7 20q0 21 16 34q49 42 93 42q25 0 60 -25t56 -25q15 0 41 19q17 11 29 11q14 0 26 -13q9 -10 9 -22q0 -18 -16 -31z" />
    <glyph glyph-name="ograve" unicode="&#xf2;" horiz-adv-x="562" 
d="M104 56q-68 66 -68 169q0 102 68 170q68 66 177 66q111 0 178 -66q67 -67 67 -170t-67 -169q-67 -67 -178 -67q-110 0 -177 67zM159 225q0 -56 34.5 -92.5t87.5 -36.5q54 0 88.5 36t34.5 93q0 56 -35 92t-88 36q-52 0 -87 -36t-35 -92zM270 693l60 -93q6 -10 6 -23
q0 -24 -18 -36q-11 -8 -26 -8q-22 0 -36 15l-71 81q-10 10 -10 26q0 19 15 30l25 18q11 8 23 8q22 0 32 -18z" />
    <glyph glyph-name="oacute" unicode="&#xf3;" horiz-adv-x="562" 
d="M104 56q-68 66 -68 169q0 102 68 170q68 66 177 66q111 0 178 -66q67 -67 67 -170t-67 -169q-67 -67 -178 -67q-110 0 -177 67zM159 225q0 -56 34.5 -92.5t87.5 -36.5q54 0 88.5 36t34.5 93q0 56 -35 92t-88 36q-52 0 -87 -36t-35 -92zM233 600l61 95q11 17 32 17
q13 0 23 -7l24 -18q15 -10 15 -31q0 -15 -9 -25l-72 -83q-13 -15 -34 -15q-13 0 -27 8q-19 13 -19 37q0 12 6 22z" />
    <glyph glyph-name="ocircumflex" unicode="&#xf4;" horiz-adv-x="562" 
d="M104 56q-68 66 -68 169q0 102 68 170q68 66 177 66q111 0 178 -66q67 -67 67 -170t-67 -169q-67 -67 -178 -67q-110 0 -177 67zM159 225q0 -56 34.5 -92.5t87.5 -36.5q54 0 88.5 36t34.5 93q0 56 -35 92t-88 36q-52 0 -87 -36t-35 -92zM187 523q-21 0 -33 17q-9 11 -9 26
q0 22 16 35l89 77q14 12 33 12q21 0 34 -13l88 -76q15 -13 15 -34q0 -19 -10 -29q-14 -17 -34 -17q-14 0 -27 10l-67 54l-68 -53q-12 -9 -27 -9z" />
    <glyph glyph-name="otilde" unicode="&#xf5;" horiz-adv-x="562" 
d="M104 56q-68 66 -68 169q0 102 68 170q68 66 177 66q111 0 178 -66q67 -67 67 -170t-67 -169q-67 -67 -178 -67q-110 0 -177 67zM159 225q0 -56 34.5 -92.5t87.5 -36.5q54 0 88.5 36t34.5 93q0 56 -35 92t-88 36q-52 0 -87 -36t-35 -92zM433 573q-54 -48 -99 -48
q-23 0 -57 25t-58 25q-10 0 -38 -17q-16 -10 -27 -10q-14 0 -28 15q-7 7 -7 20q0 21 16 34q49 42 93 42q25 0 60 -25t56 -25q15 0 41 19q17 11 29 11q14 0 26 -13q9 -10 9 -22q0 -18 -16 -31z" />
    <glyph glyph-name="odieresis" unicode="&#xf6;" horiz-adv-x="562" 
d="M104 56q-68 66 -68 169q0 102 68 170q68 66 177 66q111 0 178 -66q67 -67 67 -170t-67 -169q-67 -67 -178 -67q-110 0 -177 67zM159 225q0 -56 34.5 -92.5t87.5 -36.5q54 0 88.5 36t34.5 93q0 56 -35 92t-88 36q-52 0 -87 -36t-35 -92zM191 532q-28 0 -46.5 18.5
t-18.5 48.5q0 29 18.5 46.5t46.5 17.5q25 0 42.5 -18t17.5 -46q0 -30 -17.5 -48.5t-42.5 -18.5zM389 532q-28 0 -46 18.5t-18 48.5q0 29 18 46.5t46 17.5q25 0 42.5 -18t17.5 -46q0 -30 -17.5 -48.5t-42.5 -18.5z" />
    <glyph glyph-name="divide" unicode="&#xf7;" 
d="M298 622q29 0 48 -19t19 -46q0 -29 -19 -49.5t-48 -20.5q-30 0 -49 20.5t-19 49.5q0 27 19 46t49 19zM298 230q28 0 47.5 -20t19.5 -46q0 -29 -19 -49.5t-48 -20.5q-30 0 -49 20t-19 50q0 26 19 46t49 20zM116 410h364q21 0 35.5 -14.5t14.5 -35.5t-14.5 -35.5
t-35.5 -14.5h-364q-21 0 -35.5 14.5t-14.5 35.5t14.5 35.5t35.5 14.5z" />
    <glyph glyph-name="oslash" unicode="&#xf8;" horiz-adv-x="577" 
d="M130 36l-17 -15q-6 -9 -21 -9t-24 12q-8 11 -8 22q0 16 11 24l13 11q-48 60 -48 144q0 101 71 169q70 67 182 67q91 0 158 -48l17 15q11 8 21 8q15 0 24 -11q8 -11 8 -20q0 -15 -12 -25l-13 -11q49 -61 49 -144q0 -102 -70 -169t-182 -67q-92 0 -159 47zM404 288
l-188 -173q31 -19 73 -19q59 0 94.5 35.5t35.5 93.5q0 36 -15 63zM173 162l188 172q-31 19 -72 19q-58 0 -94 -35t-36 -93q0 -33 14 -63z" />
    <glyph glyph-name="ugrave" unicode="&#xf9;" horiz-adv-x="535" 
d="M356 151v250q0 23 16.5 39.5t41.5 16.5q24 0 40.5 -16.5t16.5 -39.5v-353q0 -23 -16.5 -39.5t-41.5 -16.5t-41 17t-16 46q-54 -66 -144 -66q-72 0 -115 48t-43 138v226q0 23 16.5 39.5t41.5 16.5q24 0 40.5 -16.5t16.5 -39.5v-202q0 -103 86 -103q59 0 101 55zM252 693
l60 -93q6 -10 6 -23q0 -24 -18 -36q-11 -8 -26 -8q-22 0 -36 15l-71 81q-10 10 -10 26q0 19 15 30l25 18q11 8 23 8q22 0 32 -18z" />
    <glyph glyph-name="uacute" unicode="&#xfa;" horiz-adv-x="535" 
d="M356 151v250q0 23 16.5 39.5t41.5 16.5q24 0 40.5 -16.5t16.5 -39.5v-353q0 -23 -16.5 -39.5t-41.5 -16.5t-41 17t-16 46q-54 -66 -144 -66q-72 0 -115 48t-43 138v226q0 23 16.5 39.5t41.5 16.5q24 0 40.5 -16.5t16.5 -39.5v-202q0 -103 86 -103q59 0 101 55zM223 600
l61 95q11 17 32 17q13 0 23 -7l24 -18q15 -10 15 -31q0 -15 -9 -25l-72 -83q-13 -15 -34 -15q-13 0 -27 8q-19 13 -19 37q0 12 6 22z" />
    <glyph glyph-name="ucircumflex" unicode="&#xfb;" horiz-adv-x="535" 
d="M356 151v250q0 23 16.5 39.5t41.5 16.5q24 0 40.5 -16.5t16.5 -39.5v-353q0 -23 -16.5 -39.5t-41.5 -16.5t-41 17t-16 46q-54 -66 -144 -66q-72 0 -115 48t-43 138v226q0 23 16.5 39.5t41.5 16.5q24 0 40.5 -16.5t16.5 -39.5v-202q0 -103 86 -103q59 0 101 55zM171 523
q-21 0 -33 17q-9 11 -9 26q0 22 16 35l89 77q14 12 33 12q21 0 34 -13l88 -76q15 -13 15 -34q0 -19 -10 -29q-14 -17 -34 -17q-14 0 -27 10l-67 54l-68 -53q-12 -9 -27 -9z" />
    <glyph glyph-name="udieresis" unicode="&#xfc;" horiz-adv-x="535" 
d="M356 151v250q0 23 16.5 39.5t41.5 16.5q24 0 40.5 -16.5t16.5 -39.5v-353q0 -23 -16.5 -39.5t-41.5 -16.5t-41 17t-16 46q-54 -66 -144 -66q-72 0 -115 48t-43 138v226q0 23 16.5 39.5t41.5 16.5q24 0 40.5 -16.5t16.5 -39.5v-202q0 -103 86 -103q59 0 101 55zM168 532
q-28 0 -46.5 18.5t-18.5 48.5q0 29 18.5 46.5t46.5 17.5q25 0 42.5 -18t17.5 -46q0 -30 -17.5 -48.5t-42.5 -18.5zM366 532q-28 0 -46 18.5t-18 48.5q0 29 18 46.5t46 17.5q25 0 42.5 -18t17.5 -46q0 -30 -17.5 -48.5t-42.5 -18.5z" />
    <glyph glyph-name="yacute" unicode="&#xfd;" horiz-adv-x="485" 
d="M146 415l90 -211q2 -5 22 -65q6 37 16 66l69 209q13 43 58 43q27 0 43.5 -15.5t16.5 -39.5q0 -14 -6 -31l-146 -371q-46 -119 -84 -160q-37 -40 -90 -40q-34 0 -59 11q-32 14 -32 49q0 21 12.5 34.5t34.5 13.5q4 0 16.5 -1t15.5 -1h6q35 2 62 70l10 24l-170 367
q-7 15 -7 29q0 26 18.5 43.5t49.5 17.5q35 0 54 -42zM187 600l61 95q11 17 32 17q13 0 23 -7l24 -18q15 -10 15 -31q0 -15 -9 -25l-72 -83q-13 -15 -34 -15q-13 0 -27 8q-19 13 -19 37q0 12 6 22z" />
    <glyph glyph-name="thorn" unicode="&#xfe;" horiz-adv-x="558" 
d="M179 11v-155q0 -23 -16.5 -39.5t-40.5 -16.5q-25 0 -41.5 16.5t-16.5 39.5v788q0 23 16.5 39.5t41.5 16.5q24 0 40.5 -16.5t16.5 -39.5v-230q55 47 139 47q93 0 148 -64q56 -65 56 -165q0 -105 -66 -174t-172 -69q-68 0 -105 22zM179 304v-182q41 -26 95 -26
q57 0 91.5 37t34.5 96q0 56 -31.5 90t-86.5 34q-60 0 -103 -49z" />
    <glyph glyph-name="ydieresis" unicode="&#xff;" horiz-adv-x="485" 
d="M146 415l90 -211q2 -5 22 -65q6 37 16 66l69 209q13 43 58 43q27 0 43.5 -15.5t16.5 -39.5q0 -14 -6 -31l-146 -371q-46 -119 -84 -160q-37 -40 -90 -40q-34 0 -59 11q-32 14 -32 49q0 21 12.5 34.5t34.5 13.5q4 0 16.5 -1t15.5 -1h6q35 2 62 70l10 24l-170 367
q-7 15 -7 29q0 26 18.5 43.5t49.5 17.5q35 0 54 -42zM150 532q-28 0 -46.5 18.5t-18.5 48.5q0 29 18.5 46.5t46.5 17.5q25 0 42.5 -18t17.5 -46q0 -30 -17.5 -48.5t-42.5 -18.5zM348 532q-28 0 -46 18.5t-18 48.5q0 29 18 46.5t46 17.5q25 0 42.5 -18t17.5 -46
q0 -30 -17.5 -48.5t-42.5 -18.5z" />
    <glyph glyph-name="Amacron" unicode="&#x100;" horiz-adv-x="689" 
d="M549 30l-58 141h-299l-59 -145q-13 -34 -53 -34q-24 0 -40.5 16.5t-16.5 39.5q0 9 5 22l249 585q23 50 69 50q44 0 67 -50l248 -583q5 -15 5 -24q0 -23 -17 -39.5t-40 -16.5q-45 0 -60 38zM444 286l-102 251l-103 -251h205zM236 852h217q19 0 32.5 -13.5t13.5 -32.5
t-13.5 -32.5t-32.5 -13.5h-217q-19 0 -32.5 13.5t-13.5 32.5t13.5 32.5t32.5 13.5z" />
    <glyph glyph-name="amacron" unicode="&#x101;" horiz-adv-x="463" 
d="M35 132q0 70 45 108t119 38q61 0 102 -29v14q0 53 -19.5 77.5t-64.5 24.5q-40 0 -70 -10q-15 -4 -23 -4q-27 0 -39 24q-4 8 -4 19q0 30 33 43q55 24 115 24q94 0 137 -46t43 -141v-229q0 -21 -15 -36t-36 -15q-22 0 -35.5 15t-13.5 39q-43 -54 -133 -54
q-64 0 -102.5 37.5t-38.5 100.5zM301 132v46q-28 22 -79 22q-32 0 -52 -15t-20 -41q0 -24 18 -38.5t46 -14.5q58 0 87 41zM142 642h187q19 0 32.5 -13.5t13.5 -32.5t-13.5 -32.5t-32.5 -13.5h-187q-19 0 -32.5 13.5t-13.5 32.5t13.5 32.5t32.5 13.5z" />
    <glyph glyph-name="Abreve" unicode="&#x102;" horiz-adv-x="689" 
d="M549 30l-58 141h-299l-59 -145q-13 -34 -53 -34q-24 0 -40.5 16.5t-16.5 39.5q0 9 5 22l249 585q23 50 69 50q44 0 67 -50l248 -583q5 -15 5 -24q0 -23 -17 -39.5t-40 -16.5q-45 0 -60 38zM444 286l-102 251l-103 -251h205zM535 849q0 -16 -9 -25q-34 -37 -82 -62
t-94 -25q-102 0 -179 87q-9 9 -9 25t11 27q12 12 27 12q17 0 34 -13q49 -38 116 -38q63 0 113 38q17 13 33 13t28 -12q11 -11 11 -27z" />
    <glyph glyph-name="abreve" unicode="&#x103;" horiz-adv-x="463" 
d="M35 132q0 70 45 108t119 38q61 0 102 -29v14q0 53 -19.5 77.5t-64.5 24.5q-40 0 -70 -10q-15 -4 -23 -4q-27 0 -39 24q-4 8 -4 19q0 30 33 43q55 24 115 24q94 0 137 -46t43 -141v-229q0 -21 -15 -36t-36 -15q-22 0 -35.5 15t-13.5 39q-43 -54 -133 -54
q-64 0 -102.5 37.5t-38.5 100.5zM301 132v46q-28 22 -79 22q-32 0 -52 -15t-20 -41q0 -24 18 -38.5t46 -14.5q58 0 87 41zM384 637q0 -14 -7 -21q-65 -84 -152 -84q-85 0 -142 83q-7 10 -7 21q0 16 14 27q11 8 23 8q16 0 28 -12q40 -34 89 -34q50 0 91 33q15 12 29 12
q11 0 22 -8q12 -9 12 -25z" />
    <glyph glyph-name="Aogonek" unicode="&#x104;" horiz-adv-x="689" 
d="M549 30l-58 141h-299l-59 -145q-13 -34 -53 -34q-24 0 -40.5 16.5t-16.5 39.5q0 9 5 22l249 585q23 50 69 50q44 0 67 -50l248 -583q5 -15 5 -24q0 -23 -17 -39.5t-40 -16.5q-14 0 -23 3q-26 -8 -42 -26t-16 -37q0 -40 51 -40q31 0 44 -5.5t17 -22.5q1 -3 1 -12
q0 -30 -27 -40q-29 -12 -67 -12q-60 0 -97 24t-37 70t40 77t105 43q-5 7 -9 16zM444 286l-102 251l-103 -251h205z" />
    <glyph glyph-name="aogonek" unicode="&#x105;" horiz-adv-x="463" 
d="M35 132q0 70 45 108t119 38q61 0 102 -29v14q0 53 -19.5 77.5t-64.5 24.5q-40 0 -70 -10q-15 -4 -23 -4q-27 0 -39 24q-4 8 -4 19q0 30 33 43q55 24 115 24q94 0 137 -46t43 -141v-229q0 -21 -15 -36t-36 -15q-3 0 -13 2q-30 -15 -30 -55q0 -24 13.5 -36.5t35.5 -12.5
q31 0 44 -5.5t17 -22.5q1 -3 1 -12q0 -30 -27 -40q-29 -12 -67 -12q-60 0 -96 22.5t-36 68.5q0 38 35 72t84 49q-10 13 -10 36q-43 -54 -133 -54q-64 0 -102.5 37.5t-38.5 100.5zM301 132v46q-28 22 -79 22q-32 0 -52 -15t-20 -41q0 -24 18 -38.5t46 -14.5q58 0 87 41z" />
    <glyph glyph-name="Cacute" unicode="&#x106;" horiz-adv-x="645" 
d="M509 573q-55 23 -106 23q-99 0 -163 -67q-65 -68 -65 -179q0 -109 68 -177q67 -69 174 -69q57 0 112 27q21 10 40 10q28 0 45 -23q10 -13 10 -32q0 -31 -28 -49q-74 -48 -190 -48q-160 0 -261 99q-100 99 -100 262q0 156 95 259q94 102 263 102q87 0 158 -36
q38 -18 38 -52q0 -11 -8 -29q-16 -28 -49 -28q-19 0 -33 7zM333 817l148 77q7 4 16 4q21 0 32 -21l13 -31q3 -6 3 -14q0 -24 -23 -32l-155 -57q-6 -2 -13 -2q-28 0 -38 25q-4 7 -4 17q0 23 21 34z" />
    <glyph glyph-name="cacute" unicode="&#x107;" horiz-adv-x="476" 
d="M351 341q-33 12 -67 12q-49 0 -87 -35q-38 -36 -38 -93t38 -93t92 -36q43 0 74 18q19 12 40 12q23 0 40 -21q10 -13 10 -30q0 -27 -24 -45q-56 -41 -146 -41q-111 0 -179 65t-68 171q0 101 66 168q66 68 167 68q79 0 127 -24q36 -17 36 -48q0 -10 -7 -25q-15 -29 -46 -29
q-13 0 -28 6zM218 600l61 95q11 17 32 17q13 0 23 -7l24 -18q15 -10 15 -31q0 -15 -9 -25l-72 -83q-14 -15 -34 -15q-13 0 -27 8q-19 13 -19 37q0 12 6 22z" />
    <glyph glyph-name="Ccircumflex" unicode="&#x108;" horiz-adv-x="645" 
d="M509 573q-55 23 -106 23q-99 0 -163 -67q-65 -68 -65 -179q0 -109 68 -177q67 -69 174 -69q57 0 112 27q21 10 40 10q28 0 45 -23q10 -13 10 -32q0 -31 -28 -49q-74 -48 -190 -48q-160 0 -261 99q-100 99 -100 262q0 156 95 259q94 102 263 102q87 0 158 -36
q38 -18 38 -52q0 -11 -8 -29q-16 -28 -49 -28q-19 0 -33 7zM487 746l-102 53l-102 -53q-8 -5 -20 -5q-22 0 -34 18q-6 9 -6 21q0 21 17 33l113 70q13 10 33 10q17 0 32 -9l115 -71q17 -11 17 -32q0 -12 -7 -22q-13 -18 -35 -18q-11 0 -21 5z" />
    <glyph glyph-name="ccircumflex" unicode="&#x109;" horiz-adv-x="476" 
d="M351 341q-33 12 -67 12q-49 0 -87 -35q-38 -36 -38 -93t38 -93t92 -36q43 0 74 18q19 12 40 12q23 0 40 -21q10 -13 10 -30q0 -27 -24 -45q-56 -41 -146 -41q-111 0 -179 65t-68 171q0 101 66 168q66 68 167 68q79 0 127 -24q36 -17 36 -48q0 -10 -7 -25q-15 -29 -46 -29
q-13 0 -28 6zM181 523q-21 0 -33 17q-9 11 -9 26q0 22 16 35l89 77q14 12 33 12q21 0 34 -13l88 -76q15 -13 15 -34q0 -19 -10 -29q-14 -17 -34 -17q-14 0 -27 10l-67 54l-68 -53q-12 -9 -27 -9z" />
    <glyph glyph-name="Cdotaccent" unicode="&#x10a;" horiz-adv-x="645" 
d="M509 573q-55 23 -106 23q-99 0 -163 -67q-65 -68 -65 -179q0 -109 68 -177q67 -69 174 -69q57 0 112 27q21 10 40 10q28 0 45 -23q10 -13 10 -32q0 -31 -28 -49q-74 -48 -190 -48q-160 0 -261 99q-100 99 -100 262q0 156 95 259q94 102 263 102q87 0 158 -36
q38 -18 38 -52q0 -11 -8 -29q-16 -28 -49 -28q-19 0 -33 7zM383 902q31 0 53 -20t22 -51q0 -33 -22 -54t-53 -21q-34 0 -56.5 20.5t-22.5 54.5q0 32 22.5 51.5t56.5 19.5z" />
    <glyph glyph-name="cdotaccent" unicode="&#x10b;" horiz-adv-x="476" 
d="M351 341q-33 12 -67 12q-49 0 -87 -35q-38 -36 -38 -93t38 -93t92 -36q43 0 74 18q19 12 40 12q23 0 40 -21q10 -13 10 -30q0 -27 -24 -45q-56 -41 -146 -41q-111 0 -179 65t-68 171q0 101 66 168q66 68 167 68q79 0 127 -24q36 -17 36 -48q0 -10 -7 -25q-15 -29 -46 -29
q-13 0 -28 6zM275 679q27 0 46.5 -19t19.5 -48q0 -32 -19.5 -52t-46.5 -20q-31 0 -51.5 20t-20.5 52q0 30 20.5 48.5t51.5 18.5z" />
    <glyph glyph-name="Ccaron" unicode="&#x10c;" horiz-adv-x="645" 
d="M509 573q-55 23 -106 23q-99 0 -163 -67q-65 -68 -65 -179q0 -109 68 -177q67 -69 174 -69q57 0 112 27q21 10 40 10q28 0 45 -23q10 -13 10 -32q0 -31 -28 -49q-74 -48 -190 -48q-160 0 -261 99q-100 99 -100 262q0 156 95 259q94 102 263 102q87 0 158 -36
q38 -18 38 -52q0 -11 -8 -29q-16 -28 -49 -28q-19 0 -33 7zM512 897q22 0 33 -17q6 -9 6 -20q0 -20 -18 -34l-112 -70q-13 -10 -34 -10q-18 0 -33 9l-113 71q-17 11 -17 32q0 13 7 23q12 17 33 17q12 0 22 -6l103 -60l102 60q8 5 21 5z" />
    <glyph glyph-name="ccaron" unicode="&#x10d;" horiz-adv-x="476" 
d="M351 341q-33 12 -67 12q-49 0 -87 -35q-38 -36 -38 -93t38 -93t92 -36q43 0 74 18q19 12 40 12q23 0 40 -21q10 -13 10 -30q0 -27 -24 -45q-56 -41 -146 -41q-111 0 -179 65t-68 171q0 101 66 168q66 68 167 68q79 0 127 -24q36 -17 36 -48q0 -10 -7 -25q-15 -29 -46 -29
q-13 0 -28 6zM370 691q17 0 30 -13q10 -10 10 -27q0 -21 -15 -33l-93 -81q-14 -12 -33 -12q-21 0 -34 13l-92 80q-14 14 -14 33q0 14 11 28t32 14q18 0 29 -11l69 -63l70 61q14 11 30 11z" />
    <glyph glyph-name="Dcaron" unicode="&#x10e;" horiz-adv-x="741" 
d="M158 701q136 2 145 2q102 0 179 -27.5t123 -76.5t68.5 -109.5t22.5 -132.5q0 -156 -104 -257q-105 -102 -297 -102q-8 0 -25.5 0.5t-50 1t-61.5 0.5q-26 0 -43.5 18t-17.5 43v578q0 25 17.5 43t43.5 19zM220 585v-470q46 -2 79 -2q125 0 196 66t71 178q0 107 -70.5 169
t-194.5 62q-39 0 -81 -3zM460 897q22 0 33 -17q6 -9 6 -20q0 -20 -18 -34l-112 -70q-13 -10 -34 -10q-18 0 -33 9l-113 71q-17 11 -17 32q0 13 7 23q12 17 33 17q11 0 22 -6l103 -60l102 60q8 5 21 5z" />
    <glyph glyph-name="dcaron" unicode="&#x10f;" horiz-adv-x="556" 
d="M492 644v-588q0 -28 -14.5 -46t-42.5 -18q-25 0 -41 15t-17 40q-52 -55 -129 -55q-96 0 -154 63q-58 61 -58 165q0 106 69 174q68 67 178 67q57 0 94 -22v205q0 23 16.5 39.5t41.5 16.5q24 0 40.5 -16.5t16.5 -39.5zM377 145v181q-43 27 -89 27q-55 0 -92 -35t-37 -94
q0 -57 32 -91t81 -34q59 0 105 46zM542 541q0 13 9 28q24 37 24 69q0 10 -1 13q-3 15 -3 25q0 24 28 24h48q34 0 34 -34q0 -98 -70 -155q-11 -8 -27 -8q-18 0 -28 9q-14 14 -14 29z" />
    <glyph glyph-name="Dcroat" unicode="&#x110;" horiz-adv-x="749" 
d="M303 -2q-8 0 -26.5 0.5t-52.5 1t-65 0.5q-23 0 -38.5 16t-15.5 39v242h-41q-22 0 -38 16t-16 38t16 38t38 16h41v240q0 23 15.5 39t38.5 17q46 0 82 1q35 1 70 1q102 0 179 -27.5t123 -76.5t68.5 -109.5t22.5 -132.5q0 -156 -104 -257q-105 -102 -297 -102zM350 297h-123
v-182q46 -2 80 -2q125 0 196 66t71 178q0 107 -70.5 169t-194.5 62q-40 0 -82 -3v-180h123q22 0 38 -16t16 -38t-16 -38t-38 -16z" />
    <glyph glyph-name="dslash" unicode="&#x111;" horiz-adv-x="561" 
d="M377 145v181q-43 27 -89 27q-55 0 -92 -35t-37 -94q0 -57 32 -91t81 -34q59 0 105 46zM377 439v81h-83q-19 0 -32 13.5t-13 33.5q0 19 13 32.5t32 13.5h83v31q0 23 16.5 39.5t41.5 16.5q24 0 40.5 -16.5t16.5 -39.5v-31h33q19 0 32 -13.5t13 -32.5q0 -20 -13 -33.5
t-32 -13.5h-33v-464q0 -28 -14.5 -46t-42.5 -18q-25 0 -41 15t-17 40q-52 -55 -129 -55q-96 0 -154 63q-58 61 -58 165q0 106 69 174q68 67 178 67q57 0 94 -22z" />
    <glyph glyph-name="Emacron" unicode="&#x112;" horiz-adv-x="575" 
d="M220 296v-181h236q23 0 39.5 -16.5t16.5 -40.5q0 -25 -16.5 -41.5t-39.5 -16.5h-303q-23 0 -39.5 16.5t-16.5 39.5v588q0 23 16.5 39.5t39.5 16.5h293q23 0 39.5 -16.5t16.5 -40.5q0 -25 -16.5 -41.5t-39.5 -16.5h-226v-174h196q23 0 39.5 -16.5t16.5 -40.5
q0 -25 -16.5 -41.5t-39.5 -16.5h-196zM191 852h217q19 0 32.5 -13.5t13.5 -32.5t-13.5 -32.5t-32.5 -13.5h-217q-19 0 -32.5 13.5t-13.5 32.5t13.5 32.5t32.5 13.5z" />
    <glyph glyph-name="emacron" unicode="&#x113;" horiz-adv-x="523" 
d="M372 267v2q0 43 -28 69.5t-75 26.5q-98 0 -118 -98h221zM442 190h-287q7 -49 43.5 -77t91.5 -28q45 0 84 17q15 7 26 7q22 0 36 -21q7 -11 7 -22q0 -25 -23 -39q-65 -38 -142 -38q-108 0 -175 65q-67 64 -67 171q0 101 65 169q64 67 173 67q90 0 151 -58q62 -59 62 -151
v-21q-5 -41 -45 -41zM171 642h187q19 0 32.5 -13.5t13.5 -32.5t-13.5 -32.5t-32.5 -13.5h-187q-19 0 -32.5 13.5t-13.5 32.5t13.5 32.5t32.5 13.5z" />
    <glyph glyph-name="Edotaccent" unicode="&#x116;" horiz-adv-x="575" 
d="M220 296v-181h236q23 0 39.5 -16.5t16.5 -40.5q0 -25 -16.5 -41.5t-39.5 -16.5h-303q-23 0 -39.5 16.5t-16.5 39.5v588q0 23 16.5 39.5t39.5 16.5h293q23 0 39.5 -16.5t16.5 -40.5q0 -25 -16.5 -41.5t-39.5 -16.5h-226v-174h196q23 0 39.5 -16.5t16.5 -40.5
q0 -25 -16.5 -41.5t-39.5 -16.5h-196zM306 902q31 0 53 -20t22 -51q0 -33 -22 -54t-53 -21q-34 0 -56.5 20.5t-22.5 54.5q0 32 22.5 51.5t56.5 19.5z" />
    <glyph glyph-name="edotaccent" unicode="&#x117;" horiz-adv-x="523" 
d="M372 267v2q0 43 -28 69.5t-75 26.5q-98 0 -118 -98h221zM442 190h-287q7 -49 43.5 -77t91.5 -28q45 0 84 17q15 7 26 7q22 0 36 -21q7 -11 7 -22q0 -25 -23 -39q-65 -38 -142 -38q-108 0 -175 65q-67 64 -67 171q0 101 65 169q64 67 173 67q90 0 151 -58q62 -59 62 -151
v-21q-5 -41 -45 -41zM269 679q27 0 46.5 -19t19.5 -48q0 -32 -19.5 -52t-46.5 -20q-31 0 -51.5 20t-20.5 52q0 30 20.5 48.5t51.5 18.5z" />
    <glyph glyph-name="Eogonek" unicode="&#x118;" horiz-adv-x="575" 
d="M460 0h-9q-35 0 -62.5 -21.5t-27.5 -46.5q0 -40 51 -40q31 0 44 -5.5t17 -22.5q1 -3 1 -12q0 -30 -27 -40q-28 -12 -67 -12q-60 0 -97 24t-37 70q0 72 94 106h-187q-23 0 -39.5 16.5t-16.5 39.5v588q0 23 16.5 39.5t39.5 16.5h293q23 0 39.5 -16.5t16.5 -40.5
q0 -25 -16.5 -41.5t-39.5 -16.5h-226v-174h196q23 0 39.5 -16.5t16.5 -40.5q0 -25 -16.5 -41.5t-39.5 -16.5h-196v-181h236q23 0 39.5 -16.5t16.5 -40.5t-15 -40t-37 -18z" />
    <glyph glyph-name="eogonek" unicode="&#x119;" horiz-adv-x="523" 
d="M442 190h-287q7 -49 43.5 -77t91.5 -28q45 0 84 17q15 7 26 7q22 0 36 -21q7 -11 7 -22q0 -25 -23 -39q-61 -37 -139 -38q-20 -10 -32 -26t-12 -31q0 -40 51 -40q31 0 44 -5.5t17 -22.5q1 -3 1 -12q0 -30 -27 -40q-29 -12 -67 -12q-60 0 -97 24t-37 70q0 68 86 103
q-79 19 -125.5 80t-46.5 148q0 101 65 169q64 67 173 67q90 0 151 -58q62 -59 62 -151v-21q-5 -41 -45 -41zM372 267v2q0 43 -28 69.5t-75 26.5q-98 0 -118 -98h221z" />
    <glyph glyph-name="Ecaron" unicode="&#x11a;" horiz-adv-x="575" 
d="M220 296v-181h236q23 0 39.5 -16.5t16.5 -40.5q0 -25 -16.5 -41.5t-39.5 -16.5h-303q-23 0 -39.5 16.5t-16.5 39.5v588q0 23 16.5 39.5t39.5 16.5h293q23 0 39.5 -16.5t16.5 -40.5q0 -25 -16.5 -41.5t-39.5 -16.5h-226v-174h196q23 0 39.5 -16.5t16.5 -40.5
q0 -25 -16.5 -41.5t-39.5 -16.5h-196zM432 897q22 0 33 -17q6 -9 6 -20q0 -20 -18 -34l-112 -70q-13 -10 -34 -10q-18 0 -33 9l-113 71q-17 11 -17 32q0 13 7 23q12 17 33 17q12 0 22 -6l103 -60l102 60q8 5 21 5z" />
    <glyph glyph-name="ecaron" unicode="&#x11b;" horiz-adv-x="523" 
d="M372 267v2q0 43 -28 69.5t-75 26.5q-98 0 -118 -98h221zM442 190h-287q7 -49 43.5 -77t91.5 -28q45 0 84 17q15 7 26 7q22 0 36 -21q7 -11 7 -22q0 -25 -23 -39q-65 -38 -142 -38q-108 0 -175 65q-67 64 -67 171q0 101 65 169q64 67 173 67q90 0 151 -58q62 -59 62 -151
v-21q-5 -41 -45 -41zM374 691q17 0 30 -13q10 -10 10 -27q0 -21 -15 -33l-93 -81q-14 -12 -33 -12q-21 0 -34 13l-92 80q-14 14 -14 33q0 14 11 28t32 14q18 0 29 -11l69 -63l70 61q14 11 30 11z" />
    <glyph glyph-name="Gcircumflex" unicode="&#x11c;" horiz-adv-x="727" 
d="M45 350q0 155 99 259q98 102 265 102q87 0 158 -36q38 -18 38 -52q0 -11 -8 -29q-16 -28 -49 -28q-19 0 -33 7q-55 23 -106 23q-104 0 -169 -65q-65 -67 -65 -181q0 -110 65 -178t172 -68q39 0 81.5 14.5t63.5 33.5v110h-113q-23 0 -39.5 16.5t-16.5 41.5q0 24 16.5 40.5
t39.5 16.5h172q23 0 39.5 -16.5t16.5 -39.5v-189q0 -51 -44 -80q-99 -63 -218 -63q-169 0 -267 98t-98 263zM487 746l-102 53l-102 -53q-8 -5 -20 -5q-22 0 -34 18q-6 9 -6 21q0 21 17 33l113 70q13 10 33 10q17 0 32 -9l115 -71q17 -11 17 -32q0 -12 -7 -22
q-13 -18 -35 -18q-11 0 -21 5z" />
    <glyph glyph-name="gcircumflex" unicode="&#x11d;" horiz-adv-x="506" 
d="M228 109q0 -14 9 -23q108 0 172 -38t64 -109t-63.5 -109t-170.5 -38q-108 0 -171 37.5t-63 109.5q0 53 39 88.5t107 50.5q-8 14 -8 31q0 19 10 32q-50 20 -78.5 60.5t-28.5 90.5q0 70 53 120q52 49 139 49q65 0 115 -32l91 20q3 1 11 1q16 0 28.5 -9.5t16.5 -25.5
q1 -2 1 -9q0 -16 -10 -29t-26 -16l-47 -11q11 -30 11 -58q0 -70 -53 -118q-54 -48 -142 -48q-6 -6 -6 -17zM112 -61q0 -26 33.5 -40.5t93.5 -14.5q126 0 126 55q0 25 -33 40t-93 15q-59 0 -93 -15t-34 -40zM177 346q-22 -25 -23 -54.5t23 -52.5t61 -20q37 0 60.5 20t23.5 53
q0 34 -23 55t-61 21q-39 0 -61 -22zM148 523q-21 0 -33 17q-9 11 -9 26q0 22 16 35l89 77q13 12 33 12q21 0 34 -13l88 -76q15 -13 15 -34q0 -19 -10 -29q-14 -17 -34 -17q-14 0 -27 10l-67 54l-68 -53q-12 -9 -27 -9z" />
    <glyph glyph-name="Gbreve" unicode="&#x11e;" horiz-adv-x="727" 
d="M45 350q0 155 99 259q98 102 265 102q87 0 158 -36q38 -18 38 -52q0 -11 -8 -29q-16 -28 -49 -28q-19 0 -33 7q-55 23 -106 23q-104 0 -169 -65q-65 -67 -65 -181q0 -110 65 -178t172 -68q39 0 81.5 14.5t63.5 33.5v110h-113q-23 0 -39.5 16.5t-16.5 41.5q0 24 16.5 40.5
t39.5 16.5h172q23 0 39.5 -16.5t16.5 -39.5v-189q0 -51 -44 -80q-99 -63 -218 -63q-169 0 -267 98t-98 263zM592 849q0 -16 -9 -25q-34 -37 -82 -62t-94 -25q-103 0 -179 87q-9 9 -9 25t11 27q12 12 27 12q17 0 34 -13q47 -38 116 -38q63 0 113 38q17 13 33 13t28 -12
q11 -11 11 -27z" />
    <glyph glyph-name="gbreve" unicode="&#x11f;" horiz-adv-x="506" 
d="M228 109q0 -14 9 -23q108 0 172 -38t64 -109t-63.5 -109t-170.5 -38q-108 0 -171 37.5t-63 109.5q0 53 39 88.5t107 50.5q-8 14 -8 31q0 19 10 32q-50 20 -78.5 60.5t-28.5 90.5q0 70 53 120q52 49 139 49q65 0 115 -32l91 20q3 1 11 1q16 0 28.5 -9.5t16.5 -25.5
q1 -2 1 -9q0 -16 -10 -29t-26 -16l-47 -11q11 -30 11 -58q0 -70 -53 -118q-54 -48 -142 -48q-6 -6 -6 -17zM112 -61q0 -26 33.5 -40.5t93.5 -14.5q126 0 126 55q0 25 -33 40t-93 15q-59 0 -93 -15t-34 -40zM177 346q-22 -25 -23 -54.5t23 -52.5t61 -20q37 0 60.5 20t23.5 53
q0 34 -23 55t-61 21q-39 0 -61 -22zM397 637q0 -14 -7 -21q-64 -84 -152 -84q-85 0 -142 83q-7 10 -7 21q0 16 14 27q11 8 23 8q16 0 28 -12q40 -34 89 -34q51 0 91 33q15 12 29 12q11 0 22 -8q12 -9 12 -25z" />
    <glyph glyph-name="Gdotaccent" unicode="&#x120;" horiz-adv-x="727" 
d="M45 350q0 155 99 259q98 102 265 102q87 0 158 -36q38 -18 38 -52q0 -11 -8 -29q-16 -28 -49 -28q-19 0 -33 7q-55 23 -106 23q-104 0 -169 -65q-65 -67 -65 -181q0 -110 65 -178t172 -68q39 0 81.5 14.5t63.5 33.5v110h-113q-23 0 -39.5 16.5t-16.5 41.5q0 24 16.5 40.5
t39.5 16.5h172q23 0 39.5 -16.5t16.5 -39.5v-189q0 -51 -44 -80q-99 -63 -218 -63q-169 0 -267 98t-98 263zM378 902q31 0 53 -20t22 -51q0 -33 -22 -54t-53 -21q-34 0 -56.5 20.5t-22.5 54.5q0 32 22.5 51.5t56.5 19.5z" />
    <glyph glyph-name="gdotaccent" unicode="&#x121;" horiz-adv-x="506" 
d="M228 109q0 -14 9 -23q108 0 172 -38t64 -109t-63.5 -109t-170.5 -38q-108 0 -171 37.5t-63 109.5q0 53 39 88.5t107 50.5q-8 14 -8 31q0 19 10 32q-50 20 -78.5 60.5t-28.5 90.5q0 70 53 120q52 49 139 49q65 0 115 -32l91 20q3 1 11 1q16 0 28.5 -9.5t16.5 -25.5
q1 -2 1 -9q0 -16 -10 -29t-26 -16l-47 -11q11 -30 11 -58q0 -70 -53 -118q-54 -48 -142 -48q-6 -6 -6 -17zM112 -61q0 -26 33.5 -40.5t93.5 -14.5q126 0 126 55q0 25 -33 40t-93 15q-59 0 -93 -15t-34 -40zM177 346q-22 -25 -23 -54.5t23 -52.5t61 -20q37 0 60.5 20t23.5 53
q0 34 -23 55t-61 21q-39 0 -61 -22zM241 679q27 0 46.5 -19t19.5 -48q0 -32 -19.5 -52t-46.5 -20q-31 0 -51.5 20t-20.5 52q0 30 20.5 48.5t51.5 18.5z" />
    <glyph glyph-name="Gcommaaccent" unicode="&#x122;" horiz-adv-x="727" 
d="M45 350q0 155 99 259q98 102 265 102q87 0 158 -36q38 -18 38 -52q0 -11 -8 -29q-16 -28 -49 -28q-19 0 -33 7q-55 23 -106 23q-104 0 -169 -65q-65 -67 -65 -181q0 -110 65 -178t172 -68q39 0 81.5 14.5t63.5 33.5v110h-113q-23 0 -39.5 16.5t-16.5 41.5q0 24 16.5 40.5
t39.5 16.5h172q23 0 39.5 -16.5t16.5 -39.5v-189q0 -51 -44 -80q-99 -63 -218 -63q-169 0 -267 98t-98 263zM324 -168q0 13 14 27q18 15 18 45q0 4 -0.5 12.5t-0.5 10.5q0 18 20 23l59 13q2 1 7 1q30 0 30 -46q0 -41 -26.5 -71.5t-69.5 -45.5q-6 -3 -15 -3q-20 0 -30 15
q-6 9 -6 19z" />
    <glyph glyph-name="gcommaaccent" unicode="&#x123;" horiz-adv-x="506" 
d="M228 109q0 -14 9 -23q108 0 172 -38t64 -109t-63.5 -109t-170.5 -38q-108 0 -171 37.5t-63 109.5q0 53 39 88.5t107 50.5q-8 14 -8 31q0 19 10 32q-50 20 -78.5 60.5t-28.5 90.5q0 70 53 120q52 49 139 49q65 0 115 -32l91 20q3 1 11 1q16 0 28.5 -9.5t16.5 -25.5
q1 -2 1 -9q0 -16 -10 -29t-26 -16l-47 -11q11 -30 11 -58q0 -70 -53 -118q-54 -48 -142 -48q-6 -6 -6 -17zM112 -61q0 -26 33.5 -40.5t93.5 -14.5q126 0 126 55q0 25 -33 40t-93 15q-59 0 -93 -15t-34 -40zM177 346q-22 -25 -23 -54.5t23 -52.5t61 -20q37 0 60.5 20t23.5 53
q0 34 -23 55t-61 21q-39 0 -61 -22zM318 665q0 -13 -14 -27q-18 -15 -18 -45q0 -4 0.5 -12.5t0.5 -10.5q0 -18 -20 -23l-59 -13q-2 -1 -7 -1q-30 0 -30 46q0 41 26.5 71.5t69.5 45.5q6 3 15 3q20 0 30 -15q6 -9 6 -19z" />
    <glyph glyph-name="Hcircumflex" unicode="&#x124;" horiz-adv-x="759" 
d="M662 644v-591q0 -25 -18 -43t-43 -18t-43 18t-18 43v246h-320v-246q0 -25 -18 -43t-43 -18q-26 0 -44 17.5t-18 43.5v591q0 26 18 43.5t44 17.5q25 0 43 -17.5t18 -43.5v-230h320v230q0 26 18 43.5t43 17.5t43 -17.5t18 -43.5zM481 746l-102 53l-102 -53q-8 -5 -20 -5
q-22 0 -34 18q-6 9 -6 21q0 21 17 33l113 70q13 10 33 10q17 0 32 -9l115 -71q17 -11 17 -32q0 -12 -7 -22q-13 -18 -35 -18q-11 0 -21 5z" />
    <glyph glyph-name="hcircumflex" unicode="&#x125;" horiz-adv-x="546" 
d="M179 309v-261q0 -23 -16.5 -39.5t-40.5 -16.5q-25 0 -41.5 16.5t-16.5 39.5v596q0 23 16.5 39.5t41.5 16.5q24 0 40.5 -16.5t16.5 -39.5v-235q50 49 129 49q185 0 185 -197v-213q0 -23 -16.5 -39.5t-40.5 -16.5q-25 0 -41.5 16.5t-16.5 39.5v198q0 50 -26 77t-74 27
q-58 0 -99 -41zM254 746l-102 53l-102 -53q-8 -5 -20 -5q-22 0 -34 18q-6 9 -6 21q0 21 17 33l113 70q13 10 33 10q17 0 32 -9l115 -71q17 -11 17 -32q0 -12 -7 -22q-14 -18 -35 -18q-11 0 -21 5z" />
    <glyph glyph-name="Hbar" unicode="&#x126;" horiz-adv-x="769" 
d="M225 414h320v92h-320v-92zM545 53v246h-320v-246q0 -25 -17.5 -43t-43.5 -18t-44 17.5t-18 43.5v453h-27q-22 0 -37.5 16t-15.5 38t15.5 37.5t37.5 15.5h27v32q0 25 18 42.5t44 17.5t43.5 -17.5t17.5 -42.5v-32h320v32q0 25 17.5 42.5t43.5 17.5t43.5 -17.5t17.5 -42.5
v-32h27q22 0 37.5 -15.5t15.5 -37.5t-15.5 -38t-37.5 -16h-27v-453q0 -25 -17.5 -43t-43.5 -18t-43.5 18t-17.5 43z" />
    <glyph glyph-name="hbar" unicode="&#x127;" horiz-adv-x="583" 
d="M216 309v-261q0 -23 -16.5 -39.5t-40.5 -16.5q-25 0 -41.5 16.5t-16.5 39.5v457h-50q-23 0 -39.5 16t-16.5 38q0 21 16.5 37t39.5 16h50v32q0 23 16.5 39.5t41.5 16.5q24 0 40.5 -16.5t16.5 -39.5v-32h92q23 0 39.5 -16t16.5 -37q0 -22 -16.5 -38t-39.5 -16h-92v-96
q50 49 129 49q185 0 185 -197v-213q0 -23 -16.5 -39.5t-40.5 -16.5q-25 0 -41.5 16.5t-16.5 39.5v198q0 50 -26 77t-74 27q-58 0 -99 -41z" />
    <glyph glyph-name="Imacron" unicode="&#x12a;" horiz-adv-x="347" 
d="M235 644v-591q0 -25 -17.5 -43t-43.5 -18t-44 17.5t-18 43.5v591q0 26 18 43.5t44 17.5t43.5 -17.5t17.5 -43.5zM69 852h217q19 0 32.5 -13.5t13.5 -32.5t-13.5 -32.5t-32.5 -13.5h-217q-19 0 -32.5 13.5t-13.5 32.5t13.5 32.5t32.5 13.5z" />
    <glyph glyph-name="imacron" unicode="&#x12b;" horiz-adv-x="277" 
d="M196 401v-353q0 -23 -16.5 -39.5t-40.5 -16.5q-25 0 -41.5 16.5t-16.5 39.5v353q0 23 16.5 39.5t41.5 16.5q24 0 40.5 -16.5t16.5 -39.5zM45 642h187q19 0 32.5 -13.5t13.5 -32.5t-13.5 -32.5t-32.5 -13.5h-187q-19 0 -32.5 13.5t-13.5 32.5t13.5 32.5t32.5 13.5z" />
    <glyph glyph-name="Iogonek" unicode="&#x12e;" horiz-adv-x="347" 
d="M235 644v-591q0 -25 -17.5 -43t-43.5 -18q-11 0 -23 4q-26 -7 -44 -26t-18 -38q0 -40 51 -40q31 0 44 -5.5t17 -22.5q1 -3 1 -12q0 -30 -27 -40q-29 -12 -67 -12q-60 0 -97 24t-37 70q0 47 41.5 78.5t109.5 41.5q-13 16 -13 39v591q0 26 18 43.5t44 17.5t43.5 -17.5
t17.5 -43.5z" />
    <glyph glyph-name="iogonek" unicode="&#x12f;" horiz-adv-x="277" 
d="M196 401v-353q0 -23 -16.5 -39.5t-40.5 -16.5q-12 0 -25 5q-27 -7 -46 -26.5t-19 -38.5q0 -40 51 -40q31 0 44 -5.5t17 -22.5q1 -3 1 -12q0 -30 -27 -40q-29 -12 -67 -12q-60 0 -97 24t-37 70q0 47 44 79.5t113 41.5q-10 13 -10 33v353q0 23 16.5 39.5t41.5 16.5
q24 0 40.5 -16.5t16.5 -39.5zM141 679q27 0 46.5 -19t19.5 -48q0 -32 -19.5 -52t-46.5 -20q-31 0 -51.5 20t-20.5 52q0 30 20.5 48.5t51.5 18.5z" />
    <glyph glyph-name="Idot" unicode="&#x130;" horiz-adv-x="347" 
d="M235 644v-591q0 -25 -17.5 -43t-43.5 -18t-44 17.5t-18 43.5v591q0 26 18 43.5t44 17.5t43.5 -17.5t17.5 -43.5zM176 902q31 0 53 -20t22 -51q0 -33 -22 -54t-53 -21q-34 0 -56.5 20.5t-22.5 54.5q0 32 22.5 51.5t56.5 19.5z" />
    <glyph glyph-name="dotlessi" unicode="&#x131;" horiz-adv-x="277" 
d="M196 401v-353q0 -23 -16.5 -39.5t-40.5 -16.5q-25 0 -41.5 16.5t-16.5 39.5v353q0 23 16.5 39.5t41.5 16.5q24 0 40.5 -16.5t16.5 -39.5z" />
    <glyph glyph-name="Jcircumflex" unicode="&#x134;" horiz-adv-x="386" 
d="M166 186v458q0 26 18 43.5t44 17.5t43.5 -17.5t17.5 -43.5v-479q0 -85 -43 -130.5t-126 -45.5q-39 0 -68 10q-43 15 -43 54q0 10 2 18q9 38 49 38q2 0 6 -1h3q21 -4 34 -4q63 0 63 82zM326 746l-102 53l-102 -53q-8 -5 -20 -5q-22 0 -34 18q-6 9 -6 21q0 21 17 33l113 70
q13 10 33 10q17 0 32 -9l115 -71q17 -11 17 -32q0 -12 -7 -22q-14 -18 -35 -18q-11 0 -21 5z" />
    <glyph glyph-name="jcircumflex" unicode="&#x135;" horiz-adv-x="296" 
d="M99 -23v424q0 23 16.5 39.5t41.5 16.5q24 0 40.5 -16.5t16.5 -39.5v-434q0 -175 -141 -175q-42 0 -69 15.5t-27 46.5q0 32 28 41q7 3 22 3h17q55 0 55 79zM61 523q-21 0 -33 17q-9 10 -9 26q0 22 16 35l89 77q14 12 33 12q21 0 34 -13l88 -76q15 -13 15 -34
q0 -19 -10 -29q-14 -17 -34 -17q-14 0 -27 10l-67 54l-68 -53q-12 -9 -27 -9z" />
    <glyph glyph-name="Kcommaaccent" unicode="&#x136;" horiz-adv-x="649" 
d="M483 29l-263 332v-308q0 -25 -18 -43t-43 -18q-26 0 -44 17.5t-18 43.5v591q0 26 18 43.5t44 17.5q25 0 43 -17.5t18 -43.5v-276l252 304q27 33 56 33q24 0 39.5 -15t15.5 -36q0 -24 -18 -44l-209 -236l227 -278q20 -25 20 -49t-17 -39.5t-44 -15.5q-31 0 -59 37z
M254 -168q0 13 14 27q18 15 18 45q0 4 -0.5 12.5t-0.5 10.5q0 18 20 23l59 13q2 1 7 1q30 0 30 -46q0 -41 -26.5 -71.5t-69.5 -45.5q-6 -3 -15 -3q-20 0 -30 15q-6 9 -6 19z" />
    <glyph glyph-name="kcommaaccent" unicode="&#x137;" horiz-adv-x="494" 
d="M342 23l-138 181q-10 13 -10 32q0 17 10 30l120 160q22 31 54 31q25 0 40 -15t15 -38q0 -20 -13 -36l-102 -124l123 -158q14 -20 14 -38q0 -24 -16.5 -40t-40.5 -16q-34 0 -56 31zM179 644v-596q0 -23 -16.5 -39.5t-40.5 -16.5q-25 0 -41.5 16.5t-16.5 39.5v596
q0 23 16.5 39.5t41.5 16.5q24 0 40.5 -16.5t16.5 -39.5zM165 -168q0 13 14 27q18 15 18 45q0 4 -0.5 12.5t-0.5 10.5q0 18 20 23l59 13q2 1 7 1q30 0 30 -46q0 -41 -26.5 -71.5t-69.5 -45.5q-6 -3 -15 -3q-19 0 -30 15q-6 9 -6 19z" />
    <glyph glyph-name="Lacute" unicode="&#x139;" horiz-adv-x="547" 
d="M220 644v-529h254q25 0 43 -17t18 -40t-18 -40.5t-43 -17.5h-316q-26 0 -43.5 18t-17.5 43v583q0 26 18 43.5t44 17.5q25 0 43 -17.5t18 -43.5zM228 817l148 77q7 4 16 4q22 0 32 -21l13 -31q3 -6 3 -14q0 -24 -23 -32l-155 -57q-6 -2 -13 -2q-28 0 -38 25q-4 7 -4 17
q0 23 21 34z" />
    <glyph glyph-name="lacute" unicode="&#x13a;" horiz-adv-x="299" 
d="M179 644v-473q0 -71 42 -71h17q16 0 23 -3q28 -10 28 -41q0 -64 -109 -64q-116 0 -116 132v520q0 23 16.5 39.5t41.5 16.5q24 0 40.5 -16.5t16.5 -39.5zM104 817l148 77q7 4 16 4q22 0 32 -21l13 -31q3 -6 3 -14q0 -24 -23 -32l-155 -57q-6 -2 -13 -2q-28 0 -38 25
q-4 7 -4 17q0 23 21 34z" />
    <glyph glyph-name="Lcommaaccent" unicode="&#x13b;" horiz-adv-x="547" 
d="M220 644v-529h254q25 0 43 -17t18 -40t-18 -40.5t-43 -17.5h-316q-26 0 -43.5 18t-17.5 43v583q0 26 18 43.5t44 17.5q25 0 43 -17.5t18 -43.5zM229 -168q0 13 14 27q18 15 18 45q0 4 -0.5 12.5t-0.5 10.5q0 18 20 23l59 13q2 1 7 1q30 0 30 -46q0 -41 -26.5 -71.5
t-69.5 -45.5q-6 -3 -15 -3q-19 0 -30 15q-6 9 -6 19z" />
    <glyph glyph-name="lcommaaccent" unicode="&#x13c;" horiz-adv-x="299" 
d="M179 644v-473q0 -71 42 -71h17q16 0 23 -3q28 -10 28 -41q0 -64 -109 -64q-116 0 -116 132v520q0 23 16.5 39.5t41.5 16.5q24 0 40.5 -16.5t16.5 -39.5zM95 -168q0 13 14 27q18 15 18 45q0 4 -0.5 12.5t-0.5 10.5q0 18 20 23l59 13q2 1 7 1q30 0 30 -46
q0 -41 -26.5 -71.5t-69.5 -45.5q-6 -3 -15 -3q-19 0 -30 15q-6 9 -6 19z" />
    <glyph glyph-name="Lcaron" unicode="&#x13d;" horiz-adv-x="547" 
d="M220 644v-529h254q25 0 43 -17t18 -40t-18 -40.5t-43 -17.5h-316q-26 0 -43.5 18t-17.5 43v583q0 26 18 43.5t44 17.5q25 0 43 -17.5t18 -43.5zM335 541q0 13 9 28q24 37 24 69q0 10 -1 13q-3 15 -3 25q0 24 28 24h48q34 0 34 -34q0 -98 -70 -155q-10 -8 -27 -8t-28 9
q-14 14 -14 29z" />
    <glyph glyph-name="lcaron" unicode="&#x13e;" horiz-adv-x="299" 
d="M179 644v-473q0 -71 42 -71h17q16 0 23 -3q28 -10 28 -41q0 -64 -109 -64q-116 0 -116 132v520q0 23 16.5 39.5t41.5 16.5q24 0 40.5 -16.5t16.5 -39.5zM235 541q0 13 9 28q24 37 24 69q0 10 -1 13q-3 15 -3 25q0 24 28 24h48q34 0 34 -34q0 -98 -70 -155q-10 -8 -27 -8
t-28 9q-14 14 -14 29z" />
    <glyph glyph-name="Ldot" unicode="&#x13f;" horiz-adv-x="547" 
d="M220 644v-529h254q25 0 43 -17t18 -40t-18 -40.5t-43 -17.5h-316q-26 0 -43.5 18t-17.5 43v583q0 26 18 43.5t44 17.5q25 0 43 -17.5t18 -43.5zM436 449q30 0 51.5 -22.5t21.5 -51.5q0 -33 -21.5 -56.5t-51.5 -23.5q-35 0 -57.5 23.5t-22.5 56.5q0 29 22.5 51.5
t57.5 22.5z" />
    <glyph glyph-name="ldot" unicode="&#x140;" horiz-adv-x="350" 
d="M179 644v-473q0 -71 42 -71h17q16 0 23 -3q28 -10 28 -41q0 -64 -109 -64q-116 0 -116 132v520q0 23 16.5 39.5t41.5 16.5q24 0 40.5 -16.5t16.5 -39.5zM300 405q27 0 46.5 -19t19.5 -48q0 -32 -19.5 -52t-46.5 -20q-31 0 -51.5 20t-20.5 52q0 30 20.5 48.5t51.5 18.5z
" />
    <glyph glyph-name="Lslash" unicode="&#x141;" horiz-adv-x="551" 
d="M42 332l60 29v283q0 26 18 43.5t44 17.5t43.5 -17.5t17.5 -43.5v-226l93 42q10 5 23 5q35 0 48 -30q5 -13 5 -21q0 -33 -32 -50l-137 -64v-185h261q22 0 38 -16.5t16 -40.5t-16 -41t-38 -17h-330q-22 0 -38 16t-16 38v189l-15 -7q-10 -5 -23 -5q-34 0 -48 30q-5 10 -5 22
q0 36 31 49z" />
    <glyph glyph-name="lslash" unicode="&#x142;" horiz-adv-x="322" 
d="M283 329l-87 -41v-117q0 -71 42 -71h17q15 0 23 -3q28 -10 28 -41q0 -64 -109 -64q-116 0 -116 132v112q-12 -6 -23 -6q-31 0 -46 28q-6 12 -6 24q0 35 31 50l44 21v291q0 23 16.5 39.5t41.5 16.5q24 0 40.5 -16.5t16.5 -39.5v-240l44 21q12 5 24 5q34 0 48 -29
q4 -7 4 -20q0 -35 -33 -52z" />
    <glyph glyph-name="Nacute" unicode="&#x143;" horiz-adv-x="792" 
d="M218 671l362 -458v436q0 23 16.5 39.5t41.5 16.5q24 0 40.5 -16.5t16.5 -39.5v-601q0 -24 -15.5 -40t-39.5 -16q-38 0 -66 37l-362 456v-437q0 -23 -16.5 -39.5t-40.5 -16.5q-25 0 -41.5 16.5t-16.5 39.5v601q0 24 17 40t42 16q35 0 62 -34zM355 817l148 77q7 4 16 4
q21 0 32 -21l13 -31q3 -6 3 -14q0 -24 -23 -32l-155 -57q-6 -2 -13 -2q-28 0 -38 25q-4 7 -4 17q0 23 21 34z" />
    <glyph glyph-name="nacute" unicode="&#x144;" horiz-adv-x="546" 
d="M123 457q24 0 40 -15t16 -36q49 52 129 52q185 0 185 -194v-216q0 -23 -16.5 -39.5t-40.5 -16.5q-25 0 -41.5 16.5t-16.5 39.5v196q0 106 -101 106q-55 0 -98 -43v-259q0 -23 -16.5 -39.5t-40.5 -16.5q-25 0 -41.5 16.5t-16.5 39.5v346q0 29 16 46t43 17zM232 600l61 95
q11 17 32 17q13 0 23 -7l24 -18q15 -10 15 -31q0 -15 -9 -25l-72 -83q-14 -15 -34 -15q-13 0 -27 8q-19 13 -19 37q0 12 6 22z" />
    <glyph glyph-name="Ncommaaccent" unicode="&#x145;" horiz-adv-x="792" 
d="M218 671l362 -458v436q0 23 16.5 39.5t41.5 16.5q24 0 40.5 -16.5t16.5 -39.5v-601q0 -24 -15.5 -40t-39.5 -16q-38 0 -66 37l-362 456v-437q0 -23 -16.5 -39.5t-40.5 -16.5q-25 0 -41.5 16.5t-16.5 39.5v601q0 24 17 40t42 16q35 0 62 -34zM316 -168q0 13 14 27
q18 15 18 45q0 4 -0.5 12.5t-0.5 10.5q0 18 20 23l59 13q2 1 7 1q30 0 30 -46q0 -41 -26.5 -71.5t-69.5 -45.5q-6 -3 -15 -3q-20 0 -30 15q-6 9 -6 19z" />
    <glyph glyph-name="ncommaaccent" unicode="&#x146;" horiz-adv-x="546" 
d="M123 457q24 0 40 -15t16 -36q49 52 129 52q185 0 185 -194v-216q0 -23 -16.5 -39.5t-40.5 -16.5q-25 0 -41.5 16.5t-16.5 39.5v196q0 106 -101 106q-55 0 -98 -43v-259q0 -23 -16.5 -39.5t-40.5 -16.5q-25 0 -41.5 16.5t-16.5 39.5v346q0 29 16 46t43 17zM191 -168
q0 13 14 27q18 15 18 45q0 4 -0.5 12.5t-0.5 10.5q0 18 20 23l59 13q2 1 7 1q30 0 30 -46q0 -41 -26.5 -71.5t-69.5 -45.5q-6 -3 -15 -3q-19 0 -30 15q-6 9 -6 19z" />
    <glyph glyph-name="Ncaron" unicode="&#x147;" horiz-adv-x="792" 
d="M218 671l362 -458v436q0 23 16.5 39.5t41.5 16.5q24 0 40.5 -16.5t16.5 -39.5v-601q0 -24 -15.5 -40t-39.5 -16q-38 0 -66 37l-362 456v-437q0 -23 -16.5 -39.5t-40.5 -16.5q-25 0 -41.5 16.5t-16.5 39.5v601q0 24 17 40t42 16q35 0 62 -34zM522 897q22 0 33 -17
q6 -9 6 -20q0 -20 -18 -34l-112 -70q-13 -10 -34 -10q-18 0 -33 9l-113 71q-17 11 -17 32q0 13 7 23q12 17 33 17q12 0 22 -6l103 -60l102 60q8 5 21 5z" />
    <glyph glyph-name="ncaron" unicode="&#x148;" horiz-adv-x="546" 
d="M123 457q24 0 40 -15t16 -36q49 52 129 52q185 0 185 -194v-216q0 -23 -16.5 -39.5t-40.5 -16.5q-25 0 -41.5 16.5t-16.5 39.5v196q0 106 -101 106q-55 0 -98 -43v-259q0 -23 -16.5 -39.5t-40.5 -16.5q-25 0 -41.5 16.5t-16.5 39.5v346q0 29 16 46t43 17zM373 691
q17 0 30 -13q10 -10 10 -27q0 -21 -15 -33l-93 -81q-13 -12 -33 -12q-21 0 -34 13l-92 80q-14 14 -14 33q0 14 11 28t32 14q18 0 29 -11l69 -63l70 61q14 11 30 11z" />
    <glyph glyph-name="Omacron" unicode="&#x14c;" horiz-adv-x="819" 
d="M45 350q0 155 103 258q102 103 261 103t262 -100t103 -261q0 -157 -104 -259t-261 -102q-158 0 -261 100t-103 261zM175 350q0 -104 68 -175t166 -71q108 0 172 70q63 71 63 176q0 109 -67 177q-67 69 -168 69t-167 -69q-67 -68 -67 -177zM308 852h217q19 0 32.5 -13.5
t13.5 -32.5t-13.5 -32.5t-32.5 -13.5h-217q-19 0 -32.5 13.5t-13.5 32.5t13.5 32.5t32.5 13.5z" />
    <glyph glyph-name="omacron" unicode="&#x14d;" horiz-adv-x="562" 
d="M104 56q-68 66 -68 169q0 102 68 170q68 66 177 66q111 0 178 -66q67 -67 67 -170t-67 -169q-67 -67 -178 -67q-110 0 -177 67zM159 225q0 -56 34.5 -92.5t87.5 -36.5q54 0 88.5 36t34.5 93q0 56 -35 92t-88 36q-52 0 -87 -36t-35 -92zM195 642h187q19 0 32.5 -13.5
t13.5 -32.5t-13.5 -32.5t-32.5 -13.5h-187q-19 0 -32.5 13.5t-13.5 32.5t13.5 32.5t32.5 13.5z" />
    <glyph glyph-name="Ohungarumlaut" unicode="&#x150;" horiz-adv-x="819" 
d="M45 350q0 155 103 258q102 103 261 103t262 -100t103 -261q0 -157 -104 -259t-261 -102q-158 0 -261 100t-103 261zM175 350q0 -104 68 -175t166 -71q108 0 172 70q63 71 63 176q0 109 -67 177q-67 69 -168 69t-167 -69q-67 -68 -67 -177zM467 802l104 87q11 9 26 9
q13 0 27 -11l28 -24q9 -7 9 -19q0 -16 -14 -22l-129 -74q-10 -7 -28 -7q-17 0 -28 11q-8 10 -8 22q0 18 13 28zM281 804l68 80q13 16 34 16q8 0 20 -5l37 -19q12 -6 12 -20q0 -10 -9 -18l-108 -85q-12 -9 -27 -9q-16 0 -26 9q-23 23 -1 51z" />
    <glyph glyph-name="ohungarumlaut" unicode="&#x151;" horiz-adv-x="562" 
d="M104 56q-68 66 -68 169q0 102 68 170q68 66 177 66q111 0 178 -66q67 -67 67 -170t-67 -169q-67 -67 -178 -67q-110 0 -177 67zM159 225q0 -56 34.5 -92.5t87.5 -36.5q54 0 88.5 36t34.5 93q0 56 -35 92t-88 36q-52 0 -87 -36t-35 -92zM323 598l66 90q13 16 34 16
q14 0 24 -8l19 -15q15 -12 15 -30q0 -14 -11 -25l-74 -79q-17 -17 -38 -17q-14 0 -25 9q-18 13 -18 36q0 12 8 23zM157 601l57 94q10 18 33 18q12 0 22 -7l16 -11q16 -12 16 -33q0 -15 -8 -25l-64 -87q-12 -16 -35 -16q-12 0 -26 8q-18 12 -18 34q0 15 7 25z" />
    <glyph glyph-name="OE" unicode="&#x152;" horiz-adv-x="1038" 
d="M683 296v-181h236q23 0 39.5 -16.5t16.5 -40.5q0 -25 -16.5 -41.5t-39.5 -16.5h-340q-8 0 -13.5 6t-5.5 14q-71 -31 -154 -31q-160 0 -261 99q-100 99 -100 262q0 156 95 259q94 102 263 102q87 0 157 -33q0 9 6.5 15.5t15.5 6.5h327q23 0 39.5 -16.5t16.5 -40.5
q0 -25 -16.5 -41.5t-39.5 -16.5h-226v-174h196q23 0 39.5 -16.5t16.5 -40.5q0 -25 -16.5 -41.5t-39.5 -16.5h-196zM560 144v405q-71 47 -157 47q-99 0 -163 -67q-65 -68 -65 -179q0 -109 68 -177q67 -69 174 -69q79 0 143 40z" />
    <glyph glyph-name="oe" unicode="&#x153;" horiz-adv-x="840" 
d="M353 225q0 53 18 97q-37 31 -90 31q-52 0 -87 -35q-36 -36 -36 -93q0 -56 35 -92.5t88 -36.5q54 0 89 32q-17 46 -17 97zM689 267v2q0 42 -28 69t-75 27q-98 0 -118 -98h221zM763 190h-291q7 -50 43 -77.5t91 -27.5q45 0 84 17q15 7 26 7q22 0 36 -21q7 -11 7 -22
q0 -25 -23 -39q-65 -38 -142 -38q-94 0 -156 48q-63 -48 -157 -48q-110 0 -177 67q-68 66 -68 169q0 102 68 170q68 66 177 66q92 0 157 -50q64 50 153 50q90 0 151 -58q62 -59 62 -151v-21q0 -18 -11.5 -29.5t-29.5 -11.5z" />
    <glyph glyph-name="Racute" unicode="&#x154;" horiz-adv-x="637" 
d="M479 27l-173 235h-86v-209q0 -25 -18 -43t-43 -18q-26 0 -44 17.5t-18 43.5v586q0 25 17.5 43t43.5 18q31 0 67 0.5t55.5 1t29.5 0.5q254 0 254 -216q0 -81 -41 -131q-40 -51 -94 -69l153 -201q13 -16 13 -37q0 -24 -16.5 -40t-42.5 -16q-31 0 -57 35zM220 585v-208h80
q59 0 96.5 29t37.5 79q0 102 -130 102q-5 0 -16 -0.5t-31 -1t-37 -0.5zM240 817l148 77q7 4 16 4q22 0 32 -21l13 -31q3 -6 3 -14q0 -24 -23 -32l-155 -57q-6 -2 -13 -2q-28 0 -38 25q-4 7 -4 17q0 23 21 34z" />
    <glyph glyph-name="racute" unicode="&#x155;" horiz-adv-x="349" 
d="M123 457q24 0 40 -14.5t16 -35.5q41 53 102 53q24 0 41.5 -13.5t17.5 -38.5q0 -59 -72 -59q-1 0 -7.5 0.5t-8.5 0.5h-7q-43 0 -66 -48v-254q0 -23 -16.5 -39.5t-40.5 -16.5q-25 0 -41.5 16.5t-16.5 39.5v346q0 29 16 46t43 17zM144 600l61 95q11 17 32 17q13 0 23 -7
l24 -18q15 -10 15 -31q0 -15 -9 -25l-72 -83q-14 -15 -34 -15q-13 0 -27 8q-19 13 -19 37q0 12 6 22z" />
    <glyph glyph-name="Rcommaaccent" unicode="&#x156;" horiz-adv-x="637" 
d="M479 27l-173 235h-86v-209q0 -25 -18 -43t-43 -18q-26 0 -44 17.5t-18 43.5v586q0 25 17.5 43t43.5 18q31 0 67 0.5t55.5 1t29.5 0.5q254 0 254 -216q0 -81 -41 -131q-40 -51 -94 -69l153 -201q13 -16 13 -37q0 -24 -16.5 -40t-42.5 -16q-31 0 -57 35zM220 585v-208h80
q59 0 96.5 29t37.5 79q0 102 -130 102q-5 0 -16 -0.5t-31 -1t-37 -0.5zM246 -168q0 13 14 27q18 15 18 45q0 4 -0.5 12.5t-0.5 10.5q0 18 20 23l59 13q2 1 7 1q30 0 30 -46q0 -41 -26.5 -71.5t-69.5 -45.5q-6 -3 -15 -3q-20 0 -30 15q-6 9 -6 19z" />
    <glyph glyph-name="rcommaaccent" unicode="&#x157;" horiz-adv-x="349" 
d="M123 457q24 0 40 -14.5t16 -35.5q41 53 102 53q24 0 41.5 -13.5t17.5 -38.5q0 -59 -72 -59q-1 0 -7.5 0.5t-8.5 0.5h-7q-43 0 -66 -48v-254q0 -23 -16.5 -39.5t-40.5 -16.5q-25 0 -41.5 16.5t-16.5 39.5v346q0 29 16 46t43 17zM89 -168q0 13 14 27q18 15 18 45
q0 4 -0.5 12.5t-0.5 10.5q0 18 20 23l59 13q2 1 7 1q30 0 30 -46q0 -41 -26.5 -71.5t-69.5 -45.5q-6 -3 -15 -3q-19 0 -30 15q-6 9 -6 19z" />
    <glyph glyph-name="Rcaron" unicode="&#x158;" horiz-adv-x="637" 
d="M479 27l-173 235h-86v-209q0 -25 -18 -43t-43 -18q-26 0 -44 17.5t-18 43.5v586q0 25 17.5 43t43.5 18q31 0 67 0.5t55.5 1t29.5 0.5q254 0 254 -216q0 -81 -41 -131q-40 -51 -94 -69l153 -201q13 -16 13 -37q0 -24 -16.5 -40t-42.5 -16q-31 0 -57 35zM220 585v-208h80
q59 0 96.5 29t37.5 79q0 102 -130 102q-5 0 -16 -0.5t-31 -1t-37 -0.5zM427 897q22 0 33 -17q6 -9 6 -20q0 -20 -18 -34l-112 -70q-13 -10 -34 -10q-18 0 -33 9l-113 71q-17 11 -17 32q0 13 7 23q12 17 33 17q11 0 22 -6l103 -60l102 60q8 5 21 5z" />
    <glyph glyph-name="rcaron" unicode="&#x159;" horiz-adv-x="349" 
d="M123 457q24 0 40 -14.5t16 -35.5q41 53 102 53q24 0 41.5 -13.5t17.5 -38.5q0 -59 -72 -59q-1 0 -7.5 0.5t-8.5 0.5h-7q-43 0 -66 -48v-254q0 -23 -16.5 -39.5t-40.5 -16.5q-25 0 -41.5 16.5t-16.5 39.5v346q0 29 16 46t43 17zM298 691q17 0 30 -13q10 -10 10 -27
q0 -21 -15 -33l-93 -81q-14 -12 -33 -12q-21 0 -34 13l-92 80q-14 14 -14 33q0 14 11 28t32 14q18 0 29 -11l69 -63l70 61q14 11 30 11z" />
    <glyph glyph-name="Sacute" unicode="&#x15a;" horiz-adv-x="529" 
d="M43 104q0 21 15 39q17 20 43 20q23 0 44 -15q59 -44 111 -44q46 0 74 22t28 60q0 32 -23.5 56.5t-58.5 40t-76.5 36t-76.5 43t-58.5 63t-23.5 93.5q0 82 60 138q58 55 158 55q81 0 137 -29q41 -21 41 -55q0 -14 -9 -29q-16 -28 -47 -28q-17 0 -31 7q-48 20 -83 20
q-45 0 -70.5 -21t-25.5 -57q0 -34 23.5 -59t58.5 -39.5t76.5 -34.5t76.5 -41.5t58.5 -62t23.5 -95.5q0 -87 -67 -142q-68 -56 -167 -56q-108 0 -188 68q-23 20 -23 47zM222 817l148 77q7 4 16 4q22 0 32 -21l13 -31q3 -6 3 -14q0 -24 -23 -32l-155 -57q-6 -2 -13 -2
q-28 0 -38 25q-4 7 -4 17q0 23 21 34z" />
    <glyph glyph-name="sacute" unicode="&#x15b;" horiz-adv-x="424" 
d="M34 79q0 18 10 28q15 18 36 18q16 0 33 -11q47 -29 104 -29q27 0 43 11t16 31q0 31 -85 55q-34 9 -55.5 17t-48.5 23.5t-40.5 41t-13.5 60.5q0 63 46 100t119 37q79 0 137 -34q24 -15 24 -39q0 -12 -6 -23q-14 -23 -40 -23q-13 0 -27 6q-40 17 -82 17q-24 0 -40 -11.5
t-16 -27.5q0 -12 9 -21.5t26.5 -17t35 -12.5t43.5 -12.5t43 -13.5q38 -14 62 -44t24 -72q0 -66 -49.5 -105t-132.5 -39q-95 0 -156 51q-19 16 -19 39zM151 600l61 95q11 17 32 17q13 0 23 -7l24 -18q15 -10 15 -31q0 -15 -9 -25l-72 -83q-13 -15 -34 -15q-13 0 -27 8
q-19 13 -19 37q0 12 6 22z" />
    <glyph glyph-name="Scircumflex" unicode="&#x15c;" horiz-adv-x="529" 
d="M43 104q0 21 15 39q17 20 43 20q23 0 44 -15q59 -44 111 -44q46 0 74 22t28 60q0 32 -23.5 56.5t-58.5 40t-76.5 36t-76.5 43t-58.5 63t-23.5 93.5q0 82 60 138q58 55 158 55q81 0 137 -29q41 -21 41 -55q0 -14 -9 -29q-16 -28 -47 -28q-17 0 -31 7q-48 20 -83 20
q-45 0 -70.5 -21t-25.5 -57q0 -34 23.5 -59t58.5 -39.5t76.5 -34.5t76.5 -41.5t58.5 -62t23.5 -95.5q0 -87 -67 -142q-68 -56 -167 -56q-108 0 -188 68q-23 20 -23 47zM356 746l-102 53l-102 -53q-8 -5 -20 -5q-22 0 -34 18q-6 9 -6 21q0 21 17 33l113 70q13 10 33 10
q17 0 32 -9l115 -71q17 -11 17 -32q0 -12 -7 -22q-14 -18 -35 -18q-11 0 -21 5z" />
    <glyph glyph-name="scircumflex" unicode="&#x15d;" horiz-adv-x="424" 
d="M34 79q0 18 10 28q15 18 36 18q16 0 33 -11q47 -29 104 -29q27 0 43 11t16 31q0 31 -85 55q-34 9 -55.5 17t-48.5 23.5t-40.5 41t-13.5 60.5q0 63 46 100t119 37q79 0 137 -34q24 -15 24 -39q0 -12 -6 -23q-14 -23 -40 -23q-13 0 -27 6q-40 17 -82 17q-24 0 -40 -11.5
t-16 -27.5q0 -12 9 -21.5t26.5 -17t35 -12.5t43.5 -12.5t43 -13.5q38 -14 62 -44t24 -72q0 -66 -49.5 -105t-132.5 -39q-95 0 -156 51q-19 16 -19 39zM111 523q-21 0 -33 17q-9 11 -9 26q0 22 16 35l89 77q14 12 33 12q21 0 34 -13l88 -76q15 -13 15 -34q0 -19 -10 -29
q-14 -17 -34 -17q-14 0 -27 10l-67 54l-68 -53q-12 -9 -27 -9z" />
    <glyph glyph-name="Scedilla" unicode="&#x15e;" horiz-adv-x="529" 
d="M271 -10v-23q111 -9 111 -87q0 -40 -36 -64t-97 -24q-69 0 -115 31q-13 7 -13 25q0 9 5 17q10 16 28 16q10 0 17 -4q30 -15 50 -15q39 0 39 25q0 16 -17 24q-30 13 -30 43v37q-83 9 -147 66q-23 20 -23 47q0 21 15 39q17 20 43 20q23 0 44 -15q59 -44 111 -44q46 0 74 22
t28 60q0 32 -23.5 56.5t-58.5 40t-76.5 36t-76.5 43t-58.5 63t-23.5 93.5q0 82 60 138q58 55 158 55q81 0 137 -29q41 -21 41 -55q0 -14 -9 -29q-16 -28 -47 -28q-17 0 -31 7q-48 20 -83 20q-45 0 -70.5 -21t-25.5 -57q0 -34 23.5 -59t58.5 -39.5t76.5 -34.5t76.5 -41.5
t58.5 -62t23.5 -95.5q0 -83 -61 -137q-61 -56 -156 -60z" />
    <glyph glyph-name="scedilla" unicode="&#x15f;" horiz-adv-x="424" 
d="M238 -9v-25q104 -8 104 -86q0 -40 -36.5 -64t-101.5 -24q-54 0 -94 24q-15 10 -15 29q0 8 3 14q9 17 29 17q11 0 18 -4q21 -10 43 -10q39 0 39 25q0 19 -15 23q-18 7 -25 17t-7 31v32q-76 8 -127 50q-19 16 -19 39q0 18 10 28q15 18 36 18q16 0 33 -11q47 -29 104 -29
q27 0 43 11t16 31q0 31 -85 55q-34 9 -55.5 17t-48.5 23.5t-40.5 41t-13.5 60.5q0 63 46 100t119 37q79 0 137 -34q24 -15 24 -39q0 -12 -6 -23q-14 -23 -40 -23q-13 0 -27 6q-40 17 -82 17q-24 0 -40 -11.5t-16 -27.5q0 -12 9 -21.5t26.5 -17t35 -12.5t43.5 -12.5t43 -13.5
q38 -14 62 -44t24 -72q0 -60 -41 -97.5t-112 -44.5z" />
    <glyph glyph-name="Scaron" unicode="&#x160;" horiz-adv-x="529" 
d="M43 104q0 21 15 39q17 20 43 20q23 0 44 -15q59 -44 111 -44q46 0 74 22t28 60q0 32 -23.5 56.5t-58.5 40t-76.5 36t-76.5 43t-58.5 63t-23.5 93.5q0 82 60 138q58 55 158 55q81 0 137 -29q41 -21 41 -55q0 -14 -9 -29q-16 -28 -47 -28q-17 0 -31 7q-48 20 -83 20
q-45 0 -70.5 -21t-25.5 -57q0 -34 23.5 -59t58.5 -39.5t76.5 -34.5t76.5 -41.5t58.5 -62t23.5 -95.5q0 -87 -67 -142q-68 -56 -167 -56q-108 0 -188 68q-23 20 -23 47zM384 897q22 0 33 -17q6 -9 6 -20q0 -20 -18 -34l-112 -70q-13 -10 -34 -10q-18 0 -33 9l-113 71
q-17 11 -17 32q0 13 7 23q12 17 33 17q12 0 22 -6l103 -60l102 60q8 5 21 5z" />
    <glyph glyph-name="scaron" unicode="&#x161;" horiz-adv-x="424" 
d="M34 79q0 18 10 28q15 18 36 18q16 0 33 -11q47 -29 104 -29q27 0 43 11t16 31q0 31 -85 55q-34 9 -55.5 17t-48.5 23.5t-40.5 41t-13.5 60.5q0 63 46 100t119 37q79 0 137 -34q24 -15 24 -39q0 -12 -6 -23q-14 -23 -40 -23q-13 0 -27 6q-40 17 -82 17q-24 0 -40 -11.5
t-16 -27.5q0 -12 9 -21.5t26.5 -17t35 -12.5t43.5 -12.5t43 -13.5q38 -14 62 -44t24 -72q0 -66 -49.5 -105t-132.5 -39q-95 0 -156 51q-19 16 -19 39zM306 691q17 0 30 -13q10 -10 10 -27q0 -21 -15 -33l-93 -81q-14 -12 -33 -12q-21 0 -34 13l-92 80q-14 14 -14 33
q0 14 11 28t32 14q18 0 29 -11l69 -63l70 61q14 11 30 11z" />
    <glyph glyph-name="Tcedilla" unicode="&#x162;" horiz-adv-x="597" 
d="M327 -1v-32q111 -9 111 -87q0 -40 -36 -64t-97 -24q-69 0 -115 31q-13 7 -13 25q0 9 5 17q10 16 28 16q10 0 17 -4q30 -15 50 -15q39 0 39 25q0 16 -17 24q-30 13 -30 43v46q-32 17 -32 53v532h-171q-23 0 -39.5 16.5t-16.5 41.5q0 24 16.5 40.5t39.5 16.5h465
q23 0 39.5 -16.5t16.5 -40.5q0 -25 -16.5 -41.5t-39.5 -16.5h-171v-532q0 -37 -33 -54z" />
    <glyph glyph-name="tcedilla" unicode="&#x163;" horiz-adv-x="347" 
d="M214 -9v-25q104 -8 104 -86q0 -40 -36.5 -64t-101.5 -24q-54 0 -94 24q-15 10 -15 29q0 8 3 14q9 17 29 17q11 0 18 -4q21 -10 43 -10q39 0 39 25q0 19 -15 23q-18 7 -25 17t-7 31v36q-102 20 -102 177v348q0 23 16.5 39.5t41.5 16.5q24 0 40.5 -16.5t16.5 -39.5v-69h89
q23 0 39.5 -16t16.5 -38t-16.5 -38t-39.5 -16h-89v-164q0 -81 52 -81q11 0 30.5 2.5t22.5 2.5q21 0 33.5 -13.5t12.5 -32.5q0 -30 -31 -46q-33 -17 -75 -19z" />
    <glyph glyph-name="Tcaron" unicode="&#x164;" horiz-adv-x="597" 
d="M237 53v532h-171q-23 0 -39.5 16.5t-16.5 41.5q0 24 16.5 40.5t39.5 16.5h465q23 0 39.5 -16.5t16.5 -40.5q0 -25 -16.5 -41.5t-39.5 -16.5h-171v-532q0 -25 -18 -43t-43 -18q-26 0 -44 17.5t-18 43.5zM419 897q22 0 33 -17q6 -9 6 -20q0 -20 -18 -34l-112 -70
q-13 -10 -34 -10q-18 0 -33 9l-113 71q-17 11 -17 32q0 13 7 23q12 17 33 17q11 0 22 -6l103 -60l102 60q8 5 21 5z" />
    <glyph glyph-name="tcaron" unicode="&#x165;" horiz-adv-x="347" 
d="M274 102q21 0 33.5 -13.5t12.5 -32.5q0 -30 -31 -46q-40 -20 -95 -20q-73 0 -106.5 44.5t-33.5 136.5v348q0 23 16.5 39.5t41.5 16.5q24 0 40.5 -16.5t16.5 -39.5v-69h89q23 0 39.5 -16t16.5 -38t-16.5 -38t-39.5 -16h-89v-164q0 -81 52 -81q11 0 30.5 2.5t22.5 2.5z
M230 541q0 13 9 28q24 37 24 69q0 10 -1 13q-3 15 -3 25q0 24 28 24h48q34 0 34 -34q0 -98 -70 -155q-11 -8 -27 -8q-18 0 -28 9q-14 14 -14 29z" />
    <glyph glyph-name="Umacron" unicode="&#x16a;" horiz-adv-x="750" 
d="M541 315v329q0 26 17.5 43.5t43.5 17.5t43.5 -17.5t17.5 -43.5v-354q0 -151 -79 -226q-80 -75 -199 -75q-134 0 -216 80q-82 79 -82 228v347q0 26 18 43.5t44 17.5q25 0 43 -17.5t18 -43.5v-321q0 -104 44.5 -161.5t130.5 -57.5q156 0 156 211zM274 852h217
q19 0 32.5 -13.5t13.5 -32.5t-13.5 -32.5t-32.5 -13.5h-217q-19 0 -32.5 13.5t-13.5 32.5t13.5 32.5t32.5 13.5z" />
    <glyph glyph-name="umacron" unicode="&#x16b;" horiz-adv-x="535" 
d="M356 151v250q0 23 16.5 39.5t41.5 16.5q24 0 40.5 -16.5t16.5 -39.5v-353q0 -23 -16.5 -39.5t-41.5 -16.5t-41 17t-16 46q-54 -66 -144 -66q-72 0 -115 48t-43 138v226q0 23 16.5 39.5t41.5 16.5q24 0 40.5 -16.5t16.5 -39.5v-202q0 -103 86 -103q59 0 101 55zM170 642
h187q19 0 32.5 -13.5t13.5 -32.5t-13.5 -32.5t-32.5 -13.5h-187q-19 0 -32.5 13.5t-13.5 32.5t13.5 32.5t32.5 13.5z" />
    <glyph glyph-name="Ubreve" unicode="&#x16c;" horiz-adv-x="750" 
d="M541 315v329q0 26 17.5 43.5t43.5 17.5t43.5 -17.5t17.5 -43.5v-354q0 -151 -79 -226q-80 -75 -199 -75q-134 0 -216 80q-82 79 -82 228v347q0 26 18 43.5t44 17.5q25 0 43 -17.5t18 -43.5v-321q0 -104 44.5 -161.5t130.5 -57.5q156 0 156 211zM562 849q0 -16 -9 -25
q-34 -37 -82 -62t-94 -25q-103 0 -179 87q-9 9 -9 25t11 27q12 12 27 12q17 0 34 -13q47 -38 116 -38q63 0 113 38q17 13 33 13t28 -12q11 -11 11 -27z" />
    <glyph glyph-name="ubreve" unicode="&#x16d;" horiz-adv-x="535" 
d="M356 151v250q0 23 16.5 39.5t41.5 16.5q24 0 40.5 -16.5t16.5 -39.5v-353q0 -23 -16.5 -39.5t-41.5 -16.5t-41 17t-16 46q-54 -66 -144 -66q-72 0 -115 48t-43 138v226q0 23 16.5 39.5t41.5 16.5q24 0 40.5 -16.5t16.5 -39.5v-202q0 -103 86 -103q59 0 101 55zM421 637
q0 -14 -7 -21q-64 -84 -152 -84q-85 0 -142 83q-7 10 -7 21q0 16 14 27q11 8 23 8q16 0 28 -12q40 -34 89 -34q51 0 91 33q15 12 29 12q11 0 22 -8q12 -9 12 -25z" />
    <glyph glyph-name="Uring" unicode="&#x16e;" horiz-adv-x="750" 
d="M541 315v329q0 26 17.5 43.5t43.5 17.5t43.5 -17.5t17.5 -43.5v-354q0 -151 -79 -226q-80 -75 -199 -75q-134 0 -216 80q-82 79 -82 228v347q0 26 18 43.5t44 17.5q25 0 43 -17.5t18 -43.5v-321q0 -104 44.5 -161.5t130.5 -57.5q156 0 156 211zM375 908q65 0 104 -28
t39 -80t-39.5 -81t-103.5 -29q-62 0 -100.5 29t-38.5 81t38 80t101 28zM376 753q26 0 41.5 12t15.5 35q0 45 -57 45q-55 0 -55 -45q0 -23 15 -35t40 -12z" />
    <glyph glyph-name="uring" unicode="&#x16f;" horiz-adv-x="535" 
d="M356 151v250q0 23 16.5 39.5t41.5 16.5q24 0 40.5 -16.5t16.5 -39.5v-353q0 -23 -16.5 -39.5t-41.5 -16.5t-41 17t-16 46q-54 -66 -144 -66q-72 0 -115 48t-43 138v226q0 23 16.5 39.5t41.5 16.5q24 0 40.5 -16.5t16.5 -39.5v-202q0 -103 86 -103q59 0 101 55zM263 494
q-54 0 -90 34.5t-36 83.5q0 51 36 85.5t90 34.5t91 -34.5t37 -85.5q0 -49 -37 -83.5t-91 -34.5zM265 669q-33 3 -47 -26.5t0 -59t47 -27.5q32 -2 45.5 27.5t0 59t-45.5 26.5z" />
    <glyph glyph-name="Uhungarumlaut" unicode="&#x170;" horiz-adv-x="750" 
d="M541 315v329q0 26 17.5 43.5t43.5 17.5t43.5 -17.5t17.5 -43.5v-354q0 -151 -79 -226q-80 -75 -199 -75q-134 0 -216 80q-82 79 -82 228v347q0 26 18 43.5t44 17.5q25 0 43 -17.5t18 -43.5v-321q0 -104 44.5 -161.5t130.5 -57.5q156 0 156 211zM419 802l104 87q11 9 26 9
q13 0 27 -11l28 -24q9 -7 9 -19q0 -16 -14 -22l-129 -74q-10 -7 -28 -7q-17 0 -28 11q-8 10 -8 22q0 18 13 28zM233 804l68 80q13 16 34 16q8 0 20 -5l37 -19q12 -6 12 -20q0 -10 -9 -18l-108 -85q-12 -9 -27 -9q-16 0 -26 9q-23 23 -1 51z" />
    <glyph glyph-name="uhungarumlaut" unicode="&#x171;" horiz-adv-x="535" 
d="M356 151v250q0 23 16.5 39.5t41.5 16.5q24 0 40.5 -16.5t16.5 -39.5v-353q0 -23 -16.5 -39.5t-41.5 -16.5t-41 17t-16 46q-54 -66 -144 -66q-72 0 -115 48t-43 138v226q0 23 16.5 39.5t41.5 16.5q24 0 40.5 -16.5t16.5 -39.5v-202q0 -103 86 -103q59 0 101 55zM305 598
l66 90q13 16 34 16q14 0 24 -8l19 -15q15 -12 15 -30q0 -14 -11 -25l-74 -79q-17 -17 -38 -17q-14 0 -25 9q-18 13 -18 36q0 12 8 23zM139 601l57 94q10 18 33 18q12 0 22 -7l16 -11q16 -12 16 -33q0 -15 -8 -25l-64 -87q-12 -16 -35 -16q-12 0 -26 8q-18 12 -18 34
q0 15 7 25z" />
    <glyph glyph-name="Uogonek" unicode="&#x172;" horiz-adv-x="750" 
d="M541 315v329q0 26 17.5 43.5t43.5 17.5t43.5 -17.5t17.5 -43.5v-354q0 -145 -74 -221q-76 -76 -190 -80q-20 -10 -32 -26t-12 -31q0 -40 51 -40q31 0 44 -5.5t17 -22.5q1 -3 1 -12q0 -30 -27 -40q-29 -12 -67 -12q-60 0 -97 24t-37 70q0 65 80 101q-110 18 -171.5 95.5
t-61.5 206.5v347q0 26 18 43.5t44 17.5q25 0 43 -17.5t18 -43.5v-321q0 -104 44.5 -161.5t130.5 -57.5q156 0 156 211z" />
    <glyph glyph-name="uogonek" unicode="&#x173;" horiz-adv-x="535" 
d="M356 151v250q0 23 16.5 39.5t41.5 16.5q24 0 40.5 -16.5t16.5 -39.5v-353q0 -23 -16.5 -39.5t-41.5 -16.5q-11 0 -24 5q-27 -7 -45.5 -26.5t-18.5 -38.5q0 -40 51 -40q31 0 44 -5.5t17 -22.5q1 -3 1 -12q0 -30 -27 -40q-28 -12 -67 -12q-60 0 -97 24t-37 70q0 47 44 79.5
t113 41.5q-11 17 -11 40q-54 -66 -144 -66q-72 0 -115 48t-43 138v226q0 23 16.5 39.5t41.5 16.5q24 0 40.5 -16.5t16.5 -39.5v-202q0 -103 86 -103q59 0 101 55z" />
    <glyph glyph-name="Ydieresis" unicode="&#x178;" horiz-adv-x="599" 
d="M148 668l155 -261l153 261q22 37 57 37q25 0 40 -15t15 -38q0 -17 -10 -33l-199 -327v-239q0 -25 -17.5 -43t-43.5 -18t-44 17.5t-18 43.5v239l-195 322q-10 17 -10 34q0 24 17 40.5t44 16.5q34 0 56 -37zM185 887q30 0 50.5 -17.5t20.5 -44.5q0 -30 -20.5 -48t-50.5 -18
q-34 0 -55.5 18t-21.5 48q0 27 22 44.5t55 17.5zM417 887q30 0 50.5 -17.5t20.5 -44.5q0 -30 -20.5 -48t-50.5 -18q-34 0 -55.5 18t-21.5 48q0 27 22 44.5t55 17.5z" />
    <glyph glyph-name="Zacute" unicode="&#x179;" horiz-adv-x="631" 
d="M535 0h-457q-24 0 -40 15t-16 39q0 22 24 51l370 480h-311q-23 0 -39.5 16.5t-16.5 41.5q0 24 16.5 40.5t39.5 16.5h429q41 -3 53 -30.5t-23 -76.5l-371 -478h342q23 0 39.5 -16.5t16.5 -40.5q0 -25 -16.5 -41.5t-39.5 -16.5zM267 817l148 77q7 4 16 4q21 0 32 -21
l13 -31q3 -6 3 -14q0 -24 -23 -32l-155 -57q-6 -2 -13 -2q-28 0 -38 25q-4 7 -4 17q0 23 21 34z" />
    <glyph glyph-name="zacute" unicode="&#x17a;" horiz-adv-x="475" 
d="M389 0h-292q-38 0 -51 32t21 72l215 238h-172q-22 0 -37.5 16t-15.5 38t15.5 38t37.5 16h280q25 0 40 -15t15 -38q0 -25 -24 -51l-215 -239h183q22 0 37.5 -15.5t15.5 -37.5t-15.5 -38t-37.5 -16zM198 600l61 95q11 17 32 17q13 0 23 -7l24 -18q15 -10 15 -31
q0 -15 -9 -25l-72 -83q-14 -15 -34 -15q-13 0 -27 8q-19 13 -19 37q0 12 6 22z" />
    <glyph glyph-name="Zdotaccent" unicode="&#x17b;" horiz-adv-x="631" 
d="M535 0h-457q-24 0 -40 15t-16 39q0 22 24 51l370 480h-311q-23 0 -39.5 16.5t-16.5 41.5q0 24 16.5 40.5t39.5 16.5h429q41 -3 53 -30.5t-23 -76.5l-371 -478h342q23 0 39.5 -16.5t16.5 -40.5q0 -25 -16.5 -41.5t-39.5 -16.5zM315 902q31 0 53 -20t22 -51q0 -33 -22 -54
t-53 -21q-34 0 -56.5 20.5t-22.5 54.5q0 32 22.5 51.5t56.5 19.5z" />
    <glyph glyph-name="zdotaccent" unicode="&#x17c;" horiz-adv-x="475" 
d="M389 0h-292q-38 0 -51 32t21 72l215 238h-172q-22 0 -37.5 16t-15.5 38t15.5 38t37.5 16h280q25 0 40 -15t15 -38q0 -25 -24 -51l-215 -239h183q22 0 37.5 -15.5t15.5 -37.5t-15.5 -38t-37.5 -16zM245 679q27 0 46.5 -19t19.5 -48q0 -32 -19.5 -52t-46.5 -20
q-31 0 -51.5 20t-20.5 52q0 30 20.5 48.5t51.5 18.5z" />
    <glyph glyph-name="Zcaron" unicode="&#x17d;" horiz-adv-x="631" 
d="M535 0h-457q-24 0 -40 15t-16 39q0 22 24 51l370 480h-311q-23 0 -39.5 16.5t-16.5 41.5q0 24 16.5 40.5t39.5 16.5h429q41 -3 53 -30.5t-23 -76.5l-371 -478h342q23 0 39.5 -16.5t16.5 -40.5q0 -25 -16.5 -41.5t-39.5 -16.5zM441 897q22 0 33 -17q6 -9 6 -20
q0 -20 -18 -34l-112 -70q-13 -10 -34 -10q-18 0 -33 9l-113 71q-17 11 -17 32q0 13 7 23q12 17 33 17q11 0 22 -6l103 -60l102 60q8 5 21 5z" />
    <glyph glyph-name="zcaron" unicode="&#x17e;" horiz-adv-x="475" 
d="M389 0h-292q-38 0 -51 32t21 72l215 238h-172q-22 0 -37.5 16t-15.5 38t15.5 38t37.5 16h280q25 0 40 -15t15 -38q0 -25 -24 -51l-215 -239h183q22 0 37.5 -15.5t15.5 -37.5t-15.5 -38t-37.5 -16zM353 691q17 0 30 -13q10 -10 10 -27q0 -21 -15 -33l-93 -81
q-13 -12 -33 -12q-21 0 -34 13l-92 80q-14 14 -14 33q0 14 11 28t32 14q18 0 29 -11l69 -63l70 61q14 11 30 11z" />
    <glyph glyph-name="longs" unicode="&#x17f;" horiz-adv-x="285" 
d="M69 48v475q0 91 42 139.5t118 48.5q111 0 111 -57q0 -53 -57 -53q-5 0 -19.5 1.5t-18.5 1.5q-29 0 -45 -23.5t-16 -66.5v-466q0 -23 -16.5 -39.5t-40.5 -16.5q-25 0 -41.5 16.5t-16.5 39.5z" />
    <glyph glyph-name="uni018F" unicode="&#x18f;" horiz-adv-x="766" 
d="M160 657q95 54 200 54q161 0 262 -98q99 -99 99 -262q0 -164 -96 -263q-97 -99 -258 -99q-151 0 -244 101q-94 100 -94 271q0 23 15.5 38t37.5 15h506q-18 84 -81.5 133t-153.5 49q-59 0 -133 -36q-19 -8 -34 -8q-32 0 -48 27q-8 14 -8 29q0 32 30 49zM593 299h-434
q6 -82 62 -138q55 -57 144 -57q93 0 152.5 50.5t75.5 144.5z" />
    <glyph glyph-name="florin" unicode="&#x192;" horiz-adv-x="573" 
d="M557 648q0 -12 -7 -25q-12 -24 -43 -24q-13 0 -32 3q-3 1 -14 1q-56 0 -73 -89l-11 -64h59q23 0 39.5 -16t16.5 -38t-16.5 -38t-39.5 -16h-78l-66 -375q-18 -93 -52.5 -134t-103.5 -41q-47 0 -78 16q-28 13 -28 45q0 13 4 20q7 17 21.5 22.5t49.5 5.5q58 0 72 77l64 364
h-61q-23 0 -39.5 16t-16.5 38t16.5 38t39.5 16h80l13 73q19 100 57.5 144t110.5 44q47 0 80 -15q36 -16 36 -48z" />
    <glyph glyph-name="uni01DD" unicode="&#x1dd;" horiz-adv-x="509" 
d="M148 185v-2q0 -45 28.5 -71.5t76.5 -26.5q99 0 116 100h-221zM252 -11q-97 0 -159 58q-64 58 -64 151v21q0 19 12.5 31t30.5 12h294q-8 47 -44 75t-89 28q-45 0 -84 -17q-15 -7 -26 -7q-23 0 -36 21q-7 11 -7 22q0 25 23 39q65 38 142 38q108 0 172 -64q63 -64 63 -172
q0 -103 -60 -169q-60 -67 -168 -67z" />
    <glyph glyph-name="Scommaaccent" unicode="&#x218;" horiz-adv-x="529" 
d="M43 104q0 21 15 39q17 20 43 20q23 0 44 -15q59 -44 111 -44q46 0 74 22t28 60q0 32 -23.5 56.5t-58.5 40t-76.5 36t-76.5 43t-58.5 63t-23.5 93.5q0 82 60 138q58 55 158 55q81 0 137 -29q41 -21 41 -55q0 -14 -9 -29q-16 -28 -47 -28q-17 0 -31 7q-48 20 -83 20
q-45 0 -70.5 -21t-25.5 -57q0 -34 23.5 -59t58.5 -39.5t76.5 -34.5t76.5 -41.5t58.5 -62t23.5 -95.5q0 -87 -67 -142q-68 -56 -167 -56q-108 0 -188 68q-23 20 -23 47zM186 -168q0 13 14 27q18 15 18 45q0 4 -0.5 12.5t-0.5 10.5q0 18 20 23l59 13q2 1 7 1q30 0 30 -46
q0 -41 -26.5 -71.5t-69.5 -45.5q-6 -3 -15 -3q-20 0 -30 15q-6 9 -6 19z" />
    <glyph glyph-name="scommaaccent" unicode="&#x219;" horiz-adv-x="424" 
d="M34 79q0 18 10 28q15 18 36 18q16 0 33 -11q47 -29 104 -29q27 0 43 11t16 31q0 31 -85 55q-34 9 -55.5 17t-48.5 23.5t-40.5 41t-13.5 60.5q0 63 46 100t119 37q79 0 137 -34q24 -15 24 -39q0 -12 -6 -23q-14 -23 -40 -23q-13 0 -27 6q-40 17 -82 17q-24 0 -40 -11.5
t-16 -27.5q0 -12 9 -21.5t26.5 -17t35 -12.5t43.5 -12.5t43 -13.5q38 -14 62 -44t24 -72q0 -66 -49.5 -105t-132.5 -39q-95 0 -156 51q-19 16 -19 39zM131 -168q0 13 14 27q18 15 18 45q0 4 -0.5 12.5t-0.5 10.5q0 18 20 23l59 13q2 1 7 1q30 0 30 -46q0 -41 -26.5 -71.5
t-69.5 -45.5q-6 -3 -15 -3q-19 0 -30 15q-6 9 -6 19z" />
    <glyph glyph-name="Tcommaaccent" unicode="&#x21a;" horiz-adv-x="597" 
d="M237 53v532h-171q-23 0 -39.5 16.5t-16.5 41.5q0 24 16.5 40.5t39.5 16.5h465q23 0 39.5 -16.5t16.5 -40.5q0 -25 -16.5 -41.5t-39.5 -16.5h-171v-532q0 -25 -18 -43t-43 -18q-26 0 -44 17.5t-18 43.5zM214 -168q0 13 14 27q18 15 18 45q0 4 -0.5 12.5t-0.5 10.5
q0 18 20 23l59 13q2 1 7 1q30 0 30 -46q0 -41 -26.5 -71.5t-69.5 -45.5q-6 -3 -15 -3q-20 0 -30 15q-6 9 -6 19z" />
    <glyph glyph-name="tcommaaccent" unicode="&#x21b;" horiz-adv-x="347" 
d="M274 102q21 0 33.5 -13.5t12.5 -32.5q0 -30 -31 -46q-40 -20 -95 -20q-73 0 -106.5 44.5t-33.5 136.5v348q0 23 16.5 39.5t41.5 16.5q24 0 40.5 -16.5t16.5 -39.5v-69h89q23 0 39.5 -16t16.5 -38t-16.5 -38t-39.5 -16h-89v-164q0 -81 52 -81q11 0 30.5 2.5t22.5 2.5z
M95 -168q0 13 14 27q18 15 18 45q0 4 -0.5 12.5t-0.5 10.5q0 18 20 23l59 13q2 1 7 1q30 0 30 -46q0 -41 -26.5 -71.5t-69.5 -45.5q-6 -3 -15 -3q-19 0 -30 15q-6 9 -6 19z" />
    <glyph glyph-name="uni0237" unicode="&#x237;" horiz-adv-x="296" 
d="M99 -23v424q0 23 16.5 39.5t41.5 16.5q24 0 40.5 -16.5t16.5 -39.5v-434q0 -175 -141 -175q-42 0 -69 15.5t-27 46.5q0 32 28 41q7 3 22 3h17q55 0 55 79z" />
    <glyph glyph-name="uni0259" unicode="&#x259;" horiz-adv-x="509" 
d="M148 185v-2q0 -45 28.5 -71.5t76.5 -26.5q99 0 116 100h-221zM252 -11q-97 0 -159 58q-64 58 -64 151v21q0 19 12.5 31t30.5 12h294q-8 47 -44 75t-89 28q-45 0 -84 -17q-15 -7 -26 -7q-23 0 -36 21q-7 11 -7 22q0 25 23 39q65 38 142 38q108 0 172 -64q63 -64 63 -172
q0 -103 -60 -169q-60 -67 -168 -67z" />
    <glyph glyph-name="afii57929" unicode="&#x2bc;" horiz-adv-x="222" 
d="M56 470q0 12 9 26q21 32 21 70q0 13 -5 30q-4 15 -4 21q0 20 26 34l30 18q7 4 16 4q24 0 31 -19q14 -31 14 -62q0 -93 -70 -151q-9 -9 -27 -9t-27 9q-14 14 -14 29z" />
    <glyph glyph-name="circumflex" unicode="&#x2c6;" horiz-adv-x="429" 
d="M119 523q-21 0 -33 17q-9 11 -9 26q0 22 16 35l89 77q14 12 33 12q21 0 34 -13l88 -76q15 -13 15 -34q0 -19 -10 -29q-14 -17 -34 -17q-14 0 -27 10l-67 54l-68 -53q-12 -9 -27 -9z" />
    <glyph glyph-name="caron" unicode="&#x2c7;" horiz-adv-x="429" 
d="M315 691q17 0 30 -13q10 -10 10 -27q0 -21 -15 -33l-93 -81q-13 -12 -33 -12q-21 0 -34 13l-92 80q-14 14 -14 33q0 14 11 28t32 14q18 0 29 -11l69 -63l70 61q14 11 30 11z" />
    <glyph glyph-name="breve" unicode="&#x2d8;" horiz-adv-x="433" 
d="M375 637q0 -14 -7 -21q-64 -84 -152 -84q-85 0 -142 83q-7 10 -7 21q0 16 14 27q11 8 23 8q16 0 28 -12q40 -34 89 -34q51 0 91 33q15 12 29 12q11 0 22 -8q12 -9 12 -25z" />
    <glyph glyph-name="dotaccent" unicode="&#x2d9;" horiz-adv-x="258" 
d="M132 679q27 0 46.5 -19t19.5 -48q0 -32 -19.5 -52t-46.5 -20q-31 0 -51.5 20t-20.5 52q0 30 20.5 48.5t51.5 18.5z" />
    <glyph glyph-name="ring" unicode="&#x2da;" horiz-adv-x="374" 
d="M186 494q-54 0 -90 34.5t-36 83.5q0 51 36 85.5t90 34.5t91 -34.5t37 -85.5q0 -49 -37 -83.5t-91 -34.5zM188 669q-33 3 -47 -26.5t0 -59t47 -27.5q32 -2 45.5 27.5t0 59t-45.5 26.5z" />
    <glyph glyph-name="ogonek" unicode="&#x2db;" horiz-adv-x="357" 
d="M274 0h-9q-35 0 -62.5 -21.5t-27.5 -46.5q0 -40 51 -40q31 0 44 -5.5t17 -22.5q1 -3 1 -12q0 -30 -27 -40q-29 -12 -67 -12q-60 0 -97 24t-37 70q0 58 63 91q61 34 142 34h9v-19z" />
    <glyph glyph-name="tilde" unicode="&#x2dc;" horiz-adv-x="464" 
d="M386 573q-54 -48 -99 -48q-23 0 -57 25t-58 25q-10 0 -38 -17q-16 -10 -27 -10q-15 0 -28 15q-7 7 -7 20q0 21 16 34q50 42 93 42q25 0 60 -25t56 -25q13 0 41 19q17 11 29 11q14 0 26 -13q9 -10 9 -22q0 -18 -16 -31z" />
    <glyph glyph-name="hungarumlaut" unicode="&#x2dd;" horiz-adv-x="484" 
d="M248 598l66 90q13 16 34 16q14 0 24 -8l19 -15q15 -12 15 -30q0 -14 -11 -25l-74 -79q-17 -17 -38 -17q-15 0 -25 9q-18 13 -18 36q0 12 8 23zM82 601l57 94q11 18 33 18q12 0 22 -7l16 -11q16 -12 16 -33q0 -15 -8 -25l-64 -87q-12 -16 -35 -16q-12 0 -26 8
q-18 12 -18 34q0 15 7 25z" />
    <glyph glyph-name="gravecomb" unicode="&#x300;" horiz-adv-x="0" 
d="M-283 697l64 -101q7 -11 7 -24q0 -22 -18 -34q-11 -8 -26 -8q-20 0 -35 15l-79 87q-8 8 -8 22q0 18 13 28l33 24q7 7 20 7q19 0 29 -16z" />
    <glyph glyph-name="acutecomb" unicode="&#x301;" horiz-adv-x="0" 
d="M-299 600l61 95q11 17 32 17q13 0 23 -7l24 -18q15 -11 15 -31q0 -15 -9 -25l-72 -83q-13 -15 -34 -15q-13 0 -27 8q-19 13 -19 37q0 12 6 22z" />
    <glyph glyph-name="uni0394" unicode="&#x394;" horiz-adv-x="704" 
d="M40 78l256 596q13 34 53 34q39 0 54 -34l261 -597q5 -13 5 -22q0 -22 -16 -38.5t-40 -16.5h-521q-24 0 -40.5 16.5t-16.5 39.5q0 9 5 22zM515 115l-169 387l-161 -387h330z" />
    <glyph glyph-name="uni0394" unicode="&#x2206;" horiz-adv-x="704" 
d="M40 78l256 596q13 34 53 34q39 0 54 -34l261 -597q5 -13 5 -22q0 -22 -16 -38.5t-40 -16.5h-521q-24 0 -40.5 16.5t-16.5 39.5q0 9 5 22zM515 115l-169 387l-161 -387h330z" />
    <glyph glyph-name="uni03A9" unicode="&#x3a9;" horiz-adv-x="823" 
d="M313 127q38 -19 48 -37q7 -13 7 -34q0 -23 -16.5 -39.5t-39.5 -16.5h-202q-23 0 -39.5 16.5t-16.5 41.5q0 24 16.5 40.5t39.5 16.5h101q-60 20 -107 94q-49 73 -49 171q0 148 102 240q101 91 255 91q156 0 256 -90q101 -92 101 -241q0 -102 -49 -172q-50 -72 -108 -93
h100q23 0 39.5 -16.5t16.5 -40.5q0 -25 -16.5 -41.5t-39.5 -16.5h-201q-23 0 -39.5 16.5t-16.5 39.5q0 37 24 53q6 4 31 18q60 32 94.5 94.5t34.5 138.5q0 96 -62 167q-63 69 -165 69q-107 0 -167 -69q-60 -71 -60 -170q0 -68 34 -133q34 -66 94 -97z" />
    <glyph glyph-name="uni03A9" unicode="&#x2126;" horiz-adv-x="823" 
d="M313 127q38 -19 48 -37q7 -13 7 -34q0 -23 -16.5 -39.5t-39.5 -16.5h-202q-23 0 -39.5 16.5t-16.5 41.5q0 24 16.5 40.5t39.5 16.5h101q-60 20 -107 94q-49 73 -49 171q0 148 102 240q101 91 255 91q156 0 256 -90q101 -92 101 -241q0 -102 -49 -172q-50 -72 -108 -93
h100q23 0 39.5 -16.5t16.5 -40.5q0 -25 -16.5 -41.5t-39.5 -16.5h-201q-23 0 -39.5 16.5t-16.5 39.5q0 37 24 53q6 4 31 18q60 32 94.5 94.5t34.5 138.5q0 96 -62 167q-63 69 -165 69q-107 0 -167 -69q-60 -71 -60 -170q0 -68 34 -133q34 -66 94 -97z" />
    <glyph glyph-name="pi" unicode="&#x3c0;" horiz-adv-x="612" 
d="M18 47q0 36 37 58q32 21 46.5 60.5t14.5 114.5v62h-29q-22 0 -38 16t-16 38t16 38t38 16h426q22 0 38 -16t16 -38t-16 -38t-38 -16h-23v-176q0 -37 8 -52.5t28 -15.5h6q2 0 6 0.5t6 0.5q50 0 50 -43q0 -34 -33.5 -50t-83.5 -16q-102 0 -102 129v223h-145v-45
q0 -305 -151 -305q-27 0 -44 15.5t-17 39.5z" />
    <glyph glyph-name="afii10023" unicode="&#x401;" horiz-adv-x="575" 
d="M220 296v-181h236q23 0 39.5 -16.5t16.5 -40.5q0 -25 -16.5 -41.5t-39.5 -16.5h-303q-23 0 -39.5 16.5t-16.5 39.5v588q0 23 16.5 39.5t39.5 16.5h293q23 0 39.5 -16.5t16.5 -40.5q0 -25 -16.5 -41.5t-39.5 -16.5h-226v-174h196q23 0 39.5 -16.5t16.5 -40.5
q0 -25 -16.5 -41.5t-39.5 -16.5h-196zM196 887q30 0 50.5 -17.5t20.5 -44.5q0 -30 -20.5 -48t-50.5 -18q-34 0 -55.5 18t-21.5 48q0 27 22 44.5t55 17.5zM428 887q30 0 50.5 -17.5t20.5 -44.5q0 -30 -20.5 -48t-50.5 -18q-34 0 -55.5 18t-21.5 48q0 27 22 44.5t55 17.5z" />
    <glyph glyph-name="afii10051" unicode="&#x402;" horiz-adv-x="764" 
d="M237 53v532h-171q-23 0 -39.5 16.5t-16.5 41.5q0 24 16.5 40.5t39.5 16.5h465q23 0 39.5 -16.5t16.5 -40.5q0 -25 -16.5 -41.5t-39.5 -16.5h-171v-202q65 40 149 40q210 0 210 -220q0 -104 -46 -159t-128 -55q-48 0 -92 23q-35 20 -35 54q0 13 5 23q13 28 48 28
q5 0 27 -6.5t31 -6.5q32 0 50 24.5t18 72.5q0 107 -111 107q-65 0 -126 -37v-218q0 -25 -18 -43t-43 -18q-26 0 -44 17.5t-18 43.5z" />
    <glyph glyph-name="afii10052" unicode="&#x403;" horiz-adv-x="507" 
d="M97 53v591q0 23 16.5 39.5t39.5 16.5h283q23 0 39.5 -16.5t16.5 -40.5q0 -25 -16.5 -41.5t-39.5 -16.5h-216v-532q0 -25 -18 -43t-43 -18q-26 0 -44 18t-18 43zM285 817l148 77q7 4 16 4q21 0 32 -21l13 -31q3 -6 3 -14q0 -24 -23 -32l-155 -57q-6 -2 -13 -2
q-28 0 -38 25q-4 7 -4 17q0 23 21 34z" />
    <glyph glyph-name="afii10053" unicode="&#x404;" horiz-adv-x="661" 
d="M581 144q30 0 47 -26q10 -16 10 -32q0 -34 -34 -53q-74 -44 -193 -44q-168 0 -267 99q-99 98 -99 263q0 163 99 262q100 98 260 98q121 0 186 -43q35 -21 35 -53q0 -15 -9 -29q-18 -25 -46 -25q-19 0 -38 10q-49 25 -106 25q-100 0 -167 -48t-85 -134h256
q23 0 39.5 -16.5t16.5 -40.5q0 -25 -16.5 -41.5t-39.5 -16.5h-259q15 -92 80.5 -143.5t161.5 -51.5q66 0 129 30q19 10 39 10z" />
    <glyph glyph-name="afii10054" unicode="&#x405;" horiz-adv-x="529" 
d="M43 104q0 21 15 39q17 20 43 20q23 0 44 -15q59 -44 111 -44q46 0 74 22t28 60q0 32 -23.5 56.5t-58.5 40t-76.5 36t-76.5 43t-58.5 63t-23.5 93.5q0 82 60 138q58 55 158 55q81 0 137 -29q41 -21 41 -55q0 -14 -9 -29q-16 -28 -47 -28q-17 0 -31 7q-48 20 -83 20
q-45 0 -70.5 -21t-25.5 -57q0 -34 23.5 -59t58.5 -39.5t76.5 -34.5t76.5 -41.5t58.5 -62t23.5 -95.5q0 -87 -67 -142q-68 -56 -167 -56q-108 0 -188 68q-23 20 -23 47z" />
    <glyph glyph-name="afii10055" unicode="&#x406;" horiz-adv-x="347" 
d="M235 644v-591q0 -25 -17.5 -43t-43.5 -18t-44 17.5t-18 43.5v591q0 26 18 43.5t44 17.5t43.5 -17.5t17.5 -43.5z" />
    <glyph glyph-name="afii10056" unicode="&#x407;" horiz-adv-x="348" 
d="M26 825q0 27 19 44.5t47 17.5q27 0 45 -17.5t18 -44.5q0 -30 -18 -48t-45 -18q-28 0 -47 18t-19 48zM193 825q0 27 19.5 44.5t47.5 17.5q25 0 43.5 -18t18.5 -44q0 -30 -17.5 -48t-44.5 -18q-30 0 -48.5 18t-18.5 48zM235 644v-591q0 -25 -17.5 -43t-43.5 -18t-44 17.5
t-18 43.5v591q0 26 18 43.5t44 17.5t43.5 -17.5t17.5 -43.5z" />
    <glyph glyph-name="afii10057" unicode="&#x408;" horiz-adv-x="386" 
d="M166 186v458q0 26 18 43.5t44 17.5t43.5 -17.5t17.5 -43.5v-479q0 -85 -43 -130.5t-126 -45.5q-39 0 -68 10q-43 15 -43 54q0 10 2 18q9 38 49 38q2 0 6 -1h3q21 -4 34 -4q63 0 63 82z" />
    <glyph glyph-name="afii10058" unicode="&#x409;" horiz-adv-x="1005" 
d="M626 345v-229q9 0 26 -1q34 -2 39 -2q139 0 139 123q0 56 -35.5 85t-101.5 29q-17 0 -67 -5zM175 560l6 79q1 25 20 43t45 18h319q25 0 43 -18t18 -43v-179q43 5 77 5q125 0 191 -59.5t66 -166.5q0 -114 -74.5 -177.5t-208.5 -63.5h-58q-25 1 -54 1q-26 1 -43.5 19
t-17.5 43v524h-204l-14 -132q-30 -282 -83 -376q-26 -47 -54.5 -66t-66.5 -19q-32 0 -51 16.5t-19 41.5q0 48 49 64q50 17 74 118q24 107 40 328z" />
    <glyph glyph-name="afii10059" unicode="&#x40a;" horiz-adv-x="1032" 
d="M530 323h-310v-270q0 -25 -18 -43t-43 -18q-26 0 -44 17.5t-18 43.5v591q0 26 18 43.5t44 17.5q25 0 43 -17.5t18 -43.5v-206h310v206q0 26 18 43.5t43 17.5t43 -17.5t18 -43.5v-201q39 4 78 4q125 0 191 -57t66 -160q0 -108 -75.5 -170t-207.5 -62h-59q-25 1 -54 1
q-26 1 -43.5 19t-17.5 43v262zM652 327v-211q11 0 28 -1q32 -2 38 -2q139 0 139 114q0 51 -35.5 78t-101.5 27q-30 0 -68 -5z" />
    <glyph glyph-name="afii10060" unicode="&#x40b;" horiz-adv-x="765" 
d="M598 53v111q0 144 -120 144q-59 0 -118 -38v-217q0 -25 -18 -43t-43 -18q-26 0 -44 17.5t-18 43.5v532h-171q-23 0 -39.5 16.5t-16.5 41.5q0 24 16.5 40.5t39.5 16.5h465q23 0 39.5 -16.5t16.5 -40.5q0 -25 -16.5 -41.5t-39.5 -16.5h-171v-202q62 40 150 40q42 0 78 -12
t66.5 -37t48 -69.5t17.5 -104.5v-147q0 -26 -17.5 -43.5t-43.5 -17.5q-25 0 -43 18t-18 43z" />
    <glyph glyph-name="afii10061" unicode="&#x40c;" horiz-adv-x="649" 
d="M483 29l-263 332v-308q0 -25 -18 -43t-43 -18q-26 0 -44 17.5t-18 43.5v591q0 26 18 43.5t44 17.5q25 0 43 -17.5t18 -43.5v-276l252 304q27 33 56 33q24 0 39.5 -15t15.5 -36q0 -24 -18 -44l-209 -236l227 -278q20 -25 20 -49t-17 -39.5t-44 -15.5q-31 0 -59 37z
M330 817l148 77q7 4 16 4q22 0 32 -21l13 -31q3 -6 3 -14q0 -24 -23 -32l-155 -57q-6 -2 -13 -2q-28 0 -38 25q-4 7 -4 17q0 23 21 34z" />
    <glyph glyph-name="afii10062" unicode="&#x40e;" horiz-adv-x="652" 
d="M149 673l213 -364l153 357q17 39 54 39q26 0 41.5 -14.5t15.5 -36.5q0 -13 -6 -28l-205 -463q-41 -92 -82 -127q-42 -36 -108 -36q-31 0 -55 9q-38 14 -38 53l2 16q11 35 46 38q2 1 10 1q3 0 18 -1t21 -1q42 0 64 49l10 24l-257 425q-9 17 -9 34q0 25 15.5 41.5
t41.5 16.5q35 0 55 -32zM538 871q0 -65 -55 -104.5t-145 -39.5t-145 39.5t-55 104.5q0 25 16 42t43 17t41.5 -16t14.5 -43q0 -59 85 -59t85 59q0 27 14.5 43t41.5 16t43 -17t16 -42z" />
    <glyph glyph-name="afii10145" unicode="&#x40f;" horiz-adv-x="742" 
d="M428 0v-92q0 -25 -17 -43t-40 -18t-40.5 18t-17.5 43v92h-155q-26 0 -43.5 18t-17.5 43v583q0 26 18 43.5t44 17.5q25 0 43 -17.5t18 -43.5v-529h302v529q0 26 18 43.5t44 17.5t43.5 -17.5t17.5 -43.5v-583q0 -25 -17.5 -43t-43.5 -18h-156z" />
    <glyph glyph-name="afii10017" unicode="&#x410;" horiz-adv-x="689" 
d="M549 30l-58 141h-299l-59 -145q-13 -34 -53 -34q-24 0 -40.5 16.5t-16.5 39.5q0 9 5 22l249 585q23 50 69 50q44 0 67 -50l248 -583q5 -15 5 -24q0 -23 -17 -39.5t-40 -16.5q-45 0 -60 38zM444 286l-102 251l-103 -251h205z" />
    <glyph glyph-name="afii10018" unicode="&#x411;" horiz-adv-x="614" 
d="M220 585v-156q41 6 94 6q109 0 172 -57t63 -154q0 -109 -70.5 -168.5t-199.5 -59.5q-24 0 -126 3q-24 1 -40 17.5t-16 39.5v588q0 23 16.5 39.5t39.5 16.5h297q23 0 39.5 -16.5t16.5 -40.5q0 -25 -16.5 -41.5t-39.5 -16.5h-230zM220 314v-199q49 -4 78 -4q129 0 129 104
q0 49 -31 77t-92 28q-38 0 -84 -6z" />
    <glyph glyph-name="afii10019" unicode="&#x412;" horiz-adv-x="617" 
d="M529 530q0 -112 -100 -160q56 -15 89.5 -57.5t33.5 -106.5q0 -102 -70 -156t-190 -54q-22 0 -134 2q-25 1 -43 19.5t-18 43.5v577q0 25 18 43t43 19q64 3 141 3q116 0 173 -46t57 -127zM307 301h-87v-185q47 -5 81 -5q128 0 128 101q0 44 -32 66.5t-90 22.5zM220 585
v-177h83q47 0 75.5 24t28.5 69q0 42 -29 64.5t-81 22.5q-44 0 -77 -3z" />
    <glyph glyph-name="afii10020" unicode="&#x413;" horiz-adv-x="507" 
d="M97 53v591q0 23 16.5 39.5t39.5 16.5h283q23 0 39.5 -16.5t16.5 -40.5q0 -25 -16.5 -41.5t-39.5 -16.5h-216v-532q0 -25 -18 -43t-43 -18q-26 0 -44 18t-18 43z" />
    <glyph glyph-name="afii10021" unicode="&#x414;" horiz-adv-x="756" 
d="M258 700h322q23 0 39.5 -16.5t16.5 -39.5v-529h39q23 0 39.5 -16.5t16.5 -39.5v-128q0 -23 -16.5 -39.5t-40.5 -16.5q-25 0 -41.5 16.5t-16.5 39.5v69h-489v-69q0 -23 -16.5 -39.5t-40.5 -16.5q-25 0 -41.5 16.5t-16.5 39.5v128q0 23 16.5 39.5t39.5 16.5h19
q31 37 66 156q35 117 42 289l4 84q2 23 19 39.5t40 16.5zM222 115h292v470h-193l-11 -122q-9 -126 -37 -221q-29 -99 -51 -127z" />
    <glyph glyph-name="afii10022" unicode="&#x415;" horiz-adv-x="575" 
d="M220 296v-181h236q23 0 39.5 -16.5t16.5 -40.5q0 -25 -16.5 -41.5t-39.5 -16.5h-303q-23 0 -39.5 16.5t-16.5 39.5v588q0 23 16.5 39.5t39.5 16.5h293q23 0 39.5 -16.5t16.5 -40.5q0 -25 -16.5 -41.5t-39.5 -16.5h-226v-174h196q23 0 39.5 -16.5t16.5 -40.5
q0 -25 -16.5 -41.5t-39.5 -16.5h-196z" />
    <glyph glyph-name="afii10024" unicode="&#x416;" horiz-adv-x="913" 
d="M766 22l-248 341v-310q0 -25 -18 -43t-43 -18t-43 18t-18 43v310l-249 -341q-23 -30 -55 -30q-37 0 -49.5 32.5t9.5 58.5l212 282l-195 249q-14 17 -14 38q0 22 15.5 37.5t39.5 15.5q29 0 54 -34l232 -305v278q0 26 18 43.5t43 17.5t43 -17.5t18 -43.5v-278l231 305
q25 34 57 34q24 0 39 -15t15 -37q0 -20 -14 -39l-196 -248l212 -283q12 -16 12 -37q0 -23 -15 -38.5t-40 -15.5q-31 0 -53 30z" />
    <glyph glyph-name="afii10025" unicode="&#x417;" horiz-adv-x="569" 
d="M267 711q96 0 153 -51t57 -141q0 -44 -24.5 -86t-69.5 -69q121 -34 121 -168q0 -93 -72 -150q-74 -57 -173 -57q-118 0 -207 77q-19 16 -19 44q0 22 14 38q18 21 44 21q18 0 37 -13q71 -52 125 -52q57 0 93 27.5t36 76.5q0 43 -32.5 67.5t-91.5 24.5h-16q-25 0 -41 16.5
t-16 42.5q0 24 15.5 40t39.5 16h14q42 0 71.5 25.5t29.5 66.5q0 42 -27.5 65.5t-74.5 23.5q-50 0 -105 -35q-23 -15 -41 -15q-23 0 -41 21q-12 15 -12 32q0 29 24 47q86 65 189 65z" />
    <glyph glyph-name="afii10026" unicode="&#x418;" horiz-adv-x="792" 
d="M695 644v-591q0 -25 -17.5 -43t-43.5 -18t-44 17.5t-18 43.5v443l-345 -466q-29 -38 -68 -38q-29 0 -45.5 16.5t-16.5 43.5v592q0 26 18 43.5t44 17.5q25 0 43 -17.5t18 -43.5v-442l345 467q27 36 66 36q28 0 46 -17t18 -44z" />
    <glyph glyph-name="afii10027" unicode="&#x419;" horiz-adv-x="792" 
d="M695 644v-591q0 -25 -17.5 -43t-43.5 -18t-44 17.5t-18 43.5v443l-345 -466q-29 -38 -68 -38q-29 0 -45.5 16.5t-16.5 43.5v592q0 26 18 43.5t44 17.5q25 0 43 -17.5t18 -43.5v-442l345 467q27 36 66 36q28 0 46 -17t18 -44zM608 871q0 -65 -55 -104.5t-145 -39.5
t-145 39.5t-55 104.5q0 25 16 42t43 17t41.5 -16t14.5 -43q0 -59 85 -59t85 59q0 27 14.5 43t41.5 16t43 -17t16 -42z" />
    <glyph glyph-name="afii10028" unicode="&#x41a;" horiz-adv-x="649" 
d="M483 29l-263 332v-308q0 -25 -18 -43t-43 -18q-26 0 -44 17.5t-18 43.5v591q0 26 18 43.5t44 17.5q25 0 43 -17.5t18 -43.5v-276l252 304q27 33 56 33q24 0 39.5 -15t15.5 -36q0 -24 -18 -44l-209 -236l227 -278q20 -25 20 -49t-17 -39.5t-44 -15.5q-31 0 -59 37z" />
    <glyph glyph-name="afii10029" unicode="&#x41b;" horiz-adv-x="723" 
d="M626 639v-586q0 -25 -18 -43t-43 -18t-43 18t-18 43v532h-204l-14 -132q-30 -282 -83 -376q-26 -47 -54.5 -66t-66.5 -19q-32 0 -51 16.5t-19 41.5q0 48 49 64q50 17 74 118q24 107 40 328l6 79q1 25 20 43t45 18h319q25 0 43 -18t18 -43z" />
    <glyph glyph-name="afii10030" unicode="&#x41c;" horiz-adv-x="901" 
d="M394 263l-174 231v-441q0 -25 -18 -43t-43 -18q-26 0 -44 17.5t-18 43.5v584q0 29 19.5 48.5t49.5 19.5q44 0 77 -44l217 -288l207 286q33 46 76 46q27 0 44 -17.5t17 -43.5v-591q0 -25 -18 -43t-43 -18t-43 18t-18 43v442l-172 -232q-25 -34 -58 -34t-58 34z" />
    <glyph glyph-name="afii10031" unicode="&#x41d;" horiz-adv-x="759" 
d="M662 644v-591q0 -25 -18 -43t-43 -18t-43 18t-18 43v246h-320v-246q0 -25 -18 -43t-43 -18q-26 0 -44 17.5t-18 43.5v591q0 26 18 43.5t44 17.5q25 0 43 -17.5t18 -43.5v-230h320v230q0 26 18 43.5t43 17.5t43 -17.5t18 -43.5z" />
    <glyph glyph-name="afii10032" unicode="&#x41e;" horiz-adv-x="819" 
d="M45 350q0 155 103 258q102 103 261 103t262 -100t103 -261q0 -157 -104 -259t-261 -102q-158 0 -261 100t-103 261zM175 350q0 -104 68 -175t166 -71q108 0 172 70q63 71 63 176q0 109 -67 177q-67 69 -168 69t-167 -69q-67 -68 -67 -177z" />
    <glyph glyph-name="afii10033" unicode="&#x41f;" horiz-adv-x="752" 
d="M655 639v-586q0 -25 -17.5 -43t-43.5 -18t-44 17.5t-18 43.5v532h-312v-532q0 -25 -18 -43t-43 -18q-26 0 -44 17.5t-18 43.5v586q0 25 17.5 43t43.5 18h436q26 0 43.5 -18t17.5 -43z" />
    <glyph glyph-name="afii10034" unicode="&#x420;" horiz-adv-x="612" 
d="M296 702q74 0 128.5 -18.5t84.5 -51t44 -71t14 -84.5q0 -95 -68 -161q-67 -66 -188 -66q-61 0 -91 3v-200q0 -25 -18 -43t-43 -18q-26 0 -44 17.5t-18 43.5v586q0 25 17.5 43t43.5 19q42 0 75 1h63zM220 585v-215q53 -5 87 -5q59 0 94.5 29t35.5 84q0 109 -129 109z" />
    <glyph glyph-name="afii10035" unicode="&#x421;" horiz-adv-x="645" 
d="M509 573q-55 23 -106 23q-99 0 -163 -67q-65 -68 -65 -179q0 -109 68 -177q67 -69 174 -69q57 0 112 27q21 10 40 10q28 0 45 -23q10 -13 10 -32q0 -31 -28 -49q-74 -48 -190 -48q-160 0 -261 99q-100 99 -100 262q0 156 95 259q94 102 263 102q87 0 158 -36
q38 -18 38 -52q0 -11 -8 -29q-16 -28 -49 -28q-19 0 -33 7z" />
    <glyph glyph-name="afii10036" unicode="&#x422;" horiz-adv-x="597" 
d="M237 53v532h-171q-23 0 -39.5 16.5t-16.5 41.5q0 24 16.5 40.5t39.5 16.5h465q23 0 39.5 -16.5t16.5 -40.5q0 -25 -16.5 -41.5t-39.5 -16.5h-171v-532q0 -25 -18 -43t-43 -18q-26 0 -44 17.5t-18 43.5z" />
    <glyph glyph-name="afii10037" unicode="&#x423;" horiz-adv-x="652" 
d="M149 673l213 -364l153 357q17 39 54 39q26 0 41.5 -14.5t15.5 -36.5q0 -13 -6 -28l-205 -463q-41 -92 -82 -127q-42 -36 -108 -36q-31 0 -55 9q-38 14 -38 53l2 16q11 35 46 38q2 1 10 1q3 0 18 -1t21 -1q42 0 64 49l10 24l-257 425q-9 17 -9 34q0 25 15.5 41.5
t41.5 16.5q35 0 55 -32z" />
    <glyph glyph-name="afii10038" unicode="&#x424;" horiz-adv-x="839" 
d="M481 85v-32q0 -25 -17.5 -43t-43.5 -18t-44 17.5t-18 43.5v32q-147 0 -235 73q-88 72 -88 202q0 129 88 201q89 73 235 74v12q0 26 18 43.5t44 17.5t43.5 -18t17.5 -43v-12q147 -2 235 -75t88 -200q0 -129 -88 -201q-87 -72 -235 -74zM481 522v-324q193 1 193 162
q0 74 -50 117.5t-143 44.5zM358 198v324q-92 -1 -142.5 -44.5t-50.5 -117.5q0 -78 50 -119.5t143 -42.5z" />
    <glyph glyph-name="afii10039" unicode="&#x425;" horiz-adv-x="630" 
d="M167 670l151 -223l149 222q25 36 57 36q26 0 42 -16t16 -41q0 -18 -11 -35l-176 -256l185 -269q13 -19 13 -38q0 -24 -16.5 -41t-41.5 -17q-33 0 -55 31l-165 240l-163 -239q-23 -32 -55 -32q-25 0 -42.5 16.5t-17.5 39.5q0 20 14 40l185 269l-174 255q-12 18 -12 37
q0 24 17 40t44 16q32 0 56 -35z" />
    <glyph glyph-name="afii10040" unicode="&#x426;" horiz-adv-x="770" 
d="M745 54v-120q0 -25 -17 -42t-40 -17q-24 0 -41 17t-17 42v66h-472q-26 0 -43.5 18t-17.5 43v583q0 26 18 43.5t44 17.5q25 0 43 -17.5t18 -43.5v-529h307v529q0 26 18 43.5t44 17.5q25 0 43 -17.5t18 -43.5v-529h34q26 0 43.5 -17.5t17.5 -43.5z" />
    <glyph glyph-name="afii10041" unicode="&#x427;" horiz-adv-x="667" 
d="M447 399v245q0 26 18 43.5t44 17.5q25 0 43 -17.5t18 -43.5v-591q0 -25 -18 -43t-43 -18q-26 0 -44 17.5t-18 43.5v234q-66 -48 -167 -48q-90 0 -151 54q-62 54 -62 170v181q0 26 18 43.5t44 17.5q25 0 43 -17.5t18 -43.5v-146q0 -144 123 -144q68 0 134 45z" />
    <glyph glyph-name="afii10042" unicode="&#x428;" horiz-adv-x="997" 
d="M900 644v-583q0 -25 -18 -43t-43 -18h-681q-26 0 -43.5 18t-17.5 43v583q0 26 18 43.5t44 17.5q25 0 43 -17.5t18 -43.5v-529h217v529q0 26 18 43.5t44 17.5q25 0 43 -17.5t18 -43.5v-529h217v529q0 26 18 43.5t44 17.5q25 0 43 -17.5t18 -43.5z" />
    <glyph glyph-name="afii10043" unicode="&#x429;" horiz-adv-x="1020" 
d="M995 54v-118q0 -25 -17 -43t-40 -18t-40.5 18t-17.5 43v64h-722q-26 0 -43.5 18t-17.5 43v583q0 26 18 43.5t44 17.5q25 0 43 -17.5t18 -43.5v-529h217v529q0 26 18 43.5t44 17.5q25 0 43 -17.5t18 -43.5v-529h217v529q0 26 18 43.5t44 17.5q25 0 43 -17.5t18 -43.5v-529
h34q26 0 43.5 -17.5t17.5 -43.5z" />
    <glyph glyph-name="afii10044" unicode="&#x42a;" horiz-adv-x="673" 
d="M337 -2h-62q-27 1 -58 1q-23 1 -39.5 17.5t-16.5 39.5v529h-98q-23 0 -39.5 16.5t-16.5 41.5q0 24 16.5 40.5t39.5 16.5h164q23 0 39.5 -16.5t16.5 -39.5v-184q45 5 81 5q130 0 197 -59t67 -167q0 -113 -76.5 -177t-214.5 -64zM283 345v-229q9 0 34 -1.5t35 -1.5
q146 0 146 123q0 56 -38 85t-106 29q-19 0 -71 -5z" />
    <glyph glyph-name="afii10045" unicode="&#x42b;" horiz-adv-x="864" 
d="M767 644v-591q0 -25 -17.5 -43t-43.5 -18t-43.5 18t-17.5 43v591q0 26 17.5 43.5t43.5 17.5t43.5 -17.5t17.5 -43.5zM220 345v-229q8 0 32 -1.5t34 -1.5q138 0 138 123q0 56 -35 85t-101 29q-16 0 -68 -5zM97 61v583q0 26 18 43.5t44 17.5q25 0 43 -17.5t18 -43.5v-184
q43 5 78 5q125 0 190.5 -59.5t65.5 -166.5q0 -112 -75.5 -176.5t-207.5 -64.5h-58q-26 1 -55 1q-26 1 -43.5 19t-17.5 43z" />
    <glyph glyph-name="afii10046" unicode="&#x42c;" horiz-adv-x="609" 
d="M220 345v-229q66 -3 68 -3q146 0 146 123q0 56 -38 85t-106 29q-18 0 -70 -5zM97 61v583q0 26 18 43.5t44 17.5q25 0 43 -17.5t18 -43.5v-184q43 5 80 5q130 0 197 -59t67 -167q0 -112 -76.5 -176.5t-213.5 -64.5h-60q-26 1 -56 1q-26 1 -43.5 19t-17.5 43z" />
    <glyph glyph-name="afii10047" unicode="&#x42d;" horiz-adv-x="661" 
d="M79 144q21 0 40 -10q63 -30 129 -30q96 0 161.5 51.5t80.5 143.5h-259q-23 0 -39.5 16.5t-16.5 41.5q0 24 16.5 40.5t39.5 16.5h256q-18 86 -85 134t-167 48q-57 0 -106 -25q-19 -10 -40 -10q-29 0 -45 24q-9 12 -9 29q0 32 36 54q65 43 186 43q160 0 260 -98
q99 -99 99 -262q0 -165 -99 -263q-99 -99 -267 -99q-119 0 -193 44q-34 19 -34 54q0 16 9 31q17 26 47 26z" />
    <glyph glyph-name="afii10048" unicode="&#x42e;" horiz-adv-x="1081" 
d="M337 299h-117v-246q0 -25 -18 -43t-43 -18q-26 0 -44 17.5t-18 43.5v591q0 26 18 43.5t44 17.5q25 0 43 -17.5t18 -43.5v-230h119q20 131 113 214q92 83 229 83q157 0 256 -99q99 -101 99 -262q0 -158 -99 -259q-101 -102 -256 -102q-136 0 -231 85q-96 85 -113 225z
M464 350q0 -105 64 -175q65 -71 157 -71q105 0 164 69q57 69 57 177q0 110 -61 178q-62 68 -160 68q-95 0 -158 -69t-63 -177z" />
    <glyph glyph-name="afii10049" unicode="&#x42f;" horiz-adv-x="612" 
d="M515 639v-586q0 -25 -17.5 -43t-43.5 -18t-43.5 18t-17.5 43v189h-101l-143 -219q-19 -31 -52 -31q-26 0 -42 15.5t-16 37.5q0 18 12 36l125 186q-56 28 -89.5 78t-33.5 116q0 105 72 174q73 68 216 68q7 0 113 -2q26 -1 43.5 -19t17.5 -43zM281 357h112v228q-51 3 -77 3
q-60 0 -96.5 -33t-36.5 -86q0 -44 27.5 -73.5t70.5 -38.5z" />
    <glyph glyph-name="afii10065" unicode="&#x430;" horiz-adv-x="463" 
d="M35 132q0 70 45 108t119 38q61 0 102 -29v14q0 53 -19.5 77.5t-64.5 24.5q-40 0 -70 -10q-15 -4 -23 -4q-27 0 -39 24q-4 8 -4 19q0 30 33 43q55 24 115 24q94 0 137 -46t43 -141v-229q0 -21 -15 -36t-36 -15q-22 0 -35.5 15t-13.5 39q-43 -54 -133 -54
q-64 0 -102.5 37.5t-38.5 100.5zM301 132v46q-28 22 -79 22q-32 0 -52 -15t-20 -41q0 -24 18 -38.5t46 -14.5q58 0 87 41z" />
    <glyph glyph-name="afii10066" unicode="&#x431;" horiz-adv-x="544" 
d="M512 221q0 -97 -66 -164q-66 -68 -170 -68q-113 0 -178 77q-66 76 -66 208q0 288 170 362q38 16 89 26q57 11 74 20q33 14 54 14q27 0 41 -18q14 -20 14 -36q0 -30 -30 -52q-36 -27 -101 -37q-67 -11 -99 -27q-86 -39 -96 -168q22 37 66 60.5t93 23.5q93 0 149 -60
t56 -161zM155 250q1 -68 33 -111t85 -43q52 0 84 34t32 86q0 53 -29.5 86t-81.5 33q-45 0 -78 -23.5t-45 -61.5z" />
    <glyph glyph-name="afii10067" unicode="&#x432;" horiz-adv-x="502" 
d="M445 337q0 -38 -24 -66.5t-60 -34.5q96 -24 96 -105q0 -136 -214 -136q-52 0 -123 4q-24 1 -40 17.5t-16 40.5v337q0 23 16.5 40t39.5 18q105 3 121 3q204 0 204 -118zM251 191h-72v-100q60 -4 76 -4q38 0 59.5 14t21.5 38q0 52 -85 52zM179 360v-99h75q31 0 50 14t19 38
q0 49 -72 49q-40 0 -72 -2z" />
    <glyph glyph-name="afii10068" unicode="&#x433;" horiz-adv-x="374" 
d="M310 342h-131v-294q0 -23 -16.5 -39.5t-40.5 -16.5q-25 0 -41.5 16.5t-16.5 39.5v346q0 23 16.5 39.5t39.5 16.5h190q23 0 39.5 -16t16.5 -38t-16.5 -38t-39.5 -16z" />
    <glyph glyph-name="afii10069" unicode="&#x434;" horiz-adv-x="554" 
d="M436 0h-319v-51q0 -22 -16 -38t-37 -16q-22 0 -38 16t-16 38v104q0 22 16.5 38t39.5 16q53 68 64 235l3 54q1 22 18 38t40 16h224q22 0 38 -16t16 -38v-289h21q22 0 38 -16t16 -38v-104q0 -22 -16 -38t-38 -16t-38 16t-16 38v51zM187 107h167v235h-110l-3 -46
q-12 -130 -54 -189z" />
    <glyph glyph-name="afii10070" unicode="&#x435;" horiz-adv-x="523" 
d="M372 267v2q0 43 -28 69.5t-75 26.5q-98 0 -118 -98h221zM442 190h-287q7 -49 43.5 -77t91.5 -28q45 0 84 17q15 7 26 7q22 0 36 -21q7 -11 7 -22q0 -25 -23 -39q-65 -38 -142 -38q-108 0 -175 65q-67 64 -67 171q0 101 65 169q64 67 173 67q90 0 151 -58q62 -59 62 -151
v-21q-5 -41 -45 -41z" />
    <glyph glyph-name="afii10072" unicode="&#x436;" horiz-adv-x="674" 
d="M617 370l-94 -138l106 -153q10 -13 10 -33q0 -22 -15 -38t-38 -16q-34 0 -54 32l-113 176q-19 32 0 64l100 161q20 32 56 32q23 0 38 -15.5t15 -37.5q0 -20 -11 -34zM393 401v-353q0 -23 -16.5 -39.5t-40.5 -16.5q-25 0 -41.5 16.5t-16.5 39.5v353q0 23 16.5 39.5
t41.5 16.5q24 0 40.5 -16.5t16.5 -39.5zM253 199l-110 -174q-21 -33 -56 -33q-23 0 -37.5 15.5t-14.5 38.5q0 21 10 34l104 152l-93 135q-10 13 -10 33q0 24 15.5 40.5t41.5 16.5q33 0 52 -33l98 -159q9 -15 9 -34q0 -17 -9 -32z" />
    <glyph glyph-name="afii10073" unicode="&#x437;" horiz-adv-x="458" 
d="M221 461q87 0 133.5 -33.5t46.5 -94.5q0 -33 -22 -60t-61 -41q45 -10 70 -38.5t25 -68.5q0 -63 -55.5 -99.5t-148.5 -36.5q-55 0 -91.5 10.5t-71.5 37.5q-18 13 -18 36q0 16 11 30q15 17 36 17q19 0 32 -10q50 -29 92 -29q44 0 68 15t24 40q0 23 -18 37t-50 14h-47
q-17 0 -27 11.5t-10 27.5t10 27t27 11h42q27 0 43.5 15.5t16.5 39.5q0 49 -79 49q-39 0 -89 -26q-12 -5 -24 -5q-25 0 -37 19q-7 10 -7 24q0 28 23 39q77 42 156 42z" />
    <glyph glyph-name="afii10074" unicode="&#x438;" horiz-adv-x="568" 
d="M504 395v-347q0 -23 -16.5 -39.5t-40.5 -16.5q-25 0 -41.5 16.5t-16.5 39.5v232l-187 -245q-33 -43 -73 -43q-29 0 -47 18.5t-18 46.5v344q0 23 16.5 39.5t41.5 16.5q24 0 40.5 -16.5t16.5 -39.5v-232l187 245q31 43 72 43q30 0 48 -17.5t18 -44.5z" />
    <glyph glyph-name="afii10075" unicode="&#x439;" horiz-adv-x="568" 
d="M504 395v-347q0 -23 -16.5 -39.5t-40.5 -16.5q-25 0 -41.5 16.5t-16.5 39.5v232l-187 -245q-33 -43 -73 -43q-29 0 -47 18.5t-18 46.5v344q0 23 16.5 39.5t41.5 16.5q24 0 40.5 -16.5t16.5 -39.5v-232l187 245q31 43 72 43q30 0 48 -17.5t18 -44.5zM388 710
q24 0 38.5 -15t14.5 -39q0 -61 -40.5 -98.5t-112.5 -37.5q-78 0 -117.5 36t-39.5 100q0 25 13 39.5t37 14.5q26 0 40.5 -14.5t14.5 -39.5q0 -54 52 -54q23 0 35.5 15t12.5 39q0 54 52 54z" />
    <glyph glyph-name="afii10076" unicode="&#x43a;" horiz-adv-x="495" 
d="M343 22l-136 175q-24 31 -1 61l121 168q22 31 56 31q23 0 38 -15t15 -37t-13 -38l-106 -131l122 -148q15 -18 15 -42t-15.5 -39t-42.5 -15q-30 0 -53 30zM179 401v-353q0 -23 -16.5 -39.5t-40.5 -16.5q-25 0 -41.5 16.5t-16.5 39.5v353q0 23 16.5 39.5t41.5 16.5
q24 0 40.5 -16.5t16.5 -39.5z" />
    <glyph glyph-name="afii10077" unicode="&#x43b;" horiz-adv-x="529" 
d="M465 394v-346q0 -23 -16.5 -39.5t-40.5 -16.5q-25 0 -41.5 16.5t-16.5 39.5v287h-119l-3 -48q-13 -152 -49 -223.5t-99 -71.5q-27 0 -44 15t-17 42q0 37 39 62q27 18 41 63.5t18 135.5l4 84q2 23 19 39.5t40 16.5h229q23 0 39.5 -16.5t16.5 -39.5z" />
    <glyph glyph-name="afii10078" unicode="&#x43c;" horiz-adv-x="631" 
d="M277 153l-98 118v-223q0 -23 -16.5 -39.5t-40.5 -16.5q-25 0 -41.5 16.5t-16.5 39.5v346q0 28 17 45.5t44 17.5q32 0 67 -41l129 -158l122 158q32 41 65 41q27 0 43 -15.5t16 -40.5v-353q0 -23 -16.5 -39.5t-40.5 -16.5q-25 0 -41.5 16.5t-16.5 39.5v223l-94 -118
q-16 -21 -40 -21q-23 0 -41 21z" />
    <glyph glyph-name="afii10079" unicode="&#x43d;" horiz-adv-x="555" 
d="M491 401v-353q0 -23 -16.5 -39.5t-40.5 -16.5q-25 0 -41.5 16.5t-16.5 39.5v124h-197v-124q0 -23 -16.5 -39.5t-40.5 -16.5q-25 0 -41.5 16.5t-16.5 39.5v353q0 23 16.5 39.5t41.5 16.5q24 0 40.5 -16.5t16.5 -39.5v-121h197v121q0 23 16.5 39.5t41.5 16.5
q24 0 40.5 -16.5t16.5 -39.5z" />
    <glyph glyph-name="afii10080" unicode="&#x43e;" horiz-adv-x="562" 
d="M104 56q-68 66 -68 169q0 102 68 170q68 66 177 66q111 0 178 -66q67 -67 67 -170t-67 -169q-67 -67 -178 -67q-110 0 -177 67zM159 225q0 -56 34.5 -92.5t87.5 -36.5q54 0 88.5 36t34.5 93q0 56 -35 92t-88 36q-52 0 -87 -36t-35 -92z" />
    <glyph glyph-name="afii10081" unicode="&#x43f;" horiz-adv-x="550" 
d="M486 394v-346q0 -23 -16.5 -39.5t-40.5 -16.5q-25 0 -41.5 16.5t-16.5 39.5v294h-192v-294q0 -23 -16.5 -39.5t-40.5 -16.5q-25 0 -41.5 16.5t-16.5 39.5v346q0 23 16.5 39.5t39.5 16.5h310q23 0 39.5 -16.5t16.5 -39.5z" />
    <glyph glyph-name="afii10082" unicode="&#x440;" horiz-adv-x="558" 
d="M179 304v-182q41 -26 95 -26q57 0 91.5 37t34.5 96q0 56 -31.5 90t-86.5 34q-60 0 -103 -49zM64 -144v536q0 31 16 48t43 17q24 0 40 -14t16 -35q50 53 139 53q93 0 148 -64q56 -65 56 -165q0 -105 -66 -174t-172 -69q-68 0 -105 22v-155q0 -23 -16.5 -39.5t-40.5 -16.5
q-25 0 -41.5 16.5t-16.5 39.5z" />
    <glyph glyph-name="afii10083" unicode="&#x441;" horiz-adv-x="476" 
d="M351 341q-33 12 -67 12q-49 0 -87 -35q-38 -36 -38 -93t38 -93t92 -36q43 0 74 18q19 12 40 12q23 0 40 -21q10 -13 10 -30q0 -27 -24 -45q-56 -41 -146 -41q-111 0 -179 65t-68 171q0 101 66 168q66 68 167 68q79 0 127 -24q36 -17 36 -48q0 -10 -7 -25q-15 -29 -46 -29
q-13 0 -28 6z" />
    <glyph glyph-name="afii10084" unicode="&#x442;" horiz-adv-x="444" 
d="M280 335v-287q0 -23 -16.5 -39.5t-40.5 -16.5q-25 0 -41.5 16.5t-16.5 39.5v287h-92q-23 0 -39.5 16.5t-16.5 41.5q0 24 16.5 40.5t39.5 16.5h298q23 0 39.5 -16.5t16.5 -40.5q0 -25 -16.5 -41.5t-39.5 -16.5h-91z" />
    <glyph glyph-name="afii10085" unicode="&#x443;" horiz-adv-x="485" 
d="M146 415l90 -211q2 -5 22 -65q6 37 16 66l69 209q13 43 58 43q27 0 43.5 -15.5t16.5 -39.5q0 -14 -6 -31l-146 -371q-46 -119 -84 -160q-37 -40 -90 -40q-34 0 -59 11q-32 14 -32 49q0 21 12.5 34.5t34.5 13.5q4 0 16.5 -1t15.5 -1h6q35 2 62 70l10 24l-170 367
q-7 15 -7 29q0 26 18.5 43.5t49.5 17.5q35 0 54 -42z" />
    <glyph glyph-name="afii10086" unicode="&#x444;" horiz-adv-x="687" 
d="M402 -11v-133q0 -23 -17 -39.5t-41 -16.5q-25 0 -42 16.5t-17 39.5v133q-117 0 -183 66t-66 170q0 97 67 167q68 69 182 69v183q0 23 17 39.5t42 16.5q24 0 41 -16.5t17 -39.5v-183q116 0 183 -67q66 -68 66 -169q0 -107 -65.5 -171.5t-183.5 -64.5zM402 353v-257
q61 0 93.5 34.5t32.5 94.5q0 56 -33.5 92t-92.5 36zM285 96v257q-61 0 -93.5 -35t-32.5 -93q0 -60 32.5 -94.5t93.5 -34.5z" />
    <glyph glyph-name="afii10087" unicode="&#x445;" horiz-adv-x="478" 
d="M164 425l79 -124l82 124q23 32 53 32q24 0 38.5 -14t14.5 -36q0 -17 -11 -34l-96 -138l103 -152q11 -17 11 -36q0 -24 -15.5 -39.5t-39.5 -15.5q-32 0 -55 32l-89 138l-93 -138q-23 -32 -54 -32q-24 0 -38 14t-14 36q0 18 11 35l106 152l-93 137q-10 16 -10 35
q0 24 16 40t42 16q32 0 52 -32z" />
    <glyph glyph-name="afii10088" unicode="&#x446;" horiz-adv-x="566" 
d="M554 51v-103q0 -23 -16 -38t-38 -15t-38 15t-16 38v52h-326q-23 0 -39.5 16.5t-16.5 39.5v345q0 23 16.5 39.5t41.5 16.5q24 0 40.5 -16.5t16.5 -39.5v-294h185v294q0 23 16.5 39.5t41.5 16.5q24 0 40.5 -16.5t16.5 -39.5v-294h19q23 0 39.5 -16.5t16.5 -39.5z" />
    <glyph glyph-name="afii10089" unicode="&#x447;" horiz-adv-x="491" 
d="M312 255v146q0 23 16.5 39.5t41.5 16.5q24 0 40.5 -16.5t16.5 -39.5v-353q0 -23 -16.5 -39.5t-40.5 -16.5q-25 0 -41.5 16.5t-16.5 39.5v107q-50 -26 -112 -26q-84 0 -123.5 44t-39.5 133v93q0 25 17.5 41.5t44.5 16.5t44 -16t17 -42v-79q0 -83 73 -83q47 0 79 18z" />
    <glyph glyph-name="afii10090" unicode="&#x448;" horiz-adv-x="728" 
d="M664 401v-345q0 -23 -16.5 -39.5t-39.5 -16.5h-488q-23 0 -39.5 16.5t-16.5 39.5v345q0 23 16.5 39.5t41.5 16.5q24 0 40.5 -16.5t16.5 -39.5v-294h127v294q0 23 16.5 39.5t41.5 16.5q24 0 40.5 -16.5t16.5 -39.5v-294h128v294q0 23 16.5 39.5t41.5 16.5q24 0 40.5 -16.5
t16.5 -39.5z" />
    <glyph glyph-name="afii10091" unicode="&#x449;" horiz-adv-x="751" 
d="M739 51v-103q0 -23 -16 -38t-38 -15t-38 15t-16 38v52h-511q-23 0 -39.5 16.5t-16.5 39.5v345q0 23 16.5 39.5t41.5 16.5q24 0 40.5 -16.5t16.5 -39.5v-294h127v294q0 23 16.5 39.5t41.5 16.5q24 0 40.5 -16.5t16.5 -39.5v-294h128v294q0 23 16.5 39.5t41.5 16.5
q24 0 40.5 -16.5t16.5 -39.5v-294h19q23 0 39.5 -16.5t16.5 -39.5z" />
    <glyph glyph-name="afii10092" unicode="&#x44a;" horiz-adv-x="536" 
d="M301 0h-113q-23 0 -39.5 16.5t-16.5 39.5v286h-61q-23 0 -39.5 16t-16.5 38t16.5 38t39.5 16h120q23 0 39.5 -16.5t16.5 -39.5v-67h63q101 0 149.5 -42t48.5 -114q0 -77 -52 -124t-155 -47zM247 235v-135h52q86 0 86 67q0 68 -85 68h-53z" />
    <glyph glyph-name="afii10093" unicode="&#x44b;" horiz-adv-x="676" 
d="M179 401v-74h56q101 0 149.5 -42t48.5 -114q0 -77 -52 -124t-155 -47h-106q-23 0 -39.5 16.5t-16.5 39.5v345q0 23 16.5 39.5t41.5 16.5q24 0 40.5 -16.5t16.5 -39.5zM612 401v-353q0 -23 -16.5 -39.5t-40.5 -16.5q-25 0 -41.5 16.5t-16.5 39.5v353q0 23 16.5 39.5
t41.5 16.5q24 0 40.5 -16.5t16.5 -39.5zM179 235v-135h45q87 0 87 67q0 68 -86 68h-46z" />
    <glyph glyph-name="afii10094" unicode="&#x44c;" horiz-adv-x="467" 
d="M179 401v-74h62q101 0 149.5 -42t48.5 -114q0 -77 -52 -124t-155 -47h-112q-23 0 -39.5 16.5t-16.5 39.5v345q0 23 16.5 39.5t41.5 16.5q24 0 40.5 -16.5t16.5 -39.5zM179 235v-135h51q87 0 87 67q0 68 -86 68h-52z" />
    <glyph glyph-name="afii10095" unicode="&#x44d;" horiz-adv-x="475" 
d="M76 118q13 0 32 -8q44 -21 90 -21q52 0 85.5 26t42.5 74h-156q-44 0 -44 39q0 16 11.5 27t32.5 11h155q-11 46 -45.5 70.5t-83.5 24.5q-48 0 -93 -22q-12 -6 -26 -6q-27 0 -40 22q-7 10 -7 23q0 27 28 43q65 40 142 40q111 0 178 -64t67 -172q0 -102 -64 -169t-176 -67
q-90 0 -153 42q-21 15 -21 41q0 16 8 27q13 19 37 19z" />
    <glyph glyph-name="afii10096" unicode="&#x44e;" horiz-adv-x="772" 
d="M264 172h-78v-121q0 -24 -18 -41.5t-43 -17.5t-43 17.5t-18 41.5v347q0 24 18 41.5t43 17.5t43 -17.5t18 -41.5v-111h80q18 80 79 127t149 47q108 0 175 -66q67 -67 67 -170q0 -102 -67 -169t-175 -67q-91 0 -152.5 49.5t-77.5 133.5zM389 225q0 -56 29.5 -88.5
t78.5 -32.5t79 32.5t30 88.5t-29.5 88.5t-79.5 32.5q-48 0 -78 -33t-30 -88z" />
    <glyph glyph-name="afii10097" unicode="&#x44f;" horiz-adv-x="475" 
d="M68 81l59 79q-37 13 -62 47.5t-25 82.5q0 74 56.5 117t167.5 43h91q23 0 39.5 -16.5t16.5 -39.5v-346q0 -23 -16.5 -39.5t-40.5 -16.5q-25 0 -41.5 16.5t-16.5 39.5v87h-64l-78 -113q-21 -30 -51 -30q-23 0 -37 13t-14 34q0 23 16 42zM236 220h60v130h-51
q-38 0 -60 -19.5t-22 -48.5q0 -26 22 -44t51 -18z" />
    <glyph glyph-name="afii10071" unicode="&#x451;" horiz-adv-x="523" 
d="M372 267v2q0 43 -28 69.5t-75 26.5q-98 0 -118 -98h221zM442 190h-287q7 -49 43.5 -77t91.5 -28q45 0 84 17q15 7 26 7q22 0 36 -21q7 -11 7 -22q0 -25 -23 -39q-65 -38 -142 -38q-108 0 -175 65q-67 64 -67 171q0 101 65 169q64 67 173 67q90 0 151 -58q62 -59 62 -151
v-21q-5 -41 -45 -41zM174 532q-28 0 -46.5 18.5t-18.5 48.5q0 29 18.5 46.5t46.5 17.5q25 0 42.5 -18t17.5 -46q0 -30 -17.5 -48.5t-42.5 -18.5zM372 532q-28 0 -46 18.5t-18 48.5q0 29 18 46.5t46 17.5q25 0 42.5 -18t17.5 -46q0 -30 -17.5 -48.5t-42.5 -18.5z" />
    <glyph glyph-name="afii10099" unicode="&#x452;" horiz-adv-x="590" 
d="M52 525h73v130q0 23 16.5 39.5t41.5 16.5q24 0 40.5 -16.5t16.5 -39.5v-130h113q19 0 32 -13.5t13 -32.5q0 -20 -13 -33.5t-32 -13.5h-113v-118q50 49 129 49q89 0 137 -48t48 -145q0 -117 -42 -207t-135 -177q-15 -13 -34 -13t-32 13q-12 12 -12 29q0 21 16 38
q73 74 98 137t25 152q0 113 -98 113q-59 0 -100 -41v-166q0 -23 -16.5 -39.5t-40.5 -16.5q-25 0 -41.5 16.5t-16.5 39.5v384h-73q-19 0 -32 13.5t-13 33.5q0 19 13 32.5t32 13.5z" />
    <glyph glyph-name="afii10100" unicode="&#x453;" horiz-adv-x="374" 
d="M310 342h-131v-294q0 -23 -16.5 -39.5t-40.5 -16.5q-25 0 -41.5 16.5t-16.5 39.5v346q0 23 16.5 39.5t39.5 16.5h190q23 0 39.5 -16t16.5 -38t-16.5 -38t-39.5 -16zM188 600l61 95q11 17 32 17q13 0 23 -7l24 -18q15 -10 15 -31q0 -15 -9 -25l-72 -83q-13 -15 -34 -15
q-13 0 -27 8q-19 13 -19 37q0 12 6 22z" />
    <glyph glyph-name="afii10101" unicode="&#x454;" horiz-adv-x="487" 
d="M283 89q47 0 90 21q19 8 32 8q24 0 37 -19q8 -11 8 -27q0 -26 -21 -41q-63 -42 -153 -42q-111 0 -175 67q-65 68 -65 169q0 108 67 172t178 64q77 0 142 -40q28 -16 28 -43q0 -13 -7 -23q-13 -22 -40 -22q-14 0 -26 6q-45 22 -93 22q-49 0 -83.5 -24.5t-45.5 -70.5h155
q21 0 32.5 -11t11.5 -27q0 -39 -44 -39h-156q9 -48 42.5 -74t85.5 -26z" />
    <glyph glyph-name="afii10102" unicode="&#x455;" horiz-adv-x="424" 
d="M34 79q0 18 10 28q15 18 36 18q16 0 33 -11q47 -29 104 -29q27 0 43 11t16 31q0 31 -85 55q-34 9 -55.5 17t-48.5 23.5t-40.5 41t-13.5 60.5q0 63 46 100t119 37q79 0 137 -34q24 -15 24 -39q0 -12 -6 -23q-14 -23 -40 -23q-13 0 -27 6q-40 17 -82 17q-24 0 -40 -11.5
t-16 -27.5q0 -12 9 -21.5t26.5 -17t35 -12.5t43.5 -12.5t43 -13.5q38 -14 62 -44t24 -72q0 -66 -49.5 -105t-132.5 -39q-95 0 -156 51q-19 16 -19 39z" />
    <glyph glyph-name="afii10103" unicode="&#x456;" horiz-adv-x="277" 
d="M196 401v-353q0 -23 -16.5 -39.5t-40.5 -16.5q-25 0 -41.5 16.5t-16.5 39.5v353q0 23 16.5 39.5t41.5 16.5q24 0 40.5 -16.5t16.5 -39.5zM141 679q27 0 46.5 -19t19.5 -48q0 -32 -19.5 -52t-46.5 -20q-31 0 -51.5 20t-20.5 52q0 30 20.5 48.5t51.5 18.5z" />
    <glyph glyph-name="afii10104" unicode="&#x457;" horiz-adv-x="315" 
d="M25 597q0 26 17 41t42 15q22 0 38 -16t16 -40q0 -26 -16 -42.5t-38 -16.5q-27 0 -43 16t-16 43zM177 597q0 24 17 40t42 16q22 0 38 -16t16 -40q0 -26 -16 -42.5t-38 -16.5q-25 0 -42 16.5t-17 42.5zM213 401v-353q0 -23 -16.5 -39.5t-40.5 -16.5q-25 0 -41.5 16.5
t-16.5 39.5v353q0 23 16.5 39.5t41.5 16.5q24 0 40.5 -16.5t16.5 -39.5z" />
    <glyph glyph-name="afii10105" unicode="&#x458;" horiz-adv-x="296" 
d="M99 -23v424q0 23 16.5 39.5t41.5 16.5q24 0 40.5 -16.5t16.5 -39.5v-434q0 -175 -141 -175q-42 0 -69 15.5t-27 46.5q0 32 28 41q7 3 22 3h17q55 0 55 79zM160 679q27 0 46.5 -19t19.5 -48q0 -32 -19.5 -52t-46.5 -20q-31 0 -51.5 20t-20.5 52q0 30 20.5 48.5t51.5 18.5z
" />
    <glyph glyph-name="afii10106" unicode="&#x459;" horiz-adv-x="724" 
d="M465 235v-135h31q86 0 86 67q0 68 -85 68h-32zM117 310l4 84q2 23 19 39.5t40 16.5h229q23 0 39.5 -16.5t16.5 -39.5v-67h42q101 0 149.5 -42t48.5 -114q0 -77 -52 -124t-155 -47h-92q-23 0 -39.5 16.5t-16.5 39.5v279h-119l-3 -48q-19 -295 -148 -295q-27 0 -44 15
t-17 42q0 37 39 62q27 18 41 63.5t18 135.5z" />
    <glyph glyph-name="afii10107" unicode="&#x45a;" horiz-adv-x="759" 
d="M491 401v-79h42q102 0 150 -40.5t48 -112.5q0 -77 -52 -123t-155 -46h-92q-23 0 -39.5 16.5t-16.5 39.5v121h-197v-129q0 -23 -16.5 -39.5t-40.5 -16.5q-25 0 -41.5 16.5t-16.5 39.5v353q0 23 16.5 39.5t41.5 16.5q24 0 40.5 -16.5t16.5 -39.5v-116h197v116
q0 23 16.5 39.5t41.5 16.5q24 0 40.5 -16.5t16.5 -39.5zM491 230v-130h31q87 0 87 65t-86 65h-32z" />
    <glyph glyph-name="afii10108" unicode="&#x45b;" horiz-adv-x="590" 
d="M125 48v384h-73q-19 0 -32 13.5t-13 33.5q0 19 13 32.5t32 13.5h73v119q0 23 16.5 39.5t41.5 16.5q24 0 40.5 -16.5t16.5 -39.5v-119h113q19 0 32 -13.5t13 -32.5q0 -20 -13 -33.5t-32 -13.5h-113v-118q50 49 129 49q185 0 185 -197v-118q0 -23 -16.5 -39.5t-40.5 -16.5
q-25 0 -41.5 16.5t-16.5 39.5v103q0 50 -26 77t-73 27q-59 0 -100 -41v-166q0 -23 -16.5 -39.5t-40.5 -16.5q-25 0 -41.5 16.5t-16.5 39.5z" />
    <glyph glyph-name="afii10109" unicode="&#x45c;" horiz-adv-x="495" 
d="M343 22l-136 175q-24 31 -1 61l121 168q22 31 56 31q23 0 38 -15t15 -37t-13 -38l-106 -131l122 -148q15 -18 15 -42t-15.5 -39t-42.5 -15q-30 0 -53 30zM179 401v-353q0 -23 -16.5 -39.5t-40.5 -16.5q-25 0 -41.5 16.5t-16.5 39.5v353q0 23 16.5 39.5t41.5 16.5
q24 0 40.5 -16.5t16.5 -39.5zM211 600l61 95q11 17 32 17q13 0 23 -7l24 -18q15 -10 15 -31q0 -15 -9 -25l-72 -83q-13 -15 -34 -15q-13 0 -27 8q-19 13 -19 37q0 12 6 22z" />
    <glyph glyph-name="afii10110" unicode="&#x45e;" horiz-adv-x="485" 
d="M146 415l90 -211q2 -5 22 -65q6 37 16 66l69 209q13 43 58 43q27 0 43.5 -15.5t16.5 -39.5q0 -14 -6 -31l-146 -371q-46 -119 -84 -160q-37 -40 -90 -40q-34 0 -59 11q-32 14 -32 49q0 21 12.5 34.5t34.5 13.5q4 0 16.5 -1t15.5 -1h6q35 2 62 70l10 24l-170 367
q-7 15 -7 29q0 26 18.5 43.5t49.5 17.5q35 0 54 -42zM348 710q24 0 38.5 -15t14.5 -39q0 -61 -40.5 -98.5t-112.5 -37.5q-78 0 -117.5 36t-39.5 100q0 25 13 39.5t37 14.5q26 0 40.5 -14.5t14.5 -39.5q0 -54 52 -54q23 0 35.5 15t12.5 39q0 54 52 54z" />
    <glyph glyph-name="afii10193" unicode="&#x45f;" horiz-adv-x="540" 
d="M324 0v-65q0 -23 -16 -38t-38 -15t-38 15t-16 38v65h-96q-23 0 -39.5 16.5t-16.5 39.5v345q0 23 16.5 39.5t41.5 16.5q24 0 40.5 -16.5t16.5 -39.5v-294h182v294q0 23 16.5 39.5t41.5 16.5q24 0 40.5 -16.5t16.5 -39.5v-345q0 -23 -16.5 -39.5t-39.5 -16.5h-96z" />
    <glyph glyph-name="afii10146" unicode="&#x462;" horiz-adv-x="648" 
d="M76 620h60v24q0 26 18 43.5t43 17.5t43 -17.5t18 -43.5v-24h87q25 0 43 -17t18 -40t-18 -40.5t-43 -17.5h-87v-75q45 5 81 5q264 0 264 -211q0 -110 -75 -168t-216 -58h-59q-26 1 -56 1q-26 1 -43.5 19t-17.5 43v444h-60q-25 0 -43 17.5t-18 40.5t18 40t43 17zM258 315
v-199q9 0 34 -1.5t35 -1.5q75 0 110.5 24.5t35.5 83.5q0 54 -35 76.5t-109 22.5q-19 0 -71 -5z" />
    <glyph glyph-name="afii10194" unicode="&#x463;" horiz-adv-x="517" 
d="M240 212v-120h40q87 0 87 60q0 31 -20.5 45.5t-65.5 14.5h-41zM125 56v301h-73q-19 0 -32 13.5t-13 33.5q0 19 13 32.5t32 13.5h73v194q0 23 16.5 39.5t41.5 16.5q24 0 40.5 -16.5t16.5 -39.5v-194h113q19 0 32 -13.5t13 -32.5q0 -20 -13 -33.5t-32 -13.5h-113v-60h51
q198 0 198 -141q0 -73 -51.5 -114.5t-155.5 -41.5h-101q-23 0 -39.5 16.5t-16.5 39.5z" />
    <glyph glyph-name="afii10147" unicode="&#x472;" horiz-adv-x="819" 
d="M45 350q0 155 103 258q102 103 261 103t262 -100t103 -261q0 -157 -104 -259t-261 -102q-158 0 -261 100t-103 261zM182 285q20 -81 83 -131q62 -50 144 -50q92 0 154 54t77 143q-63 -36 -116 -36q-48 0 -113 37q-67 37 -107 37q-59 0 -122 -54zM637 414q-20 83 -82 132
q-64 50 -146 50q-88 0 -149 -52q-63 -53 -80 -139q65 41 124 41q48 0 117 -36q67 -37 112 -37q52 0 104 41z" />
    <glyph glyph-name="afii10195" unicode="&#x473;" horiz-adv-x="577" 
d="M105 56q-69 66 -69 169t69 170q67 66 184 66q115 0 184 -66q68 -68 68 -170q0 -103 -68 -169q-68 -67 -184 -67q-117 0 -184 67zM156 182q11 -48 47.5 -74.5t85.5 -26.5q51 0 87.5 28t45.5 80q-31 -28 -71 -28q-32 0 -72 25t-62 25q-32 0 -61 -29zM422 263
q-11 50 -47.5 77.5t-85.5 27.5q-51 0 -88.5 -28.5t-46.5 -79.5q34 28 68 28t80 -24q46 -25 64 -25q34 0 56 24z" />
    <glyph glyph-name="afii10148" unicode="&#x474;" horiz-adv-x="657" 
d="M604 709q28 0 46 -14t18 -39q0 -24 -12 -36.5t-40 -21.5q-20 -7 -34 -30q-4 -5 -13 -29q-1 -2 -4 -10.5t-6 -16.5t-5 -13l-172 -461q-16 -46 -60 -46q-40 0 -60 45l-240 580q-5 12 -5 28q0 26 17 43t47 17q35 0 52 -39l193 -479l130 373q27 80 60.5 114.5t87.5 34.5z" />
    <glyph glyph-name="afii10196" unicode="&#x475;" horiz-adv-x="489" 
d="M431 458q29 0 49 -14.5t20 -41.5q0 -28 -15 -43t-34 -15t-28 -14q-10 -13 -30 -62l-96 -234q-17 -42 -57 -42q-41 0 -59 41l-155 336q-7 15 -7 29q0 25 18.5 42t48.5 17q34 0 54 -42l70 -158q20 -42 34 -101q15 62 31 103l30 79q24 65 51.5 92.5t74.5 27.5z" />
    <glyph glyph-name="afii10050" unicode="&#x490;" horiz-adv-x="507" 
d="M431 585h-211v-532q0 -25 -18 -43t-43 -18q-26 0 -44 17.5t-18 43.5v586q0 25 17.5 43t43.5 18h219v56q0 25 17.5 43t40.5 18t40 -18t17 -43v-110q0 -26 -18 -43.5t-43 -17.5z" />
    <glyph glyph-name="afii10098" unicode="&#x491;" horiz-adv-x="374" 
d="M310 342h-131v-294q0 -23 -16.5 -39.5t-40.5 -16.5q-25 0 -41.5 16.5t-16.5 39.5v346q0 23 16.5 39.5t39.5 16.5h139v41q0 23 16 39.5t38 16.5q21 0 37 -16.5t16 -39.5v-93q0 -23 -16.5 -39.5t-39.5 -16.5z" />
    <glyph glyph-name="uni1E9E" unicode="&#x1e9e;" horiz-adv-x="674" 
d="M286 60q0 11 8 29q14 27 45 27q15 0 34 -6q18 -6 42 -6q33 0 54.5 22t21.5 58q0 40 -37.5 77.5t-116.5 85.5q-27 17 -27 47q0 16 11 33l96 132q-11 16 -36 26.5t-54 10.5q-50 0 -78.5 -31t-28.5 -90v-423q0 -26 -18 -43.5t-43 -17.5q-26 0 -44 17.5t-18 43.5v415
q0 121 62 182.5t173 61.5q108 0 193 -79q23 -20 23 -47q0 -21 -16 -40l-102 -130q87 -47 139 -111t52 -139q0 -77 -55 -126q-56 -50 -124 -50q-73 0 -121 22q-35 15 -35 49z" />
    <glyph glyph-name="uni2010" unicode="&#x2010;" horiz-adv-x="376" 
d="M113 327h150q21 0 36 -15.5t15 -37.5q0 -23 -15 -38.5t-36 -15.5h-150q-21 0 -36 15.5t-15 38.5q0 22 15 37.5t36 15.5z" />
    <glyph glyph-name="uni2011" unicode="&#x2011;" horiz-adv-x="376" 
d="M113 327h150q21 0 36 -15.5t15 -37.5q0 -23 -15 -38.5t-36 -15.5h-150q-21 0 -36 15.5t-15 38.5q0 22 15 37.5t36 15.5z" />
    <glyph glyph-name="figuredash" unicode="&#x2012;" horiz-adv-x="599" 
d="M135 404h329q21 0 35.5 -14.5t14.5 -35.5t-14.5 -35.5t-35.5 -14.5h-329q-21 0 -35.5 14.5t-14.5 35.5t14.5 35.5t35.5 14.5z" />
    <glyph glyph-name="endash" unicode="&#x2013;" horiz-adv-x="599" 
d="M135 320h329q21 0 35.5 -14.5t14.5 -35.5t-14.5 -35.5t-35.5 -14.5h-329q-21 0 -35.5 14.5t-14.5 35.5t14.5 35.5t35.5 14.5z" />
    <glyph glyph-name="emdash" unicode="&#x2014;" horiz-adv-x="814" 
d="M135 320h544q21 0 35.5 -14.5t14.5 -35.5t-14.5 -35.5t-35.5 -14.5h-544q-21 0 -35.5 14.5t-14.5 35.5t14.5 35.5t35.5 14.5z" />
    <glyph glyph-name="afii00208" unicode="&#x2015;" horiz-adv-x="814" 
d="M135 320h544q21 0 35.5 -14.5t14.5 -35.5t-14.5 -35.5t-35.5 -14.5h-544q-21 0 -35.5 14.5t-14.5 35.5t14.5 35.5t35.5 14.5z" />
    <glyph glyph-name="quoteleft" unicode="&#x2018;" horiz-adv-x="222" 
d="M185 710q0 -13 -9 -28q-21 -30 -21 -70q0 -13 5 -30q4 -15 4 -21q0 -17 -26 -34l-30 -17q-7 -4 -16 -4q-24 0 -31 19q-14 31 -14 62q0 93 70 151q12 9 29 9t24 -7q15 -10 15 -30z" />
    <glyph glyph-name="quoteright" unicode="&#x2019;" horiz-adv-x="222" 
d="M37 540q0 12 9 26q21 32 21 70q0 13 -5 30q-4 15 -4 21q0 20 26 34l30 18q7 4 16 4q24 0 31 -19q14 -31 14 -62q0 -93 -70 -151q-9 -9 -27 -9t-27 9q-14 14 -14 29z" />
    <glyph glyph-name="quotesinglbase" unicode="&#x201a;" horiz-adv-x="222" 
d="M37 -125q0 13 9 26q21 31 21 70q0 13 -5 30q-4 15 -4 21q0 20 26 34l30 18q7 4 16 4q24 0 31 -19q14 -31 14 -62q0 -93 -70 -151q-9 -9 -27 -9t-27 9q-14 14 -14 29z" />
    <glyph glyph-name="quotedblleft" unicode="&#x201c;" horiz-adv-x="403" 
d="M356 710q0 -13 -9 -28q-21 -30 -21 -70q0 -13 5 -30q4 -15 4 -21q0 -17 -26 -34l-30 -17q-7 -4 -16 -4q-24 0 -31 19q-14 31 -14 62q0 93 70 151q12 9 29 9t24 -7q15 -10 15 -30zM194 710q0 -13 -9 -28q-21 -30 -21 -70q0 -13 5 -30q4 -15 4 -21q0 -17 -26 -34l-30 -17
q-7 -4 -16 -4q-24 0 -31 19q-14 31 -14 62q0 93 70 151q12 9 29 9t24 -7q15 -10 15 -30z" />
    <glyph glyph-name="quotedblright" unicode="&#x201d;" horiz-adv-x="403" 
d="M209 540q0 12 9 26q21 32 21 70q0 13 -5 30q-4 15 -4 21q0 20 26 34l30 18q7 4 16 4q24 0 31 -19q14 -31 14 -62q0 -93 -70 -151q-9 -9 -27 -9t-27 9q-14 14 -14 29zM47 540q0 12 9 26q21 32 21 70q0 13 -5 30q-4 15 -4 21q0 20 26 34l30 18q7 4 16 4q24 0 31 -19
q14 -31 14 -62q0 -93 -70 -151q-9 -9 -27 -9t-27 9q-14 14 -14 29z" />
    <glyph glyph-name="quotedblbase" unicode="&#x201e;" horiz-adv-x="403" 
d="M218 -125q0 13 9 26q21 31 21 70q0 13 -5 30q-4 15 -4 21q0 20 26 34l30 18q7 4 16 4q24 0 31 -19q14 -31 14 -62q0 -93 -70 -151q-9 -9 -27 -9t-27 9q-14 14 -14 29zM37 -125q0 13 9 26q21 31 21 70q0 13 -5 30q-4 15 -4 21q0 20 26 34l30 18q7 4 16 4q24 0 31 -19
q14 -31 14 -62q0 -93 -70 -151q-9 -9 -27 -9t-27 9q-14 14 -14 29z" />
    <glyph glyph-name="dagger" unicode="&#x2020;" horiz-adv-x="491" 
d="M192 -49v444h-101q-21 0 -36 15t-15 35t15 35t36 15h101v154q0 21 15.5 36t38.5 15q22 0 37.5 -15t15.5 -36v-154h101q21 0 36 -15t15 -35t-15 -35t-36 -15h-101v-444q0 -21 -15.5 -36t-37.5 -15q-23 0 -38.5 15t-15.5 36z" />
    <glyph glyph-name="daggerdbl" unicode="&#x2021;" horiz-adv-x="491" 
d="M91 235h101v160h-101q-21 0 -36 15t-15 35t15 35t36 15h101v154q0 21 15.5 36t38.5 15q22 0 37.5 -15t15.5 -36v-154h101q21 0 36 -15t15 -35t-15 -35t-36 -15h-101v-160h101q21 0 36 -15t15 -35t-15 -35t-36 -15h-101v-184q0 -21 -15.5 -36t-37.5 -15q-23 0 -38.5 15
t-15.5 36v184h-101q-21 0 -36 15t-15 35t15 35t36 15z" />
    <glyph glyph-name="bullet" unicode="&#x2022;" horiz-adv-x="285" 
d="M225 182q-35 -35 -83 -35t-82 35q-35 35 -35 82q0 49 35 84q34 34 82 34q49 0 83 -34q35 -35 35 -84q0 -47 -35 -82z" />
    <glyph glyph-name="ellipsis" unicode="&#x2026;" horiz-adv-x="863" 
d="M735 149q30 0 51.5 -22.5t21.5 -51.5q0 -33 -21.5 -56.5t-51.5 -23.5q-35 0 -57.5 23.5t-22.5 56.5q0 29 22.5 51.5t57.5 22.5zM435 149q30 0 51.5 -22.5t21.5 -51.5q0 -33 -21.5 -56.5t-51.5 -23.5q-35 0 -57.5 23.5t-22.5 56.5q0 29 22.5 51.5t57.5 22.5zM135 149
q30 0 51.5 -22.5t21.5 -51.5q0 -33 -21.5 -56.5t-51.5 -23.5q-35 0 -57.5 23.5t-22.5 56.5q0 29 22.5 51.5t57.5 22.5z" />
    <glyph glyph-name="perthousand" unicode="&#x2030;" horiz-adv-x="1344" 
d="M1252 40q-56 -50 -142 -50q-85 0 -141 50t-56 129t56 129q55 49 141 49q87 0 142 -49t55 -129t-55 -129zM1110 254q-39 0 -64 -23.5t-25 -61.5q0 -39 25 -62.5t64 -23.5q40 0 65 23.5t25 62.5q0 38 -25.5 61.5t-64.5 23.5zM718 633l-460 -615q-14 -18 -36 -18
q-12 0 -23 8q-15 12 -15 31q0 14 8 25l461 618q11 14 29 14q12 0 26 -9q17 -12 17 -32q0 -15 -7 -22zM376 402q-56 -50 -142 -50q-85 0 -141 50t-56 129t56 129q55 49 141 49q87 0 142 -49t55 -129t-55 -129zM234 616q-39 0 -64 -23.5t-25 -61.5q0 -39 25 -62.5t64 -23.5
q40 0 65 23.5t25 62.5q0 38 -25.5 61.5t-64.5 23.5zM818 40q-56 -50 -142 -50q-85 0 -141 50t-56 129t56 129q55 49 141 49q87 0 142 -49t55 -129t-55 -129zM676 254q-39 0 -64 -23.5t-25 -61.5q0 -39 25 -62.5t64 -23.5q40 0 65 23.5t25 62.5q0 38 -25.5 61.5t-64.5 23.5z
" />
    <glyph glyph-name="guilsinglleft" unicode="&#x2039;" horiz-adv-x="308" 
d="M257 372l-106 -122l105 -124q13 -16 13 -35q0 -23 -17 -37q-13 -11 -32 -11q-27 0 -42 18l-127 150q-14 17 -14 39t14 39l131 150q15 18 40 18q21 0 34 -13q15 -14 15 -34q0 -21 -14 -38z" />
    <glyph glyph-name="guilsinglright" unicode="&#x203a;" horiz-adv-x="308" 
d="M157 250l-106 122q-14 17 -14 37t16 35q13 12 34 12q24 0 39 -17l131 -150q14 -15 14 -40t-14 -40l-127 -148q-15 -18 -39 -18q-21 0 -34 12q-17 14 -17 38q0 18 12 33z" />
    <glyph glyph-name="fraction" unicode="&#x2044;" horiz-adv-x="210" 
d="M368 633l-460 -615q-14 -18 -36 -18q-12 0 -23 8q-15 12 -15 31q0 14 8 25l461 618q11 14 29 14q12 0 26 -9q17 -12 17 -32q0 -15 -7 -22z" />
    <glyph glyph-name="uni2070" unicode="&#x2070;" horiz-adv-x="398" 
d="M78 654q44 50 121 50t121 -51q43 -50 43 -128q0 -79 -43.5 -129t-119.5 -50q-78 0 -121.5 48.5t-43.5 130.5q0 79 43 129zM200 431q29 0 42 22t13 72t-13.5 72t-42.5 22q-57 0 -57 -94t58 -94z" />
    <glyph glyph-name="uni2074" unicode="&#x2074;" horiz-adv-x="359" 
d="M297 420v-29q0 -19 -13.5 -32.5t-32.5 -13.5t-32.5 13.5t-13.5 32.5v29h-147q-19 0 -32.5 13.5t-13.5 32.5q0 17 29 58l105 147q9 14 13.5 19t12.5 9.5t20 4.5q25 0 33.5 -21t-6.5 -43l-103 -142h89v31q0 19 13.5 32.5t32.5 13.5t32.5 -13.5t13.5 -32.5v-31q50 0 50 -37
q0 -19 -13.5 -30t-36.5 -11z" />
    <glyph glyph-name="uni2075" unicode="&#x2075;" horiz-adv-x="337" 
d="M135 421q62 0 62 43q0 42 -76 42q-3 0 -35 -2h-4q-30 0 -30 30v4l12 124q2 16 13.5 27t28.5 11h150q23 1 32.5 -19t0 -40t-32.5 -19h-118l-8 -54q22 8 48 8q57 0 91.5 -29t34.5 -78q0 -59 -41.5 -92t-110.5 -33q-74 0 -114 27q-19 13 -19 35q0 11 7 21q10 16 29 16
q16 0 33 -10q24 -12 47 -12z" />
    <glyph glyph-name="uni2076" unicode="&#x2076;" horiz-adv-x="396" 
d="M235 569q59 0 94.5 -29t35.5 -78q0 -51 -45 -84.5t-114 -33.5q-83 0 -129 37.5t-46 102.5q0 82 62 144q60 60 161 74h5l3 1q30 0 36 -27v-4l1 -2q0 -13 -9.5 -23t-24.5 -13q-89 -19 -126 -97q38 32 96 32zM206 421q23 0 37.5 11.5t14.5 27.5q0 18 -14 28.5t-40 10.5
q-41 0 -65 -30q1 -20 19.5 -34t47.5 -14z" />
    <glyph glyph-name="uni2077" unicode="&#x2077;" horiz-adv-x="332" 
d="M90 415l109 200h-142q-18 0 -30.5 12.5t-12.5 30.5q0 17 12.5 29.5t30.5 12.5h216q21 0 33 -11t12 -28q0 -16 -23 -60l-121 -229q-14 -27 -44 -27q-20 0 -33.5 12.5t-13.5 31.5q0 13 7 26z" />
    <glyph glyph-name="uni2078" unicode="&#x2078;" horiz-adv-x="411" 
d="M245 574q13 11 13.5 23t-15 22t-38.5 10t-37 -9t-14 -24q0 -31 53 -31q24 0 38 9zM142 458q0 -37 64 -37q63 0 63 37t-62 37q-30 0 -47.5 -10t-17.5 -27zM358 614q0 -60 -62 -83q34 -8 53.5 -29.5t19.5 -53.5q0 -50 -43.5 -77t-119.5 -27q-75 0 -119.5 26t-44.5 71
q0 65 66 89q-54 24 -54 84q0 41 42.5 66.5t109.5 25.5t109.5 -25.5t42.5 -66.5z" />
    <glyph glyph-name="uni2079" unicode="&#x2079;" horiz-adv-x="394" 
d="M160 473q-56 0 -93 32t-37 78q0 54 45 88.5t114 34.5q84 0 129.5 -40t45.5 -113q0 -87 -64 -143t-173 -66h-4q-14 0 -24.5 10.5t-10.5 24.5q0 32 35 38q58 10 94 36t39 60q-33 -40 -96 -40zM189 629q-23 0 -37.5 -11.5t-14.5 -27.5q0 -19 15 -33t39 -14q41 0 65 30
q-5 56 -67 56z" />
    <glyph glyph-name="uni207A" unicode="&#x207a;" horiz-adv-x="359" 
d="M140 432v59h-61q-15 0 -26 11.5t-11 27.5t11 27.5t26 11.5h61v57q0 15 11.5 26t27.5 11t27.5 -11t11.5 -26v-57h62q15 0 26 -11.5t11 -27.5t-11 -27.5t-26 -11.5h-62v-59q0 -15 -11.5 -26t-27.5 -11t-27.5 11t-11.5 26z" />
    <glyph glyph-name="uni207B" unicode="&#x207b;" horiz-adv-x="359" 
d="M79 569h201q15 0 26 -11.5t11 -27.5t-11 -27.5t-26 -11.5h-201q-15 0 -26 11.5t-11 27.5t11 27.5t26 11.5z" />
    <glyph glyph-name="uni207C" unicode="&#x207c;" horiz-adv-x="359" 
d="M79 494h201q15 0 26 -11.5t11 -27.5t-11 -27.5t-26 -11.5h-201q-15 0 -26 11.5t-11 27.5t11 27.5t26 11.5zM79 644h201q15 0 26 -11.5t11 -27.5t-11 -27.5t-26 -11.5h-201q-15 0 -26 11.5t-11 27.5t11 27.5t26 11.5z" />
    <glyph glyph-name="uni207D" unicode="&#x207d;" horiz-adv-x="227" 
d="M206 694q0 -22 -17 -36q-59 -53 -59 -135q0 -75 69 -140q13 -13 13 -31q0 -14 -8 -24q-13 -16 -33 -16q-14 0 -25 8q-54 38 -85 94t-31 109q0 115 111 198q12 9 28 9q19 0 30 -14q7 -10 7 -22z" />
    <glyph glyph-name="uni207E" unicode="&#x207e;" horiz-adv-x="226" 
d="M23 357q0 18 16 33q57 52 57 132q0 76 -62 132q-16 13 -16 31q0 15 12 28q14 14 32 14q17 0 34 -11q100 -72 100 -194q0 -113 -103 -192q-14 -11 -30 -11q-18 0 -30 13q-10 10 -10 25z" />
    <glyph glyph-name="uni2080" unicode="&#x2080;" horiz-adv-x="398" 
d="M78 304q44 50 121 50t121 -51q43 -50 43 -128q0 -79 -43.5 -129t-119.5 -50q-78 0 -121.5 48.5t-43.5 130.5q0 79 43 129zM200 81q29 0 42 22t13 72t-13.5 72t-42.5 22q-57 0 -57 -94t58 -94z" />
    <glyph glyph-name="uni2081" unicode="&#x2081;" horiz-adv-x="261" 
d="M93 43v193l-14 -9q-11 -6 -22 -6q-21 0 -33 15q-7 10 -7 23q0 21 17 32l68 45q29 20 51 20q18 0 29 -12t11 -30v-271q0 -21 -13.5 -34.5t-36.5 -13.5t-36.5 13.5t-13.5 34.5z" />
    <glyph glyph-name="uni2082" unicode="&#x2082;" horiz-adv-x="365" 
d="M166 85h126q18 0 30.5 -12.5t12.5 -29.5q0 -18 -12.5 -30.5t-30.5 -12.5h-223q-17 0 -28 12t-11 28q4 21 11.5 29.5t35.5 25.5q135 84 135 135q0 27 -26 37t-57 -20q-15 -18 -39 -18q-12 0 -19 3q-29 11 -29 41q0 11 5 23q28 58 132 58q66 0 103 -30t37 -81
q0 -93 -153 -158z" />
    <glyph glyph-name="uni2083" unicode="&#x2083;" horiz-adv-x="351" 
d="M304 267q0 -64 -77 -82q42 -4 65.5 -27t23.5 -57q0 -47 -43.5 -77t-107.5 -30q-80 0 -132 46q-13 13 -13 30q0 15 11 26q11 12 27 12q18 0 35 -13q28 -20 55 -20q61 0 61 35q0 32 -59 32q-16 0 -26 9.5t-10 26.5q0 16 10 25t26 9q21 0 33.5 9.5t12.5 24.5q0 29 -45 29
q-30 0 -56 -17q-14 -9 -26 -9q-16 0 -28 13q-8 11 -8 22q0 19 18 34q49 38 120 38q60 0 96.5 -24t36.5 -65z" />
    <glyph glyph-name="uni2084" unicode="&#x2084;" horiz-adv-x="359" 
d="M297 70v-29q0 -19 -13.5 -32.5t-32.5 -13.5t-32.5 13.5t-13.5 32.5v29h-147q-19 0 -32.5 13.5t-13.5 32.5q0 17 29 58l105 147q9 14 13.5 19t12.5 9.5t20 4.5q25 0 33.5 -21t-6.5 -43l-103 -142h89v31q0 19 13.5 32.5t32.5 13.5t32.5 -13.5t13.5 -32.5v-31q50 0 50 -37
q0 -19 -13.5 -30t-36.5 -11z" />
    <glyph glyph-name="uni2085" unicode="&#x2085;" horiz-adv-x="337" 
d="M135 71q62 0 62 43q0 42 -76 42q-3 0 -35 -2h-4q-30 0 -30 30v4l12 124q2 16 13.5 27t28.5 11h150q23 1 32.5 -19t0 -40t-32.5 -19h-118l-8 -54q22 8 48 8q57 0 91.5 -29t34.5 -78q0 -59 -41.5 -92t-110.5 -33q-74 0 -114 27q-19 13 -19 35q0 11 7 21q10 16 29 16
q16 0 33 -10q24 -12 47 -12z" />
    </font>
</defs>
</svg>
