<svg xmlns="http://www.w3.org/2000/svg" viewBox="0 0 570.9 193.2"><title>acana</title><path d="M65.8 121.6c-5.4 1.1-11.9 2.3-17.2 3.5-.6.1-1.1 0-.9-1.1s11.5-40.1 12-41.6 1-.9 1.1-.2 5.6 37.2 5.7 38.2-.4 1.1-.7 1.2m42.9 34.9l-6.9.5a1.1 1.1 0 0 1-1.1-1c-.1-.5-12.6-85.3-12.6-85.3a1.4 1.4 0 0 1 .8-1.7l8.5-3.6a1.5 1.5 0 0 0 1-1.2V36.6c0-.9-.6-1-1-.8a462.6 462.6 0 0 0-71.7 36 1.8 1.8 0 0 0-.9 1.6v19.9a.9.9 0 0 0 1.2.9l6.7-2.6c.2-.1.8-.2.5.5s-20.6 66-23.3 74.1a1.7 1.7 0 0 1-1.2.9l-6.4 1a1.1 1.1 0 0 0-.9 1s-.8 19.4-.9 20.5a1.1 1.1 0 0 0 1 1.2h41.4a1.2 1.2 0 0 0 1.3-1.2v-25.9a.8.8 0 0 0-1-1l-6.9.8a.7.7 0 0 1-.7-.9l4.4-13.8a1.8 1.8 0 0 1 1.3-1.1c1.1-.3 17.9-3.6 27.2-5.3a.9.9 0 0 1 1.1.8c.2.9 2.3 14.5 2.4 15.4a1 1 0 0 1-1 1.2l-6.1.8a1.3 1.3 0 0 0-1.2 1.3s.1 27 0 27.9a1.1 1.1 0 0 0 1.1 1.1h47.1a1.1 1.1 0 0 0 1.1-1.2c0-1-3.4-31.7-3.4-32.1a.9.9 0 0 0-1-1m80.5-33.9c-1.2 5.3-7.8 29.6-22.3 29.6-9.2 0-15.2-6.8-18.5-12.4s-10-27.9-6-48.9 14.2-38.6 28.4-38.6c12.4 0 17.8 18.7 19 23.5a1.3 1.3 0 0 0 1.4 1l24.9-3a1.3 1.3 0 0 0 1.3-1.2c0-.2.8-66.5.9-67.4a1.3 1.3 0 0 0-1.3-1.3c-7.2.9-20.2 2.9-21.5 3.2a1.4 1.4 0 0 0-1.2 1.4s-.9 11.1-.8 11.8-.4 1.1-1.2.5a41.3 41.3 0 0 0-11.8-6.4h-.1l-1-.3h-.2l-1.2-.3h-.2l-2.6-.6h-6a32.4 32.4 0 0 0-14.8 3.9h-.1l-2 1.1-1.8.6-.3.2-3.1 2.2a72 72 0 0 0-17.4 19.6c-6.3 10.7-13.5 27.3-16.7 49.5s-2.4 42.4 6.4 62.4 24.8 39.9 47.8 39.9 33.3-16.7 41.7-33.3c7.2-14.2 10.6-33 11.4-38.1a.9.9 0 0 0-.9-1.3l-28.8 1.7a1.5 1.5 0 0 0-1.4 1m97.8-31h-15.7a.9.9 0 0 1-1-1.2c.2-1.2 8.5-47.7 8.5-48.2s.8-.8.9 0l8.3 48.2s.3 1.2-1.2 1.2m46.3 58.8h-6.3a1.1 1.1 0 0 1-1-1l-18-107.9a.9.9 0 0 1 1-1.2h9.3a1.1 1.1 0 0 0 1-1.2V2.9c0-.4.1-1.3-1.4-1.4-9.8-.6-22.3-.8-32.3-.8-13.3 0-29-.3-42.1.7a1.3 1.3 0 0 0-1.3 1.2v35.8a1.1 1.1 0 0 0 1 1.1l8.9.8a.9.9 0 0 1 1 1.1c-.1.6-19.9 107.4-20 108.2a1.2 1.2 0 0 1-1.2 1l-6.9.2a.9.9 0 0 0-1 1.1c0 .3-4.3 37.7-4.3 37.7a1 1 0 0 0 1.2 1.1h47.7a1.1 1.1 0 0 0 1.2-1.1v-38.4a.8.8 0 0 0-.8-1h-7.8a.7.7 0 0 1-.7-.9l5-24.8s0-.8 1.2-.8h25a1.2 1.2 0 0 1 1.2 1.1l3 24.2a.8.8 0 0 1-.8 1.1h-8.1a.9.9 0 0 0-.9.9v38.4a1.2 1.2 0 0 0 1.4 1.3H333a1.3 1.3 0 0 0 1.4-1.3v-37.7a1.2 1.2 0 0 0-1.3-1.2m74.8-133.6v31.4a1.4 1.4 0 0 0 1 1.5l7.2 1.8a1.2 1.2 0 0 1 1 1.3v50.8a.51.51 0 0 1-1 .2c-.3-1.1-29.7-91.8-29.7-91.8a2.1 2.1 0 0 0-1.6-1.4c-12.6-2.5-28.7-6.2-41.7-7.8a1.1 1.1 0 0 0-1.5 1v34a1.2 1.2 0 0 0 1.3 1.4l10.2 2.1a1 1 0 0 1 .9 1.2v107.2a1.1 1.1 0 0 1-1.2 1.1l-7.4-.2a1.1 1.1 0 0 0-1.1 1.2v37.4a1.3 1.3 0 0 0 1.4 1.3h43.6a1.5 1.5 0 0 0 1.4-1.4v-35.8a1.1 1.1 0 0 0-1.1-1.3l-7.2-.3a1 1 0 0 1-1.1-1.2v-64s.4-1.9 1 0l35.2 102.5a2.3 2.3 0 0 0 2.2 1.7h30.2a1.3 1.3 0 0 0 1.3-1.1v-32.6a1.3 1.3 0 0 0-1.2-1.4l-4-.3a1 1 0 0 1-1.2-1.2V60a.8.8 0 0 1 1.1-1l7.5 1.7a.9.9 0 0 0 1.2-1V31.4a1.9 1.9 0 0 0-1.2-1.9q-21.5-7.6-44.1-13.4c-1.4-.4-1.4.7-1.4.7m111.2 107.1c-5.1-1.1-11.2-2.2-16.4-3.2-1.7-.3-1.1-2.1-1.1-2.1s6.2-35.9 6.2-36.2a.6.6 0 0 1 1.2 0l11.2 40.1s.7 1.8-1 1.4m48.1 43.9c-2.3-.3-2.9-.6-5.2-.9a1.9 1.9 0 0 1-1.6-1.4L538.6 93c-.4-.9.2-1.2.7-1l6.3 2.9a.8.8 0 0 0 1.2-.9V76.2a2.3 2.3 0 0 0-1-2c-21.6-13.8-46.6-25.9-71.2-36.1a.806.806 0 0 0-1.4.8v25.4a1.5 1.5 0 0 0 .8 1.4l8.6 3.9a1.4 1.4 0 0 1 .6 1.4l-13.4 84.9a1.2 1.2 0 0 1-1.4 1l-6.2-.5c-1.3-.2-1.3 1.3-1.3 1.3v31.6a1.3 1.3 0 0 0 1.4 1.4h40.8a1.4 1.4 0 0 0 1.4-1.4v-27.8a1.3 1.3 0 0 0-1.2-1.5l-7.5-.9a.8.8 0 0 1-1-1.1l2.8-15.6a1.1 1.1 0 0 1 1.4-1q13.9 2.4 27.3 5.1a1.8 1.8 0 0 1 1.6 1.4l4.3 13.8s.5 1.3-.6 1.1l-6.4-.7a1 1 0 0 0-1 1.1v26.3c0 .9.6 1.1 1.5 1.1h43.4a1.3 1.3 0 0 0 1.4-1.3c0-.4-1.7-19.9-1.7-19.9a1.6 1.6 0 0 0-1.4-1.7" fill="#c9c8c8"/><path d="M65.8 121.6c-5.4 1.1-11.9 2.3-17.2 3.5-.6.1-1.1 0-.9-1.1s11.5-40.1 12-41.6 1-.9 1.1-.2 5.6 37.2 5.7 38.2-.4 1.1-.7 1.2m42.9 34.9l-6.9.5a1.1 1.1 0 0 1-1.1-1c-.1-.5-12.6-85.3-12.6-85.3a1.4 1.4 0 0 1 .8-1.7l8.5-3.6a1.5 1.5 0 0 0 1-1.2V36.6c0-.9-.6-1-1-.8a462.6 462.6 0 0 0-71.7 36 1.8 1.8 0 0 0-.9 1.6v19.9a.9.9 0 0 0 1.2.9l6.7-2.6c.2-.1.8-.2.5.5s-20.6 66-23.3 74.1a1.7 1.7 0 0 1-1.2.9l-6.4 1a1.1 1.1 0 0 0-.9 1s-.8 19.4-.9 20.5a1.1 1.1 0 0 0 1 1.2h41.4a1.2 1.2 0 0 0 1.3-1.2v-25.9a.8.8 0 0 0-1-1l-6.9.8a.7.7 0 0 1-.7-.9l4.4-13.8a1.8 1.8 0 0 1 1.3-1.1c1.1-.3 17.9-3.6 27.2-5.3a.9.9 0 0 1 1.1.8c.2.9 2.3 14.5 2.4 15.4a1 1 0 0 1-1 1.2l-6.1.8a1.3 1.3 0 0 0-1.2 1.3s.1 27 0 27.9a1.1 1.1 0 0 0 1.1 1.1h47.1a1.1 1.1 0 0 0 1.1-1.2c0-1-3.4-31.7-3.4-32.1a.9.9 0 0 0-1-1" fill="#c9c8c8"/><path d="M65.8 121.6c-5.4 1.1-11.9 2.3-17.2 3.5-.6.1-1.1 0-.9-1.1s11.5-40.1 12-41.6 1-.9 1.1-.2 5.6 37.2 5.7 38.2-.4 1.1-.7 1.2zm42.9 34.9l-6.9.5a1.1 1.1 0 0 1-1.1-1c-.1-.5-12.6-85.3-12.6-85.3a1.4 1.4 0 0 1 .8-1.7l8.5-3.6a1.5 1.5 0 0 0 1-1.2V36.6c0-.9-.6-1-1-.8a462.6 462.6 0 0 0-71.7 36 1.8 1.8 0 0 0-.9 1.6v19.9a.9.9 0 0 0 1.2.9l6.7-2.6c.2-.1.8-.2.5.5s-20.6 66-23.3 74.1a1.7 1.7 0 0 1-1.2.9l-6.4 1a1.1 1.1 0 0 0-.9 1s-.8 19.4-.9 20.5a1.1 1.1 0 0 0 1 1.2h41.4a1.2 1.2 0 0 0 1.3-1.2v-25.9a.8.8 0 0 0-1-1l-6.9.8a.7.7 0 0 1-.7-.9l4.4-13.8a1.8 1.8 0 0 1 1.3-1.1c1.1-.3 17.9-3.6 27.2-5.3a.9.9 0 0 1 1.1.8c.2.9 2.3 14.5 2.4 15.4a1 1 0 0 1-1 1.2l-6.1.8a1.3 1.3 0 0 0-1.2 1.3s.1 27 0 27.9a1.1 1.1 0 0 0 1.1 1.1h47.1a1.1 1.1 0 0 0 1.1-1.2c0-1-3.4-31.7-3.4-32.1a.9.9 0 0 0-.9-1.1z" fill="none" stroke="#fff" stroke-linecap="round" stroke-linejoin="round" stroke-width="1.15"/><path d="M189.1 122.7c-1.2 5.3-7.8 29.6-22.3 29.6-9.2 0-15.2-6.8-18.5-12.4s-10-27.9-6-48.9 14.2-38.6 28.4-38.6c12.4 0 17.8 18.7 19 23.5a1.3 1.3 0 0 0 1.4 1l24.9-3a1.3 1.3 0 0 0 1.3-1.2c0-.2.8-66.5.9-67.4a1.3 1.3 0 0 0-1.3-1.3c-7.2.9-20.2 2.9-21.5 3.2a1.4 1.4 0 0 0-1.2 1.4s-.9 11.1-.8 11.8-.4 1.1-1.2.5a41.3 41.3 0 0 0-11.8-6.4h-.1l-1-.3h-.2l-1.2-.3h-.2l-2.6-.6h-6a32.4 32.4 0 0 0-14.8 3.9h-.1l-2 1.1-1.8.6-.3.2-3.1 2.2a72 72 0 0 0-17.4 19.6c-6.3 10.7-13.5 27.3-16.7 49.5s-2.4 42.4 6.4 62.4 24.8 39.9 47.8 39.9 33.3-16.7 41.7-33.3c7.2-14.2 10.6-33 11.4-38.1a.9.9 0 0 0-.9-1.3l-28.8 1.7a1.5 1.5 0 0 0-1.4 1" fill="#c9c8c8"/><path d="M189.1 122.7c-1.2 5.3-7.8 29.6-22.3 29.6-9.2 0-15.2-6.8-18.5-12.4s-10-27.9-6-48.9 14.2-38.6 28.4-38.6c12.4 0 17.8 18.7 19 23.5a1.3 1.3 0 0 0 1.4 1l24.9-3a1.3 1.3 0 0 0 1.3-1.2c0-.2.8-66.5.9-67.4a1.3 1.3 0 0 0-1.3-1.3c-7.2.9-20.2 2.9-21.5 3.2a1.4 1.4 0 0 0-1.2 1.4s-.9 11.1-.8 11.8-.4 1.1-1.2.5a41.3 41.3 0 0 0-11.8-6.4h-.1l-1-.3h-.2l-1.2-.3h-.2l-2.6-.6h-6a32.4 32.4 0 0 0-14.8 3.9h-.1l-2 1.1-1.8.6-.3.2-3.1 2.2a72 72 0 0 0-17.4 19.6c-6.3 10.7-13.5 27.3-16.7 49.5s-2.4 42.4 6.4 62.4 24.8 39.9 47.8 39.9 33.3-16.7 41.7-33.3c7.2-14.2 10.6-33 11.4-38.1a.9.9 0 0 0-.9-1.3l-28.8 1.7a1.5 1.5 0 0 0-1.4 1z" fill="none" stroke="#fff" stroke-linecap="round" stroke-linejoin="round" stroke-width="1.15"/><path d="M286.9 91.7h-15.7a.9.9 0 0 1-1-1.2c.2-1.2 8.5-47.7 8.5-48.2s.8-.8.9 0l8.3 48.2s.3 1.2-1.2 1.2m46.3 58.8h-6.3a1.1 1.1 0 0 1-1-1l-18-107.9a.9.9 0 0 1 1-1.2h9.3a1.1 1.1 0 0 0 1-1.2V2.9c0-.4.1-1.3-1.4-1.4-9.8-.6-22.3-.8-32.3-.8-13.3 0-29-.3-42.1.7a1.3 1.3 0 0 0-1.3 1.2v35.8a1.1 1.1 0 0 0 1 1.1l8.9.8a.9.9 0 0 1 1 1.1c-.1.6-19.9 107.4-20 108.2a1.2 1.2 0 0 1-1.2 1l-6.9.2a.9.9 0 0 0-1 1.1c0 .3-4.3 37.7-4.3 37.7a1 1 0 0 0 1.2 1.1h47.7a1.1 1.1 0 0 0 1.2-1.1v-38.4a.8.8 0 0 0-.8-1h-7.8a.7.7 0 0 1-.7-.9l5-24.8s0-.8 1.2-.8h25a1.2 1.2 0 0 1 1.2 1.1l3 24.2a.8.8 0 0 1-.8 1.1h-8.1a.9.9 0 0 0-.9.9v38.4a1.2 1.2 0 0 0 1.4 1.3H333a1.3 1.3 0 0 0 1.4-1.3v-37.7a1.2 1.2 0 0 0-1.3-1.2" fill="#c9c8c8"/><path d="M286.9 91.7h-15.7a.9.9 0 0 1-1-1.2c.2-1.2 8.5-47.7 8.5-48.2s.8-.8.9 0l8.3 48.2s.5 1.2-1 1.2zm46.3 58.8h-6.3a1.1 1.1 0 0 1-1-1L307.7 41.6a.9.9 0 0 1 1-1.2h9.3a1.1 1.1 0 0 0 1-1.2V2.9c0-.4.1-1.3-1.4-1.4-9.8-.6-22.3-.8-32.3-.8-13.3 0-29-.3-42.1.7a1.3 1.3 0 0 0-1.3 1.2v35.8a1.1 1.1 0 0 0 1 1.1l8.9.8a.9.9 0 0 1 1 1.1c-.1.6-19.9 107.4-20 108.2a1.2 1.2 0 0 1-1.2 1l-6.9.2a.9.9 0 0 0-1 1.1c0 .3-4.3 37.7-4.3 37.7a1 1 0 0 0 1.2 1.1h47.7a1.1 1.1 0 0 0 1.2-1.1v-38.4a.8.8 0 0 0-.8-1h-7.8a.7.7 0 0 1-.7-.9l5-24.8s0-.8 1.2-.8h25a1.2 1.2 0 0 1 1.2 1.1l3 24.2a.8.8 0 0 1-.8 1.1h-8.1a.9.9 0 0 0-.9.9v38.4a1.2 1.2 0 0 0 1.4 1.3H333a1.3 1.3 0 0 0 1.4-1.3v-37.7a1.2 1.2 0 0 0-1.3-1.2z" fill="none" stroke="#fff" stroke-linecap="round" stroke-linejoin="round" stroke-width="1.15"/><path d="M407.9 16.9v31.4a1.4 1.4 0 0 0 1 1.5l7.2 1.8a1.2 1.2 0 0 1 1 1.3v50.8a.51.51 0 0 1-1 .2c-.3-1.1-29.7-91.8-29.7-91.8a2.1 2.1 0 0 0-1.6-1.4c-12.6-2.5-28.7-6.2-41.7-7.8a1.1 1.1 0 0 0-1.5 1v34a1.2 1.2 0 0 0 1.3 1.4l10.2 2.1a1 1 0 0 1 .9 1.2v107.2a1.1 1.1 0 0 1-1.2 1.1l-7.4-.2a1.1 1.1 0 0 0-1.1 1.2v37.4a1.3 1.3 0 0 0 1.4 1.3h43.6a1.5 1.5 0 0 0 1.4-1.4v-35.8a1.1 1.1 0 0 0-1.1-1.3l-7.2-.3a1 1 0 0 1-1.1-1.2v-64s.4-1.9 1 0l35.2 102.5a2.3 2.3 0 0 0 2.2 1.7h30.2a1.3 1.3 0 0 0 1.3-1.1v-32.6a1.3 1.3 0 0 0-1.2-1.4l-4-.3a1 1 0 0 1-1.2-1.2V60a.8.8 0 0 1 1.1-1l7.5 1.7a.9.9 0 0 0 1.2-1V31.4a1.9 1.9 0 0 0-1.2-1.9q-21.5-7.6-44.1-13.4c-1.4-.4-1.4.7-1.4.7" fill="#c9c8c8"/><path d="M407.9 16.9v31.4a1.4 1.4 0 0 0 1 1.5l7.2 1.8a1.2 1.2 0 0 1 1 1.3v50.8a.51.51 0 0 1-1 .2c-.3-1.1-29.7-91.8-29.7-91.8a2.1 2.1 0 0 0-1.6-1.4c-12.6-2.5-28.7-6.2-41.7-7.8a1.1 1.1 0 0 0-1.5 1v34a1.2 1.2 0 0 0 1.3 1.4l10.2 2.1a1 1 0 0 1 .9 1.2v107.2a1.1 1.1 0 0 1-1.2 1.1l-7.4-.2a1.1 1.1 0 0 0-1.1 1.2v37.4a1.3 1.3 0 0 0 1.4 1.3h43.6a1.5 1.5 0 0 0 1.4-1.4v-35.8a1.1 1.1 0 0 0-1.1-1.3l-7.2-.3a1 1 0 0 1-1.1-1.2v-64s.4-1.9 1 0l35.2 102.5a2.3 2.3 0 0 0 2.2 1.7h30.2a1.3 1.3 0 0 0 1.3-1.1v-32.6a1.3 1.3 0 0 0-1.2-1.4l-4-.3a1 1 0 0 1-1.2-1.2V60a.8.8 0 0 1 1.1-1l7.5 1.7a.9.9 0 0 0 1.2-1V31.4a1.9 1.9 0 0 0-1.2-1.9q-21.5-7.6-44.1-13.4c-1.4-.4-1.4.8-1.4.8z" fill="none" stroke="#fff" stroke-linecap="round" stroke-linejoin="round" stroke-width="1.15"/><path d="M519.1 123.9c-5.1-1.1-11.2-2.2-16.4-3.2-1.7-.3-1.1-2.1-1.1-2.1s6.2-35.9 6.2-36.2a.6.6 0 0 1 1.2 0l11.2 40.1s.7 1.8-1 1.4m48.1 43.9c-2.3-.3-2.9-.6-5.2-.9a1.9 1.9 0 0 1-1.6-1.4L538.6 93c-.4-.9.2-1.2.7-1l6.3 2.9a.8.8 0 0 0 1.2-.9V76.2a2.3 2.3 0 0 0-1-2c-21.6-13.8-46.6-25.9-71.2-36.1a.806.806 0 0 0-1.4.8v25.4a1.5 1.5 0 0 0 .8 1.4l8.6 3.9a1.4 1.4 0 0 1 .6 1.4l-13.4 84.9a1.2 1.2 0 0 1-1.4 1l-6.2-.5c-1.3-.2-1.3 1.3-1.3 1.3v31.6a1.3 1.3 0 0 0 1.4 1.4h40.8a1.4 1.4 0 0 0 1.4-1.4v-27.8a1.3 1.3 0 0 0-1.2-1.5l-7.5-.9a.8.8 0 0 1-1-1.1l2.8-15.6a1.1 1.1 0 0 1 1.4-1q13.9 2.4 27.3 5.1a1.8 1.8 0 0 1 1.6 1.4l4.3 13.8s.5 1.3-.6 1.1l-6.4-.7a1 1 0 0 0-1 1.1v26.3c0 .9.6 1.1 1.5 1.1h43.4a1.3 1.3 0 0 0 1.4-1.3c0-.4-1.7-19.9-1.7-19.9a1.6 1.6 0 0 0-1.4-1.7" fill="#c9c8c8"/><path d="M519.1 123.9c-5.1-1.1-11.2-2.2-16.4-3.2-1.7-.3-1.1-2.1-1.1-2.1s6.2-35.9 6.2-36.2a.6.6 0 0 1 1.2 0l11.2 40.1s.6 1.9-1.1 1.4zm48.1 43.9c-2.3-.3-2.9-.6-5.2-.9a1.9 1.9 0 0 1-1.6-1.4L538.6 93c-.4-.9.2-1.2.7-1l6.3 2.9a.8.8 0 0 0 1.2-.9V76.2a2.3 2.3 0 0 0-1-2c-21.6-13.8-46.6-25.9-71.2-36.1a.806.806 0 0 0-1.4.8v25.4a1.5 1.5 0 0 0 .8 1.4l8.6 3.9a1.4 1.4 0 0 1 .6 1.4l-13.4 84.9a1.2 1.2 0 0 1-1.4 1l-6.2-.5c-1.3-.2-1.3 1.3-1.3 1.3v31.6a1.3 1.3 0 0 0 1.4 1.4h40.8a1.4 1.4 0 0 0 1.4-1.4v-27.8a1.3 1.3 0 0 0-1.2-1.5l-7.5-.9a.8.8 0 0 1-1-1.1l2.8-15.6a1.1 1.1 0 0 1 1.4-1q13.9 2.4 27.3 5.1a1.8 1.8 0 0 1 1.6 1.4l4.3 13.8s.5 1.3-.6 1.1l-6.4-.7a1 1 0 0 0-1 1.1v26.3c0 .9.6 1.1 1.5 1.1h43.4a1.3 1.3 0 0 0 1.4-1.3c0-.4-1.7-19.9-1.7-19.9a1.6 1.6 0 0 0-1.6-1.6z" fill="none" stroke="#fff" stroke-linecap="round" stroke-linejoin="round" stroke-width="1.15"/><path d="M559.4 82.7h1c.6 0 1.1-.1 1.1-.8s-.6-.7-1.1-.7h-.9v1.5zm-1.1-2.3h2.1c1.4 0 2.2.4 2.2 1.6a1.4 1.4 0 0 1-1.5 1.5l1.5 2.4h-1.2l-1.3-2.4h-.7v2.4h-1.1v-5.6zm2 6.7a3.9 3.9 0 1 0-3.7-3.9 3.8 3.8 0 0 0 3.7 3.9m0-8.9a5 5 0 1 1-5.1 5 4.9 4.9 0 0 1 5.1-5" fill="#c9c8c8"/></svg>