<svg xmlns="http://www.w3.org/2000/svg" viewBox="0 0 23 30"><path fill-rule="evenodd" fill="#3252A6" d="M11.5 0C17.851 0 23 5.154 23 11.511c0 2.406-.738 4.64-2 6.488h.001l-.012.015c-.186.271-.382.533-.589.786l-8.099 10.805h-.002a1.06 1.06 0 0 1-1.658-.008l.003-.006-8.259-11.02.028-.006A11.468 11.468 0 0 1 0 11.511C0 5.154 5.149 0 11.5 0zm3.463 10.652c0 2.843 2.665 2.703 2.665.178 0-2.864-2.665-2.624-2.665-.178zm-4.078-2.839c0 2.844-2.665 2.703-2.665.178 0-2.863 2.665-2.624 2.665-.178zm-2.848 2.839c0 2.843-2.665 2.703-2.665.178 0-2.864 2.665-2.624 2.665-.178zm4.078-2.839c0 2.844 2.665 2.703 2.665.178 0-2.863-2.665-2.624-2.665-.178zm.253 8.626c1.331.317 3.362.671 3.362-1.341.036-.976-.85-1.528-1.705-2.028-1.068-.624-1.27-1.513-2.525-1.528-1.255.015-1.457.904-2.525 1.528-.854.5-1.741 1.052-1.705 2.028 0 2.012 2.031 1.658 3.362 1.341.434-.104.658-.155.868-.157.211.002.434.053.868.157z"/></svg>