<svg xmlns="http://www.w3.org/2000/svg" width="53" height="48" viewBox="0 0 53 48"><defs><style>.cls-1{fill:#3252a6;fill-rule:evenodd}</style></defs><path class="cls-1" d="M1.77 0a1.8 1.8 0 0 0 0 3.6h5.87c2.92 7.379 5.8 14.771 8.7 22.163l-2.67 6.543a1.882 1.882 0 0 0 .16 1.7 1.8 1.8 0 0 0 1.48.8h29.44a1.8 1.8 0 0 0 0-3.6H17.96l1.53-3.712 28.35-2.307a1.828 1.828 0 0 0 1.59-1.387l3.53-15.6A1.875 1.875 0 0 0 51.23 6H12.38l-1.91-4.875A1.811 1.811 0 0 0 8.83 0H1.77zM13.8 9.6H49l-2.74 12.112-26.85 2.176zM21.2 36a6 6 0 1 0 5.89 6 5.975 5.975 0 0 0-5.89-6zm17.66 0a6 6 0 1 0 5.89 6 5.966 5.966 0 0 0-5.89-6zM21.2 39.6a2.4 2.4 0 1 1-2.36 2.4 2.348 2.348 0 0 1 2.36-2.4zm17.66 0a2.4 2.4 0 1 1-2.35 2.4 2.35 2.35 0 0 1 2.35-2.4z"/></svg>