<svg xmlns="http://www.w3.org/2000/svg" viewBox="0 0 168 51"><path fill-rule="evenodd" fill="#4E6EC3" d="M5.839 0h157.013C165.695 0 168 2.283 168 5.1v40.8c0 2.817-2.305 5.1-5.148 5.1H5.839C2.995 51 .691 48.717.691 45.9V5.1C.691 2.283 2.995 0 5.839 0z"/><path fill-rule="evenodd" fill="#FFF" d="M144.742 41.318h-2.273l3.017-5.673-3.859-6.995h2.429l2.547 4.838 2.429-4.838h2.272l-6.562 12.668zm-6.444-4.974c-.353.408-1.136 1.166-2.625 1.166-2.644 0-4.192-2.254-4.192-4.566s1.489-4.527 4.212-4.527c.646 0 1.782.136 2.605 1.243v-1.01h1.998v8.588h-1.998v-.894zm-2.311-6.14c-1.47 0-2.429 1.244-2.429 2.779 0 1.457.881 2.74 2.429 2.74 1.528 0 2.429-1.186 2.429-2.76 0-1.845-1.176-2.759-2.429-2.759zm-8.502-7.247h1.998v14.281h-1.998V22.957zm-6.169 14.553c-.47 0-1.744-.155-2.645-1.263v5.071h-1.998V28.65h1.998v.933c.823-.972 1.94-1.166 2.625-1.166 2.253 0 4.192 1.748 4.192 4.508 0 2.817-2.135 4.585-4.172 4.585zm-.314-7.306c-1.253 0-2.448.952-2.448 2.779 0 1.457.842 2.74 2.448 2.74 1.509 0 2.41-1.244 2.41-2.779 0-1.788-1.195-2.74-2.41-2.74zm-14.827 5.519c.549 0 1.019-.195 1.371-.467.079-.058.568-.447.882-1.185l1.685.933c-.275.505-.667 1.049-1.137 1.457-1.057.933-2.448 1.049-3.016 1.049-1.998 0-4.192-1.379-4.192-4.508 0-2.759 1.625-4.585 4.172-4.585 1.548 0 2.664.66 3.291 1.574.529.777.803 1.981.803 3.128v.311h-6.19c.039 1.574 1.273 2.293 2.331 2.293zm1.802-3.925c-.235-.991-1.018-1.594-1.998-1.594-.96 0-1.763.642-2.017 1.594h4.015zm-10.205-8.841h1.998v14.281h-1.998V22.957zM91.034 41.59c-1.978 0-3.722-1.01-4.231-3.167h1.998c.274.758.921 1.38 2.253 1.38 2.116 0 2.292-1.691 2.292-2.39v-1.127c-.353.427-1.136 1.224-2.625 1.224-2.645 0-4.192-2.215-4.192-4.566 0-2.293 1.469-4.527 4.231-4.527.666 0 1.744.155 2.586 1.166v-.933h1.998v8.219c0 .894.02 2.079-.823 3.148-1.195 1.515-2.879 1.573-3.487 1.573zm-.019-11.386c-1.469 0-2.41 1.244-2.41 2.74 0 1.535.901 2.779 2.41 2.779 1.567 0 2.448-1.205 2.448-2.721 0-1.904-1.195-2.798-2.448-2.798zM80.34 37.51c-2.625 0-4.623-1.923-4.623-4.547 0-2.642 1.998-4.546 4.623-4.546s4.623 1.904 4.623 4.546c0 2.624-1.998 4.547-4.623 4.547zm0-7.306c-1.215 0-2.547.778-2.547 2.779 0 1.962 1.313 2.74 2.547 2.74 1.234 0 2.546-.778 2.546-2.74 0-2.001-1.332-2.779-2.546-2.779zM69.528 37.51c-2.625 0-4.623-1.923-4.623-4.547 0-2.642 1.998-4.546 4.623-4.546s4.623 1.904 4.623 4.546c0 2.624-1.998 4.547-4.623 4.547zm0-7.306c-1.215 0-2.547.778-2.547 2.779 0 1.962 1.313 2.74 2.547 2.74 1.234 0 2.546-.778 2.546-2.74 0-2.001-1.332-2.779-2.546-2.779zM56.796 37.51c-2.194 0-3.761-.816-4.936-1.982-1.509-1.496-2.077-3.264-2.077-5.071s.608-3.614 1.959-5.013c1.626-1.69 3.644-2.079 5.172-2.079 2.057 0 3.428.777 4.172 1.302a6.038 6.038 0 0 1 1.509 1.476l-1.489 1.399c-.431-.621-1.704-2.234-4.192-2.234-2.899 0-4.937 2.196-4.937 5.149 0 3.012 2.214 5.11 4.878 5.11 2.174 0 3.761-1.477 4.094-3.458h-3.408v-1.944h5.641v.428c0 1.321-.156 2.837-1.234 4.352-.725 1.011-2.272 2.565-5.152 2.565zm39.636-19.7v-2.983c0-.513-.109-.894-.326-1.143-.218-.249-.554-.373-1.007-.373a1.75 1.75 0 0 0-.712.141 1.403 1.403 0 0 0-.533.401 1.229 1.229 0 0 0-.231.454c-.047.169-.07.464-.07.885v2.618h-.865v-5.064h.854v.78c.219-.324.484-.566.792-.725a2.321 2.321 0 0 1 1.071-.238c.603 0 1.073.159 1.412.476.338.318.508.758.508 1.323v3.448h-.893zm-5.914-.604a2.86 2.86 0 0 1-.912.609 2.79 2.79 0 0 1-3.021-.592 2.82 2.82 0 0 1-.603-.885 2.666 2.666 0 0 1-.206-1.046 2.658 2.658 0 0 1 .809-1.937 2.74 2.74 0 0 1 .898-.59 2.857 2.857 0 0 1 1.071-.202 2.773 2.773 0 0 1 1.964.803c.264.254.465.547.603.877.137.33.206.68.206 1.049 0 .369-.069.716-.206 1.043a2.614 2.614 0 0 1-.603.871zm-.664-3.273a1.736 1.736 0 0 0-1.3-.556c-.517 0-.955.185-1.314.556a1.88 1.88 0 0 0-.538 1.359c0 .535.18.987.541 1.358.361.371.798.556 1.311.556.51 0 .943-.185 1.3-.556.357-.371.536-.823.536-1.358 0-.535-.179-.988-.536-1.359zm-9.657.894c0-.513-.109-.894-.327-1.143-.217-.249-.553-.373-1.007-.373-.26 0-.497.047-.711.141a1.403 1.403 0 0 0-.533.401 1.214 1.214 0 0 0-.231.454c-.047.169-.07.464-.07.885v2.618h-.865v-5.064h.854v.78c.219-.324.483-.566.792-.725a2.321 2.321 0 0 1 1.071-.238c.603 0 1.073.159 1.412.476.338.318.507.758.507 1.323v3.448h-.892v-2.983zm-6.031-3.885a.626.626 0 0 1-.455-.183.606.606 0 0 1-.187-.453c0-.174.062-.322.187-.446a.624.624 0 0 1 .455-.185c.175 0 .324.063.449.188a.619.619 0 0 1 .187.454.601.601 0 0 1-.184.442.618.618 0 0 1-.452.183zm-5.78 6.868h-.893v-4.35h-.937v-.714h.937v-2.042h.893v2.042h.937v.714h-.937v4.35zm-6.388-2.325c0 .543.156.981.468 1.315.313.334.72.5 1.222.5.342 0 .651-.091.926-.274.276-.182.519-.458.731-.827l.664.443c-.256.457-.584.802-.982 1.035-.398.232-.859.348-1.383.348-.778 0-1.406-.254-1.886-.763s-.72-1.177-.72-2.004c0-.793.238-1.442.714-1.947.476-.506 1.088-.759 1.836-.759.755 0 1.353.24 1.794.72.44.479.661 1.134.661 1.964v.172h-4.045v.077zm3.107-.78c-.029-.446-.179-.79-.449-1.032-.269-.242-.639-.362-1.107-.362-.424 0-.778.126-1.06.379-.283.252-.447.591-.491 1.015h3.107zm-9.049 3.32c-.383 0-.749-.04-1.096-.121a4.043 4.043 0 0 1-.963-.355 3.875 3.875 0 0 1-1.551-1.513c-.364-.644-.546-1.375-.546-2.194 0-.675.108-1.285.326-1.829a3.99 3.99 0 0 1 .985-1.436 3.682 3.682 0 0 1 1.283-.786 4.706 4.706 0 0 1 1.618-.266c.785 0 1.465.141 2.042.424a3.632 3.632 0 0 1 1.434 1.275l-.815.648c-.294-.491-.66-.859-1.099-1.104-.439-.246-.948-.368-1.529-.368-.948 0-1.718.317-2.309.952-.592.634-.888 1.464-.888 2.49 0 .966.301 1.76.901 2.379.601.62 1.366.93 2.296.93.819 0 1.5-.246 2.045-.739.545-.492.847-1.133.907-1.923h-2.332v-.863h3.369v.271c0 1.277-.364 2.284-1.093 3.022-.729.737-1.724 1.106-2.985 1.106zm18.556-.215h-.881v-5.064h.881v5.064z"/><path fill-rule="evenodd" fill="#F3F4F6" d="M39.229 27.376L14.147 40.828a1.46 1.46 0 0 1-.689.175 1.47 1.47 0 0 1-.75-.209 1.449 1.449 0 0 1-.709-1.252v-27.08c0-.52.267-.988.713-1.253a1.447 1.447 0 0 1 1.443-.028l25.081 13.627c.478.26.764.741.763 1.286a1.441 1.441 0 0 1-.77 1.282zm-5.746 2.722l-4.116-3.852-14.55 13.863 18.666-10.011zM13.427 11.327a1.148 1.148 0 0 0-.554.154 1.13 1.13 0 0 0-.557.981v27.08a1.131 1.131 0 0 0 1.127 1.14l15.674-14.67-15.69-14.685zm15.941 14.451L33.404 22 14.787 11.884l14.581 13.894zm9.717-.692l-5.414-2.941-4.058 3.866 4.138 3.943 5.328-2.857c.376-.201.601-.577.603-1.003a1.127 1.127 0 0 0-.597-1.008z"/></svg>