<svg xmlns="http://www.w3.org/2000/svg" viewBox="0 0 15 16"><path fill-rule="evenodd" fill="#2CD9BC" d="M12.839 15.963c-1.652.161-3.12-1.038-3.279-2.676a2.956 2.956 0 0 1 .186-1.368l-1.714-1.688-1.716 1.691c.117.295.185.606.202.923.091 1.643-1.178 3.049-2.834 3.142a3.018 3.018 0 0 1-.903-.088 2.975 2.975 0 0 1-2.164-3.625c.412-1.595 2.049-2.559 3.657-2.153l1.611-1.997-2.333-2.297a4.752 4.752 0 0 1-1.36-2.601A3.345 3.345 0 0 1 3.457.025a.172.172 0 0 1 .226.029l8.107 10.059a3.06 3.06 0 0 1 1.231-.062 2.987 2.987 0 0 1 2.52 2.655c.159 1.638-1.051 3.097-2.702 3.257zm-9.328-4.269a1.32 1.32 0 0 0-1.323 1.313 1.315 1.315 0 0 0 1.321 1.311 1.32 1.32 0 0 0 1.323-1.313c0-.724-.591-1.31-1.321-1.311zm9.042-.007A1.32 1.32 0 0 0 11.23 13c0 .725.591 1.311 1.321 1.311a1.32 1.32 0 0 0 1.323-1.313c0-.725-.591-1.311-1.321-1.311zm-.036-5.854l-1.395 1.363-2.243-2.784L12.398.038a.173.173 0 0 1 .226-.029 3.336 3.336 0 0 1 1.26 3.208 4.768 4.768 0 0 1-1.367 2.616z"/></svg>