<svg xmlns="http://www.w3.org/2000/svg" viewBox="0 0 290.4 238.2"><title>hills</title><path d="M284.9 31.6c-5.9-.2-11.8-.4-17.7-.2a260.9 260.9 0 0 0-37.2 3l-5.4.9a288.3 288.3 0 0 0-77.1 25.2l-5.4 2.7c-5.2 2.7-10.2 5.4-15.4 8.4-1.8 1.1-3.6 2-5.4 3.2-26.5 15.7-52 36.1-77.3 60.6-1.8 1.6-3.6 3.4-5.4 5.2l-10 10.7a3.9 3.9 0 0 0-.7.9c-1.6 1.6-3 3.2-4.6 5a.6.6 0 0 0-.5.5l6.3-5.7.5-.7 8.9-8.9c1.6-1.6 3.4-3.4 5.4-5.2q38.4-36.8 77.6-60.4c1.8-1.3 3.6-2.1 5.4-3.2 5.2-3 10.2-5.7 15.4-8.4l5.4-2.7a288.3 288.3 0 0 1 77.1-25.2c1.8-.2 3.6-.5 5.4-.9 4.6-.7 9.1-1.3 13.8-1.8a283.9 283.9 0 0 1 41.1-2.9" fill="#c3c3c3"/><path d="M284.9 31.6a283.9 283.9 0 0 0-41.1 2.9L230 37.2l-5.4 1.4v98.5h-77.1l-5.4 5.4h87.8v-103a323.8 323.8 0 0 1 41-6.3c6.4-.7 12.9-1.1 19.5-1.3l-5.5-.4" fill="#c3c3c3"/><path d="M224.6 38.6l5.4-1.4 13.8-2.7c-4.7.5-9.1 1.1-13.8 1.8-1.8.4-3.6.7-5.4.9a288.3 288.3 0 0 0-77.1 25.2l-5.4 2.7c-5.2 2.7-10.2 5.4-15.4 8.4-1.8 1.1-3.6 2-5.4 3.2q-39.2 23.6-77.6 60.4h77.6V81.7c1.8-1.1 3.6-2.3 5.4-3.2 5.2-3 10.2-5.7 15.4-8.6l5.4-2.7v69.9h77.1V38.6z" fill="#c3c3c3"/><path d="M142.2 72l5.4-4.8-5.4 2.7c-5.2 2.9-10.2 5.5-15.4 8.6-1.8.9-3.6 2.1-5.4 3.2v55.4H43.8c-2 1.8-3.8 3.6-5.4 5.2l-8.9 8.9-.5.7a2.7 2.7 0 0 1 .7-.7 117.3 117.3 0 0 1 10.6-8.8h86.6V80.3c5.2-2.9 10.2-5.7 15.4-8.2" fill="#c3c3c3"/><path fill="#c3c3c3" d="M147.5 67.2l-5.3 4.9v70.4l5.3-5.3v-70z"/><path d="M237 22.9c6.8-.5 13.8-.9 20.7-1.1a153.7 153.7 0 0 0-31.5 1.4h-.2a3.9 3.9 0 0 1-1.4.2C199 27 173.1 35.2 147.5 47.7c-1.8.7-3.6 1.6-5.4 2.5l-15.4 8.2-5.4 3.2Q82.7 84.7 44 120.4c-1.8 1.8-3.6 3.4-5.4 5s-4.6 4.7-7.2 7c-5.5 6.2-11.4 12.4-17.3 18.9l-.7.9c-1.4 1.6-2.9 3.2-4.3 5s-3.6 3.8-5.4 5.7a1.4 1.4 0 0 1-.7.7c-1.1 1.4-2.1 2.9-3 4.3 1.3-1.6 2.5-3 3.8-4.5s3.9-4.3 5.9-6.3 3.2-3.4 4.6-5l.7-.9c1.1-.9 2-2.1 3-3 4.5-4.8 8.9-9.3 13.6-13.9 2.3-2.3 4.7-4.6 7.2-7s3.6-3.2 5.4-5q38.6-36.2 77.3-59.2c1.8-1.1 3.6-2.1 5.4-3 5.2-3 10.2-5.7 15.4-8.4l5.4-2.7c25.6-12.5 51.5-20.7 77.1-24.5 1.8-.2 3.6-.5 5.4-.9s4.7-.4 7-.7" fill="#c3c3c3"/><path d="M257.7 21.8c-2.9-.2-5.7-.4-8.4-.7-6.6-.4-12.9-.4-19.3-.2h-5.4a216.2 216.2 0 0 0-77.1 19.7c-1.8.7-3.6 1.6-5.4 2.5-5.2 2.3-10.2 5-15.4 7.9-1.8 1.1-3.6 2.1-5.4 3Q82.1 77.3 44 116.4l-5.4 5.7c-8.6 9.1-17.2 18.8-25.6 29.1a1.8 1.8 0 0 0-.7.9 2.8 2.8 0 0 0-.9 1.1c-1.1 1.3-2.1 2.5-3.2 3.9s-3 3.8-4.6 5.5a1.8 1.8 0 0 1-.7.9 1.4 1.4 0 0 0 .7-.7c1.8-2 3.6-3.9 5.4-5.7s2.9-3.4 4.3-5l.7-.9c5.9-6.4 11.8-12.7 17.5-18.8 2.5-2.5 4.7-5.2 7.2-7.7s3.6-3.8 5.4-5.5q38.1-39.4 77.3-62.6c1.8-1.1 3.6-2.3 5.4-3.2a158.4 158.4 0 0 1 15.4-8c1.8-.9 3.6-1.8 5.4-2.5 25.4-11.6 51.1-18.2 77.1-19.5a4 4 0 0 1 1.4-.2h.2a153.6 153.6 0 0 1 31.4-1.4" fill="#c3c3c3"/><path d="M224.6 23.4c-25.9 1.3-51.7 7.9-77.1 19.5-1.8.7-3.6 1.6-5.4 2.5a158.2 158.2 0 0 0-15.4 8c-1.8.9-3.6 2.1-5.4 3.2Q82.1 79.7 44 119.2c-1.8 1.8-3.6 3.6-5.4 5.5s-4.6 5.2-7.2 7.7c2.5-2.3 4.8-4.7 7.2-7s3.6-3.2 5.4-5q38.6-35.7 77.3-58.8l5.4-3.2 15.4-8.2c1.8-.9 3.6-1.8 5.4-2.5C173.1 35.2 199 27 224.6 23.4m0-18L230 0h-87.8v34.2l5.3-6.8v-22h77.1z" fill="#c3c3c3"/><path d="M230 0l-5.4 5.4v5.9a210.3 210.3 0 0 0-77.1 16.1l-5.4 6.8 5.4-2.5a212 212 0 0 1 77.1-17.2h5.4V0z" fill="#c3c3c3"/><path d="M224.6 11.2V5.3h-77.1v22a210.3 210.3 0 0 1 77.1-16.1M121.4 39.7V5.3H44.2v93c25.4-24.9 51.1-44.5 77.3-58.7" fill="#c3c3c3"/><path d="M121.4 5.3v34.3C95.3 53.7 69.5 73.4 44.1 98.3L39 109.8c1.6-1.8 3.4-3.6 5.2-5.4q38.1-37.8 77.3-59.9l5.4-2.9V0z" fill="#c3c3c3"/><path fill="#c3c3c3" d="M121.4 5.4l5.4-5.4h-88v110l.2-.2 5.2-11.4v-93h77.2zm68 158.9l-22.9 3.9c4.7.4 7.2 3 7.3 8.6v50.3c0 5.9-2.5 8.9-7.3 8.9h30.4c-5 0-7.5-3-7.5-8.9v-62.8zm-56 4c4.8.4 7.3 3 7.5 8.6v50.3c0 5.9-2.5 8.9-7.5 8.9h30.4c-4.8 0-7.3-3-7.3-8.9v-62.9zm-17.5 10.5a8.7 8.7 0 0 0 5.9-2 6.3 6.3 0 0 0 2.3-5 6 6 0 0 0-2.3-4.8 9.8 9.8 0 0 0-5.9-2 9 9 0 0 0-5.9 2 5.7 5.7 0 0 0-2.5 4.8 6 6 0 0 0 2.5 5 8.2 8.2 0 0 0 5.9 2m-24.5-3.9c0-5.9 2.5-8.8 7.5-8.9H68.5c4.8.2 7.3 3 7.3 8.9V191H43.5v-16.1c0-5.9 2.7-8.8 7.5-8.9H20.6c5 .2 7.5 3 7.5 8.9v52.2c0 5.9-2.5 8.9-7.5 8.9H51c-4.8 0-7.5-3-7.5-8.9v-30h32.4v30c0 5.9-2.5 8.9-7.3 8.9h30.3c-5 0-7.5-3-7.5-8.9v-52.2zm32.2 52.2v-40.2l-22.9 4.1c4.7.2 7.2 2.9 7.3 8.2v27.9c0 5.9-2.5 8.9-7.3 8.9h30.4c-5 0-7.5-3-7.5-8.9m78.1-60.8a6.2 6.2 0 0 0-2.1 4.3 4 4 0 0 0 .9 2.7 13.8 13.8 0 0 1 1.4 1.8c1.4 2.7.9 5.4-1.4 8-.7.9-.9 1.3-.5 1.6a1.2 1.2 0 0 0 .9.5 2.4 2.4 0 0 0 1.3-.5c4.1-2.9 7.3-5.5 9.1-7.9s3-4.5 2.9-6.4a5.6 5.6 0 0 0-2-4.1 8.8 8.8 0 0 0-5.4-1.8 8.1 8.1 0 0 0-5 1.8m44.1 22.3a51.4 51.4 0 0 0-9.1-1.8c-3.4-.2-7.3-.4-11.6-.4a43.2 43.2 0 0 0-11.3 1.4 22.6 22.6 0 0 0-9.5 4.8 9.3 9.3 0 0 0-3.6 7.2c0 2.9 1.4 5.5 4.5 7.7s8.4 4.6 16.5 7 13.2 4.5 15.2 6.1a7.2 7.2 0 0 1 2.7 5.7c0 2.1-1.4 3.8-3.6 4.8a24.1 24.1 0 0 1-9.1 1.8c-3.9-.2-7.2-.5-10.2-.9s-5.2-1.4-6.8-3-3.8-4.1-5.9-8a7.1 7.1 0 0 0-2.7.4.9.9 0 0 0-.5.9 86.5 86.5 0 0 0 1.6 9.7 7.4 7.4 0 0 1 .2 1.8 2.4 2.4 0 0 0 1.1 1.8 82.8 82.8 0 0 0 21.8 2.7 47.4 47.4 0 0 0 11.4-1.6 18.3 18.3 0 0 0 9.7-4.8 16.5 16.5 0 0 0 4.3-7.3 9.5 9.5 0 0 0-1.1-7.3 15.4 15.4 0 0 0-6.6-5.9 103.8 103.8 0 0 0-14.5-6.3c-6.6-2.3-10.4-4.1-11.6-5.2a4.8 4.8 0 0 1-2.1-4.1c.2-1.8 1.1-2.9 3-3.6a30 30 0 0 1 7.5-1.6 19 19 0 0 1 10.2 2 17.2 17.2 0 0 1 7.9 7.7h3.8l-.4-2a49.4 49.4 0 0 0-1.1-9.5m-13.1-15.5v-5.8h3.6a3.1 3.1 0 0 1 1.7.4 1.3 1.3 0 0 1 .6 1.2 1.6 1.6 0 0 1-.3.9 1.5 1.5 0 0 1-.7.6l.5.4a1.8 1.8 0 0 1 .2.8v.2a2.5 2.5 0 0 0 .3 1.4h-1.6v-.9a1.8 1.8 0 0 0-.2-1.1 1 1 0 0 0-.8-.2h-1.7v2.2h-1.6zm1.5-3.4h1.7l.9-.2a.6.6 0 0 0 .3-.5.5.5 0 0 0-.2-.5h-2.6v1.3z"/><path d="M235.9 176.9c-4.1 0-7.4-2.9-7.4-6.5s3.3-6.5 7.4-6.5 7.4 2.9 7.4 6.5-3.3 6.5-7.4 6.5m0-11.8c-3.4 0-6.3 2.4-6.3 5.3s2.8 5.3 6.3 5.3 6.3-2.4 6.3-5.3-2.8-5.3-6.3-5.3" fill="#c3c3c3"/></svg>