<svg xmlns="http://www.w3.org/2000/svg" viewBox="0 0 141.2 184"><title>logo-small</title><path d="M70.6 0a70.6 70.6 0 0 1 58.3 110.4h-.1q-1.7 2.5-3.6 4.8l-49.7 66.4a6.5 6.5 0 0 1-10.2-.1l-50.7-67.6h.2A70.6 70.6 0 0 1 70.6 0m21.3 65.3c0 17.4 16.4 16.6 16.4 1.1 0-17.6-16.4-16.1-16.4-1.1m-25-17.4c0 17.4-16.4 16.6-16.4 1.1 0-17.6 16.4-16.1 16.4-1.1M49.3 65.3c0 17.5-16.3 16.6-16.3 1.1 0-17.6 16.4-16.1 16.4-1.1m25-17.4c0 17.4 16.4 16.6 16.4 1.1 0-17.6-16.4-16.1-16.4-1.1m1.6 52.9c8.2 2 20.6 4.1 20.6-8.2.2-6-5.2-9.4-10.5-12.4s-7.8-9.3-15.5-9.4-8.9 5.5-15.5 9.4-10.7 6.4-10.5 12.4c0 12.3 12.5 10.2 20.6 8.2a25.5 25.5 0 0 1 5.3-1 25.5 25.5 0 0 1 5.3 1" fill="#3252a6" fill-rule="evenodd"/><path d="M41.5 106.7l-5.1.2a.5.5 0 0 0-.5.5v15.2a.5.5 0 0 0 .5.5H39a.5.5 0 0 0 .5-.5v-5.4h1.9c4.2 0 6.6-2 6.6-5.3s-2.5-5.2-6.6-5.2m0 7.7h-1.6a.3.3 0 0 1-.2-.3v-4.3a.3.3 0 0 1 .2-.3h1.7c1.8 0 2.9.9 2.9 2.4s-1 2.5-2.9 2.5m11.8 6.4a2.2 2.2 0 0 1-2.4-1.5.2.2 0 0 1 0-.2h1.3c3.5 0 5.6-1.3 5.6-3.6s-1.7-3.8-4.5-3.8-6 2.3-6 6.2 2.1 5.6 5.7 5.6a8.8 8.8 0 0 0 4.4-1.1l.2-.3a.5.5 0 0 0-.1-.4l-.8-1.3a.5.5 0 0 0-.7-.2 5.8 5.8 0 0 1-2.8.7m-.2-6.7a1.3 1.3 0 0 1 1.5 1.3c0 .9-.8 1.5-2.2 1.5h-1.5a.2.2 0 0 1-.1-.2c.2-1.5 1-2.4 2.2-2.4m12.5 6.2l-1.1.2a1.5 1.5 0 0 1-1.5-1.7v-4.3a.3.3 0 0 1 .3-.3h2.4a.5.5 0 0 0 .5-.5v-1.6a.5.5 0 0 0-.5-.5h-2.3a.3.3 0 0 1-.3-.3v-1.2c0-2.2-3.5-1.9-3.5-.2v9.4c0 2.4 1.5 3.9 4 3.9a7.5 7.5 0 0 0 2.7-.4.5.5 0 0 0 .3-.6l-.3-1.5a.5.5 0 0 0-.2-.3h-.3m6.7-.3l.8-.9 3.7-4.3a2.7 2.7 0 0 0 .9-1.9c0-1.5-.7-1.3-1.7-1.3h-7.2a.5.5 0 0 0-.5.5v1.6a.5.5 0 0 0 .5.5h4.1l.2.2a.2.2 0 0 1 0 .3l-1.4 1.6-2.9 3.4c-1.1 1.3-.8 1.5-.8 3.1a.3.3 0 0 0 .3.2h9.1a.5.5 0 0 0 .5-.5V121a.5.5 0 0 0-.5-.5h-4.9l-.2-.2a.2.2 0 0 1 .1-.3m9.5 3.3a2 2 0 1 0-2.1-2 1.9 1.9 0 0 0 2.1 2m10.5-11.8a3.3 3.3 0 0 0-2.8 1.4h-.4l-.2-.2c-.4-1.7-3.3-1.5-3.3.6v9.2a.5.5 0 0 0 .5.5h2.5a.5.5 0 0 0 .5-.5v-4.3c0-2.8.9-3.8 2.3-3.8l.9.2h.4l.3-.3.7-2.1a.5.5 0 0 0 0-.4l-.3-.2-1.3-.2m9.8 1.6v4.4c0 2.3-.8 3.1-2.2 3.1s-1.6-.8-1.6-2.1v-5.3c0-2-3.5-2-3.5 0v5.9c0 2.7 1.5 4.3 4 4.3a4 4 0 0 0 3.1-1.3h.2l.2.2a1.7 1.7 0 0 0 3.3-.2v-8.7c0-2.1-3.5-1.8-3.5-.2" fill="#00ccbc"/><path d="M82.5 128.2h1l1 3 1-3h.9l-1.4 3.7a3.7 3.7 0 0 1-.8 1.4 1.5 1.5 0 0 1-1.1.4h-.5a.4.4 0 0 1-.1-.3v-.4l.9-.2a1.5 1.5 0 0 0 .6-.8zm7.1.9l-.3-.2h-.6a1 1 0 0 0-.8.3 1.5 1.5 0 0 0-.3 1 1.4 1.4 0 0 0 .3.9 1 1 0 0 0 .8.3h.5l.4-.2v.7l-.3.2h-.7a1.7 1.7 0 0 1-1.4-.5 2.2 2.2 0 0 1-.4-1.5 2.9 2.9 0 0 1 .1-.9 1.9 1.9 0 0 1 .4-.7l.6-.4.8-.2h.7l.3.2a.4.4 0 0 1 .1.3.7.7 0 0 1-.2.5m3.1-.7h-1l-1.4 3.9h.9l1-3.1.9 3.1h1l-1.4-3.9z" fill="#fff"/><path d="M94.1 128.2h1l1 3 1-3h.9l-1.4 3.7a3.7 3.7 0 0 1-.8 1.4 1.5 1.5 0 0 1-1.1.4h-.5a.4.4 0 0 1-.1-.3v-.4l.9-.2a1.5 1.5 0 0 0 .5-.7zm-22 3.3h-.8v-1.2h.8a.6.6 0 1 1 0 1.2m-.8-1.7v-1h-.9v3.2h1.7c1 0 1.7-.4 1.7-1.2s-2.5-1.2-2.5-1.2m-3.8 1.9h-.7V130a1.1 1.1 0 0 1 1.1-1.2 1 1 0 0 1 1 1.3 1.3 1.3 0 0 1-1.3 1.5m.6-3.5a1.7 1.7 0 0 0-1.4.7v-.2a.5.5 0 0 0-.4-.6h-.5v6h.9v-1.8h.8a2 2 0 0 0 2.1-2.2c0-1.3-.6-2-1.6-2m-5.3 3.5a.6.6 0 0 1-.6-.6c0-.4.4-.6 1-.6h.7a1.1 1.1 0 0 1-1.1 1.2m.4-3.5a2.8 2.8 0 0 0-1.6.4l.4.6a1.9 1.9 0 0 1 1.1-.3.8.8 0 0 1 .8 1h-.7c-1.2 0-1.8.5-1.8 1.3a1.1 1.1 0 0 0 1.3 1.2 1.5 1.5 0 0 0 1.3-.7v.2a.5.5 0 0 0 .4.6h.5v-2.6a1.4 1.4 0 0 0-1.6-1.5m-4.1 3.5h-.9v-1.2h.8a.6.6 0 1 1 0 1.2m-.1-3a.6.6 0 1 1 0 1.1h-.7v-1.1h.7m1 1.3a.9.9 0 0 0 .6-.9c0-.7-.6-1.2-1.6-1.2h-1.6v4h1.7c1 0 1.7-.4 1.7-1.2a1 1 0 0 0-.8-.9m-5.5 1.4a1.4 1.4 0 1 1 1.1-1.4 1.1 1.1 0 0 1-1.1 1.4m0 .7a2.1 2.1 0 1 0-2-2.1 1.9 1.9 0 0 0 2 2.1m-2.4-4.1h-3.2v.7H50v3.3h.9v-3.3h1.2v-.7zm-5.6 3.4a1.4 1.4 0 1 1 1.1-1.4 1.1 1.1 0 0 1-1.1 1.4m0 .7a2.1 2.1 0 1 0-2-2.1 1.9 1.9 0 0 0 2 2.1m-4.8-.7a1.4 1.4 0 1 1 1.1-1.4 1.1 1.1 0 0 1-1.1 1.4m0 .7a2.1 2.1 0 1 0-2-2.1 1.9 1.9 0 0 0 2 2.1m-5.7-3.7l.2.6a1.7 1.7 0 0 1 .9-.3.5.5 0 0 1 .6.5.5.5 0 0 1-.6.5h-.3v.6h.5a.6.6 0 0 1 .8.6.7.7 0 0 1-.8.6 1.6 1.6 0 0 1-1.1-.4l-.3.5a2.2 2.2 0 0 0 1.5.6c1 0 1.6-.4 1.6-1.2a1 1 0 0 0-1-1 .9.9 0 0 0 .8-.9 1.1 1.1 0 0 0-1.3-1.1 2.6 2.6 0 0 0-1.4.4m44.1-.1h-.5v.7l-1.8 1.6v-1.9a.4.4 0 0 0-.4-.5H77v4h.9v-.7l1.8-1.6v2.3h.9v-3.6a.4.4 0 0 0-.4-.5m21.2.2h-2.7v4h.9v-3.3h1.8v-.7zm3.6 0h-.5v.7l-1.8 1.6v-1.9a.4.4 0 0 0-.4-.5h-.5v4h.9v-.7l1.8-1.6v2.3h.9v-3.6a.4.4 0 0 0-.4-.5" fill="#fff"/><path d="M74.6 128.1h-.5v4h.9v-3.6a.4.4 0 0 0-.4-.5m-3.3.6a.4.4 0 0 0-.4-.5h-.5v4h.9v-3.5z" fill="#fff"/></svg>