<svg xmlns="http://www.w3.org/2000/svg" viewBox="0 0 1200 933.48499"><path d="M4683.12 655.856v-14.382h-3.748l-4.338 9.88-4.315-9.88h-3.773v14.382h2.665v-10.845l4.055 9.36h2.759l4.055-9.384v10.87h2.64zm-23.79 0v-11.93h4.81v-2.429h-12.26v2.429h4.81v11.93h2.64z" fill="#0099df"/><path d="M4256.942 717.612h-324.48V134.481h324.48v583.131z" fill="#6c6bbd"/><path d="M3953.057 426.058c0-118.29 55.385-223.66 141.633-291.565-63.07-49.656-142.67-79.293-229.178-79.293-204.799 0-370.811 166.036-370.811 370.858s166.012 370.859 370.81 370.859c86.509 0 166.108-29.638 229.18-79.293-86.25-67.905-141.634-173.275-141.634-291.566" fill="#eb001b"/><path d="M4694.7 426.058c0 204.822-166.012 370.859-370.81 370.859-86.509 0-166.108-29.638-229.203-79.293 86.272-67.905 141.657-173.275 141.657-291.566 0-118.29-55.385-223.66-141.657-291.565C4157.782 84.837 4237.381 55.2 4323.89 55.2c204.799 0 370.812 166.036 370.812 370.858" fill="#0099df"/><path d="M4366.729 882.387c4.314 0 10.515.825 15.255 2.688l-6.602 20.183c-4.527-1.863-9.054-2.476-13.393-2.476-14.005 0-21.008 9.054-21.008 25.323v55.22h-21.432v-98.462h21.22v11.954c5.565-8.653 13.605-14.43 25.96-14.43m-79.175 22.045h-35.014v44.492c0 9.88 3.49 16.481 14.218 16.481 5.564 0 12.567-1.862 18.933-5.564l6.177 18.32c-6.79 4.74-17.494 7.64-26.76 7.64-25.347 0-34.189-13.605-34.189-36.476v-44.893h-19.994v-19.57h19.994V854.99h21.621v29.874h35.014v19.57zm-274.19 21.008c2.288-14.217 10.918-23.908 26.173-23.908 13.793 0 22.658 8.653 24.921 23.908h-51.093zm73.352 8.654c-.212-30.699-19.169-51.707-46.779-51.707-28.836 0-49.018 21.008-49.018 51.707 0 31.288 21.008 51.683 50.48 51.683 14.83 0 28.412-3.702 40.366-13.794l-10.516-15.868c-8.229 6.602-18.745 10.304-28.624 10.304-13.793 0-26.36-6.39-29.449-24.097h73.116c.212-2.688.424-5.352.424-8.228m94.124-24.097c-5.966-3.725-18.108-8.465-30.675-8.465-11.742 0-18.745 4.339-18.745 11.554 0 6.578 7.404 8.44 16.67 9.667l10.091 1.438c21.432 3.112 34.4 12.166 34.4 29.472 0 18.745-16.48 32.137-44.892 32.137-16.08 0-30.91-4.126-42.653-12.78l10.092-16.692c7.214 5.564 17.942 10.303 32.773 10.303 14.618 0 22.446-4.315 22.446-11.954 0-5.54-5.564-8.653-17.306-10.28l-10.091-1.438c-22.046-3.112-34-12.992-34-29.048 0-19.57 16.08-31.524 41.002-31.524 15.656 0 29.874 3.513 40.154 10.304l-9.266 17.306zm264.191-7.262c-4.409 0-8.488.778-12.284 2.31-3.772 1.557-7.05 3.726-9.808 6.508-2.76 2.782-4.928 6.13-6.508 10.02-1.58 3.891-2.358 8.182-2.358 12.85 0 4.693.778 8.96 2.358 12.85 1.58 3.891 3.749 7.24 6.508 10.021 2.758 2.783 6.036 4.952 9.808 6.508 3.796 1.556 7.875 2.31 12.284 2.31 4.41 0 8.512-.754 12.284-2.31 3.796-1.556 7.097-3.725 9.856-6.508 2.806-2.782 4.975-6.13 6.578-10.02 1.58-3.89 2.358-8.158 2.358-12.85 0-4.669-.778-8.96-2.358-12.85-1.603-3.89-3.772-7.239-6.578-10.021-2.759-2.782-6.06-4.951-9.856-6.508-3.772-1.532-7.875-2.31-12.284-2.31m0-20.348c7.64 0 14.713 1.32 21.22 3.985 6.508 2.64 12.143 6.295 16.882 10.94 4.763 4.645 8.465 10.138 11.153 16.457 2.687 6.343 4.031 13.228 4.031 20.655 0 7.427-1.344 14.312-4.031 20.654-2.688 6.319-6.39 11.836-11.153 16.481-4.739 4.645-10.374 8.276-16.882 10.94-6.507 2.641-13.58 3.961-21.22 3.961-7.64 0-14.713-1.32-21.22-3.96-6.508-2.665-12.096-6.296-16.811-10.941-4.716-4.645-8.418-10.162-11.105-16.481-2.688-6.342-4.032-13.227-4.032-20.654s1.344-14.312 4.032-20.655c2.687-6.319 6.39-11.812 11.105-16.457 4.715-4.645 10.303-8.3 16.81-10.94 6.508-2.665 13.582-3.985 21.221-3.985m-556.818 51.707c0-17.307 11.34-31.524 29.873-31.524 17.707 0 29.661 13.604 29.661 31.524 0 17.919-11.954 31.5-29.66 31.5-18.533 0-29.874-14.194-29.874-31.5m79.717 0v-49.231h-21.409v11.954c-6.814-8.866-17.094-14.43-31.1-14.43-27.609 0-49.23 21.621-49.23 51.707 0 30.062 21.621 51.706 49.23 51.706 14.006 0 24.286-5.564 31.1-14.43v11.954h21.41v-49.23zm-120.696 49.23v-61.797c0-23.272-14.83-38.928-38.715-39.14-12.567-.212-25.558 3.702-34.612 17.518-6.79-10.916-17.519-17.518-32.562-17.518-10.492 0-20.795 3.089-28.835 14.618v-12.142h-21.41v98.461h21.622v-54.583c0-17.094 9.478-26.171 24.096-26.171 14.218 0 21.433 9.266 21.433 25.96v54.794h21.62v-54.583c0-17.094 9.904-26.171 24.098-26.171 14.642 0 21.644 9.266 21.644 25.96v54.794h21.621zm675.177-7.408v2.429h2.24c.495 0 .92-.118 1.203-.307.306-.188.471-.518.471-.92 0-.4-.165-.707-.471-.895-.283-.212-.708-.307-1.203-.307h-2.24zm2.264-1.697c1.155 0 2.051.259 2.688.778.636.518.943 1.226.943 2.122 0 .754-.236 1.367-.755 1.862-.495.472-1.226.778-2.145.896l2.97 3.42h-2.31l-2.759-3.396h-.896v3.395h-1.933v-9.077h4.197zm-.59 12.19c1.061 0 2.052-.19 2.948-.59.92-.4 1.72-.943 2.405-1.627a7.576 7.576 0 0 0 1.626-2.428 7.764 7.764 0 0 0 0-5.942 7.844 7.844 0 0 0-1.626-2.429 7.29 7.29 0 0 0-2.405-1.603c-.896-.4-1.887-.59-2.948-.59-1.06 0-2.074.19-2.994.59a7.254 7.254 0 0 0-2.452 1.603 7.39 7.39 0 0 0-1.603 2.429c-.401.92-.59 1.91-.59 2.97 0 1.062.189 2.052.59 2.972.377.943.92 1.744 1.603 2.428a7.683 7.683 0 0 0 2.452 1.627c.92.4 1.933.59 2.994.59m0-17.401c1.391 0 2.665.26 3.867.778a9.72 9.72 0 0 1 3.183 2.098 9.596 9.596 0 0 1 2.122 3.113 9.347 9.347 0 0 1 .778 3.796c0 1.344-.26 2.617-.778 3.796a9.752 9.752 0 0 1-2.122 3.089 10.17 10.17 0 0 1-3.183 2.122c-1.202.518-2.476.778-3.867.778a9.957 9.957 0 0 1-3.937-.778 9.907 9.907 0 0 1-3.183-2.122 9.752 9.752 0 0 1-2.122-3.09 9.347 9.347 0 0 1-.778-3.795c0-1.344.26-2.617.778-3.796a9.596 9.596 0 0 1 2.122-3.113 9.48 9.48 0 0 1 3.183-2.098c1.226-.519 2.523-.778 3.937-.778" fill="#231f20"/><path d="M6439.039 615.337v-14.383h-3.75l-4.338 9.88-4.314-9.88h-3.773v14.383h2.665V604.49l4.055 9.36h2.759l4.055-9.384v10.87h2.64zm-23.79 0v-11.93h4.81v-2.43h-12.261v2.43h4.81v11.93h2.64z" fill="#0099df"/><path d="M6012.872 677.092h-324.48V93.96h324.48v583.132z" fill="#2271ce"/><path d="M5708.976 385.538c0-118.29 55.384-223.661 141.633-291.566-63.071-49.655-142.67-79.293-229.179-79.293-204.799 0-370.812 166.037-370.812 370.86 0 204.822 166.013 370.858 370.812 370.858 86.508 0 166.108-29.637 229.179-79.293-86.249-67.904-141.633-173.275-141.633-291.566" fill="#005eb6"/><path d="M6450.618 385.538c0 204.823-166.013 370.86-370.812 370.86-86.507 0-166.107-29.638-229.178-79.294 86.248-67.904 141.633-173.275 141.633-291.566 0-118.29-55.385-223.661-141.633-291.566 63.071-49.655 142.67-79.293 229.178-79.293 204.8 0 370.812 166.037 370.812 370.86" fill="#0099df"/><path d="M6128.904 935.397v2.429h2.24c.496 0 .92-.118 1.203-.307.306-.189.471-.519.471-.92 0-.4-.165-.707-.471-.895-.283-.213-.707-.307-1.203-.307h-2.24zm2.264-1.698c1.155 0 2.051.26 2.688.779.636.518.943 1.226.943 2.122 0 .754-.236 1.367-.755 1.862-.495.472-1.226.778-2.145.896l2.97 3.419h-2.31l-2.759-3.395h-.896v3.395h-1.933v-9.078h4.197zm-.59 12.19c1.062 0 2.052-.188 2.948-.59a7.576 7.576 0 0 0 4.032-4.055 7.77 7.77 0 0 0 .589-2.97 7.764 7.764 0 0 0-.59-2.971 7.844 7.844 0 0 0-1.626-2.429 7.29 7.29 0 0 0-2.405-1.603c-.896-.4-1.886-.59-2.948-.59-1.06 0-2.074.19-3.017.59a7.39 7.39 0 0 0-2.429 1.603 7.39 7.39 0 0 0-1.603 2.429c-.401.92-.59 1.91-.59 2.97 0 1.062.189 2.052.59 2.971.377.944.92 1.745 1.603 2.429a7.844 7.844 0 0 0 2.429 1.627c.943.4 1.956.59 3.017.59m0-17.401c1.368 0 2.665.26 3.867.778a9.72 9.72 0 0 1 3.183 2.098 9.596 9.596 0 0 1 2.122 3.113 9.347 9.347 0 0 1 .778 3.796 9.342 9.342 0 0 1-.778 3.796 9.752 9.752 0 0 1-2.122 3.088 10.17 10.17 0 0 1-3.183 2.122 9.684 9.684 0 0 1-3.867.779c-1.414 0-2.711-.26-3.937-.779a9.907 9.907 0 0 1-3.183-2.122 9.752 9.752 0 0 1-2.122-3.088 9.347 9.347 0 0 1-.778-3.796c0-1.344.26-2.618.778-3.796a9.596 9.596 0 0 1 2.122-3.113 9.48 9.48 0 0 1 3.183-2.098c1.226-.519 2.523-.778 3.937-.778" fill="#242021"/><path d="M6102.333 852.108c-10.304-6.79-24.521-10.304-40.153-10.304-24.946 0-41.003 11.954-41.003 31.524 0 16.056 11.954 25.936 33.976 29.048l10.115 1.438c11.719 1.65 17.283 4.74 17.283 10.28 0 7.64-7.828 11.954-22.446 11.954-14.83 0-25.535-4.739-32.75-10.303l-10.092 16.693c11.742 8.653 26.573 12.78 42.63 12.78 28.435 0 44.916-13.393 44.916-32.138 0-17.306-12.968-26.36-34.4-29.472l-10.092-1.438c-9.266-1.227-16.693-3.09-16.693-9.667 0-7.215 7.002-11.53 18.744-11.53 12.567 0 24.734 4.74 30.699 8.44l9.266-17.305zm-505.894 41.398c0 29.873 20.795 51.707 52.531 51.707 14.831 0 24.71-3.301 35.415-11.742l-10.304-17.307c-8.016 5.777-16.457 8.866-25.747 8.866-17.094-.212-29.638-12.567-29.638-31.524s12.544-31.312 29.638-31.524c9.29 0 17.73 3.089 25.747 8.865l10.304-17.306c-10.705-8.44-20.584-11.742-35.415-11.742-31.736 0-52.531 21.833-52.531 51.707m206.506-51.7c-12.355 0-20.395 5.777-25.96 14.43v-11.954h-21.197v98.462h21.41v-55.22c0-16.269 7.002-25.323 21.007-25.323 4.339 0 8.866.613 13.393 2.476l6.578-20.183c-4.716-1.863-10.917-2.688-15.231-2.688m79.558 0c-12.355 0-20.395 5.777-25.96 14.43v-11.954h-21.197v98.462h21.41v-55.22c0-16.269 7.002-25.323 21.007-25.323 4.339 0 8.866.613 13.393 2.476l6.578-20.183c-4.716-1.863-10.917-2.688-15.231-2.688M5732.412 942.7h-21.55v-98.321h21.55v98.32zm-10.893-147.458c2.122 0 4.103.377 5.964 1.179a14.883 14.883 0 0 1 4.81 3.23 15.188 15.188 0 0 1 3.232 4.81c.81 1.862 1.169 3.843 1.169 5.965s-.377 4.103-1.17 5.942a14.413 14.413 0 0 1-3.23 4.786 14.608 14.608 0 0 1-4.81 3.113c-1.868.754-3.843 1.131-5.965 1.131s-4.102-.377-5.941-1.131a14.08 14.08 0 0 1-4.788-3.113c-1.32-1.343-2.358-2.923-3.112-4.786-.755-1.84-1.132-3.82-1.132-5.942 0-2.122.377-4.102 1.132-5.965.754-1.84 1.792-3.442 3.112-4.81a14.362 14.362 0 0 1 4.788-3.23c1.848-.802 3.82-1.179 5.941-1.179m282.476 105.799c0 7.805-1.296 14.5-3.843 20.113-2.57 5.611-5.941 10.185-10.138 13.746-4.197 3.56-8.984 6.177-14.383 7.851a56.056 56.056 0 0 1-16.622 2.523 55.825 55.825 0 0 1-16.623-2.523c-5.423-1.674-10.233-4.291-14.453-7.851-4.22-3.56-7.592-8.135-10.139-13.746-2.523-5.612-3.796-12.308-3.796-20.113v-56.658h21.291v54.701c0 4.716.613 8.748 1.816 12.072 1.226 3.301 2.9 5.99 5.022 8.04 2.122 2.052 4.645 3.56 7.545 4.48 2.9.92 6.012 1.391 9.337 1.391 3.3 0 6.413-.471 9.313-1.39 2.9-.92 5.423-2.43 7.545-4.48 2.145-2.052 3.796-4.74 5.022-8.04 1.226-3.325 1.816-7.357 1.816-12.073v-54.7h21.29v56.657zm-4827.786 19.783v2.428h2.24c.495 0 .92-.118 1.226-.306.283-.189.448-.52.448-.92s-.165-.707-.448-.896c-.307-.212-.731-.306-1.226-.306h-2.24zm2.263-1.698c1.156 0 2.052.26 2.688.778.637.519.943 1.226.943 2.122 0 .755-.235 1.368-.754 1.863-.495.471-1.203.778-2.146.896l2.971 3.419h-2.31l-2.76-3.396h-.895v3.396h-1.933v-9.078h4.196zm-.589 12.213a7.167 7.167 0 0 0 2.947-.613c.92-.4 1.721-.943 2.405-1.627a7.576 7.576 0 0 0 1.627-2.428 7.764 7.764 0 0 0 0-5.942 7.844 7.844 0 0 0-1.627-2.428 7.736 7.736 0 0 0-2.405-1.627c-.896-.377-1.886-.566-2.947-.566a7.87 7.87 0 0 0-2.994.566c-.944.4-1.769.943-2.453 1.627a7.39 7.39 0 0 0-1.603 2.428c-.4.92-.59 1.91-.59 2.971 0 1.061.19 2.051.59 2.971.377.943.92 1.745 1.603 2.428a7.682 7.682 0 0 0 2.453 1.627 7.47 7.47 0 0 0 2.994.613m0-17.424a9.81 9.81 0 0 1 3.89.778 9.87 9.87 0 0 1 3.16 2.099 9.596 9.596 0 0 1 2.122 3.112 9.347 9.347 0 0 1 .778 3.796c0 1.344-.26 2.617-.778 3.796a10.128 10.128 0 0 1-2.122 3.112 10.71 10.71 0 0 1-3.16 2.099 9.798 9.798 0 0 1-3.89.778 9.962 9.962 0 0 1-3.938-.778 10.245 10.245 0 0 1-3.183-2.099 10.128 10.128 0 0 1-2.122-3.112 9.347 9.347 0 0 1-.778-3.796c0-1.344.26-2.617.778-3.796a9.596 9.596 0 0 1 2.122-3.112 9.48 9.48 0 0 1 3.183-2.099 9.962 9.962 0 0 1 3.938-.778M259.262 878.95c0-17.306 11.34-31.524 29.873-31.524 17.707 0 29.66 13.605 29.66 31.524 0 17.92-11.953 31.524-29.66 31.524-18.532 0-29.873-14.218-29.873-31.524m79.717 0v-49.23h-21.41v11.953c-6.79-8.865-17.093-14.43-31.098-14.43-27.61 0-49.255 21.645-49.255 51.707 0 30.086 21.645 51.707 49.255 51.707 14.005 0 24.308-5.565 31.099-14.43v11.954h21.409v-49.23zm723.466 0c0-17.306 11.341-31.524 29.874-31.524 17.73 0 29.66 13.605 29.66 31.524 0 17.92-11.93 31.524-29.66 31.524-18.533 0-29.874-14.218-29.874-31.524m79.74 0v-88.77h-21.431v51.493c-6.79-8.865-17.094-14.43-31.1-14.43-27.61 0-49.254 21.645-49.254 51.707 0 30.086 21.644 51.707 49.254 51.707 14.006 0 24.31-5.565 31.1-14.43v11.954h21.432v-49.23zm-537.459-32.537c13.793 0 22.658 8.653 24.922 23.884h-51.094c2.288-14.218 10.917-23.884 26.172-23.884m.424-19.17c-28.859 0-49.042 21.009-49.042 51.707 0 31.312 21.008 51.707 50.48 51.707 14.831 0 28.412-3.702 40.366-13.793l-10.492-15.868c-8.252 6.578-18.768 10.303-28.647 10.303-13.793 0-26.36-6.39-29.45-24.12h73.116c.212-2.664.425-5.352.425-8.229-.213-30.698-19.17-51.706-46.756-51.706m258.51 51.706c0-17.306 11.34-31.524 29.873-31.524 17.707 0 29.66 13.605 29.66 31.524 0 17.92-11.953 31.524-29.66 31.524-18.533 0-29.874-14.218-29.874-31.524m79.717 0v-49.23h-21.408v11.953c-6.814-8.865-17.094-14.43-31.1-14.43-27.61 0-49.254 21.645-49.254 51.707 0 30.086 21.645 51.707 49.254 51.707 14.006 0 24.286-5.565 31.1-14.43v11.954h21.408v-49.23zm-200.625 0c0 29.873 20.796 51.707 52.532 51.707 14.83 0 24.71-3.301 35.414-11.742l-10.28-17.306c-8.04 5.776-16.48 8.865-25.77 8.865-17.094-.212-29.661-12.567-29.661-31.524s12.567-31.311 29.66-31.524c9.29 0 17.731 3.09 25.771 8.866l10.28-17.307c-10.704-8.44-20.583-11.741-35.414-11.741-31.736 0-52.532 21.833-52.532 51.706m276.028-51.706c-12.355 0-20.395 5.776-25.96 14.43v-11.955H971.6v98.462h21.433v-55.196c0-16.292 7.002-25.346 21.008-25.346 4.338 0 8.865.613 13.392 2.475l6.602-20.182c-4.74-1.863-10.917-2.688-15.255-2.688m-573.912 10.303c-10.303-6.79-24.497-10.303-40.153-10.303-24.945 0-41.002 11.954-41.002 31.523 0 16.057 11.954 25.96 33.976 29.048l10.115 1.439c11.742 1.65 17.282 4.739 17.282 10.303 0 7.616-7.827 11.954-22.446 11.954-14.83 0-25.535-4.739-32.75-10.303l-10.091 16.67c11.742 8.652 26.572 12.779 42.629 12.779 28.435 0 44.916-13.393 44.916-32.137 0-17.306-12.968-26.36-34.4-29.449l-10.092-1.462c-9.266-1.226-16.693-3.065-16.693-9.667 0-7.215 7.003-11.53 18.745-11.53 12.567 0 24.733 4.74 30.698 8.441l9.266-17.306zm276.24-10.303c-12.355 0-20.395 5.776-25.936 14.43v-11.955h-21.22v98.462h21.409v-55.196c0-16.292 7.002-25.346 21.008-25.346 4.338 0 8.865.613 13.392 2.475l6.602-20.182c-4.74-1.863-10.917-2.688-15.255-2.688M538.4 829.718h-35.013v-29.873h-21.645v29.873h-19.97v19.57h19.97v44.916c0 22.847 8.866 36.452 34.188 36.452 9.29 0 19.994-2.877 26.785-7.616l-6.177-18.344c-6.39 3.702-13.393 5.565-18.957 5.565-10.705 0-14.194-6.602-14.194-16.481v-44.492H538.4v-19.57zM218.283 928.18v-61.798c0-23.271-14.83-38.927-38.739-39.14-12.567-.212-25.535 3.702-34.612 17.52-6.79-10.918-17.495-17.52-32.538-17.52-10.515 0-20.795 3.09-28.836 14.619v-12.143H62.126v98.462h21.621v-54.583c0-17.094 9.478-26.172 24.12-26.172 14.218 0 21.41 9.267 21.41 25.96v54.795h21.644v-54.583c0-17.094 9.879-26.172 24.096-26.172 14.619 0 21.621 9.267 21.621 25.96v54.795h21.645z" fill="#231f20"/><path d="M1188.42 600.656v-14.383h-3.748l-4.339 9.88-4.315-9.88h-3.772v14.383h2.664V589.81l4.056 9.36h2.758l4.056-9.384v10.87h2.64zm-23.79 0v-11.93h4.81v-2.43h-12.26v2.43h4.81v11.93h2.64z" fill="#f79410"/><path d="M762.251 662.411h-324.48V79.281h324.48v583.13z" fill="#ff5f00"/><path d="M458.356 370.858c0-118.29 55.385-223.66 141.633-291.565C536.918 29.638 457.319 0 370.81 0 166.013 0 0 166.036 0 370.858s166.013 370.858 370.81 370.858c86.508 0 166.108-29.638 229.179-79.293C513.74 594.52 458.356 489.15 458.356 370.858" fill="#eb001b"/><path d="M1200 370.858c0 204.822-166.012 370.858-370.81 370.858-86.508 0-166.108-29.638-229.202-79.293C686.26 594.52 741.644 489.15 741.644 370.858c0-118.29-55.384-223.66-141.656-291.565C663.082 29.638 742.682 0 829.189 0 1033.988 0 1200 166.036 1200 370.858" fill="#f79e1b"/></svg>