<svg xmlns="http://www.w3.org/2000/svg" viewBox="0 0 285.17 80.44"><title>mir</title><path d="M158.77 8.5l-18 39h-1.83V0h-25.6v80.43h21.72a14.62 14.62 0 0 0 13.28-8.5l18-39h1.83v47.5h25.59V0h-21.71a14.62 14.62 0 0 0-13.28 8.5m-96.01 2.07l-10.66 37h-1.83l-10.66-37A14.63 14.63 0 0 0 25.56 0H0v80.44h25.59V32.91h1.83l14.62 47.53h18.28l14.62-47.53h1.83v47.53h25.59V0H76.81a14.63 14.63 0 0 0-14.05 10.57m141.98 25.99v43.87h25.54v-25.6h27.47a27.41 27.41 0 0 0 25.83-18.28h-78.84z" fill="#20aa4d"/><path d="M257.75 0h-56.67a40.21 40.21 0 0 0 39.53 32.9h44a27.86 27.86 0 0 0 .55-5.49A27.42 27.42 0 0 0 257.74-.01" fill="#5eade2"/></svg>