<svg xmlns="http://www.w3.org/2000/svg" width="16" height="15" viewBox="0 0 16 15"><defs><style>.cls-1{fill:#2e56bc;fill-rule:evenodd}</style></defs><path class="cls-1" d="M1.667 3.91c.92 0 1.666 1.03 1.666 2.29A1.749 1.749 0 1 1 0 6.2c0-1.26.746-2.29 1.667-2.29zm4-3.91a2.046 2.046 0 0 1 1.666 2.28c0 1.26-.746 2.29-1.666 2.29S4 3.54 4 2.28A2.046 2.046 0 0 1 5.667 0zm8.666 3.91C15.254 3.91 16 4.94 16 6.2a1.749 1.749 0 1 1-3.333 0c0-1.26.746-2.29 1.666-2.29zm-4-3.91A2.046 2.046 0 0 1 12 2.28c0 1.26-.746 2.29-1.667 2.29S8.667 3.54 8.667 2.28A2.046 2.046 0 0 1 10.333 0zM14 11.74a3.3 3.3 0 0 0-2.667-3.2v-.06a3.334 3.334 0 0 0-6.666 0v.06A3.3 3.3 0 0 0 2 11.74 3.269 3.269 0 0 0 5.333 15 3.408 3.408 0 0 0 8 13.7a3.408 3.408 0 0 0 2.667 1.3A3.269 3.269 0 0 0 14 11.74z"/></svg>