<svg xmlns="http://www.w3.org/2000/svg" viewBox="0 0 753.8 189.7"><title>proplan</title><path d="M369.6 139.6a63.3 63.3 0 0 1-20.2-3.1V99.2c3.3-.3 7.6-.5 12.4-.5 21 0 33.5 8 33.5 23.4 0 7.9-6.3 17.6-25.7 17.6m3.1-44.8c-10.6 0-21.4.5-31.9.5-8.8 0-15.2-.3-22.1-.5v3.8h3.5c9 0 12.9 2.2 12.9 10.8v63.8c0 8.5-3.9 10.7-12.9 10.7h-3.5v3.8c6.8-.1 13.3-.5 22.1-.5s16.8.3 25.5.5V184h-5.7c-7.8 0-11.2-1.4-11.2-13.8v-26.4c6.1.4 12 .8 18 .8 36.1 0 46.6-13.4 46.6-25s-9.8-24.7-41.3-24.7m-128.4 89c-19.9 0-32.2-19-32.2-36.2 0-24.7 15.3-33.9 31.5-33.9 20.3 0 32 18.9 32 36 0 19.6-9.8 34.1-31.3 34.1m-.3-75.5c-23.3 0-44.4 16.7-44.4 41 0 21.6 18.5 39.2 44.1 39.2 28.4 0 44.5-20.9 44.5-40.1 0-22.7-20.6-40.1-44.2-40.1m-98.7 39.8a54.2 54.2 0 0 1-11.1-.8v-32.5c3.3-.2 6.3-.4 10.3-.4 22.6 0 27.5 13.2 27.5 18 0 11.3-12 15.7-26.7 15.7m18.6 2.5c8.1-1.7 23.1-6 23.1-20.2 0-5-5.2-20-34-20l-25.8.2-20.8-.2v3.2h2.9c7.5 0 10.8 1.8 10.8 8.9v52.9c0 7.1-3.3 8.9-10.7 8.9h-2.9v3.2l20.8-.2 21.1.2v-3.2h-4.7c-6.5 0-9.3-1.2-9.3-11.5v-20.6c12.5.2 14.6.4 18.4 4.5l19 20.8 3.1 3.1c15.1 12.5 29.4 8.4 29.4 8.4v-1.5c-10.9 0-40.2-36.9-40.2-36.9m340.1 20.9s-5.8 10.8-8.7 11.6-25.8.2-25.8.2c-15.5-.5-17.7-3-17.7-10.4v-50.5c0-7.1 3.3-8.9 10.7-8.9h3.8v-3.2l-21.6.2-20.8-.2v3.2h2.9c7.5 0 10.7 1.8 10.7 8.9v53c0 7.1-3.2 8.9-10.7 8.9h-2.9v3.2c5.7-.1 69.6-.4 74.7-.2l7.5-15.6zm217.4-60.8l-17.6-.2v3.2h2c8.8 0 11.2 2.6 11.6 15.1l1 44.5h-.3l-62.3-63-12.8.2-14.3-.2v3.2h4.6c8.1 0 11.7 1.6 11.7 9.4 0 12.6-.3 33.2-1 47.6-.5 11.3-2 13.7-10.6 13.7H631v3.2l17.9-.2 17.9.2v-3.2h-3.3c-7.7 0-10.3-2.5-10.6-11.4-.7-16.8-1-33.5-1-50.4h.3l66 66h4.8l2.9-63.3c.5-10.5 5.2-11.7 10.3-11.7h2.6v-3.2l-17.5.2m-143.8 44.2c-5.5 1.1-13-1.2-23.9-6.1a56.7 56.7 0 0 0-5.9-2.3l12.4-24.3 18.2 29.7 1.3 2.1a8.3 8.3 0 0 1-2.1.8m29.8 19.1l-41.8-66.5h-3.1L541 144.9a30.1 30.1 0 0 0-4.9-.2c-8.4.4-19.1 2.6-24.3 14.2-.3.6.1.9.5.4 2.6-3.3 8.2-6.8 12-7.5s7.9-1.1 12.6.3l-11.8 20.6c-5 9-8.6 11.7-17.5 11.7h-1.9v3.2c3.9-.2 30.3-.2 36 0l1.7-3.2s-11.9.3-11.9-3.4 1.6-5.6 2.8-7.8l8.6-17.2.7-1.3 1.6.7c3.6 1.7 11.1 4.6 16.5 4.6 7.6.1 14-1.4 18.8-4.7l.4.6 11.9 19.6c.6 1 2.3 3.9 2.3 5.4s-3.1 3.5-8.3 3.5h-4.1v3.2c6-.2 13.8-.2 22.5-.2s15.9 0 22.1.2v-3.2h-3.4c-7.5 0-12.5-4.2-16.4-10.5M50.9 139.6a63.3 63.3 0 0 1-20.2-3.1V99.2c3.3-.3 7.6-.5 12.4-.5 21 0 33.5 8 33.5 23.4 0 7.9-6.3 17.6-25.7 17.6M54 94.8c-10.6 0-21.4.5-31.9.5-8.8 0-15.3-.3-22.1-.5v3.8h3.5c9 0 12.9 2.2 12.9 10.8v63.8c0 8.5-3.9 10.7-12.9 10.7H0v3.8c6.8-.1 13.3-.5 22.1-.5s16.8.3 25.5.5v-3.8h-5.8c-7.8 0-11.2-1.4-11.2-13.8v-26.3c6.1.4 12 .8 18 .8 36.1 0 46.6-13.4 46.6-25S85.5 94.8 54 94.8" fill="#c9c8c8"/><path fill="#fff" d="M150.2 0h438.5v78.9H150.2z"/><path fill="#c9c8c8" d="M152.8 2.6h73.6v73.63h-73.6zm433.3 73.7H228.9V2.6h357.2v73.7z"/><path d="M258.7 19.6a18.5 18.5 0 0 1 3.9-.5 9.6 9.6 0 0 1 4.9 1.2 8.1 8.1 0 0 1 3.3 3.7 12.8 12.8 0 0 1 1.2 5.5 10 10 0 0 1-2.4 7 7.5 7.5 0 0 1-5.8 2.6l-2.4-.2-2.7-.4V19.6zm13.5-3.4a31.7 31.7 0 0 0-10.3-1.4h-18.2v2.7h2.5a4.5 4.5 0 0 1 3.6 1.3c.3.3.8 1.5.8 5.2v31.1c0 3.4-.4 4.5-.6 4.8a4.1 4.1 0 0 1-3.8 1.7h-2.5v2.7h21.9v-2.7H263a4.3 4.3 0 0 1-3.5-1.3c-.3-.3-.8-1.5-.8-5.2V42l3.5.6 3.8.3c4.8 0 8.7-1.3 11.4-3.9a13.4 13.4 0 0 0 4.1-10.1 12.3 12.3 0 0 0-2.7-7.9 14.7 14.7 0 0 0-6.5-4.7m53.6-1.8v2.7h2.5a4.4 4.4 0 0 1 3.5 1.3c.3.3.8 1.5.8 5.2v19.5c0 5-.4 8.5-1.3 10.6a10.4 10.4 0 0 1-4.8 4.9 16.6 16.6 0 0 1-8.1 2 12.9 12.9 0 0 1-5.9-1.2 9.5 9.5 0 0 1-3.6-3.1 13 13 0 0 1-1.8-5.3 45.3 45.3 0 0 1-.5-6.3V23.7c0-3.2.4-4.4.8-4.9a3.9 3.9 0 0 1 3.6-1.6h2.5v-2.7h-22v2.7h2.5a4.3 4.3 0 0 1 3.3 1.1c.5.5 1 1.9 1 5.4v18.8c0 5.9.4 9.9 1.2 12.1a15.6 15.6 0 0 0 6 7.7c2.8 1.9 7 2.8 12.3 2.8s8.9-1 11.8-3a14.7 14.7 0 0 0 5.9-7.2c1-2.7 1.5-6.6 1.5-11.4V24.1c0-3.3.4-4.4.6-4.8a4.1 4.1 0 0 1 3.7-2.1h2.6v-2.7h-18.1m45.3 5a27.5 27.5 0 0 1 4.8-.6 9.3 9.3 0 0 1 6.9 2.6 9.2 9.2 0 0 1 2.6 6.8 8.8 8.8 0 0 1-3.2 7c-2.2 1.9-5.5 2.8-9.8 2.8h-1.3V19.5zm27.4 40.2c-1.5-1-3.5-3.1-5.7-6.2l-9.4-12.9A16.4 16.4 0 0 0 392 36a12 12 0 0 0 3.1-8.2 11.4 11.4 0 0 0-2.7-7.6 13.6 13.6 0 0 0-6.5-4.3c-2.5-.8-6.3-1.2-11.5-1.2h-18.2v2.7h2.5a4.4 4.4 0 0 1 3.5 1.3c.3.3.8 1.5.8 5.2v31.2c0 3.4-.4 4.5-.6 4.8a4.1 4.1 0 0 1-3.7 1.7h-2.5v2.7h21.9v-2.7h-2.5a4.3 4.3 0 0 1-3.5-1.3c-.3-.3-.8-1.5-.8-5.2V41.8h3.9l16.3 22.5h13.9v-2.6h-.6a14.1 14.1 0 0 1-6.1-1.9m19.1-45v2.7h2.4a6 6 0 0 1 2.9.8 2.5 2.5 0 0 1 1.1 1.2 14.8 14.8 0 0 1 .4 4.6v31c0 3.6-.5 4.7-.7 5a4.4 4.4 0 0 1-3.7 1.5h-2.4v2.7h21.9v-2.7h-2.4a5.7 5.7 0 0 1-2.8-.8 2.5 2.5 0 0 1-1.2-1.2 15 15 0 0 1-.4-4.6V24c0-3.6.5-4.7.7-5a4.3 4.3 0 0 1 3.7-1.5h2.4v-2.7h-21.9m92 0h-18.1v2.7h2.4a4.7 4.7 0 0 1 3.6 1.3c.3.3.8 1.5.8 5.1v25.8l-28.6-34.9h-14v2.7h.7a10.7 10.7 0 0 1 2.9.3 11.3 11.3 0 0 1 3 1.4 20.9 20.9 0 0 1 2.9 3v33c0 3.4-.4 4.5-.7 4.8s-2 1.5-3.8 1.5h-2.4v2.7h18.1v-2.6h-2.4a4.7 4.7 0 0 1-3.7-1.3c-.3-.3-.8-1.4-.8-5.1V27.5l31 37.5h2.3V23.9c0-3.4.4-4.5.7-4.8s2-1.6 3.8-1.6h2.4v-2.7m33.2 12.4l6.9 17h-14.3zm27.6 34.4a6.9 6.9 0 0 1-4.2-1.5c-1-.9-2.2-2.9-3.5-6l-16.5-40.3h-2.3l-17.4 39.9c-1.4 3.4-2.7 5.7-3.9 6.7s-1.1.8-3.5 1.2h-.6v2.6h16.5v-2.5h-.6c-2.7-.2-3.7-.6-4.1-.9a1.8 1.8 0 0 1-.8-1.4 11.1 11.1 0 0 1 1.1-3.9l3.1-7.1h17.8l2.7 6.5a14.1 14.1 0 0 1 1.4 4.6 1.8 1.8 0 0 1-.7 1.4c-.4.3-1.3.7-3.5.8h-.7v2.6h20.5v-2.6h-.7M155.5 5.3h68.4v68.38h-68.4z" fill="#fff"/><path fill="#c9c8c8" d="M158.1 50h21v21.03h-21zm42.1 0h21v21.03h-21zm-21.1-21.1h21v21.04h-21zm-21-21h21v21.04h-21zm42.1 0h21v21.04h-21zm396.2-3.7v2h1.3a2.3 2.3 0 0 0 1.2-.2.8.8 0 0 0 .4-.7.8.8 0 0 0-.4-.7 2.7 2.7 0 0 0-1.3-.2h-1.2zm0 5.5h-1V3.4h2.2l1.7.2a1.6 1.6 0 0 1 .8.6 1.6 1.6 0 0 1 .3.9 1.7 1.7 0 0 1-.5 1.2 2 2 0 0 1-1.3.6l.7.5.7 1.1.8 1.2h-1.3l-.6-1a6.3 6.3 0 0 0-1-1.4 1.4 1.4 0 0 0-1-.3h-.6v2.8zm1.4-8.2a4.8 4.8 0 0 0-3.5 1.5 4.8 4.8 0 0 0-1.5 3.5 4.8 4.8 0 0 0 1.5 3.5 5 5 0 0 0 7 0 4.8 4.8 0 0 0 1.5-3.5 4.8 4.8 0 0 0-1.5-3.5 4.8 4.8 0 0 0-3.5-1.5m0-1a5.8 5.8 0 0 1 3 .8 5.9 5.9 0 0 1 2.2 2.2 5.9 5.9 0 0 1 0 6 6 6 0 0 1-11.1-3 5.8 5.8 0 0 1 .8-3 6 6 0 0 1 5.2-3M746.5 114v2h1.3a2.3 2.3 0 0 0 1.2-.2.8.8 0 0 0 .4-.7.8.8 0 0 0-.4-.7 2.7 2.7 0 0 0-1.3-.2h-1.2zm0 5.5h-1v-6.4h2.2l1.7.2a1.6 1.6 0 0 1 .8.6 1.6 1.6 0 0 1 .3.9 1.7 1.7 0 0 1-.5 1.2 2 2 0 0 1-1.3.6l.7.5.8 1.1.8 1.2h-1.3l-.6-1a6.2 6.2 0 0 0-1-1.4 1.4 1.4 0 0 0-.9-.3h-.6v2.7zm1.4-8.2a5 5 0 1 0 3.5 1.5 4.8 4.8 0 0 0-3.5-1.5m0-1a5.8 5.8 0 0 1 3 .8 5.9 5.9 0 0 1 2.2 2.2 5.9 5.9 0 0 1 0 6 6 6 0 0 1-11.1-3 6 6 0 0 1 6-6"/></svg>