<svg xmlns="http://www.w3.org/2000/svg" viewBox="0 0 498 160.81"><title>visa</title><path d="M257.56 51.41c-.28 22.4 20 34.9 35.22 42.34 15.67 7.63 20.94 12.52 20.88 19.34-.12 10.44-12.5 15-24.09 15.22-20.22.31-32-5.46-41.32-9.82L241 152.56c9.38 4.32 26.74 8.09 44.74 8.25 42.26 0 69.91-20.86 70.06-53.21.16-41-56.78-43.32-56.39-61.67.13-5.56 5.44-11.5 17.08-13 5.76-.76 21.65-1.35 39.67 7l7.07-33A107.85 107.85 0 0 0 325.54 0c-39.78 0-67.76 21.15-68 51.41M431.16 2.84A18.34 18.34 0 0 0 414 14.25l-60.33 144.14h42.18l8.4-23.22h51.61l4.88 23.22h37.21L465.53 2.84h-34.37m5.91 42l12.19 58.41h-33.41l21.19-58.41m-230.71-42l-33.26 155.55h40.24L246.58 2.84h-40.22m-59.53 0l-41.89 105.87-16.94-90c-2-10-9.84-15.85-18.56-15.85H1L0 7.38c14.06 3.05 30 8 39.7 13.23 5.92 3.22 7.61 6 9.56 13.67l32.1 124.13h42.49l65.2-155.55h-42.2" fill="#254aa5"/></svg>