<svg xmlns="http://www.w3.org/2000/svg" viewBox="0 0 415 415"><title>vk</title><path d="M64 0h287.1A63.9 63.9 0 0 1 415 64v287.1a63.9 63.9 0 0 1-63.9 63.9H64a63.9 63.9 0 0 1-64-63.9V64A63.9 63.9 0 0 1 64 0z" fill="#4d75a3" fill-rule="evenodd"/><path d="M301.5 211s35.9-50.6 39.4-67.2c1.2-5.9-1.4-9.3-7.6-9.3h-31.1c-7.1 0-9.7 3.1-11.9 7.6 0 0-16.8 35.8-37.3 58.4-6.6 7.3-9.9 9.5-13.5 9.5s-4.3-2.4-4.3-9v-57.7c0-8.1-.9-10.4-7.6-10.4h-49.8c-3.8 0-6.2 2.2-6.2 5.2 0 7.6 11.6 9.3 11.6 29.9v42.5c0 8.5-.5 11.9-4.5 11.9-10.7 0-36.1-36.8-50.3-78.6-2.8-8.5-5.9-10.9-14-10.9H83.3c-4.5 0-7.8 3.1-7.8 7.6 0 8.3 9.7 46.8 48 98.3 25.6 34.7 59.4 53.4 89.8 53.4 18.5 0 23-3.1 23-10.9v-26.6c0-6.6 2.6-9.5 6.4-9.5s11.8 1.4 29.4 18.8c20.9 19.9 22.3 28.3 33.7 28.3h34.9c3.6 0 6.9-1.7 6.9-7.6 0-7.8-10.2-21.8-25.9-38.5-6.4-8.5-16.9-17.8-20.2-22.1s-3.3-7.9 0-13.1z" fill="#fff"/></svg>