<svg xmlns="http://www.w3.org/2000/svg" width="18" height="16" viewBox="0 0 18 16">
  <metadata><?xpacket begin="﻿" id="W5M0MpCehiHzreSzNTczkc9d"?>
<x:xmpmeta xmlns:x="adobe:ns:meta/" x:xmptk="Adobe XMP Core 5.6-c138 79.159824, 2016/09/14-01:09:01        ">
   <rdf:RDF xmlns:rdf="http://www.w3.org/1999/02/22-rdf-syntax-ns#">
      <rdf:Description rdf:about=""/>
   </rdf:RDF>
</x:xmpmeta>
                                                                                                    
                                                                                                    
                                                                                                    
                                                                                                    
                                                                                                    
                                                                                                    
                                                                                                    
                                                                                                    
                                                                                                    
                                                                                                    
                                                                                                    
                                                                                                    
                                                                                                    
                                                                                                    
                                                                                                    
                                                                                                    
                                                                                                    
                                                                                                    
                                                                                                    
                                                                                                    
                           
<?xpacket end="w"?></metadata>
<defs>
    <style>
      .cls-1 {
        fill: #fff;
        fill-rule: evenodd;
      }
    </style>
  </defs>
  <path class="cls-1" d="M1048.6,1100.01a0.6,0.6,0,0,0,0,1.2h1.91l2.06,9.72a0.775,0.775,0,0,0,.63.67h10.01a0.639,0.639,0,0,0,.61-0.6,0.624,0.624,0,0,0-.61-0.6h-9.52l-0.26-1.2h10.58a0.618,0.618,0,0,0,.58-0.47l1.4-5.99a0.621,0.621,0,0,0-.58-0.73h-13.5l-0.32-1.53a0.63,0.63,0,0,0-.59-0.47h-2.4Zm3.56,3.19h12.49l-1.12,4.8h-10.35Zm3.04,8.8a2,2,0,1,0,2,1.99A2,2,0,0,0,1055.2,1112Zm6.01,0a2,2,0,1,0,2,1.99A2.012,2.012,0,0,0,1061.21,1112Zm-6.01,1.19a0.8,0.8,0,1,1-.8.8A0.8,0.8,0,0,1,1055.2,1113.19Zm6.01,0a0.8,0.8,0,1,1-.8.8A0.8,0.8,0,0,1,1061.21,1113.19Z" transform="translate(-1048 -1100)"/>
</svg>
