<svg xmlns="http://www.w3.org/2000/svg" viewBox="0 0 570.9 193.2"><title>acana</title><path d="M66.9,122.7c-5.4,1.1-11.9,2.3-17.2,3.5-0.6.1-1.1,0-.9-1.1S60.3,85,60.8,83.5s1-.9,1.1-0.2,5.6,37.2,5.7,38.2-0.4,1.1-.7,1.2m42.9,34.9-6.9.5a1.1,1.1,0,0,1-1.1-1c-0.1-.5-12.6-85.3-12.6-85.3a1.4,1.4,0,0,1,.8-1.7l8.5-3.6a1.5,1.5,0,0,0,1-1.2c0-.9,0-26.7,0-27.6s-0.6-1-1-.8a462.6,462.6,0,0,0-71.7,36,1.8,1.8,0,0,0-.9,1.6V94.4a0.9,0.9,0,0,0,1.2.9l6.7-2.6c0.2-.1.8-0.2,0.5,0.5s-20.6,66-23.3,74.1a1.7,1.7,0,0,1-1.2.9l-6.4,1a1.1,1.1,0,0,0-.9,1s-0.8,19.4-.9,20.5a1.1,1.1,0,0,0,1,1.2H44a1.2,1.2,0,0,0,1.3-1.2c0-.5,0-25.5,0-25.9a0.8,0.8,0,0,0-1-1l-6.9.8a0.7,0.7,0,0,1-.7-0.9l4.4-13.8a1.8,1.8,0,0,1,1.3-1.1c1.1-.3,17.9-3.6,27.2-5.3a0.9,0.9,0,0,1,1.1.8c0.2,0.9,2.3,14.5,2.4,15.4a1,1,0,0,1-1,1.2l-6.1.8a1.3,1.3,0,0,0-1.2,1.3s0.1,27,0,27.9a1.1,1.1,0,0,0,1.1,1.1h47.1a1.1,1.1,0,0,0,1.1-1.2c0-1-3.4-31.7-3.4-32.1a0.9,0.9,0,0,0-1-1" transform="translate(-1.1 -1.1)" fill="#c9c8c8"/><path d="M190.2,123.8c-1.2,5.3-7.8,29.6-22.3,29.6-9.2,0-15.2-6.8-18.5-12.4s-10-27.9-6-48.9,14.2-38.6,28.4-38.6c12.4,0,17.8,18.7,19,23.5a1.3,1.3,0,0,0,1.4,1L217.1,75a1.3,1.3,0,0,0,1.3-1.2c0-.2.8-66.5,0.9-67.4A1.3,1.3,0,0,0,218,5.1c-7.2.9-20.2,2.9-21.5,3.2a1.4,1.4,0,0,0-1.2,1.4s-0.9,11.1-.8,11.8-0.4,1.1-1.2.5a41.3,41.3,0,0,0-11.8-6.4h-0.1l-1-.3h-0.2L179,15h-0.2l-2.6-.6h-6a32.4,32.4,0,0,0-14.8,3.9h-0.1l-2,1.1h0L151.5,20l-0.3.2-3.1,2.2h0A72,72,0,0,0,130.7,42c-6.3,10.7-13.5,27.3-16.7,49.5s-2.4,42.4,6.4,62.4,24.8,39.9,47.8,39.9,33.3-16.7,41.7-33.3c7.2-14.2,10.6-33,11.4-38.1a0.9,0.9,0,0,0-.9-1.3l-28.8,1.7a1.5,1.5,0,0,0-1.4,1" transform="translate(-1.1 -1.1)" fill="#c9c8c8"/><path d="M288,92.8H272.3a0.9,0.9,0,0,1-1-1.2c0.2-1.2,8.5-47.7,8.5-48.2s0.8-.8.9,0l8.3,48.2s0.3,1.2-1.2,1.2m46.3,58.8h-6.3a1.1,1.1,0,0,1-1-1L308.8,42.7a0.9,0.9,0,0,1,1-1.2h9.3a1.1,1.1,0,0,0,1-1.2c0-1.2,0-35.9,0-36.3s0.1-1.3-1.4-1.4c-9.8-.6-22.3-0.8-32.3-0.8-13.3,0-29-.3-42.1.7A1.3,1.3,0,0,0,243,3.7c0,0.9,0,34.7,0,35.8a1.1,1.1,0,0,0,1,1.1l8.9,0.8a0.9,0.9,0,0,1,1,1.1c-0.1.6-19.9,107.4-20,108.2a1.2,1.2,0,0,1-1.2,1l-6.9.2a0.9,0.9,0,0,0-1,1.1c0,0.3-4.3,37.7-4.3,37.7a1,1,0,0,0,1.2,1.1h47.7a1.1,1.1,0,0,0,1.2-1.1c0-1.1,0-38.4,0-38.4a0.8,0.8,0,0,0-.8-1H262a0.7,0.7,0,0,1-.7-0.9l5-24.8s0-.8,1.2-0.8h25a1.2,1.2,0,0,1,1.2,1.1l3,24.2a0.8,0.8,0,0,1-.8,1.1h-8.1a0.9,0.9,0,0,0-.9.9c0,0.8,0,37.3,0,38.4a1.2,1.2,0,0,0,1.4,1.3h45.8a1.3,1.3,0,0,0,1.4-1.3c0-.5,0-37.7,0-37.7a1.2,1.2,0,0,0-1.3-1.2" transform="translate(-1.1 -1.1)" fill="#c9c8c8"/><path d="M409,18s0,31,0,31.4a1.4,1.4,0,0,0,1,1.5l7.2,1.8a1.2,1.2,0,0,1,1,1.3s0,50,0,50.8a0.5,0.5,0,0,1-1,.2c-0.3-1.1-29.7-91.8-29.7-91.8a2.1,2.1,0,0,0-1.6-1.4c-12.6-2.5-28.7-6.2-41.7-7.8a1.1,1.1,0,0,0-1.5,1V39a1.2,1.2,0,0,0,1.3,1.4l10.2,2.1a1,1,0,0,1,.9,1.2V150.9a1.1,1.1,0,0,1-1.2,1.1l-7.4-.2a1.1,1.1,0,0,0-1.1,1.2s0,37.1,0,37.4a1.3,1.3,0,0,0,1.4,1.3h43.6a1.5,1.5,0,0,0,1.4-1.4c0-.4,0-35.8,0-35.8a1.1,1.1,0,0,0-1.1-1.3l-7.2-.3a1,1,0,0,1-1.1-1.2V87.7s0.4-1.9,1,0l35.2,102.5a2.3,2.3,0,0,0,2.2,1.7H451a1.3,1.3,0,0,0,1.3-1.1c0-.3,0-32.6,0-32.6a1.3,1.3,0,0,0-1.2-1.4l-4-.3a1,1,0,0,1-1.2-1.2V61.1a0.8,0.8,0,0,1,1.1-1l7.5,1.7a0.9,0.9,0,0,0,1.2-1c0-.3,0-28.3,0-28.3a1.9,1.9,0,0,0-1.2-1.9Q433,23,410.4,17.2c-1.4-.4-1.4.7-1.4,0.7" transform="translate(-1.1 -1.1)" fill="#c9c8c8"/><path d="M520.2,125c-5.1-1.1-11.2-2.2-16.4-3.2-1.7-.3-1.1-2.1-1.1-2.1s6.2-35.9,6.2-36.2a0.6,0.6,0,0,1,1.2,0l11.2,40.1s0.7,1.8-1,1.4m48.1,43.9c-2.3-.3-2.9-0.6-5.2-0.9a1.9,1.9,0,0,1-1.6-1.4L539.7,94.1c-0.4-.9.2-1.2,0.7-1l6.3,2.9a0.8,0.8,0,0,0,1.2-.9c0-.3,0-17.8,0-17.8a2.3,2.3,0,0,0-1-2c-21.6-13.8-46.6-25.9-71.2-36.1a0.8,0.8,0,0,0-1.4.8s0,24.5,0,25.4a1.5,1.5,0,0,0,.8,1.4l8.6,3.9a1.4,1.4,0,0,1,.6,1.4L470.9,157a1.2,1.2,0,0,1-1.4,1l-6.2-.5c-1.3-.2-1.3,1.3-1.3,1.3v31.6a1.3,1.3,0,0,0,1.4,1.4h40.8a1.4,1.4,0,0,0,1.4-1.4c0-.2,0-27.8,0-27.8a1.3,1.3,0,0,0-1.2-1.5l-7.5-.9a0.8,0.8,0,0,1-1-1.1l2.8-15.6a1.1,1.1,0,0,1,1.4-1q13.9,2.4,27.3,5.1A1.8,1.8,0,0,1,529,149l4.3,13.8s0.5,1.3-.6,1.1l-6.4-.7a1,1,0,0,0-1,1.1s0,25.4,0,26.3,0.6,1.1,1.5,1.1h43.4a1.3,1.3,0,0,0,1.4-1.3c0-.4-1.7-19.9-1.7-19.9a1.6,1.6,0,0,0-1.4-1.7" transform="translate(-1.1 -1.1)" fill="#c9c8c8"/><path d="M66.9,122.7c-5.4,1.1-11.9,2.3-17.2,3.5-0.6.1-1.1,0-.9-1.1S60.3,85,60.8,83.5s1-.9,1.1-0.2,5.6,37.2,5.7,38.2-0.4,1.1-.7,1.2m42.9,34.9-6.9.5a1.1,1.1,0,0,1-1.1-1c-0.1-.5-12.6-85.3-12.6-85.3a1.4,1.4,0,0,1,.8-1.7l8.5-3.6a1.5,1.5,0,0,0,1-1.2c0-.9,0-26.7,0-27.6s-0.6-1-1-.8a462.6,462.6,0,0,0-71.7,36,1.8,1.8,0,0,0-.9,1.6V94.4a0.9,0.9,0,0,0,1.2.9l6.7-2.6c0.2-.1.8-0.2,0.5,0.5s-20.6,66-23.3,74.1a1.7,1.7,0,0,1-1.2.9l-6.4,1a1.1,1.1,0,0,0-.9,1s-0.8,19.4-.9,20.5a1.1,1.1,0,0,0,1,1.2H44a1.2,1.2,0,0,0,1.3-1.2c0-.5,0-25.5,0-25.9a0.8,0.8,0,0,0-1-1l-6.9.8a0.7,0.7,0,0,1-.7-0.9l4.4-13.8a1.8,1.8,0,0,1,1.3-1.1c1.1-.3,17.9-3.6,27.2-5.3a0.9,0.9,0,0,1,1.1.8c0.2,0.9,2.3,14.5,2.4,15.4a1,1,0,0,1-1,1.2l-6.1.8a1.3,1.3,0,0,0-1.2,1.3s0.1,27,0,27.9a1.1,1.1,0,0,0,1.1,1.1h47.1a1.1,1.1,0,0,0,1.1-1.2c0-1-3.4-31.7-3.4-32.1a0.9,0.9,0,0,0-1-1" transform="translate(-1.1 -1.1)" fill="#c9c8c8"/><path d="M66.9,122.7c-5.4,1.1-11.9,2.3-17.2,3.5-0.6.1-1.1,0-.9-1.1S60.3,85,60.8,83.5s1-.9,1.1-0.2,5.6,37.2,5.7,38.2S67.2,122.6,66.9,122.7Zm42.9,34.9-6.9.5a1.1,1.1,0,0,1-1.1-1c-0.1-.5-12.6-85.3-12.6-85.3a1.4,1.4,0,0,1,.8-1.7l8.5-3.6a1.5,1.5,0,0,0,1-1.2c0-.9,0-26.7,0-27.6s-0.6-1-1-.8a462.6,462.6,0,0,0-71.7,36,1.8,1.8,0,0,0-.9,1.6V94.4a0.9,0.9,0,0,0,1.2.9l6.7-2.6c0.2-.1.8-0.2,0.5,0.5s-20.6,66-23.3,74.1a1.7,1.7,0,0,1-1.2.9l-6.4,1a1.1,1.1,0,0,0-.9,1s-0.8,19.4-.9,20.5a1.1,1.1,0,0,0,1,1.2H44a1.2,1.2,0,0,0,1.3-1.2c0-.5,0-25.5,0-25.9a0.8,0.8,0,0,0-1-1l-6.9.8a0.7,0.7,0,0,1-.7-0.9l4.4-13.8a1.8,1.8,0,0,1,1.3-1.1c1.1-.3,17.9-3.6,27.2-5.3a0.9,0.9,0,0,1,1.1.8c0.2,0.9,2.3,14.5,2.4,15.4a1,1,0,0,1-1,1.2l-6.1.8a1.3,1.3,0,0,0-1.2,1.3s0.1,27,0,27.9a1.1,1.1,0,0,0,1.1,1.1h47.1a1.1,1.1,0,0,0,1.1-1.2c0-1-3.4-31.7-3.4-32.1A0.9,0.9,0,0,0,109.8,157.6Z" transform="translate(-1.1 -1.1)" fill="none" stroke="#fff" stroke-linecap="round" stroke-linejoin="round" stroke-width="1.15"/><path d="M190.2,123.8c-1.2,5.3-7.8,29.6-22.3,29.6-9.2,0-15.2-6.8-18.5-12.4s-10-27.9-6-48.9,14.2-38.6,28.4-38.6c12.4,0,17.8,18.7,19,23.5a1.3,1.3,0,0,0,1.4,1L217.1,75a1.3,1.3,0,0,0,1.3-1.2c0-.2.8-66.5,0.9-67.4A1.3,1.3,0,0,0,218,5.1c-7.2.9-20.2,2.9-21.5,3.2a1.4,1.4,0,0,0-1.2,1.4s-0.9,11.1-.8,11.8-0.4,1.1-1.2.5a41.3,41.3,0,0,0-11.8-6.4h-0.1l-1-.3h-0.2L179,15h-0.2l-2.6-.6h-6a32.4,32.4,0,0,0-14.8,3.9h-0.1l-2,1.1h0L151.5,20l-0.3.2-3.1,2.2h0A72,72,0,0,0,130.7,42c-6.3,10.7-13.5,27.3-16.7,49.5s-2.4,42.4,6.4,62.4,24.8,39.9,47.8,39.9,33.3-16.7,41.7-33.3c7.2-14.2,10.6-33,11.4-38.1a0.9,0.9,0,0,0-.9-1.3l-28.8,1.7a1.5,1.5,0,0,0-1.4,1" transform="translate(-1.1 -1.1)" fill="#c9c8c8"/><path d="M190.2,123.8c-1.2,5.3-7.8,29.6-22.3,29.6-9.2,0-15.2-6.8-18.5-12.4s-10-27.9-6-48.9,14.2-38.6,28.4-38.6c12.4,0,17.8,18.7,19,23.5a1.3,1.3,0,0,0,1.4,1L217.1,75a1.3,1.3,0,0,0,1.3-1.2c0-.2.8-66.5,0.9-67.4A1.3,1.3,0,0,0,218,5.1c-7.2.9-20.2,2.9-21.5,3.2a1.4,1.4,0,0,0-1.2,1.4s-0.9,11.1-.8,11.8-0.4,1.1-1.2.5a41.3,41.3,0,0,0-11.8-6.4h-0.1l-1-.3h-0.2L179,15h-0.2l-2.6-.6h-6a32.4,32.4,0,0,0-14.8,3.9h-0.1l-2,1.1h0L151.5,20l-0.3.2-3.1,2.2h0A72,72,0,0,0,130.7,42c-6.3,10.7-13.5,27.3-16.7,49.5s-2.4,42.4,6.4,62.4,24.8,39.9,47.8,39.9,33.3-16.7,41.7-33.3c7.2-14.2,10.6-33,11.4-38.1a0.9,0.9,0,0,0-.9-1.3l-28.8,1.7A1.5,1.5,0,0,0,190.2,123.8Z" transform="translate(-1.1 -1.1)" fill="none" stroke="#fff" stroke-linecap="round" stroke-linejoin="round" stroke-width="1.15"/><path d="M288,92.8H272.3a0.9,0.9,0,0,1-1-1.2c0.2-1.2,8.5-47.7,8.5-48.2s0.8-.8.9,0l8.3,48.2s0.3,1.2-1.2,1.2m46.3,58.8h-6.3a1.1,1.1,0,0,1-1-1L308.8,42.7a0.9,0.9,0,0,1,1-1.2h9.3a1.1,1.1,0,0,0,1-1.2c0-1.2,0-35.9,0-36.3s0.1-1.3-1.4-1.4c-9.8-.6-22.3-0.8-32.3-0.8-13.3,0-29-.3-42.1.7A1.3,1.3,0,0,0,243,3.7c0,0.9,0,34.7,0,35.8a1.1,1.1,0,0,0,1,1.1l8.9,0.8a0.9,0.9,0,0,1,1,1.1c-0.1.6-19.9,107.4-20,108.2a1.2,1.2,0,0,1-1.2,1l-6.9.2a0.9,0.9,0,0,0-1,1.1c0,0.3-4.3,37.7-4.3,37.7a1,1,0,0,0,1.2,1.1h47.7a1.1,1.1,0,0,0,1.2-1.1c0-1.1,0-38.4,0-38.4a0.8,0.8,0,0,0-.8-1H262a0.7,0.7,0,0,1-.7-0.9l5-24.8s0-.8,1.2-0.8h25a1.2,1.2,0,0,1,1.2,1.1l3,24.2a0.8,0.8,0,0,1-.8,1.1h-8.1a0.9,0.9,0,0,0-.9.9c0,0.8,0,37.3,0,38.4a1.2,1.2,0,0,0,1.4,1.3h45.8a1.3,1.3,0,0,0,1.4-1.3c0-.5,0-37.7,0-37.7a1.2,1.2,0,0,0-1.3-1.2" transform="translate(-1.1 -1.1)" fill="#c9c8c8"/><path d="M288,92.8H272.3a0.9,0.9,0,0,1-1-1.2c0.2-1.2,8.5-47.7,8.5-48.2s0.8-.8.9,0l8.3,48.2S289.5,92.8,288,92.8Zm46.3,58.8h-6.3a1.1,1.1,0,0,1-1-1L308.8,42.7a0.9,0.9,0,0,1,1-1.2h9.3a1.1,1.1,0,0,0,1-1.2c0-1.2,0-35.9,0-36.3s0.1-1.3-1.4-1.4c-9.8-.6-22.3-0.8-32.3-0.8-13.3,0-29-.3-42.1.7A1.3,1.3,0,0,0,243,3.7c0,0.9,0,34.7,0,35.8a1.1,1.1,0,0,0,1,1.1l8.9,0.8a0.9,0.9,0,0,1,1,1.1c-0.1.6-19.9,107.4-20,108.2a1.2,1.2,0,0,1-1.2,1l-6.9.2a0.9,0.9,0,0,0-1,1.1c0,0.3-4.3,37.7-4.3,37.7a1,1,0,0,0,1.2,1.1h47.7a1.1,1.1,0,0,0,1.2-1.1c0-1.1,0-38.4,0-38.4a0.8,0.8,0,0,0-.8-1H262a0.7,0.7,0,0,1-.7-0.9l5-24.8s0-.8,1.2-0.8h25a1.2,1.2,0,0,1,1.2,1.1l3,24.2a0.8,0.8,0,0,1-.8,1.1h-8.1a0.9,0.9,0,0,0-.9.9c0,0.8,0,37.3,0,38.4a1.2,1.2,0,0,0,1.4,1.3h45.8a1.3,1.3,0,0,0,1.4-1.3c0-.5,0-37.7,0-37.7A1.2,1.2,0,0,0,334.2,151.6Z" transform="translate(-1.1 -1.1)" fill="none" stroke="#fff" stroke-linecap="round" stroke-linejoin="round" stroke-width="1.15"/><path d="M409,18s0,31,0,31.4a1.4,1.4,0,0,0,1,1.5l7.2,1.8a1.2,1.2,0,0,1,1,1.3s0,50,0,50.8a0.5,0.5,0,0,1-1,.2c-0.3-1.1-29.7-91.8-29.7-91.8a2.1,2.1,0,0,0-1.6-1.4c-12.6-2.5-28.7-6.2-41.7-7.8a1.1,1.1,0,0,0-1.5,1V39a1.2,1.2,0,0,0,1.3,1.4l10.2,2.1a1,1,0,0,1,.9,1.2V150.9a1.1,1.1,0,0,1-1.2,1.1l-7.4-.2a1.1,1.1,0,0,0-1.1,1.2s0,37.1,0,37.4a1.3,1.3,0,0,0,1.4,1.3h43.6a1.5,1.5,0,0,0,1.4-1.4c0-.4,0-35.8,0-35.8a1.1,1.1,0,0,0-1.1-1.3l-7.2-.3a1,1,0,0,1-1.1-1.2V87.7s0.4-1.9,1,0l35.2,102.5a2.3,2.3,0,0,0,2.2,1.7H451a1.3,1.3,0,0,0,1.3-1.1c0-.3,0-32.6,0-32.6a1.3,1.3,0,0,0-1.2-1.4l-4-.3a1,1,0,0,1-1.2-1.2V61.1a0.8,0.8,0,0,1,1.1-1l7.5,1.7a0.9,0.9,0,0,0,1.2-1c0-.3,0-28.3,0-28.3a1.9,1.9,0,0,0-1.2-1.9Q433,23,410.4,17.2c-1.4-.4-1.4.7-1.4,0.7" transform="translate(-1.1 -1.1)" fill="#c9c8c8"/><path d="M409,18s0,31,0,31.4a1.4,1.4,0,0,0,1,1.5l7.2,1.8a1.2,1.2,0,0,1,1,1.3s0,50,0,50.8a0.5,0.5,0,0,1-1,.2c-0.3-1.1-29.7-91.8-29.7-91.8a2.1,2.1,0,0,0-1.6-1.4c-12.6-2.5-28.7-6.2-41.7-7.8a1.1,1.1,0,0,0-1.5,1V39a1.2,1.2,0,0,0,1.3,1.4l10.2,2.1a1,1,0,0,1,.9,1.2V150.9a1.1,1.1,0,0,1-1.2,1.1l-7.4-.2a1.1,1.1,0,0,0-1.1,1.2s0,37.1,0,37.4a1.3,1.3,0,0,0,1.4,1.3h43.6a1.5,1.5,0,0,0,1.4-1.4c0-.4,0-35.8,0-35.8a1.1,1.1,0,0,0-1.1-1.3l-7.2-.3a1,1,0,0,1-1.1-1.2V87.7s0.4-1.9,1,0l35.2,102.5a2.3,2.3,0,0,0,2.2,1.7H451a1.3,1.3,0,0,0,1.3-1.1c0-.3,0-32.6,0-32.6a1.3,1.3,0,0,0-1.2-1.4l-4-.3a1,1,0,0,1-1.2-1.2V61.1a0.8,0.8,0,0,1,1.1-1l7.5,1.7a0.9,0.9,0,0,0,1.2-1c0-.3,0-28.3,0-28.3a1.9,1.9,0,0,0-1.2-1.9Q433,23,410.4,17.2C409,16.8,409,18,409,18Z" transform="translate(-1.1 -1.1)" fill="none" stroke="#fff" stroke-linecap="round" stroke-linejoin="round" stroke-width="1.15"/><path d="M520.2,125c-5.1-1.1-11.2-2.2-16.4-3.2-1.7-.3-1.1-2.1-1.1-2.1s6.2-35.9,6.2-36.2a0.6,0.6,0,0,1,1.2,0l11.2,40.1s0.7,1.8-1,1.4m48.1,43.9c-2.3-.3-2.9-0.6-5.2-0.9a1.9,1.9,0,0,1-1.6-1.4L539.7,94.1c-0.4-.9.2-1.2,0.7-1l6.3,2.9a0.8,0.8,0,0,0,1.2-.9c0-.3,0-17.8,0-17.8a2.3,2.3,0,0,0-1-2c-21.6-13.8-46.6-25.9-71.2-36.1a0.8,0.8,0,0,0-1.4.8s0,24.5,0,25.4a1.5,1.5,0,0,0,.8,1.4l8.6,3.9a1.4,1.4,0,0,1,.6,1.4L470.9,157a1.2,1.2,0,0,1-1.4,1l-6.2-.5c-1.3-.2-1.3,1.3-1.3,1.3v31.6a1.3,1.3,0,0,0,1.4,1.4h40.8a1.4,1.4,0,0,0,1.4-1.4c0-.2,0-27.8,0-27.8a1.3,1.3,0,0,0-1.2-1.5l-7.5-.9a0.8,0.8,0,0,1-1-1.1l2.8-15.6a1.1,1.1,0,0,1,1.4-1q13.9,2.4,27.3,5.1A1.8,1.8,0,0,1,529,149l4.3,13.8s0.5,1.3-.6,1.1l-6.4-.7a1,1,0,0,0-1,1.1s0,25.4,0,26.3,0.6,1.1,1.5,1.1h43.4a1.3,1.3,0,0,0,1.4-1.3c0-.4-1.7-19.9-1.7-19.9a1.6,1.6,0,0,0-1.4-1.7" transform="translate(-1.1 -1.1)" fill="#c9c8c8"/><path d="M520.2,125c-5.1-1.1-11.2-2.2-16.4-3.2-1.7-.3-1.1-2.1-1.1-2.1s6.2-35.9,6.2-36.2a0.6,0.6,0,0,1,1.2,0l11.2,40.1S521.9,125.5,520.2,125Zm48.1,43.9c-2.3-.3-2.9-0.6-5.2-0.9a1.9,1.9,0,0,1-1.6-1.4L539.7,94.1c-0.4-.9.2-1.2,0.7-1l6.3,2.9a0.8,0.8,0,0,0,1.2-.9c0-.3,0-17.8,0-17.8a2.3,2.3,0,0,0-1-2c-21.6-13.8-46.6-25.9-71.2-36.1a0.8,0.8,0,0,0-1.4.8s0,24.5,0,25.4a1.5,1.5,0,0,0,.8,1.4l8.6,3.9a1.4,1.4,0,0,1,.6,1.4L470.9,157a1.2,1.2,0,0,1-1.4,1l-6.2-.5c-1.3-.2-1.3,1.3-1.3,1.3v31.6a1.3,1.3,0,0,0,1.4,1.4h40.8a1.4,1.4,0,0,0,1.4-1.4c0-.2,0-27.8,0-27.8a1.3,1.3,0,0,0-1.2-1.5l-7.5-.9a0.8,0.8,0,0,1-1-1.1l2.8-15.6a1.1,1.1,0,0,1,1.4-1q13.9,2.4,27.3,5.1A1.8,1.8,0,0,1,529,149l4.3,13.8s0.5,1.3-.6,1.1l-6.4-.7a1,1,0,0,0-1,1.1s0,25.4,0,26.3,0.6,1.1,1.5,1.1h43.4a1.3,1.3,0,0,0,1.4-1.3c0-.4-1.7-19.9-1.7-19.9A1.6,1.6,0,0,0,568.3,168.9Z" transform="translate(-1.1 -1.1)" fill="none" stroke="#fff" stroke-linecap="round" stroke-linejoin="round" stroke-width="1.15"/><path d="M560.5,83.8h1c0.6,0,1.1-.1,1.1-0.8s-0.6-.7-1.1-0.7h-0.9v1.5Zm-1.1-2.3h2.1c1.4,0,2.2.4,2.2,1.6a1.4,1.4,0,0,1-1.5,1.5l1.5,2.4h-1.2l-1.3-2.4h-0.7V87h-1.1V81.4Zm2,6.7a3.9,3.9,0,1,0-3.7-3.9,3.8,3.8,0,0,0,3.7,3.9m0-8.9a5,5,0,1,1-5.1,5,4.9,4.9,0,0,1,5.1-5" transform="translate(-1.1 -1.1)" fill="#c9c8c8"/></svg>