<svg xmlns="http://www.w3.org/2000/svg" viewBox="0 0 168 51">
    <path fill="#4E6EC3" fill-rule="evenodd" d="M5.148 0h157.013c2.844 0 5.148 2.283 5.148 5.1v40.8c0 2.817-2.304 5.1-5.148 5.1H5.148C2.305 51 0 48.717 0 45.9V5.1C0 2.283 2.305 0 5.148 0z"/>
    <path fill="#FFF" fill-rule="evenodd" d="M127.466 14.629v.039c0 1.348.781 2.177 1.975 2.177.903 0 1.545-.453 1.723-1.105h.731c-.179 1.016-1.166 1.751-2.471 1.751-1.662 0-2.722-1.154-2.722-3.028 0-1.845 1.06-3.055 2.677-3.055 1.579 0 2.594 1.133 2.594 2.901v.32h-4.507zm1.902-2.575c-1.076 0-1.835.796-1.902 1.979h3.737c-.011-1.183-.747-1.979-1.835-1.979zm.676 19.445v.551h-7.743v.066c0 2.317 1.341 3.741 3.392 3.741 1.553 0 2.655-.779 2.961-1.899h1.256c-.307 1.747-2.003 3.009-4.246 3.009-2.856 0-4.676-1.984-4.676-5.202 0-3.171 1.82-5.25 4.6-5.25 2.712 0 4.456 1.946 4.456 4.984zm-4.476-3.874c-1.849 0-3.152 1.368-3.267 3.399h6.42c-.019-2.031-1.284-3.399-3.153-3.399zm-1.342-13.896c0-1.039-.647-1.669-1.673-1.669-1.088 0-1.835.763-1.835 1.895v3.47h-.736V9.104h.736v3.481h.016c.335-.74 1.06-1.177 2.025-1.177 1.316 0 2.209.873 2.209 2.205v3.812h-.742v-3.696zm-4.182 14.143c-.163-.076-.585-.152-.94-.152-1.466 0-2.405 1.14-2.405 2.792v6.342h-1.265V26.629h1.188v1.813h.039c.354-1.215 1.332-1.927 2.616-1.927.268 0 .604.057.767.104v1.253zm-2.861-11.911v-3.873h-.858v-.614h.858v-1.425h.737v1.425h1.204v.614h-1.204v3.845c0 .619.245.884.803.884.078 0 .385-.016.429-.022v.624c-.078.023-.418.039-.574.039-.993 0-1.395-.425-1.395-1.497zm-8.2 21.006c-2.836 0-4.686-2.041-4.686-5.231s1.85-5.221 4.686-5.221c2.837 0 4.696 2.031 4.696 5.221s-1.859 5.231-4.696 5.231zm0-9.332c-2.089 0-3.392 1.557-3.392 4.101 0 2.554 1.303 4.102 3.392 4.102 2.099 0 3.402-1.548 3.402-4.102 0-2.554-1.303-4.101-3.402-4.101zm2.844-13.923c0-1.05-.619-1.652-1.64-1.652-1.071 0-1.79.757-1.79 1.868v3.497h-.737v-5.951h.692v1.111h.022c.335-.74 1.049-1.177 2.019-1.177 1.322 0 2.17.84 2.17 2.188v3.829h-.736v-3.713zm-7.958 3.779c-1.651 0-2.727-1.188-2.727-3.044 0-1.857 1.076-3.039 2.727-3.039 1.651 0 2.733 1.182 2.733 3.039 0 1.856-1.082 3.044-2.733 3.044zm0-5.431c-1.216 0-1.974.906-1.974 2.387 0 1.486.758 2.387 1.974 2.387 1.221 0 1.98-.901 1.98-2.387s-.759-2.387-1.98-2.387zm-2.307 12.119v2.45h2.07v1.053h-2.07v6.608c0 1.064.422 1.519 1.38 1.519.134 0 .661-.028.738-.038v1.073c-.134.038-.719.067-.987.067-1.706 0-2.396-.732-2.396-2.573v-6.656h-1.476v-1.053h1.476v-2.45h1.265zm-9.117 4.88l1.495.38c2.779.693 3.949 1.747 3.949 3.655 0 2.402-1.955 3.978-5.012 3.978-2.895 0-4.926-1.586-5.07-3.94h1.313c.144 1.642 1.706 2.763 3.872 2.763 2.07 0 3.555-1.121 3.555-2.659 0-1.281-.891-2.041-2.942-2.554l-1.716-.436c-2.558-.646-3.699-1.719-3.699-3.523 0-2.212 2.013-3.788 4.734-3.788 2.693 0 4.668 1.576 4.744 3.75h-1.313c-.124-1.547-1.504-2.572-3.469-2.572-1.917 0-3.335 1.053-3.335 2.563 0 1.177.863 1.87 2.894 2.383zm4.371-12.899H96.8c-.346.806-1.11 1.331-2.086 1.331-1.506 0-2.571-1.226-2.571-3.044s1.059-3.039 2.554-3.039c.971 0 1.74.519 2.064 1.287h.016V9.104h.742v8.321h-.703V16.16zm-1.985-4.1c-1.149 0-1.935.956-1.935 2.387 0 1.436.786 2.387 1.935 2.387 1.154 0 1.952-.967 1.952-2.387 0-1.409-.798-2.387-1.952-2.387zm-4.885 4.227h-.017c-.323.724-1.137 1.204-2.057 1.204-1.2 0-2.014-.696-2.014-1.724 0-1.016.77-1.607 2.209-1.707l1.846-.121v-.509c0-.867-.552-1.37-1.523-1.37-.836 0-1.422.425-1.556 1.133h-.708c.061-1.045 1.009-1.785 2.27-1.785 1.377 0 2.253.763 2.253 1.961v4.056h-.703v-1.138zm-.033-1.757l-1.757.121c-1.01.067-1.545.453-1.545 1.122 0 .641.569 1.077 1.406 1.077 1.076 0 1.896-.723 1.896-1.663v-.657zm-8.11 2.961c-1.651 0-2.727-1.188-2.727-3.044 0-1.857 1.076-3.039 2.727-3.039 1.651 0 2.733 1.182 2.733 3.039 0 1.856-1.082 3.044-2.733 3.044zm0-5.431c-1.216 0-1.974.906-1.974 2.387 0 1.486.758 2.387 1.974 2.387 1.221 0 1.98-.901 1.98-2.387s-.759-2.387-1.98-2.387zM77.22 9.104h.736v8.321h-.736V9.104zm-1.615 4.608c0-1.05-.619-1.652-1.64-1.652-1.071 0-1.79.757-1.79 1.868v3.497h-.736v-5.951h.691v1.111h.023c.334-.74 1.048-1.177 2.019-1.177 1.321 0 2.169.84 2.169 2.188v3.829h-.736v-3.713zm-7.047 3.713l-1.506-4.956h-.017l-1.505 4.956h-.776l-1.712-5.951h.742l1.361 5.122h.016l1.506-5.122h.748l1.511 5.122h.017l1.361-5.122h.741l-1.712 5.951h-.775zm-2.16 9.09c2.607 0 4.399 2.107 4.399 5.221 0 3.124-1.783 5.231-4.38 5.231-1.658 0-2.951-.892-3.526-2.221h-.029v5.459h-1.265V26.629h1.198v2.117h.029c.546-1.301 1.935-2.231 3.574-2.231zm-.22 9.323c1.993 0 3.325-1.633 3.325-4.092 0-2.459-1.332-4.111-3.325-4.111-1.965 0-3.326 1.68-3.326 4.101 0 2.44 1.361 4.102 3.326 4.102zm-6.266-18.347c-1.651 0-2.728-1.188-2.728-3.044 0-1.857 1.077-3.039 2.728-3.039 1.65 0 2.732 1.182 2.732 3.039 0 1.856-1.082 3.044-2.732 3.044zm0-5.431c-1.216 0-1.975.906-1.975 2.387 0 1.486.759 2.387 1.975 2.387 1.221 0 1.979-.901 1.979-2.387s-.758-2.387-1.979-2.387zm-7.204 5.365h-2.649V9.452h2.649c2.41 0 3.815 1.464 3.815 3.984 0 2.525-1.4 3.989-3.815 3.989zm-.044-7.288h-1.841v6.603h1.841c1.98 0 3.084-1.183 3.084-3.299 0-2.121-1.104-3.304-3.084-3.304zm2.622 13.017l5.166 13.7h-1.38l-1.534-4.197h-5.807l-1.534 4.197h-1.389l5.175-13.7h1.303zm1.859 8.383l-2.482-6.779h-.057l-2.482 6.779h5.021zm17.075-2.791h.029c.546-1.301 1.936-2.231 3.575-2.231 2.606 0 4.398 2.107 4.398 5.221 0 3.124-1.782 5.231-4.379 5.231-1.658 0-2.952-.892-3.527-2.221h-.029v5.459h-1.265V26.629h1.198v2.117zm3.383 7.092c1.993 0 3.326-1.633 3.326-4.092 0-2.459-1.333-4.111-3.326-4.111-1.964 0-3.325 1.68-3.325 4.101 0 2.44 1.361 4.102 3.325 4.102z"/>
    <path fill="none" stroke="#FFF" d="M31.014 15.597c3.679 0 6.032 3.496 6.032 3.496s-3.589 1.912-3.589 6.066c0 4.93 4.509 6.365 4.509 6.365s-3.559 8.292-7.556 8.292c-2.247 0-2.398-1.27-5.384-1.27-2.594 0-3.469 1.27-5.445 1.27-3.77 0-8.642-8.083-8.642-14.657 0-6.828 4.932-9.562 8.024-9.562 2.715 0 3.846 1.568 6.033 1.568 1.84 0 3.288-1.568 6.018-1.568zm-.634-6.964c.543 3.347-2.549 7.486-6.244 7.352-.543-4.259 3.439-7.127 6.244-7.352z"/>
</svg>
