<svg xmlns="http://www.w3.org/2000/svg" width="53" height="48" viewBox="0 0 53 48">
  <metadata><?xpacket begin="﻿" id="W5M0MpCehiHzreSzNTczkc9d"?>
<x:xmpmeta xmlns:x="adobe:ns:meta/" x:xmptk="Adobe XMP Core 5.6-c138 79.159824, 2016/09/14-01:09:01        ">
   <rdf:RDF xmlns:rdf="http://www.w3.org/1999/02/22-rdf-syntax-ns#">
      <rdf:Description rdf:about=""/>
   </rdf:RDF>
</x:xmpmeta>
                                                                                                    
                                                                                                    
                                                                                                    
                                                                                                    
                                                                                                    
                                                                                                    
                                                                                                    
                                                                                                    
                                                                                                    
                                                                                                    
                                                                                                    
                                                                                                    
                                                                                                    
                                                                                                    
                                                                                                    
                                                                                                    
                                                                                                    
                                                                                                    
                                                                                                    
                                                                                                    
                           
<?xpacket end="w"?></metadata>
<defs>
    <style>
      .cls-1 {
        fill: #3252a6;
        fill-rule: evenodd;
      }
    </style>
  </defs>
  <path class="cls-1" d="M1167.77,82a1.8,1.8,0,0,0,0,3.6h5.87c2.92,7.379,5.8,14.771,8.7,22.163l-2.67,6.543a1.882,1.882,0,0,0,.16,1.7,1.8,1.8,0,0,0,1.48.8h29.44a1.8,1.8,0,0,0,0-3.6h-26.79l1.53-3.712,28.35-2.307a1.828,1.828,0,0,0,1.59-1.387l3.53-15.6A1.875,1.875,0,0,0,1217.23,88h-38.85l-1.91-4.875A1.811,1.811,0,0,0,1174.83,82h-7.06Zm12.03,9.6H1215l-2.74,12.112-26.85,2.176Zm7.4,26.4a6,6,0,1,0,5.89,6A5.975,5.975,0,0,0,1187.2,118Zm17.66,0a6,6,0,1,0,5.89,6A5.966,5.966,0,0,0,1204.86,118Zm-17.66,3.6a2.4,2.4,0,1,1-2.36,2.4A2.348,2.348,0,0,1,1187.2,121.6Zm17.66,0a2.4,2.4,0,1,1-2.35,2.4A2.35,2.35,0,0,1,1204.86,121.6Z" transform="translate(-1166 -82)"/>
</svg>
