<svg
    xmlns="http://www.w3.org/2000/svg"
    viewBox="0 0 17 16">
    <path fill-rule="evenodd"  fill="rgb(44, 217, 188)"
          d="M14.719,10.000 L10.719,10.000 L10.719,14.000 C10.719,15.104 9.823,16.000 8.719,16.000 C7.614,16.000 6.719,15.104 6.719,14.000 L6.719,10.000 L2.719,10.000 C1.614,10.000 0.719,9.105 0.719,8.000 C0.719,6.895 1.614,6.000 2.719,6.000 L6.719,6.000 L6.719,2.000 C6.719,0.895 7.614,-0.000 8.719,-0.000 C9.823,-0.000 10.719,0.895 10.719,2.000 L10.719,6.000 L14.719,6.000 C15.823,6.000 16.719,6.895 16.719,8.000 C16.719,9.105 15.823,10.000 14.719,10.000 Z"/>
</svg>
