<svg
    xmlns="http://www.w3.org/2000/svg"
    xmlns:xlink="http://www.w3.org/1999/xlink"
    viewBox="0 0 168 51">
    <path fill-rule="evenodd"  fill="rgb(78, 110, 195)"
          d="M5.839,0.000 L162.852,0.000 C165.695,0.000 168.000,2.283 168.000,5.100 L168.000,45.900 C168.000,48.717 165.695,51.000 162.852,51.000 L5.839,51.000 C2.995,51.000 0.691,48.717 0.691,45.900 L0.691,5.100 C0.691,2.283 2.995,0.000 5.839,0.000 Z"/>
    <path fill-rule="evenodd"  fill="rgb(255, 255, 255)"
          d="M144.742,41.318 L142.469,41.318 L145.486,35.645 L141.627,28.650 L144.056,28.650 L146.603,33.488 L149.032,28.650 L151.304,28.650 L144.742,41.318 ZM138.298,36.344 C137.945,36.752 137.162,37.510 135.673,37.510 C133.029,37.510 131.481,35.256 131.481,32.944 C131.481,30.632 132.970,28.417 135.693,28.417 C136.339,28.417 137.475,28.553 138.298,29.660 L138.298,28.650 L140.296,28.650 L140.296,37.238 L138.298,37.238 L138.298,36.344 ZM135.987,30.204 C134.517,30.204 133.558,31.448 133.558,32.983 C133.558,34.440 134.439,35.723 135.987,35.723 C137.515,35.723 138.416,34.537 138.416,32.963 C138.416,31.118 137.240,30.204 135.987,30.204 ZM127.485,22.957 L129.483,22.957 L129.483,37.238 L127.485,37.238 L127.485,22.957 ZM121.316,37.510 C120.846,37.510 119.572,37.355 118.671,36.247 L118.671,41.318 L116.673,41.318 L116.673,28.650 L118.671,28.650 L118.671,29.583 C119.494,28.611 120.611,28.417 121.296,28.417 C123.549,28.417 125.488,30.165 125.488,32.925 C125.488,35.742 123.353,37.510 121.316,37.510 ZM121.002,30.204 C119.749,30.204 118.554,31.156 118.554,32.983 C118.554,34.440 119.396,35.723 121.002,35.723 C122.511,35.723 123.412,34.479 123.412,32.944 C123.412,31.156 122.217,30.204 121.002,30.204 ZM106.175,35.723 C106.724,35.723 107.194,35.528 107.546,35.256 C107.625,35.198 108.114,34.809 108.428,34.071 L110.113,35.004 C109.838,35.509 109.446,36.053 108.976,36.461 C107.919,37.394 106.528,37.510 105.960,37.510 C103.962,37.510 101.768,36.131 101.768,33.002 C101.768,30.243 103.393,28.417 105.940,28.417 C107.488,28.417 108.604,29.077 109.231,29.991 C109.760,30.768 110.034,31.972 110.034,33.119 L110.034,33.430 L103.844,33.430 C103.883,35.004 105.117,35.723 106.175,35.723 ZM107.977,31.798 C107.742,30.807 106.959,30.204 105.979,30.204 C105.019,30.204 104.216,30.846 103.962,31.798 L107.977,31.798 ZM97.772,22.957 L99.770,22.957 L99.770,37.238 L97.772,37.238 L97.772,22.957 ZM91.034,41.590 C89.056,41.590 87.312,40.580 86.803,38.423 L88.801,38.423 C89.075,39.181 89.722,39.803 91.054,39.803 C93.170,39.803 93.346,38.112 93.346,37.413 L93.346,36.286 C92.993,36.713 92.210,37.510 90.721,37.510 C88.076,37.510 86.529,35.295 86.529,32.944 C86.529,30.651 87.998,28.417 90.760,28.417 C91.426,28.417 92.504,28.572 93.346,29.583 L93.346,28.650 L95.344,28.650 L95.344,36.869 C95.344,37.763 95.364,38.948 94.521,40.017 C93.326,41.532 91.642,41.590 91.034,41.590 ZM91.015,30.204 C89.546,30.204 88.605,31.448 88.605,32.944 C88.605,34.479 89.506,35.723 91.015,35.723 C92.582,35.723 93.463,34.518 93.463,33.002 C93.463,31.098 92.268,30.204 91.015,30.204 ZM80.340,37.510 C77.715,37.510 75.717,35.587 75.717,32.963 C75.717,30.321 77.715,28.417 80.340,28.417 C82.965,28.417 84.963,30.321 84.963,32.963 C84.963,35.587 82.965,37.510 80.340,37.510 ZM80.340,30.204 C79.125,30.204 77.793,30.982 77.793,32.983 C77.793,34.945 79.106,35.723 80.340,35.723 C81.574,35.723 82.886,34.945 82.886,32.983 C82.886,30.982 81.554,30.204 80.340,30.204 ZM69.528,37.510 C66.903,37.510 64.905,35.587 64.905,32.963 C64.905,30.321 66.903,28.417 69.528,28.417 C72.153,28.417 74.151,30.321 74.151,32.963 C74.151,35.587 72.153,37.510 69.528,37.510 ZM69.528,30.204 C68.313,30.204 66.981,30.982 66.981,32.983 C66.981,34.945 68.294,35.723 69.528,35.723 C70.762,35.723 72.074,34.945 72.074,32.983 C72.074,30.982 70.742,30.204 69.528,30.204 ZM56.796,37.510 C54.602,37.510 53.035,36.694 51.860,35.528 C50.351,34.032 49.783,32.264 49.783,30.457 C49.783,28.650 50.391,26.843 51.742,25.444 C53.368,23.754 55.386,23.365 56.914,23.365 C58.971,23.365 60.342,24.142 61.086,24.667 C61.694,25.094 62.183,25.561 62.595,26.143 L61.106,27.542 C60.675,26.921 59.402,25.308 56.914,25.308 C54.015,25.308 51.977,27.504 51.977,30.457 C51.977,33.469 54.191,35.567 56.855,35.567 C59.029,35.567 60.616,34.090 60.949,32.109 L57.541,32.109 L57.541,30.165 L63.182,30.165 L63.182,30.593 C63.182,31.914 63.026,33.430 61.948,34.945 C61.223,35.956 59.676,37.510 56.796,37.510 Z"/>
    <path fill-rule="evenodd"  fill="rgb(255, 255, 255)"
          d="M96.432,17.810 L96.432,14.827 C96.432,14.314 96.323,13.933 96.106,13.684 C95.888,13.435 95.552,13.311 95.099,13.311 C94.838,13.311 94.601,13.358 94.387,13.452 C94.173,13.546 93.996,13.679 93.854,13.853 C93.747,13.986 93.669,14.137 93.623,14.307 C93.576,14.476 93.553,14.771 93.553,15.192 L93.553,17.810 L92.688,17.810 L92.688,12.746 L93.542,12.746 L93.542,13.526 C93.761,13.202 94.026,12.960 94.334,12.801 C94.643,12.643 95.000,12.563 95.405,12.563 C96.008,12.563 96.478,12.722 96.817,13.039 C97.155,13.357 97.325,13.797 97.325,14.362 L97.325,17.810 L96.432,17.810 ZM90.518,17.206 C90.247,17.472 89.943,17.675 89.606,17.815 C89.269,17.955 88.919,18.025 88.554,18.025 C88.179,18.025 87.823,17.956 87.486,17.818 C87.149,17.679 86.849,17.481 86.585,17.223 C86.321,16.957 86.120,16.662 85.982,16.338 C85.845,16.013 85.776,15.664 85.776,15.292 C85.776,14.919 85.845,14.568 85.982,14.237 C86.120,13.907 86.321,13.613 86.585,13.355 C86.849,13.097 87.148,12.900 87.483,12.765 C87.818,12.631 88.175,12.563 88.554,12.563 C88.926,12.563 89.279,12.632 89.612,12.768 C89.944,12.905 90.247,13.104 90.518,13.366 C90.782,13.620 90.983,13.913 91.121,14.243 C91.258,14.573 91.327,14.923 91.327,15.292 C91.327,15.661 91.258,16.008 91.121,16.335 C90.983,16.661 90.782,16.952 90.518,17.206 ZM89.854,13.933 C89.497,13.562 89.064,13.377 88.554,13.377 C88.037,13.377 87.599,13.562 87.240,13.933 C86.881,14.304 86.702,14.757 86.702,15.292 C86.702,15.827 86.882,16.279 87.243,16.650 C87.604,17.021 88.041,17.206 88.554,17.206 C89.064,17.206 89.497,17.021 89.854,16.650 C90.211,16.279 90.390,15.827 90.390,15.292 C90.390,14.757 90.211,14.304 89.854,13.933 ZM80.197,14.827 C80.197,14.314 80.088,13.933 79.870,13.684 C79.653,13.435 79.317,13.311 78.863,13.311 C78.603,13.311 78.366,13.358 78.152,13.452 C77.938,13.546 77.761,13.679 77.619,13.853 C77.511,13.986 77.434,14.137 77.388,14.307 C77.341,14.476 77.318,14.771 77.318,15.192 L77.318,17.810 L76.453,17.810 L76.453,12.746 L77.307,12.746 L77.307,13.526 C77.526,13.202 77.790,12.960 78.099,12.801 C78.408,12.643 78.765,12.563 79.170,12.563 C79.773,12.563 80.243,12.722 80.582,13.039 C80.920,13.357 81.089,13.797 81.089,14.362 L81.089,17.810 L80.197,17.810 L80.197,14.827 ZM74.166,10.942 C73.987,10.942 73.836,10.881 73.711,10.759 C73.586,10.638 73.524,10.486 73.524,10.306 C73.524,10.132 73.586,9.984 73.711,9.860 C73.836,9.737 73.987,9.675 74.166,9.675 C74.341,9.675 74.490,9.738 74.615,9.863 C74.740,9.988 74.802,10.140 74.802,10.317 C74.802,10.490 74.740,10.638 74.618,10.759 C74.495,10.881 74.344,10.942 74.166,10.942 ZM68.386,17.810 L67.493,17.810 L67.493,13.460 L66.556,13.460 L66.556,12.746 L67.493,12.746 L67.493,10.704 L68.386,10.704 L68.386,12.746 L69.323,12.746 L69.323,13.460 L68.386,13.460 L68.386,17.810 ZM61.998,15.485 C61.998,16.028 62.154,16.466 62.466,16.800 C62.779,17.134 63.186,17.300 63.688,17.300 C64.030,17.300 64.339,17.209 64.614,17.026 C64.890,16.844 65.133,16.568 65.345,16.199 L66.009,16.642 C65.753,17.099 65.425,17.444 65.027,17.677 C64.629,17.909 64.168,18.025 63.644,18.025 C62.866,18.025 62.238,17.771 61.758,17.262 C61.278,16.753 61.038,16.085 61.038,15.258 C61.038,14.465 61.276,13.816 61.752,13.311 C62.228,12.805 62.840,12.552 63.588,12.552 C64.343,12.552 64.941,12.792 65.382,13.272 C65.822,13.751 66.043,14.406 66.043,15.236 L66.043,15.408 L61.998,15.408 L61.998,15.485 ZM65.105,14.705 C65.076,14.259 64.926,13.915 64.656,13.673 C64.387,13.431 64.017,13.311 63.549,13.311 C63.125,13.311 62.771,13.437 62.489,13.690 C62.206,13.942 62.042,14.281 61.998,14.705 L65.105,14.705 ZM56.056,18.025 C55.673,18.025 55.307,17.985 54.960,17.904 C54.612,17.822 54.291,17.704 53.997,17.549 C53.328,17.184 52.811,16.680 52.446,16.036 C52.082,15.392 51.900,14.661 51.900,13.842 C51.900,13.167 52.008,12.557 52.226,12.013 C52.444,11.469 52.772,10.990 53.211,10.577 C53.579,10.230 54.007,9.968 54.494,9.791 C54.981,9.614 55.520,9.525 56.112,9.525 C56.897,9.525 57.577,9.666 58.154,9.949 C58.730,10.231 59.208,10.656 59.588,11.224 L58.773,11.872 C58.479,11.381 58.113,11.013 57.674,10.768 C57.235,10.522 56.726,10.400 56.145,10.400 C55.197,10.400 54.427,10.717 53.836,11.352 C53.244,11.986 52.948,12.816 52.948,13.842 C52.948,14.808 53.249,15.602 53.849,16.221 C54.450,16.841 55.215,17.151 56.145,17.151 C56.964,17.151 57.645,16.905 58.190,16.412 C58.735,15.920 59.037,15.279 59.097,14.489 L56.765,14.489 L56.765,13.626 L60.134,13.626 L60.134,13.897 C60.134,15.174 59.770,16.181 59.041,16.919 C58.312,17.656 57.317,18.025 56.056,18.025 ZM74.612,17.810 L73.731,17.810 L73.731,12.746 L74.612,12.746 L74.612,17.810 Z"/>
    <path fill-rule="evenodd"  fill="rgb(243, 244, 246)"
          d="M39.229,27.376 L14.147,40.828 C13.930,40.944 13.694,41.003 13.458,41.003 C13.199,41.003 12.941,40.932 12.708,40.794 C12.264,40.528 11.999,40.059 11.999,39.542 L11.999,12.462 C11.999,11.942 12.266,11.474 12.712,11.209 C13.159,10.943 13.698,10.933 14.155,11.181 L39.236,24.808 C39.714,25.068 40.000,25.549 39.999,26.094 C39.996,26.640 39.709,27.119 39.229,27.376 ZM33.483,30.098 L29.367,26.246 L14.817,40.109 L33.483,30.098 ZM13.427,11.327 C13.236,11.333 13.045,11.379 12.873,11.481 C12.524,11.688 12.316,12.055 12.316,12.462 L12.316,39.542 C12.316,39.948 12.523,40.314 12.871,40.522 C13.049,40.627 13.245,40.679 13.443,40.682 L29.117,26.012 L13.427,11.327 ZM29.368,25.778 L33.404,22.000 L14.787,11.884 L29.368,25.778 ZM39.085,25.086 L33.671,22.145 L29.613,26.011 L33.751,29.954 L39.079,27.097 C39.455,26.896 39.680,26.520 39.682,26.094 C39.684,25.667 39.460,25.290 39.085,25.086 Z"/>
</svg>
