<svg xmlns="http://www.w3.org/2000/svg" viewBox="0 0 15 16">
    <path fill-rule="evenodd" fill="#2CD9BC" d="M12.839 15.963c-1.652.161-3.12-1.038-3.279-2.676-.047-.464.017-.933.186-1.368l-1.714-1.688-1.716 1.691c.117.295.185.606.202.923.091 1.643-1.178 3.049-2.834 3.142-.304.016-.608-.013-.903-.088C1.174 15.493.205 13.87.617 12.274c.412-1.595 2.049-2.559 3.657-2.153l1.611-1.997-2.333-2.297c-.717-.703-1.193-1.613-1.36-2.601C1.989 2.01 2.475.781 3.457.025c.072-.049.169-.036.226.029l8.107 10.059c.402-.104.821-.125 1.231-.062 1.352.211 2.388 1.303 2.52 2.655.159 1.638-1.051 3.097-2.702 3.257zm-9.328-4.269c-.73.001-1.323.589-1.323 1.313-.001.725.591 1.311 1.321 1.311.73-.001 1.322-.588 1.323-1.313 0-.724-.591-1.31-1.321-1.311zm9.042-.007c-.73 0-1.322.588-1.323 1.313 0 .725.591 1.311 1.321 1.311.73-.001 1.323-.589 1.323-1.313 0-.725-.591-1.311-1.321-1.311zm-.036-5.854l-1.395 1.363-2.243-2.784L12.398.038c.057-.065.154-.077.226-.029.984.756 1.468 1.989 1.26 3.208-.167.993-.645 1.909-1.367 2.616z"/>
</svg>
