<svg xmlns="http://www.w3.org/2000/svg" viewBox="0 0 290.4 238.2"><title>hills</title><path d="M317,107.8c-5.9-.2-11.8-0.4-17.7-0.2a260.9,260.9,0,0,0-37.2,3l-5.4.9a288.3,288.3,0,0,0-77.1,25.2l-5.4,2.7c-5.2,2.7-10.2,5.4-15.4,8.4-1.8,1.1-3.6,2-5.4,3.2-26.5,15.7-52,36.1-77.3,60.6-1.8,1.6-3.6,3.4-5.4,5.2L60.7,227.5a3.9,3.9,0,0,0-.7.9c-1.6,1.6-3,3.2-4.6,5a0.6,0.6,0,0,0-.5.5l6.3-5.7,0.5-.7,8.9-8.9c1.6-1.6,3.4-3.4,5.4-5.2q38.4-36.8,77.6-60.4c1.8-1.3,3.6-2.1,5.4-3.2,5.2-3,10.2-5.7,15.4-8.4l5.4-2.7a288.3,288.3,0,0,1,77.1-25.2c1.8-.2,3.6-0.5,5.4-0.9,4.6-.7,9.1-1.3,13.8-1.8a283.9,283.9,0,0,1,41.1-2.9" transform="translate(-32.1 -76.2)" fill="#c3c3c3"/><path d="M317,107.8a283.9,283.9,0,0,0-41.1,2.9l-13.8,2.7-5.4,1.4v98.5H179.6l-5.4,5.4h87.8v-103a323.8,323.8,0,0,1,41-6.3c6.4-.7,12.9-1.1,19.5-1.3l-5.5-.4" transform="translate(-32.1 -76.2)" fill="#c3c3c3"/><path d="M256.7,114.8l5.4-1.4,13.8-2.7c-4.7.5-9.1,1.1-13.8,1.8-1.8.4-3.6,0.7-5.4,0.9a288.3,288.3,0,0,0-77.1,25.2l-5.4,2.7c-5.2,2.7-10.2,5.4-15.4,8.4-1.8,1.1-3.6,2-5.4,3.2q-39.2,23.6-77.6,60.4h77.6V157.9c1.8-1.1,3.6-2.3,5.4-3.2,5.2-3,10.2-5.7,15.4-8.6l5.4-2.7v69.9h77.1V114.8Z" transform="translate(-32.1 -76.2)" fill="#c3c3c3"/><path d="M174.3,148.2l5.4-4.8-5.4,2.7c-5.2,2.9-10.2,5.5-15.4,8.6-1.8.9-3.6,2.1-5.4,3.2v55.4H75.9c-2,1.8-3.8,3.6-5.4,5.2l-8.9,8.9-0.5.7a2.7,2.7,0,0,1,.7-0.7,117.3,117.3,0,0,1,10.6-8.8h86.6V156.5c5.2-2.9,10.2-5.7,15.4-8.2" transform="translate(-32.1 -76.2)" fill="#c3c3c3"/><polygon points="147.5 67.2 142.2 72.1 142.2 142.5 147.5 137.2 147.5 67.2" fill="#c3c3c3"/><path d="M269.1,99.1c6.8-.5,13.8-0.9,20.7-1.1a153.7,153.7,0,0,0-31.5,1.4h-0.2a3.9,3.9,0,0,1-1.4.2c-25.6,3.6-51.5,11.8-77.1,24.3-1.8.7-3.6,1.6-5.4,2.5l-15.4,8.2-5.4,3.2q-38.6,23.1-77.3,58.8c-1.8,1.8-3.6,3.4-5.4,5s-4.6,4.7-7.2,7C58,214.8,52.1,221,46.2,227.5l-0.7.9c-1.4,1.6-2.9,3.2-4.3,5s-3.6,3.8-5.4,5.7a1.4,1.4,0,0,1-.7.7c-1.1,1.4-2.1,2.9-3,4.3,1.3-1.6,2.5-3,3.8-4.5s3.9-4.3,5.9-6.3,3.2-3.4,4.6-5l0.7-.9c1.1-.9,2-2.1,3-3,4.5-4.8,8.9-9.3,13.6-13.9,2.3-2.3,4.7-4.6,7.2-7s3.6-3.2,5.4-5q38.6-36.2,77.3-59.2c1.8-1.1,3.6-2.1,5.4-3,5.2-3,10.2-5.7,15.4-8.4l5.4-2.7c25.6-12.5,51.5-20.7,77.1-24.5,1.8-.2,3.6-0.5,5.4-0.9s4.7-.4,7-0.7" transform="translate(-32.1 -76.2)" fill="#c3c3c3"/><path d="M289.8,98c-2.9-.2-5.7-0.4-8.4-0.7-6.6-.4-12.9-0.4-19.3-0.2h-5.4a216.2,216.2,0,0,0-77.1,19.7c-1.8.7-3.6,1.6-5.4,2.5-5.2,2.3-10.2,5-15.4,7.9-1.8,1.1-3.6,2.1-5.4,3q-39.2,23.3-77.3,62.4l-5.4,5.7c-8.6,9.1-17.2,18.8-25.6,29.1a1.8,1.8,0,0,0-.7.9,2.8,2.8,0,0,0-.9,1.1c-1.1,1.3-2.1,2.5-3.2,3.9s-3,3.8-4.6,5.5a1.8,1.8,0,0,1-.7.9,1.4,1.4,0,0,0,.7-0.7c1.8-2,3.6-3.9,5.4-5.7s2.9-3.4,4.3-5l0.7-.9c5.9-6.4,11.8-12.7,17.5-18.8,2.5-2.5,4.7-5.2,7.2-7.7s3.6-3.8,5.4-5.5q38.1-39.4,77.3-62.6c1.8-1.1,3.6-2.3,5.4-3.2a158.4,158.4,0,0,1,15.4-8c1.8-.9,3.6-1.8,5.4-2.5,25.4-11.6,51.1-18.2,77.1-19.5a4,4,0,0,1,1.4-.2h0.2A153.6,153.6,0,0,1,289.8,98" transform="translate(-32.1 -76.2)" fill="#c3c3c3"/><path d="M256.7,99.6h0c-25.9,1.3-51.7,7.9-77.1,19.5-1.8.7-3.6,1.6-5.4,2.5a158.2,158.2,0,0,0-15.4,8c-1.8.9-3.6,2.1-5.4,3.2q-39.2,23.1-77.3,62.6c-1.8,1.8-3.6,3.6-5.4,5.5s-4.6,5.2-7.2,7.7c2.5-2.3,4.8-4.7,7.2-7s3.6-3.2,5.4-5q38.6-35.7,77.3-58.8l5.4-3.2,15.4-8.2c1.8-.9,3.6-1.8,5.4-2.5,25.6-12.5,51.5-20.7,77.1-24.3" transform="translate(-32.1 -76.2)" fill="#c3c3c3"/><polygon points="224.6 5.4 230 0 142.2 0 142.2 34.2 147.5 27.4 147.5 5.4 224.6 5.4" fill="#c3c3c3"/><path d="M262.1,76.2l-5.4,5.4v5.9a210.3,210.3,0,0,0-77.1,16.1l-5.4,6.8,5.4-2.5a212,212,0,0,1,77.1-17.2h5.4V76.2Z" transform="translate(-32.1 -76.2)" fill="#c3c3c3"/><path d="M256.7,87.4V81.5H179.6v22a210.3,210.3,0,0,1,77.1-16.1" transform="translate(-32.1 -76.2)" fill="#c3c3c3"/><path d="M153.5,115.9V81.5H76.3v93c25.4-24.9,51.1-44.5,77.3-58.7" transform="translate(-32.1 -76.2)" fill="#c3c3c3"/><path d="M153.5,81.5v34.3c-26.1,14.1-51.9,33.8-77.3,58.7L71.1,186c1.6-1.8,3.4-3.6,5.2-5.4q38.1-37.8,77.3-59.9l5.4-2.9V76.2Z" transform="translate(-32.1 -76.2)" fill="#c3c3c3"/><polygon points="121.4 5.4 126.8 0 38.8 0 38.8 110 39 109.8 44.2 98.4 44.2 5.4 121.4 5.4" fill="#c3c3c3"/><path d="M221.5,240.5l-22.9,3.9c4.7,0.4,7.2,3,7.3,8.6v50.3c0,5.9-2.5,8.9-7.3,8.9H229c-5,0-7.5-3-7.5-8.9V240.5Z" transform="translate(-32.1 -76.2)" fill="#c3c3c3"/><path d="M165.5,244.5c4.8,0.4,7.3,3,7.5,8.6v50.3c0,5.9-2.5,8.9-7.5,8.9h30.4c-4.8,0-7.3-3-7.3-8.9V240.5Z" transform="translate(-32.1 -76.2)" fill="#c3c3c3"/><path d="M148,255a8.7,8.7,0,0,0,5.9-2,6.3,6.3,0,0,0,2.3-5,6,6,0,0,0-2.3-4.8,9.8,9.8,0,0,0-5.9-2,9,9,0,0,0-5.9,2,5.7,5.7,0,0,0-2.5,4.8,6,6,0,0,0,2.5,5,8.2,8.2,0,0,0,5.9,2" transform="translate(-32.1 -76.2)" fill="#c3c3c3"/><path d="M123.5,251.1c0-5.9,2.5-8.8,7.5-8.9H100.6c4.8,0.2,7.3,3,7.3,8.9v16.1H75.6V251.1c0-5.9,2.7-8.8,7.5-8.9H52.7c5,0.2,7.5,3,7.5,8.9v52.2c0,5.9-2.5,8.9-7.5,8.9H83.1c-4.8,0-7.5-3-7.5-8.9v-30h32.4v30c0,5.9-2.5,8.9-7.3,8.9H131c-5,0-7.5-3-7.5-8.9V251.1Z" transform="translate(-32.1 -76.2)" fill="#c3c3c3"/><path d="M155.7,303.3V263.1l-22.9,4.1c4.7,0.2,7.2,2.9,7.3,8.2v27.9c0,5.9-2.5,8.9-7.3,8.9h30.4c-5,0-7.5-3-7.5-8.9" transform="translate(-32.1 -76.2)" fill="#c3c3c3"/><path d="M233.8,242.5a6.2,6.2,0,0,0-2.1,4.3,4,4,0,0,0,.9,2.7,13.8,13.8,0,0,1,1.4,1.8c1.4,2.7.9,5.4-1.4,8-0.7.9-.9,1.3-0.5,1.6a1.2,1.2,0,0,0,.9.5,2.4,2.4,0,0,0,1.3-.5c4.1-2.9,7.3-5.5,9.1-7.9s3-4.5,2.9-6.4a5.6,5.6,0,0,0-2-4.1,8.8,8.8,0,0,0-5.4-1.8,8.1,8.1,0,0,0-5,1.8" transform="translate(-32.1 -76.2)" fill="#c3c3c3"/><path d="M278,264.8a51.4,51.4,0,0,0-9.1-1.8c-3.4-.2-7.3-0.4-11.6-0.4a43.2,43.2,0,0,0-11.3,1.4,22.6,22.6,0,0,0-9.5,4.8,9.3,9.3,0,0,0-3.6,7.2c0,2.9,1.4,5.5,4.5,7.7s8.4,4.6,16.5,7,13.2,4.5,15.2,6.1a7.2,7.2,0,0,1,2.7,5.7c0,2.1-1.4,3.8-3.6,4.8a24.1,24.1,0,0,1-9.1,1.8c-3.9-.2-7.2-0.5-10.2-0.9s-5.2-1.4-6.8-3-3.8-4.1-5.9-8a7.1,7.1,0,0,0-2.7.4,0.9,0.9,0,0,0-.5.9,86.5,86.5,0,0,0,1.6,9.7,7.4,7.4,0,0,1,.2,1.8,2.4,2.4,0,0,0,1.1,1.8,82.8,82.8,0,0,0,21.8,2.7,47.4,47.4,0,0,0,11.4-1.6,18.3,18.3,0,0,0,9.7-4.8,16.5,16.5,0,0,0,4.3-7.3,9.5,9.5,0,0,0-1.1-7.3,15.4,15.4,0,0,0-6.6-5.9,103.8,103.8,0,0,0-14.5-6.3c-6.6-2.3-10.4-4.1-11.6-5.2a4.8,4.8,0,0,1-2.1-4.1c0.2-1.8,1.1-2.9,3-3.6a30,30,0,0,1,7.5-1.6,19,19,0,0,1,10.2,2,17.2,17.2,0,0,1,7.9,7.7h3.8l-0.4-2a49.4,49.4,0,0,0-1.1-9.5" transform="translate(-32.1 -76.2)" fill="#c3c3c3"/><path d="M265,249.5v-5.8h3.6a3.1,3.1,0,0,1,1.7.4,1.3,1.3,0,0,1,.6,1.2,1.6,1.6,0,0,1-.3.9,1.5,1.5,0,0,1-.7.6l0.5,0.4a1.8,1.8,0,0,1,.2.8v0.2a2.5,2.5,0,0,0,.3,1.4h-1.6v-0.9a1.8,1.8,0,0,0-.2-1.1,1,1,0,0,0-.8-0.2h-1.7v2.2H265Zm1.5-3.4h1.7l0.9-.2a0.6,0.6,0,0,0,.3-0.5,0.5,0.5,0,0,0-.2-0.5h-2.6v1.3Z" transform="translate(-32.1 -76.2)" fill="#c3c3c3"/><path d="M268,253.1c-4.1,0-7.4-2.9-7.4-6.5s3.3-6.5,7.4-6.5,7.4,2.9,7.4,6.5-3.3,6.5-7.4,6.5m0-11.8c-3.4,0-6.3,2.4-6.3,5.3s2.8,5.3,6.3,5.3,6.3-2.4,6.3-5.3-2.8-5.3-6.3-5.3" transform="translate(-32.1 -76.2)" fill="#c3c3c3"/></svg>