<svg xmlns="http://www.w3.org/2000/svg" viewBox="0 0 141.2 184"><title>logo-small</title><path d="M70.6,0a70.6,70.6,0,0,1,58.3,110.4h-0.1q-1.7,2.5-3.6,4.8L75.5,181.6h0a6.5,6.5,0,0,1-10.2-.1h0L14.6,113.9h0.2A70.6,70.6,0,0,1,70.6,0M91.9,65.3c0,17.4,16.4,16.6,16.4,1.1,0-17.6-16.4-16.1-16.4-1.1m-25-17.4c0,17.4-16.4,16.6-16.4,1.1,0-17.6,16.4-16.1,16.4-1.1M49.3,65.3C49.3,82.8,33,81.9,33,66.4c0-17.6,16.4-16.1,16.4-1.1m25-17.4c0,17.4,16.4,16.6,16.4,1.1,0-17.6-16.4-16.1-16.4-1.1m1.6,52.9c8.2,2,20.6,4.1,20.6-8.2,0.2-6-5.2-9.4-10.5-12.4s-7.8-9.3-15.5-9.4-8.9,5.5-15.5,9.4S44.4,86.6,44.6,92.6c0,12.3,12.5,10.2,20.6,8.2a25.5,25.5,0,0,1,5.3-1,25.5,25.5,0,0,1,5.3,1" transform="translate(0)" fill="#3252a6" fill-rule="evenodd"/><path d="M41.5,106.7l-5.1.2a0.5,0.5,0,0,0-.5.5v15.2a0.5,0.5,0,0,0,.5.5H39a0.5,0.5,0,0,0,.5-0.5v-5.4h1.9c4.2,0,6.6-2,6.6-5.3s-2.5-5.2-6.6-5.2m0,7.7H39.8a0.3,0.3,0,0,1-.2-0.3v-4.3a0.3,0.3,0,0,1,.2-0.3h1.7c1.8,0,2.9.9,2.9,2.4s-1,2.5-2.9,2.5m11.8,6.4a2.2,2.2,0,0,1-2.4-1.5,0.2,0.2,0,0,1,0-.2h1.3c3.5,0,5.6-1.3,5.6-3.6s-1.7-3.8-4.5-3.8-6,2.3-6,6.2,2.1,5.6,5.7,5.6a8.8,8.8,0,0,0,4.4-1.1l0.2-.3a0.5,0.5,0,0,0-.1-0.4l-0.8-1.3a0.5,0.5,0,0,0-.7-0.2,5.8,5.8,0,0,1-2.8.7M53,114.2a1.3,1.3,0,0,1,1.5,1.3c0,0.9-.8,1.5-2.2,1.5H50.8a0.2,0.2,0,0,1-.1-0.2c0.2-1.5,1-2.4,2.2-2.4m12.5,6.2-1.1.2a1.5,1.5,0,0,1-1.5-1.7v-4.3a0.3,0.3,0,0,1,.3-0.3h2.4a0.5,0.5,0,0,0,.5-0.5v-1.6a0.5,0.5,0,0,0-.5-0.5H63.2a0.3,0.3,0,0,1-.3-0.3v-1.2c0-2.2-3.5-1.9-3.5-.2v9.4c0,2.4,1.5,3.9,4,3.9a7.5,7.5,0,0,0,2.7-.4,0.5,0.5,0,0,0,.3-0.6l-0.3-1.5a0.5,0.5,0,0,0-.2-0.3H65.6m6.7-.3,0.8-.9,3.7-4.3a2.7,2.7,0,0,0,.9-1.9c0-1.5-.7-1.3-1.7-1.3H68.8a0.5,0.5,0,0,0-.5.5v1.6a0.5,0.5,0,0,0,.5.5h4.1l0.2,0.2a0.2,0.2,0,0,1,0,.3l-1.4,1.6-2.9,3.4c-1.1,1.3-.8,1.5-0.8,3.1a0.3,0.3,0,0,0,.3.2h9.1a0.5,0.5,0,0,0,.5-0.5V121a0.5,0.5,0,0,0-.5-0.5H72.5l-0.2-.2a0.2,0.2,0,0,1,.1-0.3m9.5,3.3a2,2,0,1,0-2.1-2,1.9,1.9,0,0,0,2.1,2m10.5-11.8a3.3,3.3,0,0,0-2.8,1.4H89.2l-0.2-.2c-0.4-1.7-3.3-1.5-3.3.6v9.2a0.5,0.5,0,0,0,.5.5h2.5a0.5,0.5,0,0,0,.5-0.5v-4.3c0-2.8.9-3.8,2.3-3.8l0.9,0.2h0.4l0.3-.3,0.7-2.1a0.5,0.5,0,0,0,0-.4l-0.3-.2-1.3-.2M102,113v4.4c0,2.3-.8,3.1-2.2,3.1s-1.6-.8-1.6-2.1v-5.3c0-2-3.5-2-3.5,0V119c0,2.7,1.5,4.3,4,4.3a4,4,0,0,0,3.1-1.3H102l0.2,0.2a1.7,1.7,0,0,0,3.3-.2v-8.7c0-2.1-3.5-1.8-3.5-.2" transform="translate(0)" fill="#00ccbc"/><path d="M82.5,128.2h1l1,3,1-3h0.9l-1.4,3.7a3.7,3.7,0,0,1-.8,1.4,1.5,1.5,0,0,1-1.1.4H82.6a0.4,0.4,0,0,1-.1-0.3V133l0.9-.2A1.5,1.5,0,0,0,84,132Z" transform="translate(0)" fill="#fff"/><path d="M89.6,129.1l-0.3-.2H88.7a1,1,0,0,0-.8.3,1.5,1.5,0,0,0-.3,1,1.4,1.4,0,0,0,.3.9,1,1,0,0,0,.8.3h0.5l0.4-.2v0.7l-0.3.2H88.6a1.7,1.7,0,0,1-1.4-.5,2.2,2.2,0,0,1-.4-1.5,2.9,2.9,0,0,1,.1-0.9,1.9,1.9,0,0,1,.4-0.7l0.6-.4,0.8-.2h0.7l0.3,0.2a0.4,0.4,0,0,1,.1.3,0.7,0.7,0,0,1-.2.5" transform="translate(0)" fill="#fff"/><polygon points="92.7 128.2 91.7 128.2 90.3 132.1 91.2 132.1 92.2 129 93.1 132.1 94.1 132.1 92.7 128.2" fill="#fff"/><path d="M94.1,128.2h1l1,3,1-3h0.9l-1.4,3.7a3.7,3.7,0,0,1-.8,1.4,1.5,1.5,0,0,1-1.1.4H94.2a0.4,0.4,0,0,1-.1-0.3V133l0.9-.2a1.5,1.5,0,0,0,.5-0.7Z" transform="translate(0)" fill="#fff"/><path d="M72.1,131.5H71.3v-1.2h0.8a0.6,0.6,0,1,1,0,1.2m-0.8-1.7v-1H70.4v3.2h1.7c1,0,1.7-.4,1.7-1.2s-2.5-1.2-2.5-1.2" transform="translate(0)" fill="#fff"/><path d="M67.5,131.5H66.8V130a1.1,1.1,0,0,1,1.1-1.2,1,1,0,0,1,1,1.3,1.3,1.3,0,0,1-1.3,1.5m0.6-3.5a1.7,1.7,0,0,0-1.4.7v-0.2a0.5,0.5,0,0,0-.4-0.6H65.9V134h0.9v-1.8h0.8a2,2,0,0,0,2.1-2.2c0-1.3-.6-2-1.6-2m-5.3,3.5a0.6,0.6,0,0,1-.6-0.6c0-.4.4-0.6,1-0.6h0.7a1.1,1.1,0,0,1-1.1,1.2m0.4-3.5a2.8,2.8,0,0,0-1.6.4l0.4,0.6a1.9,1.9,0,0,1,1.1-.3,0.8,0.8,0,0,1,.8,1H63.2c-1.2,0-1.8.5-1.8,1.3a1.1,1.1,0,0,0,1.3,1.2,1.5,1.5,0,0,0,1.3-.7v0.2a0.5,0.5,0,0,0,.4.6h0.5v-2.6a1.4,1.4,0,0,0-1.6-1.5m-4.1,3.5H58.3v-1.2h0.8a0.6,0.6,0,1,1,0,1.2M59,128.7a0.6,0.6,0,1,1,0,1.1H58.3v-1.1H59m1,1.3a0.9,0.9,0,0,0,.6-0.9c0-.7-0.6-1.2-1.6-1.2H57.4v4h1.7c1,0,1.7-.4,1.7-1.2a1,1,0,0,0-.8-0.9m-5.5,1.4a1.4,1.4,0,1,1,1.1-1.4,1.1,1.1,0,0,1-1.1,1.4m0,0.7a2.1,2.1,0,1,0-2-2.1,1.9,1.9,0,0,0,2,2.1m-2.4-4.1H48.9v0.7H50v3.3h0.9v-3.3h1.2v-0.7Zm-5.6,3.4a1.4,1.4,0,1,1,1.1-1.4,1.1,1.1,0,0,1-1.1,1.4m0,0.7a2.1,2.1,0,1,0-2-2.1,1.9,1.9,0,0,0,2,2.1m-4.8-.7a1.4,1.4,0,1,1,1.1-1.4,1.1,1.1,0,0,1-1.1,1.4m0,0.7a2.1,2.1,0,1,0-2-2.1,1.9,1.9,0,0,0,2,2.1m-5.7-3.7,0.2,0.6a1.7,1.7,0,0,1,.9-0.3,0.5,0.5,0,0,1,.6.5,0.5,0.5,0,0,1-.6.5H36.8v0.6h0.5a0.6,0.6,0,0,1,.8.6,0.7,0.7,0,0,1-.8.6,1.6,1.6,0,0,1-1.1-.4l-0.3.5a2.2,2.2,0,0,0,1.5.6c1,0,1.6-.4,1.6-1.2a1,1,0,0,0-1-1,0.9,0.9,0,0,0,.8-0.9,1.1,1.1,0,0,0-1.3-1.1,2.6,2.6,0,0,0-1.4.4" transform="translate(0)" fill="#fff"/><path d="M80.2,128.1H79.7v0.7l-1.8,1.6v-1.9a0.4,0.4,0,0,0-.4-0.5H77v4h0.9v-0.7l1.8-1.6v2.3h0.9v-3.6a0.4,0.4,0,0,0-.4-0.5" transform="translate(0)" fill="#fff"/><polygon points="101.4 128.1 98.7 128.1 98.7 132.1 99.6 132.1 99.6 128.8 101.4 128.8 101.4 128.1" fill="#fff"/><path d="M105,128.1h-0.5v0.7l-1.8,1.6v-1.9a0.4,0.4,0,0,0-.4-0.5h-0.5v4h0.9v-0.7l1.8-1.6v2.3h0.9v-3.6a0.4,0.4,0,0,0-.4-0.5" transform="translate(0)" fill="#fff"/><path d="M74.6,128.1H74.1v0.7h0v1h0v2.3H75v-3.6a0.4,0.4,0,0,0-.4-0.5m-3.3.6h0a0.4,0.4,0,0,0-.4-0.5H70.4v4h0.9v-0.5h0v-3h0Z" transform="translate(0)" fill="#fff"/></svg>