<svg xmlns="http://www.w3.org/2000/svg" xmlns:xlink="http://www.w3.org/1999/xlink" viewBox="0 0 276.43 97.89"><defs><clipPath id="a" transform="translate(-0.001 0)"><rect width="276.43" height="97.889" fill="none"/></clipPath></defs><title>logo</title><g clip-path="url(#a)"><path d="M105.1,24.81c-3.057,0-9.386.2-13.721,0.5a1.343,1.343,0,0,0-1.25,1.341v40.7A1.348,1.348,0,0,0,91.471,68.7h7.051a1.348,1.348,0,0,0,1.345-1.345V53.343a0.671,0.671,0,0,1,.694-0.672c1.6,0.051,3.11.1,4.477,0.1,11.244,0,17.8-5.23,17.8-14.129,0-8.718-6.615-13.829-17.738-13.829m-0.06,20.5c-1.422,0-2.937-.046-4.5-0.058a0.674,0.674,0,0,1-.668-0.672V33.038a0.672,0.672,0,0,1,.652-0.672c1.727-.053,3.3-0.1,4.579-0.1,4.811,0,7.636,2.406,7.636,6.374,0,4.149-2.705,6.674-7.7,6.674M136.7,62.329c-3.5,0-5.452-1.492-6.3-4.088a0.672,0.672,0,0,1,.7-0.878c1.005,0.086,2.011.155,3.018,0.155,9.319,0,14.911-3.607,14.911-9.68,0-6.313-4.449-10.161-12.086-10.161-10.161,0-16.113,6.193-16.113,16.535,0,9.5,5.651,15.091,15.212,15.091a23.634,23.634,0,0,0,11.7-2.825,1.344,1.344,0,0,0,.492-1.894L146,61.031a1.344,1.344,0,0,0-1.775-.47,15.506,15.506,0,0,1-7.52,1.768M136.04,44.892c2.525,0,3.967,1.322,3.967,3.367,0,2.525-2.164,3.968-6.011,3.968-1.047,0-2.177-.041-3.32-0.124a0.65,0.65,0,0,1-.477-0.251,0.658,0.658,0,0,1-.139-0.523c0.632-4.071,2.795-6.437,5.98-6.437m33.594,16.536a9.609,9.609,0,0,1-2.938.48c-2.645,0-4.088-1.744-4.088-4.51V45.925a0.673,0.673,0,0,1,.672-0.672h6.546a1.348,1.348,0,0,0,1.345-1.345V39.623a1.349,1.349,0,0,0-1.345-1.345H163.28a0.675,0.675,0,0,1-.672-0.672V34.49c0-5.855-9.354-5.024-9.35-.628l0.031,25.1c0,6.553,3.968,10.341,10.822,10.341a20.034,20.034,0,0,0,7.134-1.2,1.336,1.336,0,0,0,.857-1.491l-0.72-4.136a1.343,1.343,0,0,0-1.748-1.047m17.945-.844,2.243-2.284,10.041-11.484c1.851-2.116,2.4-3.367,2.4-4.99,0-3.91-1.823-3.548-4.614-3.548H178.3a1.351,1.351,0,0,0-1.345,1.345v4.285a1.349,1.349,0,0,0,1.345,1.345h10.915a0.672,0.672,0,0,1,.5,1.122l-3.8,4.229-7.735,9.234c-2.965,3.541-2.26,3.9-2.191,8.2a0.675,0.675,0,0,0,.672.661h24.5a1.347,1.347,0,0,0,1.344-1.345V63.072a1.348,1.348,0,0,0-1.344-1.345H188.058a0.665,0.665,0,0,1-.62-0.412,0.658,0.658,0,0,1,.141-0.731M212.923,69.3c3.488,0,5.591-2.045,5.591-5.412s-2.1-5.411-5.591-5.411c-3.547,0-5.652,2.045-5.652,5.411s2.105,5.412,5.652,5.412M241,37.677a8.97,8.97,0,0,0-7.413,3.763,0.672,0.672,0,0,1-1.191-.262c-1.036-4.676-8.833-4.079-8.833,1.529v24.65a1.349,1.349,0,0,0,1.345,1.345h6.63a1.348,1.348,0,0,0,1.344-1.345v-11.4c0-7.515,2.406-10.1,6.253-10.1a7.256,7.256,0,0,1,2.524.45,1.345,1.345,0,0,0,1.748-.84l1.82-5.541a1.345,1.345,0,0,0-.873-1.7A11.275,11.275,0,0,0,241,37.677m26.108,3.911v11.9c0,6.251-2.225,8.418-5.953,8.418-2.825,0-4.328-2.165-4.328-5.712V42c0-5.46-9.321-5.275-9.321.092V57.88c0,7.212,3.909,11.423,10.643,11.423a10.616,10.616,0,0,0,8.332-3.6,0.655,0.655,0,0,1,.661-0.211,0.6,0.6,0,0,1,.495.485c0.512,5.151,8.79,4.9,8.79-.595V42c0-5.554-9.319-4.812-9.319-.417" transform="translate(-0.001 0)" fill="#00ccbc"/><path d="M36.75,0A36.753,36.753,0,0,1,67.108,57.464h0l-0.038.049q-0.888,1.294-1.881,2.509L39.309,94.52H39.3a3.392,3.392,0,0,1-5.3-.026l0.011-.019L7.621,59.292l0.09-.02A36.75,36.75,0,0,1,36.75,0M47.817,34.008c0,9.078,8.516,8.63,8.516.567,0-9.141-8.516-8.376-8.516-.567M34.785,24.944c0,9.078-8.516,8.631-8.516.568,0-9.141,8.516-8.376,8.516-.568m-9.1,9.064c0,9.078-8.516,8.63-8.516.567,0-9.141,8.516-8.376,8.516-.567m13.031-9.064c0,9.078,8.517,8.631,8.517.568,0-9.141-8.517-8.376-8.517-.568m0.811,27.539C43.776,53.5,50.267,54.627,50.267,48.2c0.116-3.115-2.718-4.879-5.45-6.474-3.411-1.992-4.058-4.829-8.067-4.88-4.01.051-4.656,2.888-8.068,4.88-2.732,1.595-5.565,3.359-5.449,6.474,0,6.425,6.49,5.3,10.742,4.281a13.127,13.127,0,0,1,2.775-.5,13.137,13.137,0,0,1,2.775.5" transform="translate(-0.001 0)" fill="#1451aa" fill-rule="evenodd"/><path d="M214.879,82.294h2.578l2.558,7.925,2.556-7.925h2.41l-3.635,9.89a10,10,0,0,1-2.24,3.857,4.105,4.105,0,0,1-2.9,1.193,1.58,1.58,0,0,1-1.1-.316,1.192,1.192,0,0,1-.337-0.909,2.1,2.1,0,0,1,.126-0.7,4.355,4.355,0,0,0,2.43-.623,3.9,3.9,0,0,0,1.459-1.977Z" transform="translate(-0.001 0)" fill="#1451aa"/><path d="M233.762,84.725a4.017,4.017,0,0,0-2.282-.613,2.6,2.6,0,0,0-2.061.887,3.937,3.937,0,0,0-.77,2.642,3.693,3.693,0,0,0,.76,2.525,2.679,2.679,0,0,0,2.114.856,4.263,4.263,0,0,0,1.342-.2,4.057,4.057,0,0,0,1-.476,1.716,1.716,0,0,1,.349.57,1.9,1.9,0,0,1,.116.656,1.006,1.006,0,0,1-.254.675,1.9,1.9,0,0,1-.675.487,4.081,4.081,0,0,1-.984.285,7.163,7.163,0,0,1-1.193.1,4.679,4.679,0,0,1-3.783-1.406,5.908,5.908,0,0,1-1.184-3.92,7.754,7.754,0,0,1,.338-2.367,5.056,5.056,0,0,1,.993-1.806,4.429,4.429,0,0,1,1.628-1.163,5.745,5.745,0,0,1,2.261-.413,8.316,8.316,0,0,1,.887.053,3.806,3.806,0,0,1,.91.212,1.871,1.871,0,0,1,.7.443,1.011,1.011,0,0,1,.274.73,1.941,1.941,0,0,1-.486,1.247" transform="translate(-0.001 0)" fill="#1451aa"/><polygon points="242.038 82.293 239.375 82.293 235.613 92.86 238.191 92.86 240.749 84.597 243.284 92.86 245.8 92.86 242.038 82.293" fill="#1451aa"/><path d="M245.876,82.294h2.578l2.557,7.925,2.557-7.925h2.409l-3.634,9.89a10.012,10.012,0,0,1-2.24,3.857,4.108,4.108,0,0,1-2.9,1.193,1.579,1.579,0,0,1-1.1-.316,1.189,1.189,0,0,1-.338-0.909,2.1,2.1,0,0,1,.127-0.7,4.357,4.357,0,0,0,2.43-.623,3.9,3.9,0,0,0,1.458-1.977Z" transform="translate(-0.001 0)" fill="#1451aa"/><path d="M186.952,91.372c-0.792,0-1.5-.022-2.164-0.042V88.136h2.164c1.265,0,2.037.6,2.037,1.586,0,1.029-.772,1.65-2.037,1.65m-2.165-4.543V84.18c-0.911.036-1.724,0.1-2.422,0.177v8.6a44.592,44.592,0,0,0,4.566.214c2.808,0,4.459-1.2,4.459-3.216,0-3.742-6.709-3.234-6.6-3.128" transform="translate(-0.001 0)" fill="#1451aa"/><path d="M174.653,91.33c-0.557,0-1.222-.021-1.93-0.043V87.193c0-2.23,1.394-3.216,2.831-3.216,1.65,0,2.55,1.265,2.55,3.409,0,2.486-1.307,3.944-3.451,3.944m1.736-9.3a4.441,4.441,0,0,0-3.729,1.907V83.527a1.252,1.252,0,0,0-1.115-1.5,2.988,2.988,0,0,0-1.243.321V97.89h2.421V93.109c0.793,0.043,1.565.064,2.123,0.064,3.6,0,5.723-2.143,5.723-5.787,0-3.366-1.587-5.359-4.18-5.359m-14.211,9.324a1.512,1.512,0,0,1-1.673-1.629c0-1.093.965-1.736,2.616-1.736,0.578,0,1.243.021,1.907,0.064-0.02,2.251-1.415,3.3-2.85,3.3m1.006-9.324a7.6,7.6,0,0,0-4.287,1.2l0.965,1.543a5.188,5.188,0,0,1,2.915-.878c1.609,0,2.251.942,2.251,2.551v0.106c-0.642-.043-1.329-0.063-1.972-0.063-3.086,0-4.866,1.264-4.866,3.429a3.049,3.049,0,0,0,3.366,3.258,4.14,4.14,0,0,0,3.537-1.928v0.427a1.252,1.252,0,0,0,1.114,1.5,2.988,2.988,0,0,0,1.243-.321V85.971c0-2.487-1.586-3.944-4.266-3.944m-10.932,9.345c-0.792,0-1.5-.021-2.165-0.042V88.136h2.165c1.265,0,2.037.6,2.037,1.586,0,1.029-.772,1.65-2.037,1.65m-0.321-7.544c1.221,0,1.951.578,1.951,1.5s-0.73,1.5-1.951,1.5h-1.844v-2.98c0.557-.021,1.158-0.021,1.844-0.021m2.636,3.6a2.467,2.467,0,0,0,1.695-2.314c0-1.952-1.609-3.087-4.353-3.087a38.58,38.58,0,0,0-4.244.214V92.959a44.57,44.57,0,0,0,4.565.214c2.809,0,4.459-1.2,4.459-3.216a2.614,2.614,0,0,0-2.122-2.529M139.82,91.223c-1.865,0-2.98-1.351-2.98-3.623s1.115-3.623,2.98-3.623S142.8,85.328,142.8,87.6s-1.115,3.623-2.979,3.623m0,1.95c3.429,0,5.444-2.079,5.444-5.573s-2.015-5.573-5.444-5.573-5.445,2.079-5.445,5.573,2.015,5.573,5.445,5.573m-6.431-10.932h-8.618v1.843h3.087v8.875h2.422V84.084h3.109V82.241Zm-15.048,8.982c-1.865,0-2.98-1.351-2.98-3.623s1.115-3.623,2.98-3.623,2.98,1.351,2.98,3.623-1.115,3.623-2.98,3.623m0,1.95c3.429,0,5.444-2.079,5.444-5.573s-2.015-5.573-5.444-5.573S112.9,84.106,112.9,87.6s2.015,5.573,5.445,5.573m-12.734-1.95c-1.864,0-2.978-1.351-2.978-3.623s1.114-3.623,2.978-3.623,2.981,1.351,2.981,3.623-1.116,3.623-2.981,3.623m0,1.95c3.431,0,5.446-2.079,5.446-5.573s-2.015-5.573-5.446-5.573-5.444,2.079-5.444,5.573,2.015,5.573,5.444,5.573M90.41,83.141l0.643,1.522a4.416,4.416,0,0,1,2.529-.771c1.072,0,1.693.493,1.693,1.35s-0.642,1.35-1.714,1.35H92.489v1.587H93.9c1.265,0,2.015.578,2.015,1.565s-0.815,1.565-2.165,1.565a4.384,4.384,0,0,1-3.023-1.137l-0.879,1.437a5.817,5.817,0,0,0,4.117,1.564c2.764,0,4.416-1.178,4.416-3.173a2.72,2.72,0,0,0-2.68-2.764,2.466,2.466,0,0,0,2.036-2.38c0-1.8-1.329-2.829-3.58-2.829a6.945,6.945,0,0,0-3.751,1.114" transform="translate(-0.001 0)" fill="#1451aa"/><path d="M208.676,82.027a2.988,2.988,0,0,0-1.243.321v1.758L202.611,88.5V83.313a1.147,1.147,0,0,0-1.18-1.286,2.988,2.988,0,0,0-1.243.321V92.96h2.423V91.094l4.822-4.394v6.26h2.423V83.313a1.146,1.146,0,0,0-1.18-1.286" transform="translate(-0.001 0)" fill="#1451aa"/><polygon points="265.323 82.24 258.164 82.24 258.164 92.959 260.586 92.959 260.586 84.084 265.323 84.084 265.323 82.24" fill="#1451aa"/><path d="M275.2,82.027a2.984,2.984,0,0,0-1.243.321v1.758L269.129,88.5V83.313a1.146,1.146,0,0,0-1.18-1.286,2.988,2.988,0,0,0-1.243.321V92.96h2.423V91.094l4.823-4.394v6.26h2.422V83.313a1.146,1.146,0,0,0-1.179-1.286" transform="translate(-0.001 0)" fill="#1451aa"/><path d="M193.553,82.027a2.969,2.969,0,0,0-1.244.321v1.758l-0.012.01V86.71l0.012-.011v6.26h2.422V83.313a1.145,1.145,0,0,0-1.178-1.286m-8.764,1.523V83.313a1.146,1.146,0,0,0-1.18-1.286,2.973,2.973,0,0,0-1.243.321V92.959h2.423V91.717h0V83.55h0Z" transform="translate(-0.001 0)" fill="#1451aa"/></g></svg>