<svg xmlns="http://www.w3.org/2000/svg" viewBox="0 0 285.17 80.44"><title>mir</title><path d="M316.08,118.67l-18,39h-1.83V110.17H270.65V190.6h21.72a14.62,14.62,0,0,0,13.28-8.5l18-39h1.83V190.6h25.59V110.17H329.36a14.62,14.62,0,0,0-13.28,8.5" transform="translate(-157.31 -110.17)" fill="#20aa4d"/><path d="M220.07,120.74l-10.66,37h-1.83l-10.66-37a14.63,14.63,0,0,0-14.05-10.57H157.31v80.44H182.9V143.08h1.83l14.62,47.53h18.28l14.62-47.53h1.83v47.53h25.59V110.17H234.12a14.63,14.63,0,0,0-14.05,10.57" transform="translate(-157.31 -110.17)" fill="#20aa4d"/><path d="M362.05,146.73v43.87h25.54V165h27.47a27.41,27.41,0,0,0,25.83-18.28H362.05Z" transform="translate(-157.31 -110.17)" fill="#20aa4d"/><path d="M415.06,110.17H358.39a40.21,40.21,0,0,0,39.53,32.9h44a27.86,27.86,0,0,0,.55-5.49,27.42,27.42,0,0,0-27.42-27.42" transform="translate(-157.31 -110.17)" fill="#5eade2"/></svg>