<svg xmlns="http://www.w3.org/2000/svg" viewBox="0 0 512 512"><title>pinterest</title><rect width="512" height="512" rx="64" ry="64" fill="#ca2127"/><path d="M265.4,56c-109.2,0-164.2,78.3-164.2,143.5,0,39.5,15,74.7,47,87.8,5.3,2.2,10,.1,11.5-5.7,1.1-4,3.6-14.2,4.7-18.4,1.5-5.8.9-7.8-3.3-12.8-9.3-10.9-15.2-25-15.2-45.1,0-58.1,43.4-110,113.1-110,61.7,0,95.6,37.7,95.6,88,0,66.3-29.3,122.2-72.8,122.2-24,0-42-19.9-36.3-44.3,6.9-29.1,20.3-60.5,20.3-81.5,0-18.8-10.1-34.5-31-34.5-24.6,0-44.3,25.4-44.3,59.5,0,21.7,7.3,36.4,7.3,36.4L168.3,366.2c-8.8,37.2-1.3,82.7-.7,87.3a3.1,3.1,0,0,0,5.5,1.3c2.3-3,31.5-39.1,41.5-75.2,2.8-10.2,16.2-63.1,16.2-63.1,8,15.2,31.3,28.6,56.1,28.6,73.9,0,124-67.3,124-157.4C410.8,119.5,353.1,56,265.4,56Z" transform="translate(0 0)" fill="#fff"/></svg>