<svg xmlns="http://www.w3.org/2000/svg" width="16" height="15" viewBox="0 0 16 15">
  <metadata><?xpacket begin="﻿" id="W5M0MpCehiHzreSzNTczkc9d"?>
<x:xmpmeta xmlns:x="adobe:ns:meta/" x:xmptk="Adobe XMP Core 5.6-c138 79.159824, 2016/09/14-01:09:01        ">
   <rdf:RDF xmlns:rdf="http://www.w3.org/1999/02/22-rdf-syntax-ns#">
      <rdf:Description rdf:about=""/>
   </rdf:RDF>
</x:xmpmeta>
                                                                                                    
                                                                                                    
                                                                                                    
                                                                                                    
                                                                                                    
                                                                                                    
                                                                                                    
                                                                                                    
                                                                                                    
                                                                                                    
                                                                                                    
                                                                                                    
                                                                                                    
                                                                                                    
                                                                                                    
                                                                                                    
                                                                                                    
                                                                                                    
                                                                                                    
                                                                                                    
                           
<?xpacket end="w"?></metadata>
<defs>
    <style>
      .cls-1 {
        fill: #2e56bc;
        fill-rule: evenodd;
      }
    </style>
  </defs>
  <path class="cls-1" d="M341.667,1531.91c0.92,0,1.666,1.03,1.666,2.29a1.749,1.749,0,1,1-3.333,0C340,1532.94,340.746,1531.91,341.667,1531.91Zm4-3.91a2.046,2.046,0,0,1,1.666,2.28c0,1.26-.746,2.29-1.666,2.29s-1.667-1.03-1.667-2.29A2.046,2.046,0,0,1,345.667,1528Zm8.666,3.91c0.921,0,1.667,1.03,1.667,2.29a1.749,1.749,0,1,1-3.333,0C352.667,1532.94,353.413,1531.91,354.333,1531.91Zm-4-3.91a2.046,2.046,0,0,1,1.667,2.28c0,1.26-.746,2.29-1.667,2.29s-1.666-1.03-1.666-2.29A2.046,2.046,0,0,1,350.333,1528ZM354,1539.74a3.3,3.3,0,0,0-2.667-3.2v-0.06a3.334,3.334,0,0,0-6.666,0v0.06a3.3,3.3,0,0,0-2.667,3.2,3.269,3.269,0,0,0,3.333,3.26,3.408,3.408,0,0,0,2.667-1.3,3.408,3.408,0,0,0,2.667,1.3A3.269,3.269,0,0,0,354,1539.74Z" transform="translate(-340 -1528)"/>
</svg>
