<svg xmlns="http://www.w3.org/2000/svg" viewBox="0 0 535.8 195.2"><title>royal</title><path d="M488.8,195.2L488,195a7.5,7.5,0,0,1-5.4-6.8c0-.6,0-1.1,0-1.7,0-16.7,0-33.4,0-50.2a10.1,10.1,0,0,1,4.4-8.5,10.5,10.5,0,0,1,15,3.2l13.7,24.4,4.5,7.8,0.6,0.8a2,2,0,0,0,.5-1.7c0-3,0-6,0-9q0-10.5,0-21a11.1,11.1,0,0,1,.2-2.7,7.2,7.2,0,0,1,8.1-5.4,7.3,7.3,0,0,1,6.2,7.2c0,18,0,35.9,0,53.9a8.7,8.7,0,0,1-6.6,8.6,12.7,12.7,0,0,1-5.9.2,7.6,7.6,0,0,1-5.3-3.9l-19-34-0.8-1.3a4,4,0,0,0-.4.8,6.3,6.3,0,0,0,0,1q0,15.1,0,30.2a8.3,8.3,0,0,1-1.8,5.3,7.7,7.7,0,0,1-3.8,2.6l-0.7.3h-2.7Z" transform="translate(0 0)" fill="#c9c8c8"/><path d="M403.3,195.2l-0.6-.3a7.6,7.6,0,0,1-5.4-7.2c0-.3,0-0.7,0-1,0-16.8,0-33.7,0-50.5a10,10,0,0,1,4-8.1c5-4.1,10.9-2,13.7.8a10.1,10.1,0,0,1,1.6,2.2l11.1,19.7,6.8,12.2,0.8,1.2a3.4,3.4,0,0,0,.5-0.8,6.9,6.9,0,0,0,0-1.2q0-14.9,0-29.8a9.1,9.1,0,0,1,.8-4.2,7.3,7.3,0,0,1,13.8,2.8c0,0.5,0,1,0,1.5q0,25.9,0,51.7c0,0.6-.1,1.1,0,1.7,0.2,3.5-2.8,6.8-6,7.8a12.5,12.5,0,0,1-6.3.3,7.7,7.7,0,0,1-5.4-3.9l-19-34-0.6-1a0.7,0.7,0,0,0-.8.7c0,0.3,0,.7,0,1q0,15.3,0,30.5a7.7,7.7,0,0,1-2,5.4,7.6,7.6,0,0,1-3.3,2.1l-0.8.3h-2.9Z" transform="translate(0 0)" fill="#c9c8c8"/><path d="M0,144.7c0.2-.6.4-1.1,0.5-1.7a18.3,18.3,0,0,1,5-10.2,22.2,22.2,0,0,1,13-6.3A23.8,23.8,0,0,1,30,127.9a22.2,22.2,0,0,1,7.8,4.6,23,23,0,0,1,6.8,12.3c1.5,7.6-.6,14.2-5.6,20l-2.9,3a31.1,31.1,0,0,0,3,5.4l5.1,7.3c0.9,1.3,1.7,2.7,2.5,4a6.7,6.7,0,0,1-3.1,9.1,7.7,7.7,0,0,1-4.4.8,5.9,5.9,0,0,1-3-1.4,50.5,50.5,0,0,1-7.7-8.9c-1.7-2.3-3.2-4.7-4.9-7s-3.1-3.9-4.6-5.8l-1.1-1a1.1,1.1,0,0,0-1.2-.4,1.1,1.1,0,0,0-.5,1.2c0,0.3,0,.6,0,0.9,0,4.2,0,8.4-.1,12.6a23.1,23.1,0,0,1-.2,3.6c-0.5,2.8-1.9,5.1-4.6,6.1a7.1,7.1,0,0,1-7.7-1.7,5.6,5.6,0,0,1-1.8-3.2c-0.4-2.2-.7-4.4-0.9-6.6s-0.3-5.6-.5-8.4a12.5,12.5,0,0,0-.2-1.3V144.7Zm22.8-3a8.4,8.4,0,0,0-5.1,1.5,7,7,0,0,0-1.3,10.6,8.3,8.3,0,0,0,12.9-1,6.5,6.5,0,0,0,1-5,7.7,7.7,0,0,0-7.5-6.1" transform="translate(0 0)" fill="#c9c8c8"/><path d="M465.3,195.2l-0.7-.3a7.9,7.9,0,0,1-5.8-7.4c0-.4,0-0.8,0-1.1q0-26.8,0-53.5a11.8,11.8,0,0,1,.2-2.8,7.8,7.8,0,0,1,8.7-5.9,7.9,7.9,0,0,1,6.8,7.5q0,0.6,0,1.2,0,27,0,54a8.1,8.1,0,0,1-2.5,6.1,8.2,8.2,0,0,1-3.4,1.9l-0.7.3h-2.7Z" transform="translate(0 0)" fill="#c9c8c8"/><path d="M269.9,0l1.1,0.3a13.7,13.7,0,1,1-4.3,0l1.2-.3h2Z" transform="translate(0 0)" fill="#c9c8c8"/><path d="M115.7,160.5a34.3,34.3,0,1,1-34.3-34.3,34.3,34.3,0,0,1,34.3,34.3m-15.7.1A18.5,18.5,0,1,0,81.3,179,18.5,18.5,0,0,0,100,160.6" transform="translate(0 0)" fill="#c9c8c8"/><path d="M353.6,180.8v1.4c-0.2,2.2-.4,4.3-0.7,6.5a6,6,0,0,1-4.4,5,7.9,7.9,0,0,1-4.2.4,6.7,6.7,0,0,1-5.3-4.4,10.9,10.9,0,0,1-.7-3.6q-0.1-27,0-54a6.1,6.1,0,0,1,4.8-6.3,8.5,8.5,0,0,1,9.5,3.1c3.6,4.7,7.2,9.4,10.7,14.1l23.6,32.2,5.9,8.4a5,5,0,0,1,.9,4.1,8,8,0,0,1-8.5,6.7,4.6,4.6,0,0,1-3.5-1.5c-1.2-1.3-2.3-2.7-3.4-4.1l-5.2-7.2a1.6,1.6,0,0,0-1.5-.8H353.6m-0.1-14.9h7c0.7,0,.9-0.4.6-1.1l-0.3-.5-6.6-9-0.7-.7c-0.1,3.9-.2,7.5,0,11.2" transform="translate(0 0)" fill="#c9c8c8"/><path d="M190.5,181H172.7a1.8,1.8,0,0,0-1.7.9l-6.4,8.7a30.1,30.1,0,0,1-2.1,2.5,4.9,4.9,0,0,1-4.2,1.5,11,11,0,0,1-2.5-.5c-3.4-1.1-4.9-3.4-5.4-7.2a4.4,4.4,0,0,1,1-3.2c4.9-6.8,9.7-13.6,14.6-20.3,7.4-10,14.8-20,22.2-29.9,1.2-1.6,2.4-3.2,3.8-4.8a8.6,8.6,0,0,1,10-2.4,5.9,5.9,0,0,1,3.9,5.5c0,0.3,0,.5,0,0.8q0,26.8,0,53.5a8.7,8.7,0,0,1-1.9,5.9,6.9,6.9,0,0,1-6.7,2.4l-1.7-.5a6,6,0,0,1-4.3-4.8c-0.3-1.5-.4-3-0.6-4.5s-0.2-2.3-.3-3.6m0-25.9-0.3-.2-0.3.6-6.7,9.1-0.3.6a0.6,0.6,0,0,0,.5.9h7.2v-11Z" transform="translate(0 0)" fill="#c9c8c8"/><path d="M289.6,160.6c0,8.9,5.8,17.1,15.3,18.7a16.8,16.8,0,0,0,11-2c2.5-1.4,4.9-3,7.3-4.6a6.5,6.5,0,0,1,6.5-.6,5.5,5.5,0,0,1,2.9,2.6,18.5,18.5,0,0,1,1.2,2.9,5.4,5.4,0,0,1-.7,4.6,23.2,23.2,0,0,1-11.7,9.4,40.7,40.7,0,0,1-14.4,2.8,27.2,27.2,0,0,1-12.1-2.9,38.2,38.2,0,0,1-10-6.5,32.1,32.1,0,0,1-9.8-18A34.1,34.1,0,0,1,291.8,131a32.3,32.3,0,0,1,17-4.4,31.1,31.1,0,0,1,23.4,10.7c2.7,3.1,2.2,6.2.2,8.9a9.1,9.1,0,0,1-2.3,2.1,5.5,5.5,0,0,1-5.9.5c-1.5-.8-3-1.7-4.4-2.6l-3.7-2.4a14.9,14.9,0,0,0-8.3-2.1,17.9,17.9,0,0,0-11.3,4,17.7,17.7,0,0,0-6.9,13.6c0,0.2,0,.4,0,0.6v0.7" transform="translate(0 0)" fill="#c9c8c8"/><path d="M269,70.2a132.8,132.8,0,0,1,18.3,1.3,115.3,115.3,0,0,1,32.9,9.6A80.1,80.1,0,0,1,333.6,89a5.9,5.9,0,0,1,2.7,4.8,6,6,0,0,1-9.4,5.1c-2.4-1.6-4.7-3.2-7.2-4.6a90.5,90.5,0,0,0-22.4-8.7,117.2,117.2,0,0,0-33.9-3.4,109.1,109.1,0,0,0-39.2,8.9,67.7,67.7,0,0,0-13.1,7.4,6,6,0,0,1-8.1-8.7l1.1-.9a82.2,82.2,0,0,1,17.2-9.6,115.4,115.4,0,0,1,24.8-7.2,112.6,112.6,0,0,1,14.6-1.7l8.2-.3" transform="translate(0 0)" fill="#c9c8c8"/><path d="M168.2,133.1a7.6,7.6,0,0,1-1.8,4.9l-7.4,9.3-11.4,13.8a2.6,2.6,0,0,0-.7,1.8q0,12.1,0,24.2c0.7,4.4-5.5,9.2-10.7,6.5a7.1,7.1,0,0,1-3.6-5.3,10.9,10.9,0,0,1-.2-1.9c-0.2-7.6-.4-15.2-0.6-22.7a4.5,4.5,0,0,0-1-3c-3.6-4.4-7.5-8.5-11.3-12.7l-7.2-8a18.7,18.7,0,0,1-2.4-3.4c-2-3.8.6-9.3,4.8-10.1a8.2,8.2,0,0,1,5.4,1,14.5,14.5,0,0,1,4,3.3l10.8,11.8c1.1,1.2,2.2,2.2,3.4,3.3s1.4,0.8,2.2-.2l7.3-9a65.7,65.7,0,0,1,8.8-9,7.1,7.1,0,0,1,10.1,1.2,6.9,6.9,0,0,1,1.4,4.3" transform="translate(0 0)" fill="#c9c8c8"/><path d="M215.4,161.3c0-9.3,0-18.6,0-27.9a7,7,0,0,1,3.7-6.6,8,8,0,0,1,8.3,0,6.8,6.8,0,0,1,3.3,4.9,12.3,12.3,0,0,1,.2,2.2q0,22.2,0,44.4c0,1.3.2,1.6,1.6,1.6h14.5a6.3,6.3,0,0,1,4.8,2,7.5,7.5,0,0,1,1.1,9.2,7.2,7.2,0,0,1-5.4,3.1H219.2a4.2,4.2,0,0,1-3.8-4.2c0-.3,0-0.7,0-1V161.3Z" transform="translate(0 0)" fill="#c9c8c8"/><path d="M208.7,106.1a4.1,4.1,0,0,1,1.7-3.3,64.5,64.5,0,0,1,10.1-6.6A92.5,92.5,0,0,1,246,87.3a101.5,101.5,0,0,1,16.9-2.1c3.4-.1,6.8-0.2,10.2-0.1a106.4,106.4,0,0,1,35.6,7.2,70.2,70.2,0,0,1,18.1,10.2l1.1,1a4,4,0,0,1-4.8,6.3l-1-.7a66.8,66.8,0,0,0-20.7-10.9,96.6,96.6,0,0,0-19.4-4.3,104.9,104.9,0,0,0-15.8-.8,101.2,101.2,0,0,0-33.4,6.5,62.3,62.3,0,0,0-17,9.5,4.2,4.2,0,0,1-4,1,3.9,3.9,0,0,1-2.9-4" transform="translate(0 0)" fill="#c9c8c8"/><path d="M184.5,67.4a13.7,13.7,0,1,1,13.7,13.7,13.7,13.7,0,0,1-13.7-13.7" transform="translate(0 0)" fill="#c9c8c8"/><path d="M282.5,48.3a13.7,13.7,0,1,1-13.6-13.8,13.7,13.7,0,0,1,13.6,13.8" transform="translate(0 0)" fill="#c9c8c8"/><path d="M314.4,33.5a13.7,13.7,0,1,1,13.8-13.8,13.7,13.7,0,0,1-13.8,13.8" transform="translate(0 0)" fill="#c9c8c8"/><path d="M305.4,39.4a13.7,13.7,0,1,1-13.6,13.8,13.6,13.6,0,0,1,13.6-13.8" transform="translate(0 0)" fill="#c9c8c8"/><path d="M232.3,39.4a13.7,13.7,0,1,1-13.8,13.3,13.6,13.6,0,0,1,13.8-13.3" transform="translate(0 0)" fill="#c9c8c8"/><path d="M353.1,67.5a13.7,13.7,0,0,1-27.3-.2,13.7,13.7,0,1,1,27.3.2" transform="translate(0 0)" fill="#c9c8c8"/><path d="M343.3,37.7a13.7,13.7,0,1,1,13.6,13.7,13.7,13.7,0,0,1-13.6-13.7" transform="translate(0 0)" fill="#c9c8c8"/><path d="M209.4,19.8a13.7,13.7,0,1,1,27.4.2,13.7,13.7,0,0,1-27.4-.2" transform="translate(0 0)" fill="#c9c8c8"/><path d="M180.6,51.4a13.7,13.7,0,1,1,13.7-13.8,13.7,13.7,0,0,1-13.7,13.8" transform="translate(0 0)" fill="#c9c8c8"/></svg>