<svg xmlns="http://www.w3.org/2000/svg" viewBox="0 0 498 160.81"><title>visa</title><path d="M309.71,212.91c-0.28,22.4,20,34.9,35.22,42.34,15.67,7.63,20.94,12.52,20.88,19.34-0.12,10.44-12.5,15-24.09,15.22-20.22.31-32-5.46-41.32-9.82l-7.25,34.07c9.38,4.32,26.74,8.09,44.74,8.25,42.26,0,69.91-20.86,70.06-53.21,0.16-41-56.78-43.32-56.39-61.67,0.13-5.56,5.44-11.5,17.08-13,5.76-.76,21.65-1.35,39.67,7l7.07-33a107.85,107.85,0,0,0-37.69-6.93c-39.78,0-67.76,21.15-68,51.41m173.62-48.57a18.34,18.34,0,0,0-17.16,11.41L405.82,319.89H448l8.4-23.22h51.61l4.88,23.22h37.21L517.68,164.34H483.31m5.91,42,12.19,58.41H468l21.19-58.41m-230.71-42L225.22,319.89h40.24l33.27-155.55H258.51m-59.53,0L157.09,270.21l-16.94-90c-2-10-9.84-15.85-18.56-15.85H53.15l-1,4.52c14.06,3.05,30,8,39.7,13.23,5.92,3.22,7.61,6,9.56,13.67l32.1,124.13H176l65.2-155.55H199" transform="translate(-52.15 -161.5)" fill="#254aa5"/></svg>